<?xml version="1.0" encoding="UTF-8" standalone="no"?>
<!-- Created with Inkscape (http://www.inkscape.org/) -->

<svg
   xmlns:dc="http://purl.org/dc/elements/1.1/"
   xmlns:cc="http://creativecommons.org/ns#"
   xmlns:rdf="http://www.w3.org/1999/02/22-rdf-syntax-ns#"
   xmlns:svg="http://www.w3.org/2000/svg"
   xmlns="http://www.w3.org/2000/svg"
   xmlns:sodipodi="http://sodipodi.sourceforge.net/DTD/sodipodi-0.dtd"
   xmlns:inkscape="http://www.inkscape.org/namespaces/inkscape"
   width="297mm"
   height="210mm"
   viewBox="0 0 297 210"
   version="1.1"
   id="svg8"
   inkscape:version="0.92.0 r15299"
   sodipodi:docname="antNest4.svg">
  <defs
     id="defs2" />
  <sodipodi:namedview
     id="base"
     pagecolor="#ffffff"
     bordercolor="#666666"
     borderopacity="1.0"
     inkscape:pageopacity="0.0"
     inkscape:pageshadow="2"
     inkscape:zoom="0.98994949"
     inkscape:cx="391.61509"
     inkscape:cy="534.11601"
     inkscape:document-units="mm"
     inkscape:current-layer="layer1"
     showgrid="false"
     inkscape:window-width="2560"
     inkscape:window-height="1377"
     inkscape:window-x="1912"
     inkscape:window-y="-8"
     inkscape:window-maximized="1"
     showguides="true"
     inkscape:guide-bbox="true">
    <sodipodi:guide
       position="4.009043,196.4431"
       orientation="0,1"
       id="guide5291"
       inkscape:locked="false" />
    <sodipodi:guide
       position="19.510676,109.5805"
       orientation="0,1"
       id="guide5293"
       inkscape:locked="false" />
    <sodipodi:guide
       position="65.481036,15.234363"
       orientation="0,1"
       id="guide5295"
       inkscape:locked="false" />
    <sodipodi:guide
       position="13.096207,109.5805"
       orientation="1,0"
       id="guide5297"
       inkscape:locked="false" />
    <sodipodi:guide
       position="164.99666,101.33634"
       orientation="1,0"
       id="guide5299"
       inkscape:locked="false" />
    <sodipodi:guide
       position="283.30571,91.673446"
       orientation="1,0"
       id="guide5301"
       inkscape:locked="false" />
    <sodipodi:guide
       position="92.226191,115.28274"
       orientation="1,0"
       id="guide5362"
       inkscape:locked="false" />
    <sodipodi:guide
       position="236.23512,-21.544643"
       orientation="1,0"
       id="guide5364"
       inkscape:locked="false" />
  </sodipodi:namedview>
  <metadata
     id="metadata5">
    <rdf:RDF>
      <cc:Work
         rdf:about="">
        <dc:format>image/svg+xml</dc:format>
        <dc:type
           rdf:resource="http://purl.org/dc/dcmitype/StillImage" />
        <dc:title />
      </cc:Work>
    </rdf:RDF>
  </metadata>
  <g
     inkscape:label="l2"
     inkscape:groupmode="layer"
     id="layer1"
     transform="translate(0,-87)"
     style="display:inline">
    <path
       style="display:inline;fill:#000000;fill-opacity:0.04522615;stroke:#000000;stroke-width:1.13385832;stroke-miterlimit:4;stroke-dasharray:none;stroke-dashoffset:0;stroke-opacity:1"
       d="m 852.05664,70.125 c -8.73577,3.331706 -14.54077,12.204057 -15.47679,21.32985 -0.98724,7.297966 1.29789,14.84476 5.75959,20.64794 6.81444,11.82971 10.81362,25.26687 19.37345,36.07299 3.34004,4.40667 8.01346,8.08773 13.56797,9.07111 10.50595,2.48778 21.60349,0.12499 31.98672,3.33905 3.44761,1.11493 6.66367,3.51316 7.86871,7.04469 2.00718,5.209 2.64766,11.02056 1.53168,16.50999 -0.48728,2.09147 -1.19167,4.22159 -2.48542,5.94798 -3.64527,3.17211 -8.76904,3.46152 -13.37546,3.38352 -7.00591,-0.14784 -13.96889,-1.19027 -20.97808,-1.18688 -3.98178,0.11584 -8.23417,0.8586 -11.38174,3.46671 -2.30937,2.33708 -2.3479,5.93752 -2.0208,8.99709 0.85515,5.73473 4.09882,10.68785 6.58134,15.81541 10.97129,20.88128 25.12803,39.95694 35.29958,61.27511 5.08947,10.74065 8.87661,22.17302 10.35431,33.99682 1.96453,12.95089 3.17767,26.29591 8.62734,38.37506 3.72197,8.35777 10.20809,15.23619 17.74735,20.306 10.72167,7.35465 23.29551,11.37292 35.87558,14.1983 9.61937,2.27933 19.62773,4.44419 27.86343,10.21395 1.2435,1.01372 2.8902,1.86128 3.4785,3.42187 1.1103,4.04405 -1.8501,8.15678 -5.4876,9.70691 -2.4456,1.13178 -5.268,1.16773 -7.83776,0.50635 -45.24935,0.78233 -90.47721,-2.27043 -135.72517,-1.17429 -4.21392,0.17963 -8.95325,0.93351 -11.77876,4.40334 -4.87249,5.65901 -5.56024,13.97502 -3.1782,20.85506 2.73401,8.22243 3.6576,16.87851 5.19054,25.36937 1.6544,9.79252 3.53954,19.68446 7.58598,28.81038 2.13182,3.83877 5.95643,6.27081 9.41652,8.78655 10.4785,6.8227 22.93947,9.80763 35.23629,11.13276 13.69712,1.3131 27.36415,-0.91265 41.02121,-1.68463 1.12559,-0.0818 1.92663,1.07882 2.58685,1.86949 1.85719,2.62652 1.68762,5.99277 1.3744,9.0359 -0.20017,4.1639 0.70588,8.26724 0.91016,12.40625 0.043,3.37974 -1.26234,7.15248 -4.50586,8.69141 -4.07458,2.16164 -8.76937,2.6384 -13.28446,3.11076 -6.52072,0.50434 -13.08108,0.68464 -19.53984,1.78742 -13.4495,1.54306 -27.19453,1.9429 -40.17765,6.14088 -4.04576,1.67044 -5.79767,6.46013 -5.35108,10.57467 0.3569,5.36185 3.92358,9.68003 7.03346,13.78065 8.04811,10.89724 15.93925,22.26923 26.84264,30.54876 10.72028,7.94268 23.65749,12.00773 36.41921,15.32796 13.29337,3.53801 26.95741,6.15641 39.55381,11.86171 1.99963,1.08263 3.08269,3.35276 3,5.58215 0.18213,5.98333 -5.36012,11.38239 -11.32971,11.12287 -10.84823,0.68079 -21.60168,2.53737 -32.48307,2.75756 -20.37144,0.94729 -40.77289,0.39515 -61.13526,-0.50032 -3.82224,-0.18265 -7.65897,-0.28653 -11.47095,-0.54581 -16.09871,-3.94617 -28.91249,-19.02499 -29.70082,-35.65785 -0.19162,-8.70937 3.46277,-16.80411 5.79293,-25.02749 3.25243,-10.27915 5.99463,-21.12074 4.53593,-31.97194 -1.13643,-9.29425 -6.33549,-18.11003 -14.25686,-23.20243 -6.30225,-4.23468 -14.23048,-6.06569 -21.72998,-4.71886 -15.51138,1.50119 -30.89519,4.46659 -46.50446,4.83777 -11.90973,0.19285 -24.1705,-1.28936 -34.94589,-6.65539 -3.76056,-1.94607 -7.50595,-4.35722 -9.9182,-7.91054 -2.22891,-4.57149 1.09379,-10.74423 6.14763,-11.38563 8.5156,-2.26475 17.40873,-2.06 26.07903,-3.34847 16.39501,-1.86691 33.15801,-2.32285 48.9774,-7.46607 3.6284,-1.23435 7.39526,-2.41145 10.54317,-4.64855 5.12842,-4.43047 7.29308,-11.25063 8.25696,-17.75275 0.9014,-6.27108 1.27581,-12.63366 1.01946,-18.9648 -0.58039,-9.88893 -3.52526,-20.05649 -10.28856,-27.52737 -5.70987,-6.22459 -13.78383,-9.57812 -21.82938,-11.59033 -10.6288,-2.77364 -21.88304,-3.81359 -31.76416,-8.93493 -3.30347,-1.75242 -7.05251,-3.75343 -8.32289,-7.53651 -2.08673,-5.86525 0.67447,-12.61438 5.50837,-16.25546 4.05289,-3.20331 8.5059,-5.8897 13.09012,-8.25876 12.8098,-6.42828 27.22306,-9.09277 41.47612,-9.25648 15.002,-0.46931 30.27196,0.16864 44.9152,-3.70159 6.38482,-1.73156 12.85749,-4.08636 17.87303,-8.54257 5.66016,-5.61972 7.66255,-14.01091 7.04503,-21.77752 -0.57007,-8.50845 -3.03318,-16.72242 -4.65665,-25.05759 -1.82988,-7.87617 -4.9878,-15.87546 -11.13654,-21.38702 -4.89371,-4.19876 -11.53115,-5.44318 -17.80178,-5.59285 -7.86408,-0.20206 -15.69766,0.81679 -23.56211,0.73686 -19.97745,0.21058 -39.95031,-0.39991 -59.91725,-0.9668 -5.16635,-4.55901 -6.2853,-12.43464 -3.95581,-18.70526 2.04019,-6.12071 7.25596,-11.57647 13.85547,-12.42649 14.72847,-2.3629 29.80487,-0.49318 44.49292,-3.20223 3.32327,-0.67872 6.69067,-1.50522 9.70746,-3.07565 3.95693,-3.30495 5.30853,-8.63429 5.88547,-13.54559 0.7094,-6.79673 0.0779,-13.67544 1.11259,-20.44789 0.97379,-9.45271 2.38121,-19.18246 -0.0159,-28.54094 -1.07815,-3.07214 -4.54274,-4.24608 -7.45725,-4.81376 -4.93863,-0.79328 -9.87653,1.05947 -13.9529,3.74294 -5.87742,3.29778 -12.13525,5.84212 -18.28281,8.58116 -3.87019,1.659 -7.77405,3.23841 -11.70179,4.75598 -4.74043,-1.9563 -7.0063,-7.51861 -6.45673,-12.39287 0.4427,-4.31624 2.562,-12.45086 3.0621,-16.7601 1.71469,-9.05771 30.17374,-5.40048 37.68706,-9.16708 27.77601,-13.92475 -2.73804,-36.1369 -0.16476,-50.05065 2.57329,-13.913748 -17.35844,-15.262161 -22.67064,-21.424226 -5.91368,-7.155703 -15.29385,-10.760049 -24.43452,-10.861832 -9.97948,-0.494978 -19.93,0.853428 -29.90755,0.792582 -38.21608,1.349579 -76.43831,2.983638 -114.5455,6.254687 -9.42232,0.741812 -24.54195,1.345504 -33.91851,2.533592 -5.58033,3.347932 -11.56763,6.877532 -14.8174,12.749866 -2.44726,4.592631 -4.08919,12.381281 -4.58215,17.482561 -2.47571,5.46107 -7.4689,4.94409 -12.9197,2.39729 -5.28266,-2.26921 -3.68719,-6.68447 -4.93912,-12.06359 -1.18258,-4.75066 -1.28866,-9.978707 -4.10503,-14.157055 -2.34113,-3.091452 -6.22239,-4.465819 -9.86762,-5.307789 -5.12427,-1.028607 -10.40107,-0.07489 -15.27356,1.618595 -6.30749,2.066324 -12.56261,4.289586 -18.88765,6.303301 -15.18924,5.053092 -30.75792,9.939408 -46.90105,10.267868 -14.07542,0.27133 -27.98944,-3.13193 -40.98135,-8.367623 -16.18573,-6.128077 -31.8345,-13.9934 -48.8353,-17.712766 -2.70313,-0.297781 -4.97723,1.687248 -6.7196,3.507061 -4.04517,4.579429 -4.74977,11.538687 -2.24976,17.032827 1.24581,3.613371 1.53604,7.459781 2.33698,11.181071 3.39268,18.55244 6.87682,37.28528 6.36928,56.22742 -0.32896,7.14618 -0.52294,14.47464 -2.97233,21.27451 -3.7637,9.01424 -10.41215,16.77221 -12.52238,26.47047 -1.02053,3.68291 -0.29659,7.71356 1.76007,10.91097 3.95252,7.55862 11.0282,12.73678 17.93331,17.41238 12.02134,8.25326 25.92426,13.63787 40.29571,16.00287 14.42322,2.51096 29.15693,2.26843 43.70236,1.13762 16.91689,-0.77751 34.07826,-1.15915 50.7349,2.39287 1.59635,0.44196 3.35018,0.61549 4.78002,1.46858 2.64862,2.11406 2.59619,6.16683 1.03907,8.92412 -1.64379,3.33446 -5.59353,5.45275 -9.27199,4.5998 -5.12476,-0.0536 -10.2423,0.3491 -15.36802,0.29949 -12.3761,0.20234 -25.06947,0.45138 -36.83269,4.7497 -5.29912,1.96362 -9.69181,5.65106 -14.74388,8.10954 -13.83633,7.33539 -28.97673,12.39185 -41.5892,21.89646 -4.87725,3.52279 -9.22254,8.18055 -11.06747,14.021 -3.61625,9.72485 -2.67268,20.57198 0.50146,30.27923 4.60637,15.00157 13.84003,28.9141 27.08071,37.59611 8.68365,5.77519 19.2076,9.47175 29.73314,8.34379 9.57359,-1.05637 18.31028,-5.50758 26.54091,-10.24802 12.47707,-6.7928 24.72642,-14.2956 38.28235,-18.78765 5.26475,-1.68235 10.7402,-3.00382 16.28611,-3.06589 4.59698,0.66642 7.6852,5.2408 7.96908,9.65672 0.33578,4.0467 -0.4676,8.07463 -0.45969,12.12112 -0.3396,6.23581 -0.91866,12.91169 -4.70622,18.12669 -4.0415,5.2883 -10.65818,7.81179 -17.06959,8.68615 -19.68902,3.45848 -39.27213,8.19482 -59.32134,8.9756 -14.52471,0.3029 -29.04429,-2.63536 -42.47493,-8.11836 -9.0522,-2.98021 -18.61483,-5.70601 -28.22929,-4.32426 -3.65372,0.47149 -7.75279,1.68202 -9.62845,5.15384 -3.21237,4.9168 -2.9859,11.18726 -1.68562,16.69078 2.52501,13.07954 5.13227,26.474 11.80026,38.18252 6.20029,11.09902 16.42604,19.47614 27.71686,25.0469 11.50737,5.7159 24.29655,8.58453 37.09479,9.15972 2.383,0.58826 4.05034,2.63799 5.44922,4.52149 3.71929,5.75304 3.61127,13.32156 1.09395,19.52066 -1.99724,4.82809 -5.88047,8.77183 -10.61721,10.95347 -4.7438,2.40448 -10.10495,3.10375 -15.34089,3.49647 -14.89598,3.14013 -29.71632,8.3432 -41.87989,17.7303 -4.62999,3.85536 -9.41866,7.86186 -12.32172,13.2426 -2.27463,6.1895 0.37309,13.33351 5.15754,17.58117 3.32598,2.9639 6.61608,5.96623 9.77939,9.10311 11.33162,10.68377 23.76457,20.6817 38.33781,26.548 12.51437,4.94285 26.22893,6.10381 39.55504,4.99524 11.46367,-0.68581 22.99861,-1.49869 34.4511,-0.19134 12.05652,1.16404 24.18695,3.94005 34.80864,9.93712 5.72184,3.97913 6.13785,13.2482 1.14577,17.98126 -4.50838,4.71877 -11.55631,6.14676 -17.82249,5.06976 -12.0027,-1.66028 -23.41003,-6.35586 -35.52087,-7.37017 -7.50352,-0.68497 -14.82738,1.48314 -22.19755,2.48849 -22.93271,3.69352 -45.98269,7.92811 -69.30661,7.43496 -7.13401,-0.20784 -14.30916,-0.63757 -21.30669,-2.10496 -6.66483,-1.82118 -11.68983,-6.96485 -16.04848,-12.05638 -2.94828,-3.40966 -5.6469,-7.08911 -9.04255,-10.07303 -4.59585,-3.30212 -10.67886,-3.20622 -15.98918,-2.06976 -6.53543,1.4428 -12.80959,3.9296 -19.43829,4.98007 -23.12422,4.51081 -46.85289,3.9242 -70.24731,2.38394 -7.85639,-0.55584 -15.76051,-0.85636 -23.53683,-2.1648 -3.5022,-0.76809 -6.82693,-3.15979 -7.84885,-6.72152 -2.74914,-7.38384 -2.36714,-15.69269 0.13304,-23.08569 3.44039,-8.09146 11.58738,-13.48454 20.08589,-14.95208 5.54444,-0.98319 11.14474,-1.64572 16.74508,-2.21338 22.34484,-1.91104 44.95805,0.70527 67.15872,-3.10524 6.51677,-1.22604 13.38692,-2.27179 18.96078,-6.12527 7.17366,-5.27552 10.92504,-14.15046 11.57024,-22.85168 0.59809,-7.93759 -0.47824,-15.97468 -2.83594,-23.5625 -2.7316,-8.05374 -7.80703,-15.73555 -15.47502,-19.80247 -8.79882,-4.79383 -18.98787,-5.71879 -28.79931,-6.48081 -10.41742,-0.78966 -20.89132,-1.52675 -31.09492,-3.90105 -26.89569,-5.69538 -52.27157,-17.84081 -74.12684,-34.44457 -0.61461,-2.64294 2.29107,-4.76985 4.72765,-4.48302 3.6236,0.0703 7.17352,0.95055 10.79483,1.07372 28.86636,2.78975 57.6,8.09111 86.69767,7.58057 9.86965,-0.18909 20.10309,-0.60847 29.19803,-4.86489 10.88305,-4.91957 19.43609,-15.4348 20.79093,-27.45417 0.82162,-7.14869 -0.75215,-14.28453 -2.32551,-21.21978 -3.15734,-12.48294 -9.039,-24.12185 -16.11798,-34.81993 -6.95945,-7.10512 -18.49184,-8.4917 -27.35471,-4.37226 -4.71429,2.2526 -8.59495,5.90486 -13.33702,8.11571 -10.19878,5.54918 -21.72509,9.0623 -33.41328,8.72669 -14.46223,0.26411 -28.94167,-0.066 -43.35529,-1.32537 -17.29662,-1.37937 -34.54096,-3.36348 -51.76198,-5.45814 -9.22401,-1.71473 -18.59998,-4.97379 -25.41395,-11.68197 -6.68332,-6.61088 -8.80904,-17.15281 -5.68358,-25.95437 2.27456,-7.03095 7.70257,-13.18717 14.82656,-15.50326 10.68883,-4.14308 22.30886,-4.11584 33.57561,-4.99472 6.85505,-0.60756 13.74779,-1.91089 20.63639,-0.93122 7.95346,0.88336 15.81745,3.86905 21.78203,9.30804 6.35563,5.32597 13.89664,9.86962 22.33651,10.55075 5.75372,0.54236 11.40823,-1.26983 16.63192,-3.50499 11.42975,-5.01254 20.5941,-14.02729 32.20124,-18.69237 4.47191,-1.90175 9.29329,-2.7281 14.1113,-3.12085 9.15729,-0.81747 18.62621,-0.47435 27.3596,-3.78049 10.34552,-3.50868 20.87639,-6.52963 31.00359,-10.64141 6.0716,-3.46112 9.79448,-9.73301 12.49107,-15.97282 4.04631,-7.94338 8.52228,-16.04117 9.33469,-25.08727 0.15443,-5.10191 -3.64281,-9.42128 -7.92857,-11.70235 -4.04657,-2.19326 -8.84353,-2.26864 -13.28822,-1.57788 -20.61246,0.96761 -41.24583,1.78307 -61.88508,1.45707 -17.85742,-0.028 -35.70984,-0.50421 -53.56023,-0.96199 -2.97046,-3.04805 -2.04437,-8.33558 0.95564,-11.02501 2.0686,-1.8248 4.59797,-3.16241 6.19667,-5.47826 14.037,-15.34155 27.46232,-31.63513 36.56398,-50.46749 4.57338,-9.37376 7.91639,-19.39734 9.32133,-29.75204 3.45191,-18.96066 8.05813,-37.69351 13.17136,-56.26655 1.7179,-10.58857 -1.52726,-22.251928 -9.623,-29.538305 -7.75353,-6.970701 -18.03708,-10.434233 -28.25347,-11.638476 -9.0679,-1.27487 -18.18711,-2.161007 -27.24009,-3.545541 -24.66065,-3.206614 -49.81672,-4.748551 -74.49944,-0.900194 -15.2654,2.319851 -30.08262,7.23294 -43.90275,14.085753 -16.93646,7.94445 -33.449399,17.267863 -51.697777,21.935223 -8.689329,2.2634 -17.690917,2.81557 -26.62204,3.24742 -5.549991,0.50493 -11.504369,1.9072 -15.455741,6.11399 -4.906543,5.75931 -4.765954,15.4787 0.983453,20.62125 3.788279,3.09191 8.844622,3.64454 13.506161,4.37898 7.4991,0.89509 15.133236,0.97718 22.471898,2.93223 22.14898,4.52371 42.430086,15.51149 64.734056,19.433 10.89496,1.82664 21.97415,1.88296 32.98349,2.34183 8.51927,0.25156 17.03127,0.68381 25.53372,1.26868 24.48559,1.39428 49.09899,3.5774 72.88231,9.85702 3.91793,1.65658 5.40028,6.56959 4.33751,10.45541 -0.81055,3.91249 -4.04326,6.62032 -7.15333,8.80307 -13.29044,10.6637 -24.59726,23.83317 -39.2778,32.71986 -4.63624,2.68907 -9.64847,5.62334 -15.20561,5.29407 -6.6974,-0.56211 -12.24212,-6.08897 -13.86999,-12.45048 -1.19609,-4.70536 -2.81785,-9.30963 -4.84445,-13.72232 -2.35221,-4.9888 -5.98545,-9.63057 -11.10774,-11.96057 -6.29831,-3.11931 -13.61044,-3.32029 -20.42278,-2.12802 -8.4129,1.31504 -16.82007,3.85608 -25.41754,2.85989 -7.05715,-0.49535 -13.86172,-2.58606 -20.78341,-3.87277 -6.608201,-0.64856 -13.880673,1.48737 -18.088753,6.85377 -3.190747,4.52461 -3.860761,10.17498 -4.997006,15.45151 -1.318852,7.21908 -2.474562,14.73838 -6.504536,21.03893 -4.000366,7.29504 -7.078601,15.43698 -6.89308,23.86859 0.202336,5.03422 2.141348,9.96804 5.511458,13.7258 5.286168,6.34612 12.837284,10.74862 16.775651,18.20389 3.071961,6.22865 2.770462,13.41473 2.120204,20.14289 -1.575054,14.17311 -6.595772,27.78346 -7.295263,42.08115 -1.568618,17.34881 1.315376,34.67068 4.293442,51.71043 3.015187,18.10145 5.437408,36.55245 12.430923,53.6579 1.88893,4.46857 3.7417,9.07383 6.78326,12.89873 8.00022,8.8241 18.65763,14.55708 29.22781,19.72048 14.73997,7.30798 29.08556,15.37318 43.63103,23.05404 -1.83621,3.70158 -6.16892,5.22341 -10.05664,5.43555 -12.09195,1.57513 -24.10064,3.72013 -36.10864,5.82498 -15.80591,3.02753 -31.6721,7.40183 -45.496634,15.88391 -5.079264,3.21364 -9.038395,8.18591 -10.790052,13.95812 -2.713036,8.21189 -1.492125,17.99079 4.354677,24.58656 6.247241,7.3447 15.560589,11.64123 25.063239,12.65054 7.51396,0.89147 15.06596,-0.15457 22.59895,-0.0632 14.61741,-0.17962 29.231,-0.73082 43.85112,-0.62606 1.48221,4.73853 -0.73678,9.68334 -3.59086,13.42399 -2.77719,3.82589 -5.72509,7.96996 -5.9039,12.87675 -0.67642,5.51695 0.51474,11.13109 2.73694,16.18169 -3.89116,2.37541 -8.636,1.58254 -12.90429,1.00781 -4.88089,-0.49029 -9.75531,0.38855 -14.63573,0.44896 -15.72489,1.00771 -31.63102,4.51702 -45.289226,12.64245 -5.432957,3.25035 -11.199918,6.85654 -14.081277,12.73876 -4.943327,9.72879 -3.40152,22.63663 4.433964,30.41983 5.43711,4.99772 12.857459,6.7786 19.889189,8.22655 11.0503,2.00872 22.31494,2.44795 33.37918,4.3656 53.82569,7.01415 108.21791,6.81753 162.39567,6.89477 48.08592,-0.0145 96.2093,0.29754 144.21399,3.36458 28.62901,1.07957 57.24854,-0.86526 85.87199,-1.11839 27.2746,1.15876 54.57473,3.70422 81.88696,2.10119 41.50173,-1.06291 83.00955,-2.22374 124.4634,-4.53414 18.75608,-1.68731 37.71712,-4.33589 55.24265,-11.56165 2.8017,-0.95696 5.6012,-2.66255 6.77938,-5.51062 4.10569,-7.5231 2.50472,-17.27117 -2.74869,-23.82403 -2.10516,-2.67283 -4.08399,-5.4404 -5.80718,-8.3755 -5.80123,-9.03825 -12.53516,-17.93936 -21.89066,-23.54271 -5.43868,-3.23841 -11.98494,-4.64279 -18.25415,-3.59373 -8.92975,1.03722 -16.973,5.35022 -24.90623,9.2785 -20.48368,9.70652 -42.21164,16.81445 -64.49011,21.00536 -23.54549,4.32145 -47.88162,5.18873 -71.52007,1.07057 -10.0919,-1.95243 -20.17063,-6.11526 -27.25482,-13.79505 -7.42755,-7.92483 -11.66077,-19.26599 -9.65176,-30.11025 1.57722,-8.36048 6.94114,-15.33479 12.58864,-21.43544 5.03841,-5.56059 10.73802,-10.77239 14.11383,-17.58496 2.03017,-4.69588 2.08524,-10.70102 -1.30162,-14.79184 -3.4373,-3.80219 -8.73192,-4.87032 -13.5637,-5.69038 -7.1195,-1.03784 -14.4039,-1.12653 -21.3647,-3.10163 -23.25811,-4.47437 -46.0984,-12.36631 -66.11611,-25.19774 -4.28032,-7.34688 -4.70104,-16.19763 -3.88121,-24.46695 0.40587,-3.33158 0.0441,-7.18576 2.51293,-9.83111 4.10988,-4.77131 10.90529,-6.40215 16.96407,-5.46294 3.91002,0.52204 7.84956,0.67224 11.78639,0.80952 23.7449,1.20628 47.48853,4.78793 71.29744,2.89168 4.25938,-0.41889 8.64621,-0.54215 12.70334,-2.01786 5.71928,-3.24576 8.41695,-10.23915 7.87084,-16.59475 -0.3818,-5.21652 -3.2523,-9.75368 -5.07156,-14.54103 -3.6094,-8.17611 -8.73113,-16.10611 -16.38196,-21.01443 -5.61382,-3.3198 -12.37713,-4.64723 -17.24763,-9.20252 -4.23854,-3.57129 -7.10376,-8.98352 -6.84269,-14.60807 -0.32961,-12.54436 3.60444,-24.62003 6.72455,-36.61872 0.97424,-3.42771 1.50002,-6.98988 2.6983,-10.34672 3.99426,-9.34973 12.81267,-15.99229 22.39064,-18.86424 6.44761,-1.8921 13.14562,-2.70033 19.66167,-4.31075 12.1733,-2.559 24.61957,-5.56475 35.14181,-12.4945 12.25265,-8.08629 21.98287,-20.51948 25.38774,-34.93662 1.12204,-5.06526 1.70509,-10.44791 0.39259,-15.52744 -2.17372,-5.33127 -7.83616,-8.36634 -13.31854,-9.1067 -5.78357,-0.79272 -11.63749,-0.22657 -17.44782,-0.5971 -25.48138,-0.58965 -51.16093,-0.48923 -76.31252,-5.16133 -4.10395,-0.80355 -8.33717,-1.58688 -12.03313,-3.62175 -4.50759,-3.20243 -6.53045,-8.86288 -6.9318,-14.19451 -0.36555,-5.31585 1.25844,-10.49163 3.11985,-15.39864 3.85842,-11.51814 7.32708,-23.51031 6.74278,-35.78294 -0.34868,-5.73101 -1.37024,-11.84552 -5.25294,-16.3271 -5.33119,-6.32598 -13.55361,-9.56594 -21.65667,-10.22696 -5.34291,-0.50873 -10.71306,-0.67334 -16.04946,-1.26568 -30.71273,-2.65344 -61.59621,-5.80468 -92.4353,-3.4006 -3.97963,0.30031 -7.95825,0.87399 -11.94952,0.8598 -4.06701,-0.46221 -6.99885,-4.38293 -7.19771,-8.32467 -0.67132,-5.44247 3.04418,-11.37299 8.62524,-12.2965 7.74721,-2.15509 15.85684,-2.1516 23.83129,-1.98106 5.73362,0.0537 11.46317,-0.26611 17.17111,-0.76481 28.77401,-0.92107 65.05577,7.2311 93.80851,5.76303 2.6744,-0.057 5.34486,0.15074 8.00945,0.35448 4.87375,-2.21845 3.34234,-19.5118 8.45786,-21.36021 4.96147,-1.0601 10.49862,-1.48999 15.08399,1.0957 0.62962,0.57717 2.19166,0.97384 1.64258,2.10156 -1.26156,2.69038 -1.31276,15.95291 1.8351,16.46345 2.51561,0.21701 4.80401,-1.13585 7.25428,-1.46443 8.24234,-1.98034 14.12585,-10.15513 22.54373,-11.12274 6.94922,-0.63819 13.89922,0.29694 20.85146,0.32999 33.39732,0.83736 66.75563,3.67232 99.78217,8.72733 7.96525,2.01521 27.09231,0.11537 32.20484,6.78639 3.92871,5.00334 1.00434,20.79445 -1.72511,26.49812 -2.60118,6.15985 -15.5301,7.72446 -21.45358,10.58688 -8.8183,5.41666 -18.28288,9.91523 -26.27244,16.57914 -4.32697,3.70221 -8.36775,8.14785 -10.19156,13.64234 -3.12751,10.06814 1.46276,22.21714 10.96715,27.07705 5.08544,2.49774 10.8624,1.31778 16.29016,1.38973 3.41516,0.0837 7.14447,0.41276 9.91533,2.60146 1.86003,2.31414 1.57281,5.5404 1.12796,8.28689 -1.4932,6.79917 -7.00748,12.02785 -13.15914,14.8571 -6.24005,3.00441 -13.40732,4.55272 -18.55495,9.45824 -4.19304,4.19688 -5.28019,10.43802 -5.19543,16.14989 0.11619,9.14367 2.63482,18.02339 3.45871,27.0975 1.03902,6.8567 3.65497,13.94222 9.19791,18.42025 5.27511,3.86731 12.62102,3.6892 17.44288,8.31706 3.3969,3.34322 3.36693,8.8405 1.43072,12.92924 -2.80792,6.52791 -9.00282,10.87954 -15.43425,13.41249 -14.35029,6.06426 -30.10261,6.97619 -45.07264,10.77156 -8.1686,2.13906 -16.35406,5.16506 -22.94523,10.58548 -6.03598,5.62652 -8.43114,14.2387 -8.02016,22.29955 0.31477,7.10108 0.73666,14.19764 0.85261,21.3063 0.31313,9.5532 0.35235,19.12716 0.98733,28.66242 1.18311,7.15955 5.90286,14.0392 12.92115,16.49496 9.01474,3.80512 19.25013,4.47184 27.6086,9.85246 3.94219,2.3831 7.10857,6.75259 6.63672,11.53711 -0.32015,5.86829 -4.45791,11.13252 -9.84069,13.3139 -10.60241,5.39661 -22.2202,8.56342 -32.55573,14.51977 -8.11157,4.20674 -16.20665,9.33278 -21.31397,17.1177 -3.3936,5.60423 -3.20478,12.51833 -2.09673,18.75482 1.67696,9.45252 5.60727,18.57756 5.31486,28.31995 0.0601,6.44343 -0.26596,13.27833 2.81257,19.16331 2.61656,4.49413 8.047,6.38595 13.01172,6.50977 6.66339,0.17338 13.29586,-0.72631 19.95256,-0.88677 9.85084,-0.25699 19.75495,-1.24631 29.23131,-4.0661 7.99498,-2.2833 15.59761,-5.81517 22.63504,-10.22771 6.24564,-3.50715 12.80819,-6.46459 19.55971,-8.8553 9.7621,-3.42224 20.30538,-5.15862 30.60809,-3.57097 15.6812,2.20508 30.13115,10.42645 41.0677,21.73097 6.71876,6.82459 12.10306,14.81848 16.87449,23.08648 9.51926,15.39637 18.08509,31.56308 30.05694,45.26533 4.43411,5.00144 9.28684,9.73807 14.93799,13.35024 8.48782,4.82914 18.49603,5.75327 28.08042,5.71254 12.51535,0.01 25.03085,-0.23788 37.54576,-0.0124 25.60573,0.24767 51.41021,0.73402 76.74342,-3.62576 3.2679,-0.6046 6.6157,-1.10975 9.7098,-2.34312 5.5418,-2.92324 8.9681,-8.81877 10.2522,-14.80141 1.8216,-8.77025 -1.034,-18.73502 -8.1965,-24.37677 -5.5432,-4.30683 -12.8341,-5.79496 -17.9808,-10.68397 -2.1699,-2.99915 -1.0291,-7.12171 1.0423,-9.84975 5.4691,-8.47751 13.2539,-15.28558 17.964,-24.28222 8.1572,-13.35872 14.2248,-28.06655 17.1416,-43.47451 2.6953,-13.84099 3.0948,-28.19479 0.6013,-42.09484 -1.8071,-6.46524 -7.6294,-11.05646 -13.8086,-13.09485 -7.6737,-2.54431 -15.8846,-1.21686 -23.6474,0.16165 -7.55293,1.29136 -15.44668,2.83521 -23.00219,0.73413 -6.88326,-2.44456 -7.89188,-11.66882 -4.5945,-17.34652 2.77907,-5.32014 8.44438,-8.54264 14.21959,-9.55574 3.33356,-0.51731 6.68678,-0.90726 10.01547,-1.47291 9.08853,-1.52374 18.30743,-2.36636 27.25813,-4.63136 4.6773,-1.21402 9.3192,-2.78007 13.5361,-5.15967 2.5943,-2.13711 3.6216,-5.53138 4.4857,-8.65127 1.6304,-7.29718 0.1507,-14.76367 -0.052,-22.12529 -2.0947,-35.9855 -2.5297,-72.20645 -8.6544,-107.81852 -1.6095,-9.24225 -3.4877,-18.46379 -6.1583,-27.4601 -2.6057,-6.3975 -7.2496,-11.76313 -12.4055,-16.2619 -9.9208,-8.42075 -22.72479,-12.95432 -35.60446,-13.99031 -8.1651,-0.99209 -16.2609,-2.48139 -24.35256,-3.94049 -6.98169,-1.34306 -13.91273,-3.02409 -20.63037,-5.36913 -3.2233,-3.66216 -2.22786,-9.6319 1.15596,-12.8467 2.00296,-2.0796 5.06258,-3.25086 7.92998,-2.61814 22.0787,-4.79348 45.09245,-3.20276 66.97855,-9.10351 4.615,-1.43508 9.843,-2.37055 13.1447,-6.23921 6.6595,-7.20481 8.601,-17.86839 6.4845,-27.26814 -1.0287,-4.52018 -3.197,-8.67931 -4.2155,-13.20135 -2.2967,-8.09217 -5.6431,-16.30218 -11.9781,-22.09209 -2.4752,-2.22257 -5.6583,-3.57391 -8.9685,-3.85374 -9.99059,-1.6464 -19.96435,0.89611 -29.81531,2.30847 -7.3673,1.01813 -14.82548,1.93412 -22.27097,1.42223 -4.64972,-0.546 -9.57396,-2.08759 -12.64987,-5.81715 -3.22464,-4.52217 -3.67199,-10.51621 -2.51033,-15.81358 1.34983,-5.81635 5.53782,-11.36003 11.52665,-12.8525 5.87254,-1.55953 12.00715,-0.823 17.98937,-0.5439 7.51169,0.53073 15.41523,1.11009 22.5128,-1.93043 8.22826,-3.42395 15.37636,-8.85606 22.75246,-13.75649 8.5804,-5.88499 17.6822,-11.55273 28.0118,-13.67853 14.2365,-3.14642 29.1543,-1.65558 43.2189,-5.75688 3.7761,-1.19401 7.7163,-2.61885 10.5517,-5.4961 5.4175,-6.14511 5.2953,-16.1344 0.3061,-22.491323 -2.3287,-2.985341 -5.8535,-5.003525 -9.6379,-5.349242 -21.9974,-4.047907 -44.1629,-7.114811 -66.3544,-9.873982 -10.9256,-1.228578 -21.93504,-1.511232 -32.92151,-1.556182 -18.08174,-0.02174 -36.13702,1.181888 -54.15815,2.525178 C 906.0013,80.877674 879.73787,69.748274 852.05664,70.125 Z"
       transform="matrix(0.26458333,0,0,0.26458333,0,87)"
       id="rect5106"
       inkscape:connector-curvature="0"
       sodipodi:nodetypes="ccccccccccccccccccccccccccccccccccccccccccccccccccccccccccccccccccccccccccccccccccccccccccszcccccccccccccccccccccccccccccccccccccccccccccccccccccccccccccccccccccccccccccccccccccccccccccccccccccccccccccccccccccccccccccccccccccccccccccccccccccccccccccccccccccccccccccccccccccccccccccczzzccccccccccccccccccccccccccccccccccccccccccccccccccccccccccccccccccccccccccccccccccccccccsccccccccccccccccccccccccccccccccccccccccccccccccccccccccc" />
  </g>
  <g
     inkscape:groupmode="layer"
     id="layer3"
     inkscape:label="l2+l3"
     style="display:inline">
    <circle
       transform="translate(0,-87.000001)"
       style="fill:none;fill-opacity:1;stroke:#000000;stroke-width:0.30000001;stroke-miterlimit:4;stroke-dasharray:none;stroke-dashoffset:0;stroke-opacity:1"
       id="path5287"
       cx="164.60863"
       cy="142.78572"
       r="11.90625" />
  </g>
  <g
     inkscape:groupmode="layer"
     id="layer2"
     inkscape:label="l1+l2+l3"
     style="display:inline">
    <ellipse
       transform="translate(0,-87.000001)"
       style="display:inline;fill:none;fill-opacity:1;stroke:#000000;stroke-width:0.30000001;stroke-miterlimit:4;stroke-dasharray:none;stroke-dashoffset:0;stroke-opacity:1"
       id="path5303-0"
       cx="13.096207"
       cy="187.41949"
       rx="2.8500001"
       ry="2.8499999" />
    <ellipse
       transform="translate(0,-87.000001)"
       style="display:inline;fill:none;fill-opacity:1;stroke:#000000;stroke-width:0.30000001;stroke-miterlimit:4;stroke-dasharray:none;stroke-dashoffset:0;stroke-opacity:1"
       id="path5303-01"
       cx="165.03894"
       cy="187.28586"
       rx="2.8500001"
       ry="2.8499999" />
    <ellipse
       transform="translate(0,-87.000001)"
       style="display:inline;fill:none;fill-opacity:1;stroke:#000000;stroke-width:0.30000001;stroke-miterlimit:4;stroke-dasharray:none;stroke-dashoffset:0;stroke-opacity:1"
       id="path5303-6"
       cx="283.43933"
       cy="187.55313"
       rx="2.8500001"
       ry="2.8499999" />
    <ellipse
       transform="translate(0,-87.000001)"
       style="display:inline;fill:none;fill-opacity:1;stroke:#000000;stroke-width:0.30000001;stroke-miterlimit:4;stroke-dasharray:none;stroke-dashoffset:0;stroke-opacity:1"
       id="path5303-43"
       cx="236.23512"
       cy="187.3869"
       rx="2.8500001"
       ry="2.8499999" />
    <ellipse
       transform="translate(0,-87.000001)"
       style="display:inline;fill:none;fill-opacity:1;stroke:#000000;stroke-width:0.30000001;stroke-miterlimit:4;stroke-dasharray:none;stroke-dashoffset:0;stroke-opacity:1"
       id="path5303-2"
       cx="92.226189"
       cy="187.76488"
       rx="2.8500001"
       ry="2.8499999" />
    <ellipse
       transform="translate(0,-87.000001)"
       style="display:inline;fill:none;fill-opacity:1;stroke:#000000;stroke-width:0.30000001;stroke-miterlimit:4;stroke-dasharray:none;stroke-dashoffset:0;stroke-opacity:1"
       id="path5303-04"
       cx="13.229841"
       cy="281.89926"
       rx="2.8500001"
       ry="2.8499999" />
    <ellipse
       transform="translate(0,-87.000001)"
       style="display:inline;fill:none;fill-opacity:1;stroke:#000000;stroke-width:0.30000001;stroke-miterlimit:4;stroke-dasharray:none;stroke-dashoffset:0;stroke-opacity:1"
       id="path5303-9"
       cx="283.30569"
       cy="281.76562"
       rx="2.8500001"
       ry="2.8499999" />
    <ellipse
       transform="translate(0,-87.000001)"
       style="display:inline;fill:none;fill-opacity:1;stroke:#000000;stroke-width:0.30000001;stroke-miterlimit:4;stroke-dasharray:none;stroke-dashoffset:0;stroke-opacity:1"
       id="path5303-4"
       cx="165.17256"
       cy="281.76562"
       rx="2.8500001"
       ry="2.8499999" />
    <ellipse
       transform="translate(0,-87.000001)"
       style="display:inline;fill:none;fill-opacity:1;stroke:#000000;stroke-width:0.30000001;stroke-miterlimit:4;stroke-dasharray:none;stroke-dashoffset:0;stroke-opacity:1"
       id="path5303-8"
       cx="283.43933"
       cy="100.69053"
       rx="2.8500001"
       ry="2.8499999" />
    <ellipse
       transform="translate(0,-87.000001)"
       style="display:inline;fill:none;fill-opacity:1;stroke:#000000;stroke-width:0.30000001;stroke-miterlimit:4;stroke-dasharray:none;stroke-dashoffset:0;stroke-opacity:1"
       id="path5303-45"
       cx="164.9053"
       cy="100.5569"
       rx="2.8500001"
       ry="2.8499999" />
    <ellipse
       transform="translate(0,-87.000001)"
       style="display:inline;fill:none;fill-opacity:1;stroke:#000000;stroke-width:0.30000001;stroke-miterlimit:4;stroke-dasharray:none;stroke-dashoffset:0;stroke-opacity:1"
       id="path5303"
       cx="13.173648"
       cy="100.7157"
       rx="2.8500001"
       ry="2.8499999" />
    <rect
       transform="translate(0,-87.000001)"
       style="display:inline;fill:none;fill-opacity:1;stroke:#000000;stroke-width:0.30000001;stroke-miterlimit:4;stroke-dasharray:none;stroke-dashoffset:0;stroke-opacity:1"
       id="rect5104"
       width="283.06427"
       height="196.64069"
       x="7.3826156"
       y="93.422783"
       ry="6.4255953"
       rx="6.4255953" />
  </g>
</svg>
