<?xml version="1.0" encoding="UTF-8" standalone="no"?>
<!-- Created with Inkscape (http://www.inkscape.org/) -->

<svg
   xmlns:dc="http://purl.org/dc/elements/1.1/"
   xmlns:cc="http://creativecommons.org/ns#"
   xmlns:rdf="http://www.w3.org/1999/02/22-rdf-syntax-ns#"
   xmlns:svg="http://www.w3.org/2000/svg"
   xmlns="http://www.w3.org/2000/svg"
   xmlns:sodipodi="http://sodipodi.sourceforge.net/DTD/sodipodi-0.dtd"
   xmlns:inkscape="http://www.inkscape.org/namespaces/inkscape"
   width="297mm"
   height="210mm"
   viewBox="0 0 297 210"
   version="1.1"
   id="svg27"
   inkscape:version="0.92.0 r15299"
   sodipodi:docname="antNest.svg">
  <defs
     id="defs21" />
  <sodipodi:namedview
     id="base"
     pagecolor="#ffffff"
     bordercolor="#666666"
     borderopacity="1.0"
     inkscape:pageopacity="0.0"
     inkscape:pageshadow="2"
     inkscape:zoom="0.7"
     inkscape:cx="43.093062"
     inkscape:cy="527.1451"
     inkscape:document-units="mm"
     inkscape:current-layer="layer1"
     showgrid="false"
     inkscape:measure-start="0,0"
     inkscape:measure-end="0,0"
     inkscape:window-width="2560"
     inkscape:window-height="1377"
     inkscape:window-x="1912"
     inkscape:window-y="-8"
     inkscape:window-maximized="1"
     showguides="true"
     inkscape:guide-bbox="true"
     objecttolerance="13"
     guidetolerance="4">
    <inkscape:grid
       type="xygrid"
       id="grid4570"
       enabled="false" />
    <sodipodi:guide
       position="13.229167,197.87053"
       orientation="0,1"
       id="guide4547"
       inkscape:locked="false" />
    <sodipodi:guide
       position="152.70239,111.125"
       orientation="0,1"
       id="guide4551"
       inkscape:locked="false" />
    <sodipodi:guide
       position="162.15179,197.87052"
       orientation="1,0"
       id="guide4555"
       inkscape:locked="false" />
    <sodipodi:guide
       position="285.75001,163.28571"
       orientation="1,0"
       id="guide4557"
       inkscape:locked="false" />
    <sodipodi:guide
       position="-41.955358,13.985119"
       orientation="0,1"
       id="guide4559"
       inkscape:locked="false" />
    <sodipodi:guide
       position="-22.111608,156.86012"
       orientation="0,1"
       id="guide4563"
       inkscape:locked="false" />
    <sodipodi:guide
       position="-14.363096,58.775296"
       orientation="0,1"
       id="guide4565"
       inkscape:locked="false" />
    <sodipodi:guide
       position="86.745538,165.93154"
       orientation="1,0"
       id="guide4611"
       inkscape:locked="false" />
    <sodipodi:guide
       position="224.51786,179.53869"
       orientation="1,0"
       id="guide4613"
       inkscape:locked="false" />
  </sodipodi:namedview>
  <metadata
     id="metadata24">
    <rdf:RDF>
      <cc:Work
         rdf:about="">
        <dc:format>image/svg+xml</dc:format>
        <dc:type
           rdf:resource="http://purl.org/dc/dcmitype/StillImage" />
        <dc:title />
      </cc:Work>
    </rdf:RDF>
  </metadata>
  <g
     inkscape:label="l3"
     inkscape:groupmode="layer"
     id="layer1"
     transform="translate(0,-87)"
     style="display:inline">
    <path
       style="display:inline;fill:none;stroke:#780000;stroke-width:1.77143049;stroke-opacity:1"
       d="m 6.1035156,109.32617 c 30.0451764,-4.235 65.5775984,-0.13646 103.0390644,5.42774 L 120.06445,107.375 C 106.93918,104.55531 94.277746,99.54636 82.476562,93.179688 74.853119,89.039404 66.950769,84.547488 61.900391,77.259766 57.984857,72.962594 58.343065,65.749674 62.332031,61.625 c 3.136917,-3.297638 7.966867,-3.788133 12.269531,-3.876953 1.713835,-0.0151 3.426742,-0.02671 5.140626,-0.0078 17.262781,0.77983 34.542832,1.374664 51.826172,1.259766 15.15275,0.07672 30.3032,-0.599729 45.45508,-0.230469 14.31583,-0.07914 28.18653,5.875963 39.11914,14.902344 2.05881,1.54863 3.87322,3.528401 5.24609,5.761719 14.85261,1.099765 30.25304,1.822074 45.79688,2.023437 -1.81521,-2.698102 -3.43906,-5.507198 -4.56055,-8.605469 1.03304,-5.638787 5.5971,-10.38198 11.14062,-11.765624 10.46781,-0.07291 20.8676,1.284085 31.29297,2.017578 15.83236,1.140623 31.73629,0.236296 47.48047,-1.59961 15.62287,-1.725014 31.19691,-4.159053 46.92383,-4.722656 4.50633,-0.05186 9.00927,0.160013 13.50781,0.400391 31.78386,2.512063 63.40509,6.678965 95.04688,10.52539 4.20397,-0.218683 8.59375,2.921977 8.99219,7.257813 -0.24594,3.812598 -3.15167,6.826016 -6.16407,8.867187 -6.69377,4.114281 -14.63833,5.344986 -22.31054,6.269531 -31.96003,3.205493 -64.22793,2.2295 -96.09766,6.501954 -22.46623,2.424529 -43.83286,10.212391 -65.82227,14.976561 -10.06955,2.27905 -20.88444,3.12072 -30.79687,-0.32031 -6.13843,-2.42632 -11.19544,-6.74899 -15.47266,-11.716798 -20.27234,0.128882 -40.41649,-0.672931 -59.65234,-2.089844 -4.55837,7.425532 -12.33125,12.875712 -20.87891,14.611322 -7.06751,0.64423 -14.18399,0.35258 -21.26367,0.0332 -7.66778,-0.44902 -15.34121,-0.82227 -23.01172,-1.23633 -4.26609,3.17149 -8.64974,6.11912 -13.11133,8.89453 3.77784,0.55753 7.58115,1.11197 11.42579,1.6543 56.01864,7.90193 118.63364,14.15549 184.64257,3.61718 68.46861,-10.93099 122.0829,-20.95578 165.32618,-24.27148 9.45949,-0.72515 18.50707,-1.137563 27.14257,-1.134763 1.23365,4e-4 2.45907,0.0097 3.67578,0.02734 21.93573,0.318107 41.12052,3.558643 57.64063,11.501953 3.923,-0.39103 7.81613,-0.58682 11.67578,-0.60742 19.14157,-0.10039 37.41951,3.98179 54.21289,8.58594 16.04198,4.39813 30.92184,9.22115 43.66406,12.03711 16.34739,-7.39865 34.20528,-11.14457 52.04102,-12.63282 9.60484,-0.16308 19.1887,0.6421 28.75586,1.38282 15.16105,1.3675 30.62038,1.83981 45.22852,6.54101 7.93431,2.73329 15.38454,6.53786 22.48242,10.94922 39.13216,-7.07037 58.57324,-13.19068 75.73047,-20.49219 11.06929,-4.7107 21.54228,-10.1109 35.67968,-16.6289 -8.27982,-1.785622 -16.60603,-3.254125 -25.11718,-3.306645 -26.72561,1.148711 -52.99904,6.530545 -79.44141,10.164065 -23.03346,3.00322 -46.2987,5.83764 -69.55859,4.13867 -17.48417,-0.9936 -34.41222,-6.41272 -50.25782,-13.642579 -5.61048,-2.66812 -11.26961,-5.253531 -16.70703,-8.265625 -4.20472,-1.882091 -6.26217,-7.893028 -3.32812,-11.671875 8.7287,-7.78371 19.93973,-12.459134 31.4414,-14.185547 19.50032,-2.736038 39.26638,-1.338898 58.76368,0.664063 24.45656,2.744121 49.22841,3.942885 73.74023,1.169921 23.91492,-2.752781 47.56704,-8.327269 71.73633,-8.464843 3.49521,-0.0013 6.99246,-0.02492 10.48828,-0.01563 3.49582,0.0093 6.99079,0.05207 10.48437,0.183593 13.47852,0.173103 26.88551,2.604261 39.65821,6.878907 6.1873,2.258683 12.5812,4.089871 18.4004,7.236328 4.3596,1.98633 6.7522,7.776121 4.4336,12.107422 -6.0636,8.55496 -14.7904,15.05497 -24.3867,19.171875 -5.7367,2.6085 -11.981,3.59199 -18.24027,3.52539 -28.05769,11.47321 -42.81791,19.89073 -60.73047,27.51367 -15.58176,6.63105 -33.12343,12.34927 -62.58398,18.375 5.22908,3.52294 9.05876,9.71104 8.4375,16.16211 -1.16603,6.76902 -6.52216,12.19634 -12.67969,14.84179 -7.09036,3.03217 -15.10465,2.24623 -22.41992,0.51758 -10.8892,-2.836 -21.90894,-6.34248 -33.30274,-5.71484 -8.57016,1.18649 -17.12835,2.46311 -25.68359,3.75586 3.02197,3.84262 6.07912,6.94309 8.96484,8.82226 7.33894,4.77909 16.06944,7.20395 25.9082,8.54102 1.78184,-0.75557 3.58429,-1.46393 5.39844,-2.13281 8.68437,-3.16018 17.80831,-5.17648 27.04688,-5.66407 16.31788,-0.98869 32.60062,0.98014 48.875,1.86719 10.05698,0.61039 20.13818,0.6038 30.20703,0.35547 10.52657,-0.23902 21.04299,-0.72121 31.55859,-1.23828 7.03867,-2.58727 14.539,-6.0964 22.9707,-10.94727 -3.18377,0.008 -6.36726,0.0112 -9.54882,0.0371 -13.02153,-0.0527 -26.23834,1.37839 -39.07422,-1.50976 -10.55588,-2.63422 -20.65612,-7.09994 -29.77344,-13.03125 -4.41819,-1.91442 -6.11167,-7.83171 -3.92578,-11.99024 0.90867,-2.05636 3.06277,-2.93095 4.96875,-3.81445 16.02913,-7.10147 33.00885,-11.67654 49.375,-17.89453 17.33658,-6.60953 35.34014,-12.31819 53.99999,-13.21484 11.6355,-0.29643 23.5568,1.88372 33.7285,7.73632 2.182,1.39344 4.511,2.58444 6.5,4.25586 3.2914,2.73014 5.4419,6.7591 5.7813,11.03125 1.3797,10.90084 -3.038,22.73215 -12.1699,29.13281 -7.555,3.74554 -15.7464,5.88826 -24.0508,7.26368 -5.6616,4.1024 -10.9867,7.74817 -16.0547,11.01172 2.0566,-0.0675 4.1127,-0.14096 6.1699,-0.19336 v -0.002 c 4.2863,-0.0811 8.6032,0.0421 12.8242,0.85157 7.972,1.35013 15.2386,5.19775 21.9883,9.49609 2.4936,1.71375 5.1889,3.13693 7.5449,5.04687 2.1486,1.60997 3.9492,4.07358 3.8321,6.86915 -0.1024,2.00893 -1.6308,3.53536 -2.9512,4.89648 -4.8298,4.76697 -11.2109,7.55698 -17.6289,9.47656 -12.1342,3.57642 -24.5781,6.04944 -37.1113,7.72656 -11.24264,1.56212 -22.58783,2.32116 -33.93559,2.42774 -21.9227,0.19892 -43.84727,-0.60268 -65.76758,-0.0195 -4.04127,0.0565 -8.07762,0.23829 -12.11328,0.43945 2.91962,1.60034 5.96281,3.17138 9.12109,4.69336 7.73886,3.72936 16.00797,7.2478 24.30664,10.64648 4.04845,-2.71712 8.99151,-4.1762 13.83594,-4.3125 5.57446,-0.11901 11.11113,0.62027 16.61133,1.44141 18.16667,3.27107 36.6637,3.89644 55.07615,4.32617 15.681,-0.0341 31.6206,2.64501 45.7403,9.69727 5.0887,2.07866 10.184,5.18827 12.7187,10.26758 4.2567,8.90313 2.3947,20.0238 -3.6562,27.64843 -10.6209,9.66448 -23.036,17.34951 -36.3516,22.72071 -13.7763,5.21457 -28.25085,9.12705 -43.04884,9.54492 -10.19947,0.90795 -20.47242,-2.79707 -28.36328,-9.18164 -10.29706,-9.37679 -18.75429,-20.51782 -27.34766,-31.41797 -5.5929,-7.27459 -10.49476,-15.42983 -12.80273,-24.35742 -8.21755,-3.3786 -16.54837,-6.94905 -24.53711,-10.79883 -13.25943,-6.38972 -25.78757,-13.35949 -35.27344,-22.23633 -6.74075,-1.41417 -13.33091,-3.56743 -19.61523,-6.37109 -6.70711,-3.07767 -13.29171,-6.55538 -19.15625,-11.06836 -0.94746,-0.61679 -1.79568,-1.38269 -2.51563,-2.25195 -10.06568,-1.69268 -19.99688,-4.74691 -29.14648,-10.70508 -7.93886,-5.16977 -14.07664,-12.7106 -19.2207,-20.88086 -7.43712,1.12384 -14.87448,2.23557 -22.32227,3.28515 -11.50711,1.43014 -22.9865,3.83131 -34.63867,3.41016 -8.72338,-0.46057 -17.64458,-2.09992 -25.27344,-6.55273 -6.38234,-3.83319 -11.66592,-9.92228 -13.63672,-17.19141 -1.14512,-3.57422 -0.73374,-7.59576 1.1875,-10.82813 1.85892,-3.06558 4.05804,-5.87173 6.50586,-8.44531 -8.05369,-2.34492 -16.19999,-4.87293 -24.45703,-7.13672 -7.97126,-2.18542 -15.98616,-4.13109 -23.99219,-5.52734 6.48712,5.99671 11.07381,12.1197 14.0918,18.72656 5.71211,12.50472 6.24106,22.32254 11.48633,37.28516 2.65878,7.58445 21.98392,26.26921 42.32031,43.92187 10.16818,8.82633 20.40158,17.92913 28.77539,28.02149 8.37377,10.09232 15.71921,21.71894 15.82617,36.35547 0.12008,16.41758 -10.69837,27.70903 -20.63086,35.5 -9.93248,7.79093 -20.97094,13.80059 -29.89062,19.51757 -8.91969,5.71699 -14.99012,11.58672 -15.8418,13.23633 -0.10472,0.20279 -0.17029,0.30632 -0.21289,0.35742 0.0128,0.0123 0.0263,0.006 0.0371,0.0566 0.0745,0.35025 0.70593,2.35167 3.88281,5.82422 11.431,12.49482 16.82755,27.55079 14.76954,41.06446 -1.04954,6.89158 -3.56408,12.84074 -6.7754,18.06054 l 12.16016,-2.6582 c 4.64994,-3.52302 9.37577,-6.94707 14.15625,-10.28906 9.30913,-6.49119 19.19989,-12.79226 30.48242,-15.08594 3.87387,-0.66482 7.83033,-0.69846 11.74414,-1.01367 22.33705,-1.18878 44.69833,-1.83917 67.05469,-2.54492 4.00683,-0.0769 8.01654,0.0733 12.00977,0.40625 21.79003,1.90892 42.5684,9.16153 63.74804,14.13086 9.45687,2.3556 19.11838,3.80755 28.83008,4.56836 4.78333,-1.03053 9.53708,-2.1114 14.1875,-3.27149 22.17228,-5.53107 42.44674,-12.52075 55.25781,-19.06055 -26.72247,-2.74878 -53.25429,-7.3308 -79.78125,-11.51562 -14.46648,-2.53058 -29.04338,-4.60462 -43.72851,-5.25977 -15.36325,-0.90659 -30.7353,0.18343 -46.08203,0.88086 -25.76361,1.39983 -51.90859,-0.89924 -76.61328,-8.58593 -4.86161,-1.78443 -10.20172,-2.60265 -14.4961,-5.66993 -4.1249,-2.23407 -5.47029,-8.29172 -2.54297,-11.99218 7.43826,-8.82694 18.32579,-14.07049 29.44532,-16.51758 19.0602,-2.58322 38.21787,-4.26172 57.39648,-5.68555 -17.42177,-8.29281 -30.94489,-18.11643 -42.73633,-28.3164 -6.08241,0.20112 -12.21066,-0.95254 -17.71875,-3.57227 -3.20421,-1.63895 -6.45131,-3.39161 -9.03711,-5.9375 -4.47964,-5.25604 -4.09808,-13.65167 0.23828,-18.87891 8.35147,-8.58504 19.32477,-14.06573 30.53125,-17.92773 11.95038,-4.18753 24.13065,-8.62922 36.93164,-8.96485 10.40618,-0.23632 20.82195,1.4725 30.65235,4.875 12.17132,4.01447 22.95869,11.08141 34.34765,16.78907 10.00679,5.30313 20.97125,8.81256 30.31836,15.32812 4.08537,2.1456 5.65997,7.47702 4.20508,11.70703 -1.71386,1.22185 -3.42637,2.45232 -5.2207,3.55469 -9.2987,6.08168 -20.35907,8.58912 -31.23047,10.03906 -14.30075,2.15127 -29.14648,2.93754 -43.25977,-0.79882 -9.13462,-3.32334 -18.46811,-6.39411 -28.17382,-7.47657 -2.0061,-0.30629 -4.01628,-0.48065 -6.0293,-0.56445 15.34746,11.02755 34.03472,20.50061 61.3418,26.97461 1.71171,-0.10388 3.42374,-0.1904 5.13867,-0.2207 12.43498,-0.10874 24.84622,1.17326 37.11328,3.13476 29.95298,4.92677 59.34491,12.62822 88.88672,19.5 12.90838,3.5554 26.36958,3.85356 39.58598,5.47656 3.6471,0.30154 7.8182,0.88866 10.1836,4.01758 2.4144,4.25953 2.4183,9.31448 2.7988,14.06641 0.6185,5.88336 -0.4981,12.41814 -4.834,16.74219 -5.4802,5.04821 -13.1475,6.82289 -20.4336,6.83789 -3.894,5.2407 -9.4552,8.84959 -16.3066,12.58593 -5.278,2.87828 -11.42126,5.66711 -18.20317,8.3418 11.0937,-0.4795 22.17337,-1.26129 33.22267,-2.34766 6.2142,-0.31414 12.3521,-1.78775 18.5937,-1.55078 6.4822,0.086 12.4243,3.66785 16.6368,8.41407 5.0863,5.98533 9.1671,13.32827 9.5371,21.32617 -0.052,5.47328 -2.0072,10.70819 -4.043,15.71875 -2.4659,7.37152 -8.114,13.71228 -15.3262,16.67187 -4.9648,9.92115 -10.4946,19.53123 -19.3613,28.22266 7.0031,0.92191 13.9854,1.968 20.8418,3.69531 5.2271,1.50958 10.7345,2.9313 15.0195,6.46289 3.9313,2.96999 5.1521,8.23719 4.7422,12.9336 -1.064,7.45666 -3.6335,14.64953 -6.9883,21.37304 -2.5039,5.62462 -6.819,10.84217 -12.8164,12.8418 -2.6957,0.77499 -5.5505,0.76636 -8.332,0.98633 -11.3319,0.42032 -22.7026,0.54801 -34.0059,-0.50977 -24.498,-2.41372 -48.73479,-6.90827 -73.19918,-9.60742 -17.40764,-2.05183 -34.96518,-2.50809 -52.47656,-2.05273 -27.30913,0.72876 -54.53054,3.16188 -81.77149,5.08789 -5.39192,0.49382 -10.81676,0.68777 -16.23828,0.60547 5.87726,4.99771 13.46115,10.3079 22.18555,15.33593 8.8858,-3.424 18.23371,-5.6575 27.70312,-6.60156 15.29295,-1.01529 30.61149,-1.62923 45.92383,-2.2832 10.8997,-0.41968 21.79268,-0.99387 32.68555,-1.54492 1.10657,-0.004 2.21389,-0.0421 3.32031,-0.0156 10.80223,0.42826 21.54683,1.76083 32.26172,3.14649 22.1862,2.9749 44.27603,6.60958 66.39453,10.04101 7.5745,1.31996 15.2443,2.19327 22.7051,4.09766 12.4995,3.17986 22.906,12.32827 29.1055,23.46484 3.0961,4.97764 3.0797,12.13501 -1.0918,16.51367 -8.2703,7.13095 -19.2106,10.52507 -29.9922,11.04102 -3.1107,0.0196 -6.2148,-0.0605 -9.3145,-0.20508 -3.2666,3.55351 -7.5408,6.20806 -12.1094,8.42188 -7.489,3.62894 -16.47214,6.25705 -26.51559,8.52734 -1.77358,0.40091 -3.59019,0.78487 -5.42578,1.16211 1.44281,0.20445 2.88834,0.39315 4.33008,0.60351 9.09736,1.08979 18.08679,3.13251 27.26169,3.51368 8.3913,0.64561 16.4951,-2.14641 24.7911,-2.78711 7.18,-0.93993 14.4038,2.38708 19.2089,7.6289 5.4551,5.66499 8.084,13.66689 7.7793,21.45899 -0.6668,9.33449 -3.6815,18.52203 -8.7402,26.40234 -4.0894,6.69494 -10.6779,11.7184 -18.123,14.12305 -11.2943,3.47448 -23.3516,3.06385 -34.9415,1.53711 -17.49061,-2.40038 -34.71812,-6.33707 -52.00583,-9.85547 -18.5122,-3.69063 -37.20866,-7.4425 -56.17187,-7.24219 -20.67489,0.66414 -40.58492,6.8512 -60.92773,9.93359 -12.45914,1.82914 -25.3638,2.97161 -37.72266,-0.125 -14.46172,-4.54042 -27.26862,-13.02311 -39.25781,-22.09961 -5.03097,-2.58534 -8.46592,-8.51972 -7.31641,-14.19335 2.06105,-5.47469 6.19323,-9.96444 10.91602,-13.31446 4.13019,-3.06629 9.0358,-4.74373 13.85156,-6.39062 16.62058,-5.57065 33.79055,-9.31499 51.02539,-12.41016 11.66358,-2.00031 23.38156,-4.02647 35.23242,-4.41992 7.29472,-0.0235 14.58814,-0.0378 21.88281,0 8.93242,-0.0288 17.85972,0.17874 26.77735,0.58203 2.70178,-0.40729 5.43481,-0.8083 8.19531,-1.20898 22.6628,-3.28948 46.77357,-6.26188 65.41016,-10.47461 3.77893,-0.8542 7.31699,-1.7681 10.56445,-2.72461 -5.49722,-0.76581 -10.9898,-1.5577 -16.48242,-2.27735 -23.39392,-3.44876 -47.11169,-4.20515 -70.72266,-3.41406 -24.23614,0.61894 -48.44003,3.42417 -72.70312,2.22266 -15.80871,-0.95256 -31.89271,-2.39861 -46.76954,-8.21485 -5.06214,-2.23279 -10.44697,-4.28736 -14.41796,-8.29101 -3.27292,-2.73305 -3.69271,-7.86724 -1.43165,-11.35938 2.79961,-3.49111 6.28661,-6.38411 9.8086,-9.12695 2.0076,-1.50997 4.07603,-2.93926 6.18945,-4.29492 -7.23727,-4.75736 -13.61069,-9.67429 -18.86328,-14.58008 -4.6916,-4.38183 -8.65401,-8.6017 -11.44336,-13.16797 -11.83764,-2.37196 -23.3725,-6.20434 -34.20703,-11.58203 -5.45813,-1.76629 -7.84469,-9.49853 -4.0957,-13.92383 9.45101,-7.23435 19.24735,-14.00545 29.22265,-20.49414 7.99983,-4.88065 15.58538,-10.75799 24.60938,-13.66211 25.99876,-6.22605 52.53842,-9.72592 78.95312,-13.65625 7.98747,-0.19975 15.68294,2.22215 23.2793,4.375 12.49716,4.17075 25.7569,5.23171 38.85156,5.4668 18.94817,-0.0616 37.81423,2.30983 56.43555,5.66015 11.14452,2.20861 22.36425,3.99643 33.61915,5.53711 4.6956,-2.59986 8.5184,-5.41573 11.7285,-8.39257 4.5889,-4.25542 8.1434,-9.16442 11.3711,-14.63086 -20.8512,-1.04594 -41.67257,-2.64727 -62.5332,-3.52539 -27.39583,-1.39178 -54.9608,-1.68632 -82.07422,-6.27149 -16.21754,-2.45423 -31.808,-7.7018 -47.39258,-12.64062 -11.24799,-3.40196 -22.49055,-7.32069 -34.27149,-8.35352 -16.20437,-1.11946 -32.03313,3.52955 -48.13671,4.30469 -13.56767,0.48609 -26.97704,-1.48821 -40.29883,-3.89453 l -53.10352,11.60937 c -1.15418,0.96243 -2.3263,1.93452 -3.35351,2.81836 -2.56608,2.20789 -4.11815,4.20607 -5.28516,5.64649 0.36302,0.7776 0.43251,1.20964 1.41016,2.54687 3.35142,4.58411 9.35183,10.97265 16.0332,17.84375 13.36267,13.74221 30.47437,27.8455 35.86133,49.89258 2.71132,11.09658 0.28046,21.86228 -3.49219,30.14844 -3.77269,8.2862 -8.70498,14.90372 -12.97656,20.8457 -4.27162,5.94198 -7.88734,11.20596 -9.75195,15.25977 -1.86471,4.0538 -2.12551,6.16139 -1.58008,8.63671 0.18432,0.83657 2.43192,4.7431 7.81836,9.49219 5.38643,4.74913 12.97104,10.02464 20.35937,16.0918 7.38834,6.0672 15.53132,12.76149 19.31055,24.90039 3.77926,12.13886 -1.79817,27.25052 -12.26172,37.04883 l -3.0332,2.84179 -4.00196,1.12305 c -63.1353,17.69363 -105.30359,9.83341 -154.92968,1.60156 -43.81666,-7.26821 -95.20027,-15.04983 -180.73633,-7.79492 -0.25108,0.42318 -0.52102,0.83607 -0.83399,1.22266 -3.79963,3.74816 -9.05641,5.51277 -14.13672,6.75586 -14.246,3.20583 -29.01883,2.52258 -43.42382,0.8789 -14.05592,-1.39298 -27.88834,-4.55934 -41.9961,-5.48242 -17.08882,-1.18137 -33.93672,2.63093 -50.81054,4.64258 -13.3124,1.68835 -27.05242,1.77797 -40.06836,-1.8418 -10.57279,-2.69884 -20.35078,-8.26893 -31.31446,-9.43359 -13.40882,-0.60896 -26.48384,2.98499 -39.49218,5.69726 -7.157668,1.6015 -14.572878,3.60963 -21.931645,2.11524 -8.615958,-1.8305 -15.621844,-8.43422 -19.388672,-16.2168 -3.814095,-6.44602 -4.445275,-14.89386 -0.806641,-21.55664 3.641224,-5.95034 9.588527,-10.0234 15.601563,-13.3125 14.156251,-7.30609 28.734325,-14.0891 44.207035,-18.10156 7.26372,-1.93984 14.75245,-3.13951 22.28515,-3.07031 11.28505,-0.0164 22.33929,2.7123 33.04102,6.07812 16.63849,-9.50496 31.59709,-20.35469 43.56055,-31.12305 -9.02105,-2.40882 -17.90953,-5.38195 -27.00782,-7.48437 -11.69663,-2.77054 -23.78903,-2.80327 -35.74023,-2.94727 -11.572,7.6e-4 -23.11387,-0.94011 -34.63281,-1.95703 -11.76179,-1.19406 -23.57084,0.0566 -35.294926,1.07422 -4.756642,0.71169 -9.934254,-0.24349 -13.699219,-3.36523 -4.730831,-4.26236 -6.597775,-11.20347 -5.167969,-17.3418 1.841979,-7.17146 6.034949,-13.40437 10.119141,-19.4707 2.859042,-4.51181 6.186862,-8.9036 10.71875,-11.85352 2.865018,-1.98055 6.207687,-3.12488 9.605473,-3.7832 3.96829,-0.65152 7.95099,-1.2322 11.8789,-2.10742 10.11893,-2.15407 20.11589,-5.25251 30.50195,-5.83399 1.758,-0.0295 3.51648,0.002 5.27149,0.11133 10.74178,0.46424 20.99817,4.01266 31.54883,5.72656 8.24995,1.46893 16.64486,0.45707 24.93164,-0.0801 9.5481,-0.74835 19.25402,-0.89152 28.67187,1.09376 9.64203,1.95492 18.46934,6.47426 27.26367,10.70703 8.96603,4.45479 18.35563,8.11891 27.02735,13.13867 30.22295,-6.29925 58.59044,-18.18172 97.93164,-39.79297 -6.30145,-2.95844 -12.4049,-6.39701 -18.57227,-9.57813 -5.33456,-2.80595 -11.21099,-5.59251 -14.42382,-10.96484 -2.86378,-5.09827 -2.43093,-11.5004 0.34179,-16.56445 -10.57148,-4.5582 -20.44495,-9.45228 -29.27734,-14.86914 -16.91542,-10.37414 -30.80481,-23.35679 -36.09375,-40.11524 -4.93754,-3.65722 -9.50097,-8.01518 -13.56641,-12.85742 -4.32405,-5.61865 -8.86896,-11.21304 -11.79492,-18.02148 -2.84719,-6.32134 -3.33245,-14.68221 0.4668,-20.62696 3.02345,-4.40277 8.23102,-5.41366 12.80859,-5.29687 12.11099,0.85308 23.98678,3.97373 35.95313,6.13086 13.76053,2.8989 27.86449,3.90593 41.78906,2.14844 20.66429,-3.23022 41.28323,-6.89059 61.83203,-11.00782 13.55376,-2.28843 26.75274,-7.74972 40.57031,-7.60156 6.20924,1.04402 12.48587,0.0579 18.62696,-1.11523 0.56141,-0.0937 1.12222,-0.18755 1.68359,-0.28125 10.67667,0.24793 21.36369,0.62519 32.04297,0.96875 7.12365,0.54236 14.62245,-0.0236 21.25586,3.58593 5.31012,2.90544 8.2018,9.18802 11.16015,14.73633 1.63533,3.9244 4.36938,7.28607 7.86914,8.96289 3.92516,1.12486 7.13723,5.79442 6.42188,10.58985 -0.16946,0.61659 -0.37494,1.21625 -0.5957,1.80664 20.4483,-9.78701 31.41507,-21.08007 39.25976,-33.08594 7.17906,-10.98711 11.57105,-22.84187 17.2461,-34.6582 -9.18347,3.21515 -18.61315,5.73825 -28.15821,7.56054 -21.16958,3.49429 -42.64565,4.46062 -64.05078,5.38281 -17.112,0.58149 -34.21256,1.4784 -51.33008,1.89649 -25.05445,1.05086 -50.5911,-4.1252 -72.61328,-16.31641 -4.54313,-2.70506 -9.56698,-4.99078 -13.28711,-8.81445 l -43.5,1.95117 c -4.21216,4.23773 -8.44686,8.47704 -13.23242,12.06836 -6.68978,4.88965 -14.4976,8.6278 -22.82617,9.42774 -22.68642,0.83954 -45.3859,-0.17035 -68.07813,-0.18164 -14.77286,0.30488 -29.50308,-1.55404 -43.97656,-4.39258 -11.72855,-2.71257 -23.89113,-3.38131 -35.86523,-2.23438 -10.92961,0.89923 -21.95449,3.19755 -32.91407,1.36524 -9.76387,-2.47027 -19.35579,-5.77297 -28.404292,-10.22461 -7.270201,-3.80931 -14.531499,-8.0897 -20.027344,-14.30078 -4.118011,-4.32575 -5.636301,-10.4802 -5.492188,-16.31836 0.26103,-6.17851 1.254134,-12.8037 5.386719,-17.67774 2.435153,-3.10998 6.36724,-4.77353 10.273437,-4.76953 8.302183,0.23293 16.06872,3.5509 24.107418,5.25781 7.58612,1.87465 15.53295,1.03343 23.04297,-0.77734 12.61643,-2.86156 24.78485,-8.17708 37.86133,-8.64453 4.99817,-0.0864 9.98342,0.45523 14.91602,1.2207 13.37273,2.47578 26.72929,5.59249 40.38476,5.92774 23.40843,-0.29923 46.88761,0.16833 70.14063,3.09179 16.94506,2.71854 34.17527,3.85019 51.32031,2.84571 3.6444,-0.0293 7.41491,-1.38118 10.96484,-0.002 3.84535,1.19687 6.46046,5.7246 4.97852,9.58985 -1.36519,2.42554 -2.83442,4.78871 -4.38867,7.09375 l 23.92968,-1.07422 c 0.12656,-0.14784 0.24351,-0.30278 0.37696,-0.44532 6.91438,-6.77456 16.44276,-10.21714 25.90039,-11.44726 19.41396,-1.25106 38.89615,-1.36834 58.28515,-3.06055 27.54509,-3.01606 55.28524,-3.10027 82.95508,-3.7539 23.38307,-1.93656 45.51936,-11.04656 68.9375,-12.75196 0.62382,-0.0155 1.24746,-0.0225 1.8711,-0.0215 9.3545,0.0207 18.6685,1.95712 27.36523,5.375 5.64529,2.47563 11.66674,4.72995 16.07813,9.21289 3.92904,3.41741 4.75713,9.40653 2.77734,14.07226 -2.80864,5.91043 -8.1525,10.04046 -13.32422,13.80079 -2.88269,1.93979 -5.82958,3.77823 -8.82422,5.5332 -5.90582,5.22971 -9.87748,11.49332 -13.68945,19.00195 -5.80399,11.43236 -10.62043,25.63815 -20.03516,40.04688 -9.41476,14.40873 -23.6732,28.68212 -47.27343,39.83203 -10.06166,4.75362 -21.81885,8.9838 -35.66211,12.58789 -3.79507,2.27337 -7.7054,4.29052 -11.65821,6.08594 -15.44708,7.40405 -32.35451,9.96857 -48.97461,9.1875 -20.27323,-0.70451 -39.9898,-6.75499 -60.01171,-9.88282 -12.81427,-2.39557 -25.90223,-1.82894 -38.71876,0.22852 -14.29509,2.18361 -28.68041,5.1758 -43.12695,4.94336 3.54224,2.99514 7.69359,5.96228 12.50977,8.91602 15.42138,9.4578 36.54284,17.9978 59.70508,26.07421 19.25582,0.29157 38.5087,-1.84438 57.73437,-2.7539 0.70096,-0.0235 1.40021,-0.0363 2.09961,-0.0371 10.49105,-0.0116 20.80426,2.46351 30.86523,5.25195 12.3086,3.28543 24.67212,7.4328 37.5625,7.24609 12.13565,-0.22016 23.34747,-5.48712 35.13086,-7.70117 6.95509,-1.57152 14.25584,-0.88271 21.01368,1.25 7.67021,2.4454 14.76535,6.34019 21.88867,10.02735 5.6047,2.42902 9.89744,7.46825 11.65625,13.28906 3.0472,10.84577 1.33967,22.55771 -2.96094,32.82226 -2.38061,5.97177 -7.69438,11.21747 -14.29102,11.94336 -10.28235,0.41201 -20.0648,-3.27589 -29.99218,-5.34375 -17.42646,-3.50604 -35.28944,-1.00615 -52.87305,-2.67968 -16.49167,-1.8014 -31.75545,-8.76438 -47.71484,-12.81641 -8.99562,-2.59517 -18.46741,-3.03253 -27.76172,-2.32617 -4.63699,0.36815 -9.25557,0.91446 -13.86719,1.51953 -52.6223,30.61287 -88.87971,47.65914 -126.72656,56.39453 -1.30224,1.44934 -2.67331,2.83449 -4.09571,4.16797 16.64203,4.14652 30.4193,11.16333 43.30469,16.75977 -0.0397,-0.59724 -0.0662,-1.19579 -0.0762,-1.79883 -0.2788,-5.76681 1.94998,-11.59321 5.82227,-15.03711 3.66314,-3.44156 8.42022,-4.37669 12.94531,-4.625 0.51371,-0.0249 1.0273,-0.0477 1.54101,-0.0742 5.46973,-0.0592 10.91953,0.6807 16.34961,1.38672 13.65372,2.13702 27.35058,4.05463 41.1211,4.63672 31.47866,2.83865 63.06306,4.40414 94.63281,3.57226 17.33212,0.14139 34.50271,-3.05064 51.65039,-5.66797 6.71641,-0.95705 13.43074,-2.05714 20.19141,-2.4414 12.12166,-0.25916 24.09695,3.06752 35.51562,7.72265 2.86262,1.31071 5.93726,2.12896 8.50586,4.21485 2.78423,2.2052 5.04761,6.04547 4.60938,10.21289 -0.93869,6.7282 -3.2658,13.13616 -6.44336,18.77344 -4.6063,8.06127 -11.18608,14.89889 -19.14063,17.58398 -8.05357,2.7405 -16.51565,1.62788 -24.70898,0.61523 -9.52252,-1.28162 -19.22429,-1.97138 -28.71094,0.0703 -25.09414,5.78657 -50.65206,9.84027 -76.25586,8.49804 -13.80102,-0.69078 -27.4557,-3.35574 -41.05273,-6.125 -6.02952,-1.14742 -12.05465,-2.44495 -18.14649,-3.00976 -15.78852,-1.39726 -31.57906,3.52962 -47.33203,0.72461 -6.8044,-1.09356 -13.03712,-5.04965 -18.10742,-10.53125 -7.50159,-2.04517 -14.43369,-4.67036 -20.94727,-7.47266 -21.7045,-9.33778 -38.73104,-19.3183 -64.94336,-18.85351 -8.9365,11.46005 -20.57351,23.08539 -34.24609,34.03515 20.40759,-3.85033 40.48402,-9.64007 61.26758,-11.14453 10.61604,-0.26086 21.33477,2.77522 30.05469,8.88086 10.04332,8.56884 18.27805,18.94104 27.14453,28.67187 98.88575,-10.03178 159.03587,-1.2499 206.03906,6.54688 48.57626,8.05761 81.43453,14.35786 135.36914,0.19922 -0.41658,-0.50752 -2.37579,-3.5762 -7.60352,-7.86914 -5.7914,-4.75578 -13.70067,-10.18949 -21.26562,-16.85938 -7.56499,-6.66992 -15.72031,-14.88712 -18.54297,-27.69726 -2.46157,-11.1713 0.0685,-21.86475 3.88867,-30.16992 3.82023,-8.30521 8.77663,-14.96107 13.04492,-20.89844 4.26834,-5.93738 7.84737,-11.15856 9.63282,-15.08008 1.78563,-3.92156 1.95932,-5.73297 1.41015,-7.98047 -1.13401,-4.64111 -13.6429,-20.30659 -27.20312,-34.25195 -6.7801,-6.9727 -13.56651,-13.90683 -19.10352,-21.48047 -5.53701,-7.57368 -11.77859,-16.85218 -8.71094,-30.05273 3.10783,-13.3733 11.03825,-18.13849 17.85743,-24.00586 6.81917,-5.86734 14.00249,-11.52972 19.19921,-16.91993 5.19674,-5.39021 7.73514,-10.05071 8.1504,-12.77734 0.41525,-2.72666 0.53913,-5.57625 -6.23829,-12.98437 -5.94935,-6.50298 -10.33337,-13.61131 -12.05468,-21.70313 -1.72128,-8.09186 -0.11941,-16.63172 3.21875,-23.09766 6.67627,-12.93188 17.48761,-19.71895 27.71093,-26.27148 10.22332,-6.55257 20.5937,-12.4184 27.25391,-17.64258 6.66021,-5.22421 7.61433,-8.08945 7.61133,-8.49023 -0.016,-2.18185 -2.03152,-7.69454 -7.99414,-14.88086 -5.96258,-7.18628 -15.04461,-15.50244 -24.89258,-24.05078 -19.69591,-17.0967 -43.22382,-32.98983 -52.11523,-58.35352 -6.30494,-17.98549 -7.8502,-28.98949 -10.32813,-34.41406 -2.47793,-5.42457 -5.76717,-9.69385 -22.46289,-19.59961 l -0.85547,-0.50977 -0.7832,-0.59765 c -15.81547,-12.06452 -40.71242,-16.02165 -80.8086,-12.94727 -40.09621,3.07438 -93.66261,12.93804 -162.57226,23.93945 -1.17906,0.18824 -2.35299,0.35682 -3.5293,0.53516 5.57442,2.68194 11.51694,5.07262 18.19336,7.14649 16.50969,-1.76139 33.03301,-3.61903 49.31836,-6.91797 25.03884,-5.45398 50.37885,-10.03733 76.02344,-11.20899 17.57866,-0.29563 35.13514,2.37272 52.00586,7.24219 19.02497,5.36969 37.01707,13.96339 53.7832,24.36719 4.83247,2.53304 7.77893,8.84403 5.51367,14.02539 -3.57241,5.78158 -9.71931,9.40867 -16.00976,11.57226 -3.25406,1.06045 -6.56531,1.84589 -9.91211,2.41797 l 0.41797,0.4336 c -20.41065,19.69369 -44.82647,31.06744 -70.70899,38.47265 0.71504,2.14237 0.90418,4.44017 0.38672,6.69727 -2.19749,6.02415 -7.35118,10.24906 -12.27148,14.05468 -8.6504,7.28777 -19.99407,10.68499 -31.16016,11.18555 -7.60244,-0.044 -15.20578,-0.43313 -22.80664,-0.66406 -13.52398,-0.54561 -27.0578,-0.83933 -40.57422,-1.5625 -35.08684,-2.28079 -70.1196,-5.3222 -105.19336,-7.78906 -12.16564,-0.50419 -24.50099,-2.63871 -35.43555,-8.21094 -5.23062,-2.63553 -10.58558,-5.88722 -13.86328,-10.8457 -18.65714,-3.52483 -42.00601,-7.71671 -62.86132,-12.99805 -13.56107,-3.43419 -26.05117,-7.28016 -35.99415,-12.08594 -4.12824,-1.9953 -7.83146,-4.14598 -11.05468,-6.73828 -0.84088,-0.12415 -1.68336,-0.23977 -2.52344,-0.36719 -9.01473,-1.4403 -18.07669,-2.71833 -26.947266,-4.91601 -7.930764,-1.84517 -15.561105,-5.69185 -21.091797,-11.75977 -2.531611,-2.3667 -4.40921,-5.60859 -4.568359,-9.12695 -0.107944,-4.47685 2.320633,-8.64772 5.515624,-11.63086 4.474519,-4.24184 10.326377,-6.50534 15.951172,-8.77344 10.941746,-4.38954 22.799316,-5.86266 34.509766,-6.22851 3.59236,-0.0322 7.18582,-0.0441 10.77734,0.0527 9.82578,0.314 19.65514,0.60009 29.47266,1.12109 11.55664,0.63221 23.18532,1.46009 34.44727,4.28907 14.00145,3.38392 27.23171,9.28814 40.0371,15.77929 3.41417,1.85031 7.04139,3.31543 10.29493,5.45313 3.2126,1.91331 5.7621,5.30329 5.88086,9.13672 0.0102,3.3665 -1.8975,6.39708 -4.09571,8.80664 -5.82761,6.20217 -14.00483,9.89844 -22.38281,10.99023 -3.38166,0.49323 -6.80474,0.3417 -10.20312,0.15235 -11.32857,-0.68403 -22.64701,0.13742 -33.96485,0.70117 17.45308,4.01549 36.20685,7.40967 52.11328,10.42578 5.86377,-5.95845 12.22243,-11.43474 19.11719,-16.16797 9.6319,-6.40577 20.27711,-11.81367 31.83984,-13.49609 0.33307,-0.0333 0.665,-0.0656 0.99805,-0.0996 18.40909,0.08 36.67197,2.71252 54.98242,4.31054 10.98418,1.28514 22.0572,1.15453 33.09571,1.36914 12.76554,0.45786 24.65598,5.59177 36.93945,8.51172 9.42338,2.61593 19.2571,1.134 28.87891,1.39063 6.09913,-0.13047 12.16228,1.36729 17.62695,4.04297 6.02181,3.20969 11.78147,6.86602 17.5293,10.54101 21.11468,-5.05879 40.83982,-12.14469 57.95507,-23.51562 -0.31572,-0.0184 -0.63396,-0.0295 -0.94921,-0.0488 -42.03315,-3.12922 -84.16085,-4.73227 -126.20704,-7.66016 -20.40605,-0.7488 -40.39073,-7.0519 -58.03515,-17.24218 C 337.2023,178.43347 323.56117,171.21537 310.5,162.70703 251.79684,167.81231 197.12808,161.8675 149.10742,155.09375 92.274456,147.07693 37.996166,138.00148 6.1035156,142.5332 c -0.2665918,-6.93712 0,-33.20703 0,-33.20703 z"
       transform="matrix(0.26458333,0,0,0.26458333,0,87)"
       id="rect45-6"
       inkscape:connector-curvature="0"
       sodipodi:nodetypes="cccccccccccccccccccccccccccccccccscscccscccccsccccccccccccccccccsccccccsccccccccccccccccccccccccccccccccsccccccccccccsccccccccccccccscssccsccccccccccccccscccccccccccccccccccccccccccccccccccccccccccccccccccccccccccccccccccccccccccccccccccccccccccccccccccccccccccccccccccccccccccsccccccccccsccccccccccccccccccccccccccccccccccccccsccccccccccccccccccccccccccccccccccccccccccccccccccccccccccccscccccccccccccccccccccccccccccccccccccccccccccccsccccccccscccccccccccscccccscsscccscccccccccccccccccccccccccccccccccccccccccccccccccccccccscc" />
  </g>
  <g
     inkscape:groupmode="layer"
     id="layer9"
     inkscape:label="l2+l3+l4"
     style="display:inline">
    <ellipse
       transform="translate(0,-87.000001)"
       style="display:inline;fill:none;fill-opacity:1;stroke:#000000;stroke-width:0.30000001;stroke-miterlimit:4;stroke-dasharray:none;stroke-opacity:1"
       id="path6734"
       ry="20.032738"
       rx="26.741817"
       cy="204.20683"
       cx="41.860867" />
  </g>
  <g
     inkscape:groupmode="layer"
     id="layer10"
     inkscape:label="l5"
     style="display:inline">
    <ellipse
       transform="translate(0,-87.000001)"
       style="display:inline;fill:none;fill-opacity:1;stroke:#000000;stroke-width:0.30000001;stroke-miterlimit:4;stroke-dasharray:none;stroke-opacity:1"
       id="path6734-2"
       cy="204.18216"
       cx="40.957714"
       ry="8.8254671"
       rx="11.108227" />
  </g>
  <g
     inkscape:groupmode="layer"
     id="layer8"
     inkscape:label="l1+l2+l3+l4+l5"
     style="display:inline">
    <rect
       transform="translate(0,-87.000001)"
       id="rect45"
       width="294.59131"
       height="206.34982"
       x="1.6149609"
       y="88.256332"
       style="display:inline;fill:none;stroke:#000000;stroke-width:0.46869099;stroke-opacity:1"
       ry="9.4655876" />
  </g>
  <g
     inkscape:groupmode="layer"
     id="layer7"
     inkscape:label="l2+l4"
     style="display:inline">
    <path
       transform="translate(0,-87.000001)"
       style="display:inline;fill:none;fill-opacity:1;stroke:#005c00;stroke-width:0.30000001;stroke-miterlimit:4;stroke-dasharray:none;stroke-dashoffset:0;stroke-opacity:1"
       d="m 105.69141,102.02344 c -4.16108,0.14912 -8.281899,0.79287 -12.415449,1.24928 -4.16565,0.48575 -8.37341,0.72521 -12.56239,0.42342 -2.75838,-0.19407 -5.51037,-0.55332 -8.27998,-0.53403 -1.46673,0.36609 -2.67394,1.62135 -2.94727,3.11328 0.7656,2.11506 2.40599,3.72523 3.55961,5.61731 1.34635,1.88932 3.02335,3.67555 5.2225,4.5448 2.62266,0.91044 5.48403,0.6875 8.14826,0.0845 5.81803,-1.26052 11.47136,-3.32084 17.415549,-3.96233 8.4322,-1.13042 16.97009,-0.87195 25.42618,-1.72007 2.02994,-0.24462 4.13161,-0.57043 5.90267,-1.659 0.79703,-0.54006 1.56626,-1.33718 1.63133,-2.34593 -0.10542,-1.14719 -1.2672,-1.9785 -2.3795,-1.92064 -8.37188,-1.0177 -16.7382,-2.11996 -25.14768,-2.78461 -1.19024,-0.0636 -2.38153,-0.11968 -3.57383,-0.10596 z"
       id="path6485-4-2-4-1"
       inkscape:connector-curvature="0" />
    <path
       transform="translate(0,-87.000001)"
       style="display:inline;fill:none;fill-opacity:1;stroke:#005c00;stroke-width:0.30000001;stroke-miterlimit:4;stroke-dasharray:none;stroke-dashoffset:0;stroke-opacity:1"
       d="m 252.1543,102.05078 c -6.39479,0.0364 -12.65275,1.51151 -18.98024,2.23985 -6.48542,0.73368 -13.03976,0.41628 -19.51057,-0.30977 -5.15866,-0.52995 -10.38839,-0.89973 -15.54785,-0.17582 -3.04315,0.45678 -6.00929,1.69411 -8.31876,3.75355 -0.7763,0.99982 -0.2323,2.58991 0.8802,3.08788 1.43865,0.79695 2.93625,1.48124 4.42069,2.18718 4.19248,1.9129 8.67109,3.34677 13.29711,3.60966 6.15418,0.44952 12.3099,-0.30036 18.40417,-1.09496 6.99621,-0.96137 13.94769,-2.38549 21.01884,-2.68942 4.14889,0.0256 8.13371,1.31448 12.17625,2.07935 2.58411,0.47558 5.36014,0.47312 7.79118,-0.63229 2.53902,-1.08926 4.84764,-2.80939 6.45195,-5.07289 0.61346,-1.14599 -0.0193,-2.67747 -1.17282,-3.20302 -1.53965,-0.8325 -3.23121,-1.31745 -4.86827,-1.91506 -3.37944,-1.131 -6.92683,-1.77409 -10.49302,-1.81989 -1.84869,-0.0696 -3.69931,-0.045 -5.54886,-0.0443 z"
       id="path6485-7"
       inkscape:connector-curvature="0" />
    <path
       transform="translate(0,-87.000001)"
       style="display:inline;fill:none;fill-opacity:1;stroke:#005c00;stroke-width:0.30000001;stroke-miterlimit:4;stroke-dasharray:none;stroke-dashoffset:0;stroke-opacity:1"
       d="m 267.69336,137.23047 c -7.10041,0.18099 -14.18618,0.72927 -21.28726,0.89051 -2.66405,0.0657 -5.33148,0.0676 -7.99239,-0.0939 -4.30593,-0.2347 -8.6141,-0.75572 -12.93154,-0.49413 -2.44437,0.12901 -4.85799,0.66242 -7.15573,1.49855 -0.95044,0.35043 -1.8896,0.74033 -2.79578,1.19146 -0.80171,0.54382 -1.11693,1.59122 -1.01113,2.52113 0.11091,0.82146 0.60818,1.56413 1.29933,2.01406 1.55166,1.19406 3.29391,2.11418 5.0685,2.92848 3.39947,1.51663 7.13572,2.31948 10.86313,2.18546 2.17403,-0.0694 4.34423,-0.23656 6.51965,-0.26695 5.79975,-0.15429 11.60089,0.0576 17.40127,0.005 3.00243,-0.0282 6.00412,-0.22894 8.97869,-0.64225 3.31608,-0.44374 6.60862,-1.09801 9.81912,-2.04427 1.6981,-0.50789 3.38613,-1.24639 4.66401,-2.50765 0.34935,-0.36013 0.75374,-0.76377 0.78083,-1.29531 0.031,-0.73966 -0.44506,-1.3914 -1.01354,-1.81737 -0.62336,-0.50534 -1.33657,-0.88208 -1.99634,-1.33551 -1.78586,-1.13727 -3.70853,-2.15522 -5.81779,-2.51244 -1.11681,-0.21418 -2.25896,-0.24675 -3.39303,-0.2253 z"
       id="path6485-1-3"
       inkscape:connector-curvature="0" />
    <path
       transform="translate(0,-87.000001)"
       style="display:inline;fill:none;fill-opacity:1;stroke:#005c00;stroke-width:0.30000001;stroke-miterlimit:4;stroke-dasharray:none;stroke-dashoffset:0;stroke-opacity:1"
       d="m 267.71875,118.64648 c -4.93712,0.23725 -9.70092,1.74796 -14.28789,3.49673 -4.33021,1.64518 -8.82283,2.85573 -13.06387,4.73466 -0.50429,0.23376 -1.07384,0.46477 -1.31426,1.00885 -0.57835,1.10028 -0.1303,2.66621 1.03868,3.17273 2.41229,1.56933 5.08435,2.75064 7.87726,3.44761 3.39616,0.76416 6.89337,0.38579 10.33865,0.39974 3.26042,-0.0266 6.52829,0.0368 9.78053,-0.23184 2.94151,-0.33717 5.91343,-0.90431 8.58432,-2.22846 2.41615,-1.69352 3.58464,-4.824 3.21959,-7.70818 -0.0898,-1.13034 -0.65844,-2.19642 -1.52928,-2.91877 -0.52625,-0.44223 -1.14259,-0.75751 -1.7199,-1.12619 -2.69126,-1.5485 -5.84526,-2.12531 -8.92383,-2.04688 z"
       id="path6485-4-8"
       inkscape:connector-curvature="0" />
    <path
       transform="translate(0,-87.000001)"
       style="display:inline;fill:none;fill-opacity:1;stroke:#005c00;stroke-width:0.30000001;stroke-miterlimit:4;stroke-dasharray:none;stroke-dashoffset:0;stroke-opacity:1"
       d="m 199.46298,118.36179 c -5.31067,0.44313 -10.63017,1.64001 -15.37738,4.12298 -2.6698,1.42044 -5.19283,3.3251 -6.7812,5.94451 -0.50833,0.85523 -0.61727,1.91931 -0.31429,2.86499 0.52144,1.92329 1.91936,3.53455 3.60802,4.54875 2.01847,1.17814 4.37906,1.61176 6.68712,1.73362 3.08297,0.11143 6.11995,-0.5239 9.16454,-0.90229 6.0116,-0.84719 12.00322,-1.83397 18.01658,-2.66649 3.01461,-0.16606 5.93062,0.76164 8.81172,1.512 1.9355,0.45737 4.05546,0.66535 5.93145,-0.13691 1.62918,-0.69994 3.0467,-2.1358 3.35521,-3.92677 0.16497,-1.71289 -0.85617,-3.35599 -2.24723,-4.28638 -3.4379,-2.71497 -7.10491,-5.27316 -11.27955,-6.71129 -3.86507,-1.24386 -7.95574,-1.36894 -11.9671,-1.73076 -2.53131,-0.19598 -5.06661,-0.40911 -7.60789,-0.36596 z"
       id="path6485-4-2-3"
       inkscape:connector-curvature="0" />
    <path
       transform="translate(0,-87.000001)"
       style="display:inline;fill:none;fill-opacity:1;stroke:#005c00;stroke-width:0.30000001;stroke-miterlimit:4;stroke-dasharray:none;stroke-dashoffset:0;stroke-opacity:1"
       d="m 19.738281,102.2793 c -1.13842,0.0235 -2.41612,0.15289 -3.2461,1.02539 -1.05541,1.09132 -1.15014,2.99983 -0.11415,4.13679 1.33624,1.92821 3.42662,3.11672 5.44366,4.21217 4.50483,2.43033 9.48379,4.11581 14.62127,4.38766 3.59589,0.26478 7.19933,0.40727 10.79845,0.61803 1.87317,0.0845 3.75626,0.16146 5.62621,-0.009 2.94664,-0.59832 5.55161,-2.86133 6.37066,-5.78095 0.23763,-1.70095 -0.71957,-3.37562 -2.05078,-4.37695 -2.89259,-2.38823 -6.56254,-3.96412 -10.35028,-3.94318 -4.00893,-0.0977 -8.01748,0.0812 -12.02665,0.0609 -4.57288,0.0304 -9.14455,-0.12675 -13.712,-0.33308 -0.45346,-0.005 -0.90684,-0.002 -1.36029,0.002 z"
       id="path6485-4-2-0-0"
       inkscape:connector-curvature="0" />
    <path
       transform="translate(0,-87.000001)"
       style="display:inline;fill:none;fill-opacity:1;stroke:#005c00;stroke-width:0.30000001;stroke-miterlimit:4;stroke-dasharray:none;stroke-dashoffset:0;stroke-opacity:1"
       d="m 34.123041,130.64062 c -3.09839,0.0968 -6.23559,0.4868 -9.13059,1.6482 -1.48823,0.6001 -3.0365,1.19888 -4.22039,2.3212 -0.84534,0.78929 -1.48812,1.89298 -1.45956,3.07748 0.0421,0.9309 0.53879,1.78825 1.20861,2.41444 1.46333,1.60547 3.48254,2.62352 5.58089,3.11172 2.34701,0.58147 4.74426,0.91967 7.12941,1.30075 4.82968,0.73254 9.70983,1.27166 14.60172,1.16282 3.73946,-0.10693 7.47827,-0.50393 11.2212,-0.27793 0.89916,0.0501 1.80461,0.0904 2.69934,-0.0401 2.21667,-0.28887 4.38048,-1.26671 5.92237,-2.9077 0.5816,-0.63753 1.08643,-1.43972 1.08372,-2.33044 -0.0314,-1.01426 -0.70595,-1.91097 -1.55595,-2.4172 -0.86083,-0.5656 -1.82093,-0.95297 -2.72426,-1.44253 -3.38811,-1.71745 -6.8885,-3.27984 -10.59305,-4.17517 -2.97973,-0.7485 -6.05659,-0.96742 -9.11429,-1.13469 -2.59755,-0.13785 -5.19798,-0.2137 -7.79771,-0.29678 -0.95026,-0.0256 -1.90098,-0.0226 -2.85146,-0.0141 z"
       id="path6485-4-2-07-8"
       inkscape:connector-curvature="0" />
    <path
       transform="translate(0,-87.000001)"
       style="display:inline;fill:none;fill-opacity:1;stroke:#005c00;stroke-width:0.30000001;stroke-miterlimit:4;stroke-dasharray:none;stroke-dashoffset:0;stroke-opacity:1"
       d="m 128.02147,126.20312 c -6.78512,0.31 -13.48955,1.52301 -20.11441,2.96604 -4.62336,0.93656 -9.319239,1.43589 -14.005339,1.93372 -0.92706,0.16757 -1.91687,0.44112 -2.55212,1.18618 -0.41993,0.94705 0.20885,2.10268 1.14258,2.44922 5.01132,3.21894 10.849459,5.23086 16.821119,5.44999 11.12472,0.77467 22.27111,1.19879 33.39238,2.02673 3.51989,0.21583 7.14065,0.2283 10.52904,-0.87592 1.66435,-0.57245 3.29078,-1.53203 4.23598,-3.06174 0.59935,-1.3709 -0.18066,-3.04055 -1.45925,-3.71075 -4.43604,-2.75267 -9.19631,-5.02622 -14.23,-6.44695 -4.46372,-1.28838 -9.10895,-1.99474 -13.75998,-1.91652 z"
       id="path6485-4-2-7-3"
       inkscape:connector-curvature="0" />
    <path
       transform="translate(0,-87.000001)"
       style="display:inline;fill:none;fill-opacity:1;stroke:#005c00;stroke-width:0.30000001;stroke-miterlimit:4;stroke-dasharray:none;stroke-dashoffset:0;stroke-opacity:1"
       d="m 77.338261,140.4948 c -3.05931,0.44514 -5.87589,1.87631 -8.42434,3.57117 -2.38421,1.63676 -4.52755,3.60718 -6.45066,5.76281 -0.49507,0.84393 -0.17025,1.87254 0.21666,2.68963 0.81026,1.60842 2.41097,2.59784 3.96793,3.38234 2.8931,1.47432 6.15674,2.03896 9.37557,2.17236 9.27993,0.65269 18.54886,1.4573 27.832259,2.06076 3.57622,0.19134 7.15722,0.26931 10.73544,0.41367 2.01105,0.0611 4.02262,0.16379 6.03409,0.17544 2.95437,-0.13244 5.95567,-1.03131 8.24442,-2.95953 1.30183,-1.00692 2.66522,-2.12434 3.24663,-3.71823 0.36644,-1.59832 -0.6034,-3.27647 -2.00851,-4.02521 -2.37065,-1.45824 -4.66461,-3.04885 -7.12301,-4.3592 -1.44585,-0.70794 -3.04988,-1.10376 -4.66361,-1.06924 -2.54578,-0.0679 -5.14789,0.32404 -7.64116,-0.36809 -3.25,-0.77257 -6.3958,-2.13098 -9.77335,-2.25212 -2.920609,-0.0568 -5.850309,-0.0221 -8.756539,-0.36214 -4.84464,-0.42281 -9.67671,-1.1197 -14.54745,-1.14086 -0.0881,0.009 -0.17625,0.0176 -0.26437,0.0264 z"
       id="path6485-4-2-2-9"
       inkscape:connector-curvature="0" />
    <path
       transform="translate(0,-87.000001)"
       style="display:inline;fill:none;fill-opacity:1;stroke:#005c00;stroke-width:0.30000001;stroke-miterlimit:4;stroke-dasharray:none;stroke-dashoffset:0;stroke-opacity:1"
       d="m 217.38672,193.3125 c -5.91512,0.18673 -11.83162,0.3585 -17.74163,0.67303 -1.03553,0.0834 -2.08201,0.0927 -3.10697,0.2686 -2.98517,0.60687 -5.60237,2.27386 -8.06541,3.99132 -2.16495,1.5135 -4.29602,3.07949 -6.33599,4.75846 -0.59377,0.62679 -0.3029,1.68441 0.31876,2.18287 0.35999,0.32116 0.84857,0.37034 1.30374,0.42986 4.91122,0.90317 9.8534,1.99305 14.8775,1.81305 4.26074,-0.20509 8.44891,-1.43486 12.73633,-1.13867 3.11704,0.27327 6.0916,1.30977 9.06763,2.20987 4.12342,1.30673 8.24869,2.69559 12.53958,3.34494 7.17376,1.21316 14.46681,1.29065 21.71529,1.65889 5.54506,0.23342 11.07963,0.66072 16.62227,0.93736 1.73106,0.0511 3.49762,0.11133 5.18999,-0.31513 2.14667,-0.67764 3.84721,-2.47722 4.55582,-4.59552 0.53864,-1.32571 1.05587,-2.71063 1.0696,-4.15877 -0.0979,-2.11611 -1.17761,-4.05903 -2.52337,-5.64265 -1.11454,-1.25577 -2.68701,-2.20343 -4.40209,-2.22619 -1.65158,-0.0627 -3.27502,0.32698 -4.91919,0.41011 -8.20588,0.8068 -16.47655,0.99197 -24.70789,0.49435 -2.74532,-0.18839 -5.47798,-0.58403 -8.14951,-1.24948 -5.60378,-1.3148 -11.10145,-3.23381 -16.86673,-3.73888 -1.05654,-0.0881 -2.11759,-0.12778 -3.17773,-0.10742 z"
       id="path6565-8"
       inkscape:connector-curvature="0"
       sodipodi:nodetypes="cccccccccccccccc" />
    <path
       transform="translate(0,-87.000001)"
       style="display:inline;fill:none;fill-opacity:1;stroke:#005c00;stroke-width:0.30000001;stroke-miterlimit:4;stroke-dasharray:none;stroke-dashoffset:0;stroke-opacity:1"
       d="m 230.06836,174.53674 c -1.48138,0.0262 -2.95679,0.18901 -4.43565,0.27358 -8.03077,0.56238 -16.077,1.04623 -24.05873,2.12799 -2.94204,0.64746 -5.82274,2.03445 -7.79078,4.36991 -0.77452,0.97908 -0.41886,2.58225 0.67252,3.17335 1.13622,0.81155 2.54906,1.0279 3.83536,1.50003 6.53645,2.03377 13.45411,2.64194 20.27073,2.27157 4.06049,-0.18453 8.12793,-0.47291 12.19279,-0.23304 3.88544,0.17334 7.74223,0.7222 11.56982,1.39175 9.35196,1.47534 18.70621,3.13653 28.17903,3.58945 1.96469,0.0165 4.05035,-0.44767 5.53171,-1.81225 1.1472,-1.14407 1.44293,-2.87305 1.27929,-4.42969 -0.10068,-1.25728 -0.10203,-2.59461 -0.74084,-3.72161 -0.62584,-0.82786 -1.72927,-0.98354 -2.69423,-1.06332 -3.49684,-0.42942 -7.05859,-0.50822 -10.47394,-1.44892 -7.81627,-1.81816 -15.59279,-3.85561 -23.51785,-5.15915 -3.24566,-0.51898 -6.52914,-0.85842 -9.81923,-0.82965 z"
       id="path6565-5-6"
       inkscape:connector-curvature="0" />
    <path
       transform="translate(0,-87.000001)"
       style="display:inline;fill:none;fill-opacity:1;stroke:#005c00;stroke-width:0.30000001;stroke-miterlimit:4;stroke-dasharray:none;stroke-dashoffset:0;stroke-opacity:1"
       d="m 224.86328,214.96289 c -6.98889,1.0399 -14.01073,1.96583 -20.88957,3.61314 -2.3876,0.76838 -4.39456,2.32335 -6.51118,3.61469 -2.6393,1.7168 -5.23148,3.50847 -7.73206,5.42256 -0.99192,1.17086 -0.36015,3.21627 1.08398,3.6836 6.30302,3.12849 13.49703,4.30283 20.48515,3.66282 7.2075,-0.50959 14.41005,-1.15383 21.63559,-1.34665 4.63322,-0.12048 9.2788,2.7e-4 13.88457,0.54322 6.47287,0.71415 12.88508,1.90327 19.36693,2.5419 2.99064,0.27987 5.99946,0.24626 8.99769,0.13505 0.73593,-0.0582 1.49104,-0.0559 2.20429,-0.26095 1.58679,-0.52907 2.7287,-1.90948 3.39122,-3.39766 0.8876,-1.77893 1.56749,-3.68217 1.84901,-5.65508 0.10845,-1.24259 -0.21487,-2.63616 -1.255,-3.42197 -1.13374,-0.9344 -2.59056,-1.3105 -3.97356,-1.70991 -3.02439,-0.76192 -6.14039,-1.03361 -9.22228,-1.46223 -3.99973,-0.49407 -7.99018,-1.07738 -11.94425,-1.86099 -4.92689,-0.88645 -9.91823,-1.51412 -14.9316,-1.49782 -3.46463,-0.0622 -6.97314,-0.3426 -10.27968,-1.44611 -2.00987,-0.56961 -4.0459,-1.21046 -6.15925,-1.15761 z"
       id="path6565-5-1-0"
       inkscape:connector-curvature="0" />
    <path
       transform="translate(0,-87.000001)"
       style="display:inline;fill:none;fill-opacity:1;stroke:#005c00;stroke-width:0.30000001;stroke-miterlimit:4;stroke-dasharray:none;stroke-dashoffset:0;stroke-opacity:1"
       d="m 44.207031,160.41016 c -3.45982,0.12368 -6.67939,1.53008 -10.01749,2.2872 -1.98703,0.4791 -4.08978,0.70158 -6.09694,0.20558 -2.12691,-0.45162 -4.18171,-1.32959 -6.37833,-1.39122 -1.03352,-0.001 -2.07388,0.43887 -2.71818,1.26172 -1.09341,1.28959 -1.35597,3.04255 -1.42504,4.67728 -0.0381,1.54468 0.36337,3.17314 1.45293,4.31766 1.45411,1.64335 3.37539,2.77584 5.29896,3.78372 2.39408,1.17783 4.93191,2.05195 7.51526,2.70554 2.89973,0.4848 5.81671,-0.12345 8.7085,-0.36137 3.16815,-0.30346 6.3864,-0.12675 9.48958,0.59095 3.82944,0.75103 7.72659,1.24294 11.63524,1.16226 6.00399,0.003 12.0102,0.27023 18.01265,0.0481 2.2036,-0.21165 4.26927,-1.20079 6.03927,-2.49451 1.47617,-1.10779 2.7548,-2.4481 4.05608,-3.74978 2.05681,-2.1359 3.95664,-4.45478 5.41395,-7.04399 0.3921,-1.02268 -0.29947,-2.22098 -1.31689,-2.53765 -0.93925,-0.36492 -1.93716,-0.007 -2.9014,8e-4 -4.5363,0.26577 -9.09486,-0.0337 -13.57824,-0.75298 -6.15236,-0.7735 -12.3646,-0.89704 -18.55808,-0.81788 -3.61301,-0.0887 -7.14712,-0.91368 -10.68532,-1.56873 -1.30508,-0.20253 -2.62408,-0.34553 -3.94651,-0.32267 z"
       id="path6598-7"
       inkscape:connector-curvature="0" />
    <path
       transform="translate(0,-87.000001)"
       style="display:inline;fill:none;fill-opacity:1;stroke:#005c00;stroke-width:0.30000001;stroke-miterlimit:4;stroke-dasharray:none;stroke-dashoffset:0;stroke-opacity:1"
       d="m 119.73047,213.1875 c -6.29877,0.29798 -12.6081,1.09554 -18.91679,0.55229 -1.855329,-0.15242 -3.814279,-0.31409 -5.572439,0.42878 -2.24565,1.04357 -3.28321,4.10843 -2.06385,6.27921 0.85007,1.42143 2.40473,2.15849 3.81617,2.9009 2.90137,1.49652 5.742949,3.22428 8.936789,4.0298 1.31184,0.28403 2.66884,0.12449 3.98713,-0.0319 1.90963,-0.26892 3.82179,-0.53189 5.74487,-0.68457 2.45912,-0.18689 4.96524,-0.0713 7.34533,0.61534 4.22258,1.0721 8.26106,2.91442 12.62448,3.39104 4.65233,0.44279 9.37858,-0.2186 13.98933,0.70904 2.62662,0.54712 5.21461,1.52261 7.93515,1.4136 1.74536,-0.19206 3.15138,-1.58013 3.78125,-3.16016 1.13787,-2.71585 1.58949,-5.81439 0.78325,-8.684 -0.46535,-1.54009 -1.60074,-2.87349 -3.08365,-3.51617 -1.88471,-0.97556 -3.76209,-2.00575 -5.79151,-2.65276 -1.788,-0.56428 -3.71994,-0.7468 -5.56015,-0.331 -3.11768,0.5858 -6.08385,1.97948 -9.29474,2.03775 -3.41058,0.0494 -6.68179,-1.04824 -9.93844,-1.91751 -2.83943,-0.78696 -5.75477,-1.47918 -8.72218,-1.37967 z"
       id="path6598-5-1"
       inkscape:connector-curvature="0" />
    <path
       transform="translate(0,-87.000001)"
       style="display:inline;fill:none;fill-opacity:1;stroke:#005c00;stroke-width:0.30000001;stroke-miterlimit:4;stroke-dasharray:none;stroke-dashoffset:0;stroke-opacity:1"
       d="m 37.707041,228.28981 c -2.748,0.15385 -5.39261,0.97336 -8.06991,1.54329 -1.03926,0.23157 -2.09305,0.38518 -3.14299,0.55756 -0.89899,0.17418 -1.7838,0.47706 -2.54184,1.00108 -1.19906,0.7805 -2.07955,1.94231 -2.83601,3.13606 -1.08061,1.60505 -2.18966,3.25416 -2.67702,5.15161 -0.3783,1.6241 0.11531,3.46071 1.36701,4.58846 0.99615,0.82596 2.36616,1.07897 3.62469,0.89067 3.102,-0.26925 6.22663,-0.60056 9.3386,-0.28463 3.04772,0.26906 6.10166,0.51829 9.16342,0.51809 3.16209,0.0381 6.36153,0.0464 9.45627,0.77944 3.69202,0.85315 7.25134,2.25579 11.0113,2.81494 2.88569,0.38307 5.84667,-0.22796 8.45752,-1.47641 1.97125,-0.95054 3.83179,-2.13601 5.51756,-3.53206 0.76905,-0.6437 1.50561,-1.33073 2.17027,-2.08201 0.71846,-0.94772 0.68097,-2.31289 0.0991,-3.31758 -0.38341,-0.68755 -1.00494,-1.21011 -1.68981,-1.58178 -2.55004,-1.64392 -5.40288,-2.71624 -8.10977,-4.06117 -2.32686,-1.11992 -4.66261,-2.31572 -7.21373,-2.83298 -2.49181,-0.52527 -5.05964,-0.4872 -7.58591,-0.28918 -2.19255,0.14212 -4.4136,0.40989 -6.5964,0.0212 -2.79153,-0.45347 -5.5051,-1.39241 -8.3472,-1.51524 -0.46434,-0.0288 -0.93004,-0.0372 -1.39518,-0.0294 z"
       id="path6485-4-2-7-5-0"
       inkscape:connector-curvature="0" />
    <path
       transform="translate(0,-87.000001)"
       style="display:inline;fill:none;fill-opacity:1;stroke:#005c00;stroke-width:0.30000001;stroke-miterlimit:4;stroke-dasharray:none;stroke-dashoffset:0;stroke-opacity:1"
       d="m 76.677551,254.20684 c -6.72054,0.48648 -13.16182,2.66794 -19.82484,3.53437 -3.30426,0.35484 -6.6295,-0.29168 -9.7591,-1.32896 -2.8576,-0.90266 -5.811,-1.63837 -8.82633,-1.63399 -1.99303,-0.0183 -3.97451,0.29946 -5.89637,0.81271 -4.09382,1.06163 -7.95063,2.85625 -11.69614,4.78932 -1.59095,0.87024 -3.16468,1.9475 -4.12808,3.52186 -0.96273,1.76286 -0.79582,3.9985 0.21332,5.70401 0.99664,2.05914 2.85061,3.80631 5.13025,4.29063 1.94701,0.39539 3.9086,-0.13621 5.80239,-0.55994 3.44179,-0.71764 6.90122,-1.66852 10.44897,-1.5074 2.90081,0.30815 5.48795,1.78189 8.28533,2.49596 3.4438,0.95773 7.07956,0.93428 10.6018,0.48757 4.46453,-0.53225 8.92178,-1.54126 13.4432,-1.22869 3.73268,0.24423 7.39278,1.08199 11.11174,1.45055 3.81132,0.43489 7.71983,0.61575 11.48909,-0.23246 1.34416,-0.3289 2.73534,-0.79555 3.74066,-1.78725 0.97954,-1.20996 0.80718,-3.16902 -0.3717,-4.18769 -1.28611,-1.4077 -2.81339,-2.57702 -4.04043,-4.04161 -2.57743,-2.75364 -4.89244,-5.77249 -7.77171,-8.22903 -2.30714,-1.61545 -5.14323,-2.41898 -7.95205,-2.34996 z"
       id="path6485-4-2-7-7-7"
       inkscape:connector-curvature="0" />
    <path
       transform="translate(0,-87.000001)"
       style="display:inline;fill:none;fill-opacity:1;stroke:#005c00;stroke-width:0.30000001;stroke-miterlimit:4;stroke-dasharray:none;stroke-dashoffset:0;stroke-opacity:1"
       d="m 241.00195,236.41797 c -2.88207,0.1458 -5.76428,0.29746 -8.64816,0.4085 -4.05139,0.17303 -8.10424,0.33547 -12.1505,0.6041 -5.02401,0.50087 -9.91911,2.37168 -13.95725,5.40887 -0.93186,0.72571 -1.85473,1.49119 -2.59546,2.41488 -0.59825,0.92396 -0.48725,2.28245 0.37871,3.00557 1.05066,1.0593 2.47554,1.60313 3.8149,2.19389 3.93616,1.53888 8.19184,1.92114 12.37456,2.17317 6.41961,0.3179 12.82339,-0.42421 19.23587,-0.58797 6.24707,-0.20931 12.5224,-0.009 18.71204,0.90349 5.0807,0.66568 10.15978,1.57572 15.30047,1.54336 2.85264,-0.13651 5.74704,-1.03465 7.93522,-2.92138 1.10371,-1.15852 1.10826,-3.05214 0.28905,-4.36914 -1.64025,-2.94655 -4.3938,-5.36706 -7.70097,-6.2084 -1.97399,-0.50387 -4.00296,-0.73481 -6.00705,-1.08405 -5.85222,-0.9079 -11.69709,-1.86975 -17.56719,-2.65687 -2.83498,-0.36662 -5.67779,-0.71915 -8.53588,-0.83246 -0.29274,-0.007 -0.58558,0.003 -0.87836,0.004 z"
       id="path6485-4-2-7-2-1"
       inkscape:connector-curvature="0" />
    <path
       transform="translate(0,-87.000001)"
       style="display:inline;fill:none;fill-opacity:1;stroke:#005c00;stroke-width:0.30000001;stroke-miterlimit:4;stroke-dasharray:none;stroke-dashoffset:0;stroke-opacity:1"
       d="m 227.38281,257.20312 c -3.13554,0.1041 -6.23548,0.6399 -9.32147,1.16915 -4.56005,0.81893 -9.10326,1.81008 -13.50079,3.28398 -1.27417,0.43574 -2.5718,0.87933 -3.66458,1.69062 -1.24957,0.88636 -2.34294,2.07424 -2.88826,3.52275 -0.30414,1.50115 0.60454,3.07133 1.93565,3.75538 3.17214,2.40149 6.56052,4.646 10.38685,5.84732 3.26995,0.81931 6.68421,0.51706 9.98069,0.0331 5.38238,-0.81555 10.65051,-2.45273 16.12074,-2.62845 5.01735,-0.053 9.96379,0.93959 14.86181,1.91607 4.57404,0.93091 9.13215,1.97262 13.75995,2.60772 3.06647,0.40395 6.25682,0.51241 9.24508,-0.40688 1.96996,-0.63623 3.71299,-1.96527 4.79497,-3.73664 1.33846,-2.085 2.13636,-4.51599 2.31279,-6.98574 0.0806,-2.06166 -0.615,-4.17872 -2.05832,-5.67758 -1.27137,-1.3869 -3.1826,-2.2669 -5.08243,-2.01821 -2.19497,0.16952 -4.33919,0.9081 -6.55938,0.73728 -2.42753,-0.10085 -4.80611,-0.64114 -7.21312,-0.92948 -9.0449,-1.31972 -18.17172,-2.21006 -27.32006,-2.18059 -1.93005,-0.01 -3.86006,-0.006 -5.79012,2.2e-4 z"
       id="path6485-4-2-20-8"
       inkscape:connector-curvature="0"
       sodipodi:nodetypes="ccccccccccccccc" />
    <path
       transform="translate(0,-87.000001)"
       style="display:inline;fill:none;fill-opacity:1;stroke:#005c00;stroke-width:0.30000001;stroke-miterlimit:4;stroke-dasharray:none;stroke-dashoffset:0;stroke-opacity:1"
       d="m 93.782641,241.84367 c -1.19726,0.0657 -2.45546,0.31333 -3.42466,1.22391 -1.02455,0.9112 -1.61448,2.45249 -1.54071,3.97829 0.0375,2.36014 0.96727,4.55872 2.13806,6.40131 1.49382,2.28887 3.65375,4.06365 6.0889,4.45501 4.167979,0.74216 8.345879,-0.5613 12.523259,-0.19161 1.6118,0.14944 3.20585,0.49287 4.80116,0.79646 3.59754,0.7327 7.21053,1.43759 10.86204,1.62036 6.77435,0.35513 13.53666,-0.71754 20.17615,-2.24857 2.51001,-0.5402 5.07695,-0.35746 7.59645,-0.0184 2.16782,0.26793 4.40668,0.56244 6.53752,-0.16265 2.10464,-0.71043 3.84555,-2.51957 5.0643,-4.65245 0.84072,-1.49153 1.45633,-3.18709 1.70469,-4.96726 0.11595,-1.10263 -0.48272,-2.11884 -1.21939,-2.7023 -0.6796,-0.55189 -1.49352,-0.76849 -2.25092,-1.11528 -3.02119,-1.23167 -6.18943,-2.11181 -9.39662,-2.04324 -1.78876,0.10167 -3.56544,0.39272 -5.34249,0.64594 -4.53699,0.6925 -9.08015,1.53715 -13.66594,1.49974 -8.35283,0.2201 -16.70932,-0.19404 -25.03804,-0.9451 -3.64345,-0.15401 -7.26743,-0.66116 -10.879979,-1.22658 -1.43671,-0.1868 -2.87882,-0.38278 -4.32602,-0.36712 -0.13592,0.007 -0.27184,0.013 -0.40776,0.0196 z"
       id="path6658-8"
       inkscape:connector-curvature="0" />
    <path
       transform="translate(0,-87.000001)"
       inkscape:connector-curvature="0"
       style="display:inline;fill:none;fill-opacity:1;stroke:#005c00;stroke-width:0.30000001;stroke-miterlimit:4;stroke-dasharray:none;stroke-dashoffset:0;stroke-opacity:1"
       d="m 125.3654,183.45964 c -1.62483,0.3104 -3.28567,0.57115 -4.92852,0.29492 -3.65591,-0.0392 -7.14779,1.406 -10.73389,2.01148 -5.43687,1.08935 -10.892199,2.05761 -16.359629,2.91227 -3.68421,0.46502 -7.41604,0.19882 -11.05685,-0.56818 -3.1661,-0.57074 -6.30831,-1.39667 -9.51268,-1.62238 -1.21115,-0.0309 -2.58881,0.2369 -3.38876,1.4018 -1.00522,1.57288 -0.87693,3.78474 -0.12361,5.45726 0.77416,1.8014 1.97654,3.28166 3.12061,4.76826 2.85241,3.39744 6.62972,5.90074 10.72951,6.4053 4.57434,0.52112 9.12818,-0.47932 13.64761,-1.16967 3.391039,-0.54437 6.853569,-0.69453 10.244009,-0.0607 5.29748,0.82757 10.51448,2.4285 15.87844,2.6149 4.3974,0.20666 8.87072,-0.47212 12.95777,-2.43111 3.42449,-1.55545 6.72976,-3.72862 9.23134,-6.91369 0.6404,-0.86456 1.27405,-1.79875 1.57592,-2.89711 0.18926,-1.26879 -0.66038,-2.50448 -1.69891,-2.8021 -0.92598,-0.44366 -1.64958,-1.33291 -2.08226,-2.37124 -0.78273,-1.46799 -1.54786,-3.13063 -2.95284,-3.89936 -1.75508,-0.95503 -3.73902,-0.80508 -5.62382,-0.94858 -2.82556,-0.0909 -5.65297,-0.19086 -8.47783,-0.25646 -0.14853,0.0248 -0.29707,0.0496 -0.44561,0.0744 z"
       id="path6658-6-9" />
    <path
       transform="translate(0,-87.000001)"
       style="display:inline;fill:none;fill-opacity:1;stroke:#005c00;stroke-width:0.30000001;stroke-miterlimit:4;stroke-dasharray:none;stroke-dashoffset:0;stroke-opacity:1"
       d="m 216.28599,153.31557 c -3.38693,0.0888 -6.60955,1.26393 -9.77142,2.37188 -2.96505,1.02182 -5.86853,2.47189 -8.07819,4.74335 -1.14733,1.38304 -1.24824,3.60401 -0.063,4.99467 0.68416,0.6736 1.54332,1.13753 2.3911,1.57117 1.8687,0.88878 4.0073,1.14286 6.044,0.8164 2.40932,-0.24886 4.84995,-0.57444 7.26539,-0.20565 2.56797,0.2864 5.03737,1.09885 7.45424,1.97815 3.73414,0.98858 7.66191,0.78056 11.44565,0.21137 2.87639,-0.38363 5.80315,-1.04673 8.26343,-2.65584 0.47475,-0.29167 0.92736,-0.61745 1.38082,-0.94073 0.38494,-1.11919 -0.0314,-2.52973 -1.11232,-3.09742 -2.47309,-1.72391 -5.3739,-2.65265 -8.02153,-4.05577 -3.01333,-1.51015 -5.86793,-3.37977 -9.08826,-4.44193 -2.60096,-0.90026 -5.35662,-1.35219 -8.10992,-1.28965 z"
       id="path6485-4-9-1"
       inkscape:connector-curvature="0" />
    <path
       transform="translate(0,-87.000001)"
       style="display:inline;fill:none;fill-opacity:1;stroke:#005c00;stroke-width:0.30000001;stroke-miterlimit:4;stroke-dasharray:none;stroke-dashoffset:0;stroke-opacity:1"
       d="m 247.57031,152.63867 c -2.06508,0.0581 -4.19897,1.02348 -5.29918,2.82837 -0.23309,0.36908 -0.44604,0.75018 -0.6598,1.13062 0.36192,2.961 1.88762,5.63076 3.67833,7.95989 2.27366,2.884 4.51118,5.83184 7.23561,8.31278 2.08779,1.68925 4.8059,2.66952 7.50451,2.42929 3.9153,-0.11056 7.74469,-1.14584 11.38968,-2.52553 3.52309,-1.42113 6.80789,-3.45447 9.618,-6.01153 1.60097,-2.01735 2.0937,-4.95955 0.96745,-7.31517 -0.67067,-1.3439 -2.01867,-2.16685 -3.36506,-2.71683 -3.73583,-1.86591 -7.95333,-2.57483 -12.10226,-2.5658 -4.87167,-0.1137 -9.76524,-0.2789 -14.57184,-1.14437 -1.45526,-0.21726 -2.92053,-0.41321 -4.39544,-0.38172 z"
       id="path6485-4-7-8"
       inkscape:connector-curvature="0" />
    <path
       transform="translate(0,-87.000001)"
       style="display:inline;fill:none;fill-opacity:1;stroke:#005c00;stroke-width:0.30000001;stroke-miterlimit:4;stroke-dasharray:none;stroke-dashoffset:0;stroke-opacity:1"
       d="m 162.92587,159.67829 c -6.19605,0.45122 -12.05299,2.8617 -18.23976,3.37408 -7.32098,0.17294 -14.66047,0.19531 -21.94844,0.99331 -5.13002,0.44773 -10.28471,0.47873 -15.42132,0.80974 -2.50233,0.32547 -5.02327,1.23613 -6.8527,3.02858 -1.301749,1.39044 -1.365479,3.76004 -0.0966,5.19357 1.00149,1.27345 2.52404,1.9397 3.88264,2.74864 5.82671,3.22559 12.58288,4.59519 19.21187,4.31715 4.52901,-0.11062 9.0537,-0.34823 13.58125,-0.50208 5.66344,-0.24401 11.3457,-0.49969 16.94682,-1.42422 6.43932,-1.22936 12.68651,-3.64332 18.13542,-7.30995 1.36835,-0.99492 2.78189,-2.08786 3.52501,-3.65166 0.52382,-1.23449 0.30504,-2.819 -0.73452,-3.72319 -1.16718,-1.18611 -2.76034,-1.78268 -4.25399,-2.43769 -2.45441,-0.9646 -5.09485,-1.48303 -7.73567,-1.41628 z"
       id="path6485-4-2-2-2-0"
       inkscape:connector-curvature="0" />
  </g>
  <g
     inkscape:groupmode="layer"
     id="layer6"
     inkscape:label="l1+l2+l3+l4+l5"
     style="display:inline">
    <circle
       transform="translate(0,-87.000001)"
       style="display:inline;fill:none;stroke:#000000;stroke-width:0.22853822;stroke-opacity:1"
       id="path4530"
       cx="12.387701"
       cy="99.037918"
       r="2.885731" />
    <circle
       transform="translate(0,-87.000001)"
       style="display:inline;fill:none;stroke:#000000;stroke-width:0.22853822;stroke-opacity:1"
       id="path4530-5"
       cx="12.408889"
       cy="283.12521"
       r="2.885731" />
    <circle
       transform="translate(0,-87.000001)"
       style="display:inline;fill:none;stroke:#000000;stroke-width:0.22853822;stroke-opacity:1"
       id="path4530-8"
       cx="285.8555"
       cy="99.177536"
       r="2.885731" />
    <circle
       transform="translate(0,-87.000001)"
       style="display:inline;fill:none;stroke:#000000;stroke-width:0.22853822;stroke-opacity:1"
       id="path4530-2"
       cx="285.86597"
       cy="283.10376"
       r="2.885731" />
    <circle
       transform="translate(0,-87.000001)"
       style="display:inline;fill:none;stroke:#000000;stroke-width:0.22853823;stroke-opacity:1"
       id="path4530-21"
       cx="162.34811"
       cy="99.304329"
       r="2.885731" />
    <circle
       transform="translate(0,-87.000001)"
       style="display:inline;fill:none;stroke:#000000;stroke-width:0.22853823;stroke-opacity:1"
       id="path4530-7"
       cx="162.35957"
       cy="283.00076"
       r="2.885731" />
    <circle
       transform="translate(0,-87.000001)"
       style="display:inline;fill:none;stroke:#000000;stroke-width:0.22853823;stroke-opacity:1"
       id="path4530-2-0"
       cx="285.95782"
       cy="185.84943"
       r="2.885731" />
    <circle
       transform="translate(0,-87.000001)"
       style="display:inline;fill:none;stroke:#000000;stroke-width:0.22853823;stroke-opacity:1"
       id="path4530-2-7"
       cx="12.391796"
       cy="185.85988"
       r="2.885731" />
    <circle
       transform="translate(0,-87.000001)"
       style="display:inline;fill:none;stroke:#000000;stroke-width:0.22853822;stroke-opacity:1"
       id="path4530-3"
       cx="12.394934"
       cy="140.35081"
       r="2.885731" />
    <circle
       transform="translate(0,-87.000001)"
       style="display:inline;fill:none;stroke:#000000;stroke-width:0.22853823;stroke-opacity:1"
       id="path4530-2-7-8"
       cx="12.331474"
       cy="238.1302"
       r="2.885731" />
    <circle
       transform="translate(0,-87.000001)"
       style="display:inline;fill:none;stroke:#000000;stroke-width:0.22853823;stroke-opacity:1"
       id="path4530-2-7-3"
       cx="285.87219"
       cy="140.02721"
       r="2.885731" />
    <circle
       transform="translate(0,-87.000001)"
       style="display:inline;fill:none;stroke:#000000;stroke-width:0.22853823;stroke-opacity:1"
       id="path4530-2-7-2"
       cx="285.92755"
       cy="238.48051"
       r="2.885731" />
    <circle
       transform="translate(0,-87.000001)"
       style="display:inline;fill:none;stroke:#000000;stroke-width:0.22853823;stroke-opacity:1"
       id="path4530-21-82"
       cx="224.50641"
       cy="99.220551"
       r="2.885731" />
    <circle
       transform="translate(0,-87.000001)"
       style="display:inline;fill:none;stroke:#000000;stroke-width:0.22853823;stroke-opacity:1"
       id="path4530-21-8"
       cx="86.862602"
       cy="99.153732"
       r="2.885731" />
  </g>
</svg>
