<?xml version="1.0" encoding="UTF-8" standalone="no"?>
<!-- Created with Inkscape (http://www.inkscape.org/) -->

<svg
   xmlns:dc="http://purl.org/dc/elements/1.1/"
   xmlns:cc="http://creativecommons.org/ns#"
   xmlns:rdf="http://www.w3.org/1999/02/22-rdf-syntax-ns#"
   xmlns:svg="http://www.w3.org/2000/svg"
   xmlns="http://www.w3.org/2000/svg"
   xmlns:sodipodi="http://sodipodi.sourceforge.net/DTD/sodipodi-0.dtd"
   xmlns:inkscape="http://www.inkscape.org/namespaces/inkscape"
   width="297mm"
   height="210mm"
   viewBox="0 0 297 210"
   version="1.1"
   id="svg8"
   inkscape:version="0.92.0 r15299"
   sodipodi:docname="antNest4.svg">
  <defs
     id="defs2" />
  <sodipodi:namedview
     id="base"
     pagecolor="#ffffff"
     bordercolor="#666666"
     borderopacity="1.0"
     inkscape:pageopacity="0.0"
     inkscape:pageshadow="2"
     inkscape:zoom="1.4"
     inkscape:cx="362.11082"
     inkscape:cy="425.1702"
     inkscape:document-units="mm"
     inkscape:current-layer="layer1"
     showgrid="false"
     inkscape:window-width="2560"
     inkscape:window-height="1377"
     inkscape:window-x="1912"
     inkscape:window-y="-8"
     inkscape:window-maximized="1"
     showguides="true"
     inkscape:guide-bbox="true">
    <sodipodi:guide
       position="4.009043,196.4431"
       orientation="0,1"
       id="guide5291"
       inkscape:locked="false" />
    <sodipodi:guide
       position="19.510676,109.5805"
       orientation="0,1"
       id="guide5293"
       inkscape:locked="false" />
    <sodipodi:guide
       position="65.481036,15.234363"
       orientation="0,1"
       id="guide5295"
       inkscape:locked="false" />
    <sodipodi:guide
       position="13.096207,109.5805"
       orientation="1,0"
       id="guide5297"
       inkscape:locked="false" />
    <sodipodi:guide
       position="164.99666,101.33634"
       orientation="1,0"
       id="guide5299"
       inkscape:locked="false" />
    <sodipodi:guide
       position="283.30571,91.673446"
       orientation="1,0"
       id="guide5301"
       inkscape:locked="false" />
    <sodipodi:guide
       position="92.226191,115.28274"
       orientation="1,0"
       id="guide5362"
       inkscape:locked="false" />
    <sodipodi:guide
       position="236.23512,-21.544643"
       orientation="1,0"
       id="guide5364"
       inkscape:locked="false" />
  </sodipodi:namedview>
  <metadata
     id="metadata5">
    <rdf:RDF>
      <cc:Work
         rdf:about="">
        <dc:format>image/svg+xml</dc:format>
        <dc:type
           rdf:resource="http://purl.org/dc/dcmitype/StillImage" />
        <dc:title />
      </cc:Work>
    </rdf:RDF>
  </metadata>
  <g
     inkscape:label="l2"
     inkscape:groupmode="layer"
     id="layer1"
     transform="translate(0,-87)"
     style="display:inline">
    <path
       style="display:inline;fill:none;fill-opacity:1;stroke:#000000;stroke-width:1.13385832;stroke-miterlimit:4;stroke-dasharray:none;stroke-dashoffset:0;stroke-opacity:1"
       d="m 855.11914,68.785156 c -8.04092,1.36021 -14.53898,7.672268 -17.59375,15.035156 -3.23087,7.836143 -1.7658,16.949798 2.29492,24.195308 5.7105,11.38874 12.19872,22.40702 17.03708,34.21642 2.05623,4.52125 4.05521,9.54881 8.45408,12.30788 4.29952,2.80981 9.57219,3.40727 14.59252,3.39991 10.4582,0.59615 20.96114,0.80042 31.34796,2.2672 3.11676,1.211 4.33166,4.73336 4.88282,7.75586 0.65509,4.47393 0.46142,9.01525 0.87934,13.51113 0.15285,2.84134 0.3057,5.68268 0.45855,8.52403 -3.00883,3.16841 -7.6646,3.49162 -11.76875,3.61572 -11.69148,0.0893 -23.33894,-1.11438 -35.01641,-1.479 -1.89513,-0.59042 -3.15988,1.42621 -3.81972,2.89218 -2.25481,4.27088 -1.38889,9.45571 0.61659,13.64484 5.74368,16.0711 15.58857,30.16225 24.58529,44.51732 8.58529,13.54636 17.7099,26.98154 23.35038,42.09448 4.25194,17.96247 3.46297,36.82705 9.06043,54.51329 5.79096,15.56247 19.47719,27.59718 35.25347,32.3958 16.1805,5.57277 33.21343,8.37779 49.16056,14.66084 2.202,0.95517 4.065,2.88284 4.3489,5.3443 0.6725,3.45182 -0.8049,7.58038 -4.1319,9.09187 -11.76002,2.963 -23.97079,1.74926 -35.95359,1.65538 -37.93024,-0.83586 -75.86048,-1.67171 -113.79072,-2.50757 -8.48646,1.40576 -14.42751,11.03741 -11.9375,19.25781 3.80208,20.16602 7.60416,40.33203 11.40625,60.49805 6.3006,8.52165 16.08225,13.7703 26.11718,16.60156 13.67186,3.83252 28.06034,6.4111 42.25586,4.35156 7.06381,-1.08398 14.12761,-2.16796 21.19141,-3.25195 2.48511,1.12661 3.27735,4.48131 2.06641,6.80664 -1.09209,7.10675 -0.18751,14.45063 2.25195,21.19336 -0.34588,4.0527 -4.4353,7.09717 -8.39776,6.72904 -22.84696,3.36413 -45.90104,4.93158 -68.86982,7.20065 -6.70411,1.99396 -9.70374,11.23197 -5.48981,16.80512 8.21965,13.78976 16.92753,27.63785 28.96537,38.45702 10.56981,8.77245 23.7783,13.56785 36.99328,16.69411 14.38516,3.52115 29.00849,6.27556 42.98233,11.28594 5.08435,3.23629 4.67855,11.98426 -0.69531,14.72461 -9.42528,4.87923 -20.25568,5.74573 -30.69177,5.90138 -20.8347,0.10891 -41.66616,0.51588 -62.49759,0.86137 -6.5492,0.0219 -13.15287,0.11704 -19.63843,-0.88853 -10.05401,-2.66675 -18.32125,-9.88285 -24.1443,-18.2963 -3.95279,-5.57503 -7.38131,-12.05234 -7.24847,-19.06436 0.93259,-8.98746 5.71509,-16.89892 8.0433,-25.51524 3.38039,-10.60501 5.4885,-22.00544 3.33603,-33.0798 -1.98117,-9.58261 -7.58877,-18.73451 -16.22518,-23.64509 -7.08118,-3.46038 -15.27404,-3.12839 -22.85292,-1.85557 -18.98902,2.58813 -38.06604,5.90198 -57.30528,4.91612 -11.04238,-1.32987 -21.37766,-6.05786 -30.66992,-12.00195 -3.31233,-3.05915 -2.4028,-8.87741 1.01464,-11.49372 2.47735,-1.89016 5.63113,-2.48598 8.54078,-3.40869 8.41939,-2.09878 17.16002,-2.01998 25.73011,-3.08348 16.8713,-1.56265 33.78195,-3.01949 50.47814,-5.98872 6.80058,-2.4597 11.34762,-9.01736 13.02341,-15.84566 2.36899,-9.59083 3.14935,-19.56199 2.53895,-29.41314 -0.66167,-8.41887 -2.814,-17.17694 -8.52525,-23.65722 -5.84369,-6.69408 -14.27432,-10.78858 -22.98895,-12.12178 -12.77351,-3.00851 -26.0388,-4.90045 -37.87628,-10.88212 -4.806,-2.7144 -6.20442,-9.65806 -3.17365,-14.18393 2.59329,-4.85664 6.90371,-8.45557 10.97476,-12.03224 11.13576,-8.85099 25.60299,-12.84764 39.70698,-12.48395 19.93381,-0.50337 40.10351,-0.63051 59.6046,-5.29183 4.16053,-1.04918 8.54339,-2.26586 11.64317,-5.42407 6.60581,-6.08085 9.49573,-15.73335 7.6797,-24.48292 -1.15716,-14.03153 -3.17191,-28.29717 -9.19728,-41.16552 -4.1059,-7.60814 -13.26668,-11.6291 -21.69833,-10.58747 -15.73582,0.56833 -31.47959,1.09053 -47.22806,0.88364 -13.21249,-0.087 -26.42026,-0.54785 -39.61463,-1.23171 -3.9146,-2.66083 -5.13097,-7.96799 -4.06054,-12.38672 0.37073,-5.50025 1.75813,-11.41234 5.99609,-15.25977 5.47597,-3.98541 12.50035,-4.69951 19.07617,-4.6582 13.87565,-0.65495 27.7513,-1.3099 41.62695,-1.96485 5.45424,-1.98724 8.48907,-8.10513 8.02471,-13.70031 0.37732,-16.49783 2.50179,-32.8811 3.96162,-49.30164 -0.76473,-6.3785 -8.75576,-10.4182 -14.38476,-7.39844 -13.35602,5.54958 -26.50115,11.58608 -39.71094,17.47071 -3.51502,-0.19703 -5.86967,-3.79033 -6.03125,-7.0625 -0.0546,-3.61972 1.25114,-7.07613 1.55411,-10.6624 1.78079,-11.16592 3.56158,-22.33184 5.34237,-33.49776 6.01237,-12.97656 12.02474,-25.95312 18.03711,-38.92969 1.15764,-13.70942 -8.83822,-27.438197 -22.28125,-30.449216 -16.21557,-1.995278 -32.57942,-0.873045 -48.84325,-0.244266 -32.68301,1.664544 -65.34474,3.714969 -98.0191,5.536901 -10.56541,0.612742 -21.13083,1.225483 -31.69624,1.838225 -9.66077,2.523014 -17.27577,11.34112 -18.44336,21.246096 -1.4156,4.78041 -2.8935,9.55799 -4.90625,14.12695 -6.74832,1.94981 -14.63617,0.8237 -19.96289,-3.96289 -3.57079,-4.40221 -4.19146,-10.31727 -4.16797,-15.787109 -0.41808,-5.812726 -4.54236,-11.576612 -10.44848,-12.731271 -6.24885,-1.762166 -12.78924,-0.04496 -18.71038,2.104167 -19.35379,5.961919 -38.32287,13.697973 -58.48372,16.576323 -14.4502,1.63868 -28.99462,-1.66558 -42.41992,-6.869141 -17.49099,-6.575563 -34.37463,-14.695173 -52.06641,-20.748047 -6.83449,-0.848915 -13.07509,6.429371 -11.39843,13.058594 3.98166,23.426754 9.13904,46.754094 10.40578,70.544764 0.32337,6.69456 0.47464,13.51986 -1.29262,20.04718 -2.46209,9.81254 -7.61933,18.7914 -14.13748,26.46571 -3.89299,5.62764 -3.06145,13.63613 1.14312,18.86244 4.82149,7.31178 12.28765,12.19486 19.26169,17.23459 11.65525,8.00129 24.91991,14.29077 39.13353,15.69113 13.81928,1.56015 27.73812,0.52164 41.59499,0.22123 18.21802,-0.65007 36.61999,-1.50939 54.67754,1.57564 3.32284,0.72918 5.86651,4.1133 5.36703,7.53232 -0.21582,3.62503 -3.09464,6.73552 -6.56778,7.59116 -5.9579,2.32378 -12.44461,1.14009 -18.6547,1.15539 -12.39291,-0.32692 -25.10467,-0.51197 -37.03529,3.35152 -9.38119,3.21512 -18.18319,9.32652 -22.90108,18.24015 -7.51076,13.73203 -5.79338,31.66003 3.56779,44.08666 7.45011,10.96349 16.27622,20.95196 25.83626,30.11284 5.35765,4.69211 12.15044,8.41086 19.46016,8.16125 8.44632,-0.006 16.17182,-3.85694 23.82369,-6.9616 6.62644,-2.63557 13.42132,-5.34928 20.59931,-5.83974 4.72659,0.77691 7.76087,5.92247 7.10184,10.49298 -0.10661,9.62329 0.97821,19.47352 -1.71777,28.86212 -2.35387,5.48819 -8.1488,8.69164 -13.85351,9.53711 -17.33209,3.31144 -34.48278,8.38926 -52.23944,8.77517 -14.93864,-0.0289 -29.53693,-3.59628 -44.10491,-6.48675 -13.24119,-2.72042 -26.5284,-5.70764 -40.08063,-6.25066 -2.46303,-0.12055 -4.8985,0.73172 -6.74319,2.36982 -4.04464,3.31652 -5.79444,8.96296 -4.72185,14.03378 1.19816,10.05568 2.10798,20.21025 4.72288,30.02347 2.24936,8.21137 6.0483,16.09799 11.78388,22.4519 8.06193,9.52154 18.29502,17.22591 29.70679,22.27263 8.17631,3.3285 17.18198,4.06983 25.91708,3.36169 3.2797,-0.0257 7.13298,-0.0866 9.52666,2.5488 3.13002,3.48696 3.43417,8.51163 2.88828,12.94817 -0.0655,5.30566 -0.18529,10.83765 -2.54618,15.70979 -3.91068,4.81696 -10.22785,6.82782 -16.2251,7.24575 -15.29908,2.54705 -30.70625,6.48145 -44.05654,14.64313 -7.33389,4.40762 -13.96354,9.9865 -19.53476,16.48222 -2.46995,5.54404 -0.37823,12.28017 3.89453,16.33398 13.26687,15.01809 28.6194,28.59642 46.69745,37.51839 13.08721,6.42008 28.19902,7.82102 42.49811,5.67425 11.92452,-1.16521 24.11929,-2.84787 35.97494,-0.21879 9.9385,2.18435 19.78298,4.97797 29.93106,6.04373 7.7603,2.17212 11.8185,12.25573 7.89453,19.25 -2.38374,4.75996 -7.66719,7.33612 -12.79096,7.81981 -9.40242,1.47883 -18.82694,-1.20244 -27.53836,-4.55282 -6.21973,-2.37089 -12.87317,-4.61656 -19.61754,-3.54738 -7.9034,0.96104 -15.56836,3.25988 -23.45134,4.35362 -25.99871,4.67157 -52.41725,8.17623 -78.8871,6.9407 -8.72138,-0.84916 -16.3936,-6.33832 -21.49849,-13.24922 -3.60586,-4.52719 -6.68345,-9.44136 -10.16933,-14.05768 -4.59468,-2.14717 -9.7956,-1.03733 -14.55484,-0.14366 -13.82975,2.87114 -27.14218,8.54365 -41.39551,9.12229 -9.70456,0.21486 -19.41092,-0.11675 -29.11349,-0.30239 -15.46987,-0.41645 -30.93357,-1.02775 -46.40101,-1.52194 -3.48719,-0.7172 -5.44438,-4.3541 -5.72656,-7.66016 -1.71936,-8.50342 -2.6943,-17.57651 0.14214,-25.95166 2.84375,-5.93726 8.93226,-9.51181 15.02796,-11.35786 12.95151,-4.08605 26.66441,-4.46465 40.13058,-4.71722 17.24076,-0.13803 34.57608,1.16996 51.73294,-1.0911 8.50319,-1.31967 17.06923,-4.98279 22.50827,-11.88047 2.84871,-3.56681 4.2797,-8.03059 4.82018,-12.51394 1.03269,-7.16363 0.68161,-14.46261 -0.20777,-21.62056 -1.27747,-8.2161 -4.02923,-16.49977 -9.52698,-22.88265 -6.18265,-6.14329 -14.96339,-8.84998 -23.48332,-9.47199 -20.58085,-2.15495 -41.46818,-3.20865 -61.46041,-8.96568 -18.33611,-5.80361 -34.77547,-16.04 -51.21965,-25.76491 -2.62222,-1.61092 -5.2721,-3.18308 -7.79011,-4.95579 -1.25089,-1.78457 0.97307,-4.36638 2.94531,-3.65039 26.8339,0.25992 53.36776,4.65005 79.93669,7.93264 6.27769,0.71372 12.5611,1.52861 18.87972,1.73728 11.47523,0.17492 23.33386,-1.63998 33.35554,-7.52775 6.59919,-3.79375 12.43279,-8.82731 17.46282,-14.52108 3.83205,-10.0608 3.06581,-21.26932 0.27593,-31.48826 -3.59625,-12.90024 -8.76289,-25.38293 -15.57867,-36.91994 -5.53828,-5.97213 -14.39806,-7.86814 -22.20092,-6.34655 -6.44832,1.2411 -11.58157,5.59442 -16.98527,9.0076 -8.46451,5.22755 -17.97148,9.1593 -27.98795,9.81008 -21.81592,2.42104 -43.74114,-0.043 -65.52179,-1.62022 -16.29165,-1.29082 -32.7584,-2.09844 -48.66585,-6.10754 -8.5111,-3.45442 -16.41849,-9.53083 -20.2043,-18.09975 -4.62566,-10.63703 -1.07551,-24.45475 8.70506,-30.94536 7.01133,-4.82851 15.67556,-6.24686 24.00367,-6.75141 53.87366,-6.05044 108.1484,-7.30678 162.05674,-12.95808 14.93732,-2.63029 29.91651,-6.96369 42.647,-15.45463 8.363,-6.01279 15.64668,-14.22912 18.56458,-24.28144 1.6754,-6.11668 1.3814,-12.93386 -1.62777,-18.5984 -4.46581,-4.78571 -11.54276,-6.27647 -17.82812,-5.21484 -38.66711,2.50548 -77.48416,2.97433 -116.18164,0.86132 -2.9708,0.98038 -5.80266,-3.40294 -3.55469,-5.64843 4.21755,-5.31932 9.03737,-10.11934 13.39807,-15.31729 6.88424,-7.74059 13.76848,-15.48118 20.65271,-23.22178 14.22805,-36.89937 26.24489,-74.62711 36.62891,-112.77929 0.59236,-15.705967 -11.14093,-30.901341 -26.49805,-34.271488 -29.74468,-6.759301 -60.23689,-10.425445 -90.75345,-10.296419 -20.20005,0.488941 -40.46104,4.297426 -59.00693,12.464788 -16.07836,6.561734 -30.924726,15.681764 -46.550039,23.185529 -11.500958,4.61822 -24.047735,5.39943 -36.30477,5.64219 -4.612645,0.22201 -9.22529,0.44402 -13.837934,0.66602 -7.021952,2.97785 -10.713096,11.35055 -9.242981,18.66036 0.252435,2.59329 0.586531,5.1775 0.903137,7.76347 4.117599,3.79489 9.948169,4.49912 15.297094,4.88383 15.555114,1.59671 31.412828,3.02837 46.091894,8.80086 11.836967,4.93098 23.427929,10.67843 35.921559,13.8114 36.35441,2.10702 72.95204,1.60342 109.03624,7.10925 5.14818,0.76129 10.28644,1.58939 15.41103,2.49622 4.87209,3.08286 6.42267,9.669 4.86715,14.98904 -1.62809,5.94942 -5.09675,11.14094 -8.15139,16.42479 -8.4321,13.09194 -20.59803,23.77005 -34.73139,30.32641 -7.67552,2.12462 -16.24076,-2.63499 -19.16406,-9.90039 -4.18648,-7.66521 -7.91806,-15.97294 -14.75956,-21.70256 -9.08997,-7.4967 -22.12175,-9.17029 -33.15841,-5.50252 -11.85772,3.71513 -21.87344,11.74939 -29.98107,20.97178 -14.600748,16.90737 -21.276012,40.22006 -18.274436,62.31579 1.10986,13.09597 2.806066,26.44711 0.04944,39.4593 -2.62115,13.34127 -7.529211,26.34856 -7.741175,40.07646 0.485757,20.1786 4.352488,40.05064 7.627563,59.90782 2.221351,12.54043 4.382349,25.13165 7.906518,37.38503 2.75649,8.51801 8.14526,16.29666 15.65695,21.27568 9.44893,6.68883 20.05865,11.43996 30.24877,16.84929 12.4107,6.40985 24.78895,12.88231 37.20275,19.28619 0.964,1.34819 -0.58445,3.26339 -2.10961,2.86634 -23.72909,4.26656 -47.45817,8.53312 -71.18726,12.79968 -10.36353,4.72446 -19.794398,11.24233 -28.669922,18.32812 -4.58644,7.56454 -4.51588,17.23953 -1.383407,25.32598 3.129528,7.71298 9.827144,13.94247 17.862372,16.23492 9.639687,3.47369 20.055457,3.13063 30.137997,2.8009 16.4257,-0.33412 32.85087,-0.69265 49.27561,-1.07078 1.37499,4.33843 -0.70111,9.05948 -3.98263,11.95538 -3.08308,4.01525 -6.37813,8.02753 -8.10916,12.85321 0.0939,6.86035 2.66716,13.31636 4.52734,19.82617 -0.26798,1.38552 -2.02789,1.10465 -2.99929,0.74538 -11.04799,-1.5861 -22.40106,-3.44854 -33.48356,-1.1009 -13.45674,3.14826 -27.24469,5.73003 -39.757381,11.84185 -11.716316,7.64126 -17.587684,23.42609 -13.103516,36.77539 2.944884,7.47125 10.336554,12.46172 18.052209,13.92109 9.511778,1.95148 19.207928,2.73867 28.789818,4.2559 38.98893,5.31049 78.31765,9.02028 117.70675,8.17979 46.63068,-0.2708 93.27268,-0.97126 139.89674,0.20479 23.13841,0.60504 46.26619,1.87062 69.30095,4.17111 14.0361,1.23727 28.25741,1.4903 42.20494,-0.78802 13.11548,-1.75867 26.47429,-3.59642 39.6688,-1.52392 15.98396,1.99743 32.06811,4.54219 48.22357,3.35615 20.95716,-0.93575 41.9208,-1.90733 62.90328,-1.94724 26.75382,-0.3919 53.54547,0.0284 80.25589,-1.81067 22.26435,-1.70392 44.41402,-5.11861 66.08494,-10.52679 7.49589,-3.30807 11.3425,-12.42441 9.51485,-20.23786 -1.43985,-6.84607 -5.87351,-12.45229 -9.20648,-18.44531 -5.74305,-9.4603 -12.34113,-18.70513 -21.25924,-25.42847 -10.17181,-6.12759 -23.64104,-5.5901 -33.67332,0.56294 -20.97282,10.01655 -42.41859,19.73146 -65.35363,24.24458 -23.57748,4.74165 -47.72097,7.91767 -71.79936,6.09072 -12.20355,-1.353 -24.52685,-5.1536 -34.12221,-13.06476 -7.89169,-6.44359 -13.92414,-15.75274 -14.79248,-26.07038 -0.56682,-8.85696 3.58869,-17.41464 9.50828,-23.79013 6.3438,-7.16903 14.21926,-13.23243 18.61579,-21.92578 2.27738,-4.51856 3.26127,-10.17289 0.9536,-14.87268 -2.00924,-3.92831 -6.59592,-5.73909 -10.817,-5.75309 -19.09441,-2.5878 -38.53457,-4.70013 -56.6297,-11.72302 -12.15038,-4.74 -24.17595,-9.83319 -35.82387,-15.71176 -3.93822,-2.95694 -4.83578,-8.46038 -3.79682,-13.02581 0.8436,-4.37746 0.32897,-8.87174 -0.64335,-13.18001 -0.65418,-3.63503 -0.63505,-7.88965 2.07303,-10.73549 3.3062,-3.81383 8.67542,-5.00381 13.52962,-4.63522 19.92178,0.10221 39.71472,2.63795 59.57384,3.90541 11.76903,0.86628 23.57517,1.66073 35.37569,1.50434 9.2139,-1.87622 15.36545,-12.50613 12.52981,-21.44674 -2.24944,-10.24543 -7.42712,-19.46989 -11.80392,-28.90211 -3.04159,-3.77487 -7.89633,-5.12002 -12.09449,-7.15342 -6.30155,-2.66422 -13.16786,-4.88378 -17.98291,-9.99844 -4.57314,-5.74079 -5.23682,-13.84078 -2.9851,-20.66259 3.0813,-14.42055 4.91147,-29.23814 10.30341,-43.05161 3.92606,-7.46101 11.73632,-12.20313 19.81699,-13.92753 13.32982,-3.47985 27.06482,-5.24803 40.25166,-9.30533 8.84449,-2.59308 17.55775,-6.61168 24.02075,-13.35101 8.56533,-8.41079 15.01025,-18.9474 18.78025,-30.33142 1.45095,-4.96348 2.21765,-10.50424 0.26066,-15.43408 -2.89416,-5.54957 -9.43001,-8.39745 -15.50512,-8.09864 -29.16642,-0.91894 -58.35649,-1.52863 -87.47238,-3.57367 -4.02061,-0.36294 -8.09577,-0.54871 -12.04332,-1.39912 -9.41403,-3.3885 -14.73818,-14.94263 -11.37697,-24.3335 3.58213,-14.28403 9.18162,-28.21589 10.08321,-43.04956 0.28893,-7.40465 -1.42052,-15.34923 -6.66221,-20.8639 -5.0862,-5.16367 -12.46022,-7.14391 -19.49032,-7.69802 -24.46281,-2.51755 -48.91255,-5.25227 -73.45,-6.94858 -8.98929,-0.52793 -18.04591,-0.29755 -26.93896,1.19629 -8.26769,1.1805 -16.60691,2.74285 -24.98659,2.1319 -3.35977,-0.89953 -4.84546,-4.99432 -3.95278,-8.13588 0.79346,-3.58015 1.216,-7.23088 1.84023,-10.84392 3.21029,-3.3861 8.12926,-3.88709 12.51531,-4.34093 10.2309,-0.65871 20.48802,-0.68954 30.73135,-1.04074 32.73158,-0.8037 65.48007,-1.09587 98.19084,-2.60075 3.33383,-0.82289 5.79859,-4.20313 5.58399,-7.62695 2.01612,-5.31237 8.51902,-7.83934 13.80037,-6.32373 3.2724,0.42766 6.54802,0.87005 9.77384,1.57763 1.33668,3.09865 0.90278,6.79226 -0.82812,9.64844 -0.0749,2.00256 2.38063,3.49774 4.14453,2.58985 13.54432,-1.15791 26.52745,-6.55153 40.24292,-6.07952 16.49014,0.5928 32.90435,2.53782 49.40528,2.9137 21.75636,1.12808 43.67078,1.79814 65.07925,6.17273 8.32815,2.45066 16.42824,7.12141 21.20384,14.56673 3.06905,5.48905 3.66503,12.81711 0.0197,18.18599 -4.97247,6.92892 -12.68965,10.99481 -19.85874,15.2441 -9.80116,5.84444 -19.74844,11.61053 -28.41844,19.09587 -3.95967,5.72022 -4.05753,13.33759 -1.82422,19.73829 1.11393,4.12044 2.22786,8.24088 3.3418,12.36132 3.82487,4.02401 9.77157,4.98503 15.07812,4.45313 6.30185,-0.21207 12.61952,-0.79664 18.91992,-0.24024 2.79517,1.79956 3.2106,5.97511 1.37891,8.60157 -1.97692,5.32966 -3.79872,11.15516 -8.35156,14.90234 -5.95048,4.11218 -13.43872,4.43252 -20.00704,7.04071 -7.13725,3.9032 -10.74913,12.69479 -9.40527,20.57486 1.13707,12.55712 3.00719,25.03481 4.84173,37.50295 0.99971,4.46561 4.90046,7.48464 8.79246,9.43037 5.51135,2.69743 11.67642,3.47045 17.52226,5.1308 1.1792,0.53661 1.40017,1.98918 1.94336,3.03906 1.75686,4.92922 0.30925,10.48426 -2.71357,14.6025 -5.68039,8.55958 -15.6294,13.65249 -25.71831,14.62516 -17.55025,3.2067 -35.44387,5.81222 -52.00367,12.76844 -7.65902,3.59258 -12.51237,12.11763 -12.01515,20.51967 -0.5673,14.7202 0.4192,29.43888 0.42039,44.16013 0.11101,5.82613 0.22203,11.65227 0.33304,17.4784 3.15177,6.83298 10.1929,11.17582 17.42578,12.49414 9.35497,2.5592 18.82729,5.03922 27.53711,9.4082 5.87418,5.37613 4.88811,16.19155 -1.87695,20.40235 -14.4709,9.70654 -32.11253,13.11237 -46.6609,22.68044 -5.1332,3.1532 -9.97522,6.86029 -14.0961,11.26547 -1.65975,2.1232 -1.432,5.00831 -0.80148,7.46123 0.24971,5.36384 0.84401,10.82918 -0.39465,16.1202 1.36693,5.99129 6.13471,10.81244 6.47713,17.09368 0.35923,6.73366 -1.44034,13.43223 -0.53357,20.16065 0.42399,4.27065 1.90578,8.94663 5.70293,11.37458 4.34268,2.53703 9.54776,1.71036 14.33303,1.62812 11.44611,-0.41268 22.88444,-1.15278 34.34238,-1.12784 5.8194,-0.18109 11.59038,-1.7609 16.62052,-4.71053 6.34927,-3.405 12.4771,-7.21165 18.91124,-10.46186 11.20785,-5.88559 23.21406,-11.01716 35.99595,-11.84547 21.08895,-1.27617 42.38654,8.4061 55.57939,24.85374 6.64488,8.12645 11.79651,17.31319 17.42477,26.13919 10.16161,16.44 19.86834,33.36449 32.84694,47.80581 5.21023,5.49808 12.29695,9.152 19.80198,10.19202 10.01809,1.79643 20.23344,0.87217 30.34609,1.21723 33.4421,0.14703 66.9505,0.84866 100.31946,-1.84364 4.2766,-0.37509 8.6016,-1.53601 12.0357,-4.21656 7.1808,-5.14351 11.2916,-14.44881 9.6838,-23.21262 -1.5266,-10.53344 -9.9156,-19.51066 -20.1351,-22.23204 -2.6876,-0.95753 -5.7316,-1.3834 -7.9687,-3.25975 -2.31372,-3.02775 -1.2202,-7.6129 1.6317,-9.89533 10.6917,-14.10399 22.0869,-27.98682 29.4137,-44.23973 6.2009,-14.33576 7.9391,-30.07692 8.7833,-45.5291 0.3332,-7.23111 0.4697,-14.46894 0.6471,-21.705 -1.8006,-4.5847 -6.0302,-7.49039 -9.8203,-10.33333 -2.8151,-1.8689 -5.9275,-3.24888 -9.1211,-4.33074 -14.7871,0.99759 -29.47511,3.03519 -44.16404,4.94922 -4.51464,-2.58745 -6.70114,-8.0758 -6.30469,-13.12109 -0.66459,-5.95218 3.37892,-12.02417 9.14353,-13.67723 8.33921,-3.63102 17.58478,-3.71919 26.4121,-5.30142 9.9866,-1.42254 19.958,-2.98533 29.8428,-5.00768 5.3112,-3.35374 7.6625,-10.10328 6.9082,-16.16601 -1.8788,-44.37133 -2.9984,-88.9062 -9.5019,-132.90821 -2.1073,-11.70441 -5.8941,-23.45618 -13.336,-32.91211 -7.6642,-8.57225 -18.6675,-13.40981 -29.77722,-15.62597 -18.15153,-3.57035 -36.73828,-4.81846 -54.64463,-9.6377 -5.13619,-2.38535 -5.77095,-10.39536 -1.3636,-13.80138 3.11828,-2.5416 7.17932,-3.37366 10.96737,-4.41072 9.24897,-2.0844 18.78874,-1.87996 28.18391,-2.75671 14.86662,-1.02711 29.93577,-1.88397 44.29327,-6.17063 9.7734,-4.46799 15.0926,-16.41512 12.4001,-26.73055 -1.9883,-12.83185 -5.0896,-25.6836 -11.1456,-37.25173 -3.4425,-5.57341 -9.9607,-8.99188 -16.4929,-8.80454 -8.03874,-0.28796 -15.85334,1.96721 -23.77647,2.9313 -10.62129,1.67764 -21.4944,3.57274 -32.22907,1.78034 -2.08782,-0.4522 -4.1328,-1.07643 -6.171,-1.71116 -3.38327,-8.47287 -4.17787,-18.00035 -1.98632,-26.875 3.82074,-5.59262 11.15121,-7.87845 17.66471,-6.90821 10.41365,0.71615 20.93732,2.18057 31.33529,0.49415 10.39312,-3.78073 18.72356,-11.2982 27.41776,-17.85899 10.2287,-7.64112 22.7263,-12.03544 35.4316,-12.95148 12.6375,-1.56292 25.3533,-2.33371 38.0276,-3.52352 5.7273,-2.41829 9.0241,-8.64829 9.3155,-14.66428 0.5781,-5.14231 -0.1944,-10.301932 -0.9405,-15.384546 -2.4634,-3.357346 -6.8581,-4.237779 -10.7637,-4.554687 -30.4234,-4.312701 -60.7266,-9.717501 -91.37224,-12.25765 -23.39997,-0.109717 -46.51525,5.591974 -69.95001,4.136556 -23.71769,-2.201413 -46.19669,-11.440686 -70.00195,-13.050781 -0.54753,0.0072 -1.09505,0.01432 -1.64258,0.02148 z"
       transform="matrix(0.26458333,0,0,0.26458333,0,87)"
       id="rect5106"
       inkscape:connector-curvature="0"
       sodipodi:nodetypes="ccccccccccccccccccccccccccccccccccccccccccccccccccccccccccccccccccccccccccccccccccccccccccccccccccccccccccccccccccccccccccccccccccccccccccccccccccccccccccccccccccccccccccccccccccccccccccccccccccccccccccccccccccccccccccccccccccccccccccccccccccccccccccccccccccccccccccccccccccccccccczzzccccccccccccccccccccccccccccccccccccccccccccccccccccccccccccccccccccccccccccccccccccccccsccccccccccccccccccccccccccccccccccccccccccccccccccccccccccccccccccccccccccccccccccccccccccccccccccccccccccccccccccccccccccc" />
  </g>
  <g
     inkscape:groupmode="layer"
     id="layer3"
     inkscape:label="l2+l3"
     style="display:inline">
    <circle
       transform="translate(0,-87.000001)"
       style="fill:none;fill-opacity:1;stroke:#000000;stroke-width:0.30000001;stroke-miterlimit:4;stroke-dasharray:none;stroke-dashoffset:0;stroke-opacity:1"
       id="path5287"
       cx="164.60863"
       cy="142.78572"
       r="11.90625" />
  </g>
  <g
     inkscape:groupmode="layer"
     id="layer2"
     inkscape:label="l1+l2+l3"
     style="display:inline">
    <ellipse
       transform="translate(0,-87.000001)"
       style="display:inline;fill:none;fill-opacity:1;stroke:#000000;stroke-width:0.30000001;stroke-miterlimit:4;stroke-dasharray:none;stroke-dashoffset:0;stroke-opacity:1"
       id="path5303-0"
       cx="13.096207"
       cy="187.41949"
       rx="2.8500001"
       ry="2.8499999" />
    <ellipse
       transform="translate(0,-87.000001)"
       style="display:inline;fill:none;fill-opacity:1;stroke:#000000;stroke-width:0.30000001;stroke-miterlimit:4;stroke-dasharray:none;stroke-dashoffset:0;stroke-opacity:1"
       id="path5303-01"
       cx="165.03894"
       cy="187.28586"
       rx="2.8500001"
       ry="2.8499999" />
    <ellipse
       transform="translate(0,-87.000001)"
       style="display:inline;fill:none;fill-opacity:1;stroke:#000000;stroke-width:0.30000001;stroke-miterlimit:4;stroke-dasharray:none;stroke-dashoffset:0;stroke-opacity:1"
       id="path5303-6"
       cx="283.43933"
       cy="187.55313"
       rx="2.8500001"
       ry="2.8499999" />
    <ellipse
       transform="translate(0,-87.000001)"
       style="display:inline;fill:none;fill-opacity:1;stroke:#000000;stroke-width:0.30000001;stroke-miterlimit:4;stroke-dasharray:none;stroke-dashoffset:0;stroke-opacity:1"
       id="path5303-43"
       cx="236.23512"
       cy="187.3869"
       rx="2.8500001"
       ry="2.8499999" />
    <ellipse
       transform="translate(0,-87.000001)"
       style="display:inline;fill:none;fill-opacity:1;stroke:#000000;stroke-width:0.30000001;stroke-miterlimit:4;stroke-dasharray:none;stroke-dashoffset:0;stroke-opacity:1"
       id="path5303-2"
       cx="92.226189"
       cy="187.76488"
       rx="2.8500001"
       ry="2.8499999" />
    <ellipse
       transform="translate(0,-87.000001)"
       style="display:inline;fill:none;fill-opacity:1;stroke:#000000;stroke-width:0.30000001;stroke-miterlimit:4;stroke-dasharray:none;stroke-dashoffset:0;stroke-opacity:1"
       id="path5303-04"
       cx="13.229841"
       cy="281.89926"
       rx="2.8500001"
       ry="2.8499999" />
    <ellipse
       transform="translate(0,-87.000001)"
       style="display:inline;fill:none;fill-opacity:1;stroke:#000000;stroke-width:0.30000001;stroke-miterlimit:4;stroke-dasharray:none;stroke-dashoffset:0;stroke-opacity:1"
       id="path5303-9"
       cx="283.30569"
       cy="281.76562"
       rx="2.8500001"
       ry="2.8499999" />
    <ellipse
       transform="translate(0,-87.000001)"
       style="display:inline;fill:none;fill-opacity:1;stroke:#000000;stroke-width:0.30000001;stroke-miterlimit:4;stroke-dasharray:none;stroke-dashoffset:0;stroke-opacity:1"
       id="path5303-4"
       cx="165.17256"
       cy="281.76562"
       rx="2.8500001"
       ry="2.8499999" />
    <ellipse
       transform="translate(0,-87.000001)"
       style="display:inline;fill:none;fill-opacity:1;stroke:#000000;stroke-width:0.30000001;stroke-miterlimit:4;stroke-dasharray:none;stroke-dashoffset:0;stroke-opacity:1"
       id="path5303-8"
       cx="283.43933"
       cy="100.69053"
       rx="2.8500001"
       ry="2.8499999" />
    <ellipse
       transform="translate(0,-87.000001)"
       style="display:inline;fill:none;fill-opacity:1;stroke:#000000;stroke-width:0.30000001;stroke-miterlimit:4;stroke-dasharray:none;stroke-dashoffset:0;stroke-opacity:1"
       id="path5303-45"
       cx="164.9053"
       cy="100.5569"
       rx="2.8500001"
       ry="2.8499999" />
    <ellipse
       transform="translate(0,-87.000001)"
       style="display:inline;fill:none;fill-opacity:1;stroke:#000000;stroke-width:0.30000001;stroke-miterlimit:4;stroke-dasharray:none;stroke-dashoffset:0;stroke-opacity:1"
       id="path5303"
       cx="13.173648"
       cy="100.7157"
       rx="2.8500001"
       ry="2.8499999" />
    <rect
       transform="translate(0,-87.000001)"
       style="display:inline;fill:none;fill-opacity:1;stroke:#000000;stroke-width:0.30000001;stroke-miterlimit:4;stroke-dasharray:none;stroke-dashoffset:0;stroke-opacity:1"
       id="rect5104"
       width="283.06427"
       height="196.64069"
       x="7.3826156"
       y="93.422783"
       ry="6.4255953"
       rx="6.4255953" />
  </g>
</svg>
