<?xml version="1.0" encoding="UTF-8" standalone="no"?>
<!-- Created with Inkscape (http://www.inkscape.org/) -->

<svg
   xmlns:dc="http://purl.org/dc/elements/1.1/"
   xmlns:cc="http://creativecommons.org/ns#"
   xmlns:rdf="http://www.w3.org/1999/02/22-rdf-syntax-ns#"
   xmlns:svg="http://www.w3.org/2000/svg"
   xmlns="http://www.w3.org/2000/svg"
   xmlns:sodipodi="http://sodipodi.sourceforge.net/DTD/sodipodi-0.dtd"
   xmlns:inkscape="http://www.inkscape.org/namespaces/inkscape"
   width="297mm"
   height="210mm"
   viewBox="0 0 297 210"
   version="1.1"
   id="svg8"
   inkscape:version="0.92.0 r15299"
   sodipodi:docname="antNest4.svg">
  <defs
     id="defs2" />
  <sodipodi:namedview
     id="base"
     pagecolor="#ffffff"
     bordercolor="#666666"
     borderopacity="1.0"
     inkscape:pageopacity="0.0"
     inkscape:pageshadow="2"
     inkscape:zoom="1.4"
     inkscape:cx="362.11082"
     inkscape:cy="339.45591"
     inkscape:document-units="mm"
     inkscape:current-layer="layer1"
     showgrid="false"
     inkscape:window-width="2560"
     inkscape:window-height="1377"
     inkscape:window-x="1912"
     inkscape:window-y="-8"
     inkscape:window-maximized="1"
     showguides="true"
     inkscape:guide-bbox="true">
    <sodipodi:guide
       position="4.009043,196.4431"
       orientation="0,1"
       id="guide5291"
       inkscape:locked="false" />
    <sodipodi:guide
       position="19.510676,109.5805"
       orientation="0,1"
       id="guide5293"
       inkscape:locked="false" />
    <sodipodi:guide
       position="65.481036,15.234363"
       orientation="0,1"
       id="guide5295"
       inkscape:locked="false" />
    <sodipodi:guide
       position="13.096207,109.5805"
       orientation="1,0"
       id="guide5297"
       inkscape:locked="false" />
    <sodipodi:guide
       position="164.99666,101.33634"
       orientation="1,0"
       id="guide5299"
       inkscape:locked="false" />
    <sodipodi:guide
       position="283.30571,91.673446"
       orientation="1,0"
       id="guide5301"
       inkscape:locked="false" />
    <sodipodi:guide
       position="92.226191,115.28274"
       orientation="1,0"
       id="guide5362"
       inkscape:locked="false" />
    <sodipodi:guide
       position="236.23512,-21.544643"
       orientation="1,0"
       id="guide5364"
       inkscape:locked="false" />
  </sodipodi:namedview>
  <metadata
     id="metadata5">
    <rdf:RDF>
      <cc:Work
         rdf:about="">
        <dc:format>image/svg+xml</dc:format>
        <dc:type
           rdf:resource="http://purl.org/dc/dcmitype/StillImage" />
        <dc:title />
      </cc:Work>
    </rdf:RDF>
  </metadata>
  <g
     inkscape:label="l2"
     inkscape:groupmode="layer"
     id="layer1"
     transform="translate(0,-87)"
     style="display:inline">
    <path
       style="display:inline;fill:none;fill-opacity:1;stroke:#000000;stroke-width:1.13385832;stroke-miterlimit:4;stroke-dasharray:none;stroke-dashoffset:0;stroke-opacity:1"
       d="M 855.11914 68.785156 C 847.07822 70.145366 840.58016 76.457424 837.52539 83.820312 C 834.29452 91.656455 835.75959 100.77011 839.82031 108.01562 C 845.53081 119.40436 852.01903 130.42264 856.85739 142.23204 C 858.91362 146.75329 860.9126 151.78085 865.31147 154.53992 C 869.61099 157.34973 874.88366 157.94719 879.90399 157.93983 C 890.36219 158.53598 900.86513 158.74025 911.25195 160.20703 C 914.36871 161.41803 915.58361 164.94039 916.13477 167.96289 C 916.78986 172.43682 916.59619 176.97814 917.01411 181.47402 C 917.16696 184.31536 917.31981 187.1567 917.47266 189.99805 C 914.46383 193.16646 909.80806 193.48967 905.70391 193.61377 C 894.01243 193.70307 882.36497 192.49939 870.6875 192.13477 C 868.79237 191.54435 867.52762 193.56098 866.86778 195.02695 C 864.61297 199.29783 865.47889 204.48266 867.48437 208.67179 C 873.22805 224.74289 883.07294 238.83404 892.06966 253.18911 C 900.65495 266.73547 909.77956 280.17065 915.42004 295.28359 C 919.67198 313.24606 918.88301 332.11064 924.48047 349.79688 C 930.27143 365.35935 943.95766 377.39406 959.73394 382.19268 C 975.91444 387.76545 992.94737 390.57047 1008.8945 396.85352 C 1011.0965 397.80869 1012.9595 399.73636 1013.2434 402.19782 C 1013.9159 405.64964 1012.4385 409.7782 1009.1115 411.28969 C 997.35148 414.25269 985.14071 413.03895 973.15791 412.94507 C 935.22767 412.10921 897.29743 411.27336 859.36719 410.4375 C 850.88073 411.84326 844.93968 421.47491 847.42969 429.69531 C 851.23177 449.86133 855.03385 470.02734 858.83594 490.19336 C 865.13654 498.71501 874.91819 503.96366 884.95312 506.79492 C 898.62498 510.62744 913.01346 513.20602 927.20898 511.14648 C 934.27279 510.0625 941.33659 508.97852 948.40039 507.89453 C 950.8855 509.02114 951.67774 512.37584 950.4668 514.70117 C 949.37471 521.80792 950.27929 529.1518 952.71875 535.89453 C 952.37287 539.94723 948.28345 542.9917 944.32099 542.62357 C 921.47403 545.9877 898.41995 547.55515 875.45117 549.82422 C 868.74706 551.81818 865.74743 561.05619 869.96136 566.62934 C 878.18101 580.4191 886.88889 594.26719 898.92673 605.08636 C 909.49654 613.85881 922.70503 618.65421 935.92001 621.78047 C 950.30517 625.30162 964.9285 628.05603 978.90234 633.06641 C 983.98669 636.3027 983.58089 645.05067 978.20703 647.79102 C 968.78175 652.67025 957.95135 653.53675 947.51526 653.6924 C 926.68056 653.80131 905.8491 654.20828 885.01767 654.55377 C 878.46847 654.57564 871.8648 654.67081 865.37924 653.66524 C 855.32523 650.99849 847.05799 643.78239 841.23494 635.36894 C 837.28215 629.79391 833.85363 623.3166 833.98647 616.30458 C 834.91906 607.31712 839.70156 599.40566 842.02977 590.78934 C 845.41016 580.18433 847.51827 568.7839 845.3658 557.70954 C 843.38463 548.12693 837.77703 538.97503 829.14062 534.06445 C 822.05944 530.60407 813.86658 530.93606 806.2877 532.20888 C 787.29868 534.79701 768.22166 538.11086 748.98242 537.125 C 737.94004 535.79513 727.60476 531.06714 718.3125 525.12305 C 715.00017 522.0639 715.9097 516.24564 719.32714 513.62933 C 721.80449 511.73917 724.95827 511.14335 727.86792 510.22064 C 736.28731 508.12186 745.02794 508.20066 753.59803 507.13716 C 770.46933 505.57451 787.37998 504.11767 804.07617 501.14844 C 810.87675 498.68874 815.42379 492.13108 817.09958 485.30278 C 819.46857 475.71195 820.24893 465.74079 819.63853 455.88964 C 818.97686 447.47077 816.82453 438.7127 811.11328 432.23242 C 805.26959 425.53834 796.83896 421.44384 788.12433 420.11064 C 775.35082 417.10213 762.08553 415.21019 750.24805 409.22852 C 745.44205 406.51412 744.04363 399.57046 747.0744 395.04459 C 749.66769 390.18795 753.97811 386.58902 758.04916 383.01235 C 769.18492 374.16136 783.65215 370.16471 797.75614 370.5284 C 817.68995 370.02503 837.85965 369.89789 857.36074 365.23657 C 861.52127 364.18739 865.90413 362.97071 869.00391 359.8125 C 875.60972 353.73165 878.49964 344.07915 876.68361 335.32958 C 875.52645 321.29805 873.5117 307.03241 867.48633 294.16406 C 863.38043 286.55592 854.21965 282.53496 845.788 283.57659 C 830.05218 284.14492 814.30841 284.66712 798.55994 284.46023 C 785.34745 284.37323 772.13968 283.91238 758.94531 283.22852 C 755.03071 280.56769 753.81434 275.26053 754.88477 270.8418 C 755.2555 265.34155 756.6429 259.42946 760.88086 255.58203 C 766.35683 251.59662 773.38121 250.88252 779.95703 250.92383 C 793.83268 250.26888 807.70833 249.61393 821.58398 248.95898 C 827.03822 246.97174 830.07305 240.85385 829.60869 235.25867 C 829.98601 218.76084 832.11048 202.37757 833.57031 185.95703 C 832.80558 179.57853 824.81455 175.53883 819.18555 178.55859 C 805.82953 184.10817 792.6844 190.14467 779.47461 196.0293 C 775.95959 195.83227 773.60494 192.23897 773.44336 188.9668 C 773.38873 185.34708 774.6945 181.89067 774.99747 178.3044 C 776.77826 167.13848 778.55905 155.97256 780.33984 144.80664 C 786.35221 131.83008 792.36458 118.85352 798.37695 105.87695 C 799.53459 92.16753 789.53873 78.438753 776.0957 75.427734 C 759.88013 73.432456 743.51628 74.554689 727.25245 75.183468 C 694.56944 76.848012 661.90771 78.898437 629.23335 80.720369 C 618.66794 81.333111 608.10252 81.945852 597.53711 82.558594 C 587.87634 85.081608 580.26134 93.899714 579.09375 103.80469 C 577.67815 108.5851 576.20025 113.36268 574.1875 117.93164 C 567.43918 119.88145 559.55133 118.75534 554.22461 113.96875 C 550.65382 109.56654 550.03315 103.65148 550.05664 98.181641 C 549.63856 92.368915 545.51428 86.605029 539.60816 85.45037 C 533.35931 83.688204 526.81892 85.405406 520.89778 87.554537 C 501.54399 93.516456 482.57491 101.25251 462.41406 104.13086 C 447.96386 105.76954 433.41944 102.46528 419.99414 97.261719 C 402.50315 90.686156 385.61951 82.566546 367.92773 76.513672 C 361.09324 75.664757 354.85264 82.943043 356.5293 89.572266 C 360.51096 112.99902 365.66834 136.32636 366.93508 160.11703 C 367.25845 166.81159 367.40972 173.63689 365.64246 180.16421 C 363.18037 189.97675 358.02313 198.95561 351.50498 206.62992 C 347.61199 212.25756 348.44353 220.26605 352.6481 225.49236 C 357.46959 232.80414 364.93575 237.68722 371.90979 242.72695 C 383.56504 250.72824 396.8297 257.01772 411.04332 258.41808 C 424.8626 259.97823 438.78144 258.93972 452.63831 258.63931 C 470.85633 257.98924 489.2583 257.12992 507.31585 260.21495 C 510.63869 260.94413 513.18236 264.32825 512.68288 267.74727 C 512.46706 271.3723 509.58824 274.48279 506.1151 275.33843 C 500.1572 277.66221 493.67049 276.47852 487.4604 276.49382 C 475.06749 276.1669 462.35573 275.98185 450.42511 279.84534 C 441.04392 283.06046 432.24192 289.17186 427.52403 298.08549 C 420.01327 311.81752 421.73065 329.74552 431.09182 342.17215 C 438.54193 353.13564 447.36804 363.12411 456.92808 372.28499 C 462.28573 376.9771 469.07852 380.69585 476.38824 380.44624 C 484.83456 380.44032 492.56006 376.5893 500.21193 373.48464 C 506.83837 370.84907 513.63325 368.13536 520.81124 367.6449 C 525.53783 368.42181 528.57211 373.56737 527.91308 378.13788 C 527.80647 387.76117 528.89129 397.6114 526.19531 407 C 523.84144 412.48819 518.04651 415.69164 512.3418 416.53711 C 495.00971 419.84855 477.85902 424.92637 460.10236 425.31228 C 445.16372 425.28339 430.56543 421.716 415.99745 418.82553 C 402.75626 416.10511 389.46905 413.11789 375.91682 412.57487 C 373.45379 412.45432 371.01832 413.30659 369.17363 414.94469 C 365.12899 418.26121 363.37919 423.90765 364.45178 428.97847 C 365.64994 439.03415 366.55976 449.18872 369.17466 459.00194 C 371.42402 467.21331 375.22296 475.09993 380.95854 481.45384 C 389.02047 490.97538 399.25356 498.67975 410.66533 503.72647 C 418.84164 507.05497 427.84731 507.7963 436.58241 507.08816 C 439.86211 507.06251 443.71539 507.00155 446.10907 509.63696 C 449.23909 513.12392 449.54324 518.14859 448.99735 522.58513 C 448.9318 527.89079 448.81206 533.42278 446.45117 538.29492 C 442.54049 543.11188 436.22332 545.12274 430.22607 545.54067 C 414.92699 548.08772 399.51982 552.02212 386.16953 560.1838 C 378.83564 564.59142 372.20599 570.1703 366.63477 576.66602 C 364.16482 582.21006 366.25654 588.94619 370.5293 593 C 383.79617 608.01809 399.1487 621.59642 417.22675 630.51839 C 430.31396 636.93847 445.42577 638.33941 459.72486 636.19264 C 471.64938 635.02743 483.84415 633.34477 495.6998 635.97385 C 505.6383 638.1582 515.48278 640.95182 525.63086 642.01758 C 533.39116 644.1897 537.44936 654.27331 533.52539 661.26758 C 531.14165 666.02754 525.8582 668.6037 520.73443 669.08739 C 511.33201 670.56622 501.90749 667.88495 493.19607 664.53457 C 486.97634 662.16368 480.3229 659.91801 473.57853 660.98719 C 465.67513 661.94823 458.01017 664.24707 450.12719 665.34081 C 424.12848 670.01238 397.70994 673.51704 371.24009 672.28151 C 362.51871 671.43235 354.84649 665.94319 349.7416 659.03229 C 346.13574 654.5051 343.05815 649.59093 339.57227 644.97461 C 334.97759 642.82744 329.77667 643.93728 325.01743 644.83095 C 311.18768 647.70209 297.87525 653.3746 283.62192 653.95324 C 273.91736 654.1681 264.211 653.83649 254.50843 653.65085 C 239.03856 653.2344 223.57486 652.6231 208.10742 652.12891 C 204.62023 651.41171 202.66304 647.77481 202.38086 644.46875 C 200.6615 635.96533 199.68656 626.89224 202.523 618.51709 C 205.36675 612.57983 211.45526 609.00528 217.55096 607.15923 C 230.50247 603.07318 244.21537 602.69458 257.68154 602.44201 C 274.9223 602.30398 292.25762 603.61197 309.41448 601.35091 C 317.91767 600.03124 326.48371 596.36812 331.92275 589.47044 C 334.77146 585.90363 336.20245 581.43985 336.74293 576.9565 C 337.77562 569.79287 337.42454 562.49389 336.53516 555.33594 C 335.25769 547.11984 332.50593 538.83617 327.00818 532.45329 C 320.82553 526.31 312.04479 523.60331 303.52486 522.9813 C 282.94401 520.82635 262.05668 519.77265 242.06445 514.01562 C 223.72834 508.21201 207.28898 497.97562 190.8448 488.25071 C 188.22258 486.63979 185.5727 485.06763 183.05469 483.29492 C 181.8038 481.51035 184.02776 478.92854 186 479.64453 C 212.8339 479.90445 239.36776 484.29458 265.93669 487.57717 C 272.21438 488.29089 278.49779 489.10578 284.81641 489.31445 C 296.29164 489.48937 308.15027 487.67447 318.17195 481.7867 C 324.77114 477.99295 330.60474 472.95939 335.63477 467.26562 C 339.46682 457.20482 338.70058 445.9963 335.9107 435.77736 C 332.31445 422.87712 327.14781 410.39443 320.33203 398.85742 C 314.79375 392.88529 305.93397 390.98928 298.13111 392.51087 C 291.68279 393.75197 286.54954 398.10529 281.14584 401.51847 C 272.68133 406.74602 263.17436 410.67777 253.15789 411.32855 C 231.34197 413.74959 209.41675 411.2856 187.6361 409.70833 C 171.34445 408.41751 154.8777 407.60989 138.97025 403.60079 C 130.45915 400.14637 122.55176 394.06996 118.76595 385.50104 C 114.14029 374.86401 117.69044 361.04629 127.47101 354.55568 C 134.48234 349.72717 143.14657 348.30882 151.47468 347.80427 C 205.34834 341.75383 259.62308 340.49749 313.53142 334.84619 C 328.46874 332.2159 343.44793 327.8825 356.17842 319.39156 C 364.54142 313.37877 371.8251 305.16244 374.743 295.11012 C 376.4184 288.99344 376.1244 282.17626 373.11523 276.51172 C 368.64942 271.72601 361.57247 270.23525 355.28711 271.29688 C 316.62 273.80236 277.80295 274.27121 239.10547 272.1582 C 236.13467 273.13858 233.30281 268.75526 235.55078 266.50977 C 239.76833 261.19045 244.58815 256.39043 248.94885 251.19248 C 255.83309 243.45189 262.71733 235.7113 269.60156 227.9707 C 283.82961 191.07133 295.84645 153.34359 306.23047 115.19141 C 306.82283 99.485443 295.08954 84.290069 279.73242 80.919922 C 249.98774 74.160621 219.49553 70.494477 188.97897 70.623503 C 168.77892 71.112444 148.51793 74.920929 129.97204 83.088291 C 113.89368 89.650025 99.047314 98.770055 83.422001 106.27382 C 71.921043 110.89204 59.374266 111.67325 47.117231 111.91601 C 42.504586 112.13802 37.891941 112.36003 33.279297 112.58203 C 26.257345 115.55988 22.566201 123.93258 24.036316 131.24239 C 24.288751 133.83568 24.622847 136.41989 24.939453 139.00586 C 29.057052 142.80075 34.887622 143.50498 40.236547 143.88969 C 55.791661 145.4864 71.649375 146.91806 86.328441 152.69055 C 98.165408 157.62153 109.75637 163.36898 122.25 166.50195 C 158.60441 168.60897 195.20204 168.10537 231.28624 173.6112 C 236.43442 174.37249 241.57268 175.20059 246.69727 176.10742 C 251.56936 179.19028 253.11994 185.77642 251.56442 191.09646 C 249.93633 197.04588 246.46767 202.2374 243.41303 207.52125 C 234.98093 220.61319 222.815 231.2913 208.68164 237.84766 C 201.00612 239.97228 192.44088 235.21267 189.51758 227.94727 C 185.3311 220.28206 181.59952 211.97433 174.75802 206.24471 C 165.66805 198.74801 152.63627 197.07442 141.59961 200.74219 C 129.74189 204.45732 119.72617 212.49158 111.61854 221.71397 C 97.017792 238.62134 90.342528 261.93403 93.344104 284.02976 C 94.453964 297.12573 96.15017 310.47687 93.393541 323.48906 C 90.772391 336.83033 85.86433 349.83762 85.652366 363.56552 C 86.138123 383.74412 90.004854 403.61616 93.279929 423.47334 C 95.50128 436.01377 97.662278 448.60499 101.18645 460.85837 C 103.94294 469.37638 109.33171 477.15503 116.8434 482.13405 C 126.29233 488.82288 136.90205 493.57401 147.09217 498.98334 C 159.50287 505.39319 171.88112 511.86565 184.29492 518.26953 C 185.25892 519.61772 183.71047 521.53292 182.18531 521.13587 C 158.45622 525.40243 134.72714 529.66899 110.99805 533.93555 C 100.63452 538.66001 91.203649 545.17788 82.328125 552.26367 C 77.741685 559.82821 77.812245 569.5032 80.944718 577.58965 C 84.074246 585.30263 90.771862 591.53212 98.80709 593.82457 C 108.44678 597.29826 118.86255 596.9552 128.94509 596.62547 C 145.37079 596.29135 161.79596 595.93282 178.2207 595.55469 C 179.59569 599.89312 177.51959 604.61417 174.23807 607.51007 C 171.15499 611.52532 167.85994 615.5376 166.12891 620.36328 C 166.22285 627.22363 168.79607 633.67964 170.65625 640.18945 C 170.38827 641.57497 168.62836 641.2941 167.65696 640.93483 C 156.60897 639.34873 145.2559 637.48629 134.1734 639.83393 C 120.71666 642.98219 106.92871 645.56396 94.416016 651.67578 C 82.6997 659.31704 76.828332 675.10187 81.3125 688.45117 C 84.257384 695.92242 91.649054 700.91289 99.364709 702.37226 C 108.87649 704.32374 118.57264 705.11093 128.15453 706.62816 C 167.14346 711.93865 206.47218 715.64844 245.86128 714.80795 C 292.49196 714.53715 339.13396 713.83669 385.75802 715.01274 C 408.89643 715.61778 432.02421 716.88336 455.05897 719.18385 C 469.09507 720.42112 483.31638 720.67415 497.26391 718.39583 C 510.37939 716.63716 523.7382 714.79941 536.93271 716.87191 C 552.91667 718.86934 569.00082 721.4141 585.15628 720.22806 C 606.11344 719.29231 627.07708 718.32073 648.05956 718.28082 C 674.81338 717.88892 701.60503 718.30919 728.31545 716.47015 C 750.5798 714.76623 772.72947 711.35154 794.40039 705.94336 C 801.89628 702.63529 805.74289 693.51895 803.91524 685.7055 C 802.47539 678.85943 798.04173 673.25321 794.70876 667.26019 C 788.96571 657.79989 782.36763 648.55506 773.44952 641.83172 C 763.27771 635.70413 749.80848 636.24162 739.7762 642.39466 C 718.80338 652.41121 697.35761 662.12612 674.42257 666.63924 C 650.84509 671.38089 626.7016 674.55691 602.62321 672.72996 C 590.41966 671.37696 578.09636 667.57636 568.501 659.6652 C 560.60931 653.22161 554.57686 643.91246 553.70852 633.59482 C 553.1417 624.73786 557.29721 616.18018 563.2168 609.80469 C 569.5606 602.63566 577.43606 596.57226 581.83259 587.87891 C 584.10997 583.36035 585.09386 577.70602 582.78619 573.00623 C 580.77695 569.07792 576.19027 567.26714 571.96919 567.25314 C 552.87478 564.66534 533.43462 562.55301 515.33949 555.53012 C 503.18911 550.79012 491.16354 545.69693 479.51562 539.81836 C 475.5774 536.86142 474.67984 531.35798 475.7188 526.79255 C 476.5624 522.41509 476.04777 517.92081 475.07545 513.61254 C 474.42127 509.97751 474.4404 505.72289 477.14848 502.87705 C 480.45468 499.06322 485.8239 497.87324 490.6781 498.24183 C 510.59988 498.34404 530.39282 500.87978 550.25194 502.14724 C 562.02097 503.01352 573.82711 503.80797 585.62763 503.65158 C 594.84153 501.77536 600.99308 491.14545 598.15744 482.20484 C 595.908 471.95941 590.73032 462.73495 586.35352 453.30273 C 583.31193 449.52786 578.45719 448.18271 574.25903 446.14931 C 567.95748 443.48509 561.09117 441.26553 556.27612 436.15087 C 551.70298 430.41008 551.0393 422.31009 553.29102 415.48828 C 556.37232 401.06773 558.20249 386.25014 563.59443 372.43667 C 567.52049 364.97566 575.33075 360.23354 583.41142 358.50914 C 596.74124 355.02929 610.47624 353.26111 623.66308 349.20381 C 632.50757 346.61073 641.22083 342.59213 647.68383 335.8528 C 656.24916 327.44201 662.69408 316.9054 666.46408 305.52138 C 667.91503 300.5579 668.68173 295.01714 666.72474 290.0873 C 663.83058 284.53773 657.29473 281.68985 651.21962 281.98866 C 622.0532 281.06972 592.86313 280.46003 563.74724 278.41499 C 559.72663 278.05205 555.65147 277.86628 551.70392 277.01587 C 542.28989 273.62737 536.96574 262.07324 540.32695 252.68237 C 543.90908 238.39834 549.50857 224.46648 550.41016 209.63281 C 550.69909 202.22816 548.98964 194.28358 543.74795 188.76891 C 538.66175 183.60524 531.28773 181.625 524.25763 181.07089 C 499.79482 178.55334 475.34508 175.81862 450.80763 174.12231 C 441.81834 173.59438 432.76172 173.82476 423.86867 175.3186 C 415.60098 176.4991 407.26176 178.06145 398.88208 177.4505 C 395.52231 176.55097 394.03662 172.45618 394.9293 169.31462 C 395.72276 165.73447 396.1453 162.08374 396.76953 158.4707 C 399.97982 155.0846 404.89879 154.58361 409.28484 154.12977 C 419.51574 153.47106 429.77286 153.44023 440.01619 153.08903 C 472.74777 152.28533 505.49626 151.99316 538.20703 150.48828 C 541.54086 149.66539 544.00562 146.28515 543.79102 142.86133 C 545.80714 137.54896 552.31004 135.02199 557.59139 136.5376 C 560.86379 136.96526 564.13941 137.40765 567.36523 138.11523 C 568.70191 141.21388 568.26801 144.90749 566.53711 147.76367 C 566.46222 149.76623 568.91774 151.26141 570.68164 150.35352 C 584.22596 149.19561 597.20909 143.80199 610.92456 144.274 C 627.4147 144.8668 643.82891 146.81182 660.32984 147.1877 C 682.0862 148.31578 704.00062 148.98584 725.40909 153.36043 C 733.73724 155.81109 741.83733 160.48184 746.61293 167.92716 C 749.68198 173.41621 750.27796 180.74427 746.63265 186.11315 C 741.66018 193.04207 733.943 197.10796 726.77391 201.35725 C 716.97275 207.20169 707.02547 212.96778 698.35547 220.45312 C 694.3958 226.17334 694.29794 233.79071 696.53125 240.19141 C 697.64518 244.31185 698.75911 248.43229 699.87305 252.55273 C 703.69792 256.57674 709.64462 257.53776 714.95117 257.00586 C 721.25302 256.79379 727.57069 256.20922 733.87109 256.76562 C 736.66626 258.56518 737.08169 262.74073 735.25 265.36719 C 733.27308 270.69685 731.45128 276.52235 726.89844 280.26953 C 720.94796 284.38171 713.45972 284.70205 706.8914 287.31024 C 699.75415 291.21344 696.14227 300.00503 697.48613 307.8851 C 698.6232 320.44222 700.49332 332.91991 702.32786 345.38805 C 703.32757 349.85366 707.22832 352.87269 711.12032 354.81842 C 716.63167 357.51585 722.79674 358.28887 728.64258 359.94922 C 729.82178 360.48583 730.04275 361.9384 730.58594 362.98828 C 732.3428 367.9175 730.89519 373.47254 727.87237 377.59078 C 722.19198 386.15036 712.24297 391.24327 702.15406 392.21594 C 684.60381 395.42264 666.71019 398.02816 650.15039 404.98438 C 642.49137 408.57696 637.63802 417.10201 638.13524 425.50405 C 637.56794 440.22425 638.55444 454.94293 638.55563 469.66418 C 638.66664 475.49031 638.77766 481.31645 638.88867 487.14258 C 642.04044 493.97556 649.08157 498.3184 656.31445 499.63672 C 665.66942 502.19592 675.14174 504.67594 683.85156 509.04492 C 689.72574 514.42105 688.73967 525.23647 681.97461 529.44727 C 667.50371 539.15381 649.86208 542.55964 635.31371 552.12771 C 630.18051 555.28091 625.33849 558.988 621.21761 563.39318 C 619.55786 565.51638 619.78561 568.40149 620.41613 570.85441 C 620.66584 576.21825 621.26014 581.68359 620.02148 586.97461 C 621.38841 592.9659 626.15619 597.78705 626.49861 604.06829 C 626.85784 610.80195 625.05827 617.50052 625.96504 624.22894 C 626.38903 628.49959 627.87082 633.17557 631.66797 635.60352 C 636.01065 638.14055 641.21573 637.31388 646.001 637.23164 C 657.44711 636.81896 668.88544 636.07886 680.34338 636.1038 C 686.16278 635.92271 691.93376 634.3429 696.9639 631.39327 C 703.31317 627.98827 709.441 624.18162 715.87514 620.93141 C 727.08299 615.04582 739.0892 609.91425 751.87109 609.08594 C 772.96004 607.80977 794.25763 617.49204 807.45048 633.93968 C 814.09536 642.06613 819.24699 651.25287 824.87525 660.07887 C 835.03686 676.51887 844.74359 693.44336 857.72219 707.88468 C 862.93242 713.38276 870.01914 717.03668 877.52417 718.0767 C 887.54226 719.87313 897.75761 718.94887 907.87026 719.29393 C 941.31236 719.44096 974.82076 720.14259 1008.1897 717.45029 C 1012.4663 717.0752 1016.7913 715.91428 1020.2254 713.23373 C 1027.4062 708.09022 1031.517 698.78492 1029.9092 690.02111 C 1028.3826 679.48767 1019.9936 670.51045 1009.7741 667.78907 C 1007.0865 666.83154 1004.0425 666.40567 1001.8054 664.52932 C 999.4917 661.50157 1000.5852 656.91642 1003.4371 654.63399 C 1014.1288 640.53 1025.524 626.64717 1032.8508 610.39426 C 1039.0517 596.0585 1040.7899 580.31734 1041.6341 564.86516 C 1041.9673 557.63405 1042.1038 550.39622 1042.2812 543.16016 C 1040.4806 538.57546 1036.251 535.66977 1032.4609 532.82683 C 1029.6458 530.95793 1026.5334 529.57795 1023.3398 528.49609 C 1008.5527 529.49368 993.86471 531.53128 979.17578 533.44531 C 974.66114 530.85786 972.47464 525.36951 972.87109 520.32422 C 972.2065 514.37204 976.25001 508.30005 982.01462 506.64699 C 990.35383 503.01597 999.5994 502.9278 1008.4267 501.34557 C 1018.4133 499.92303 1028.3847 498.36024 1038.2695 496.33789 C 1043.5807 492.98415 1045.932 486.23461 1045.1777 480.17188 C 1043.2989 435.80055 1042.1793 391.26568 1035.6758 347.26367 C 1033.5685 335.55926 1029.7817 323.80749 1022.3398 314.35156 C 1014.6756 305.77931 1003.6723 300.94175 992.5626 298.72559 C 974.41107 295.15524 955.82432 293.90713 937.91797 289.08789 C 932.78178 286.70254 932.14702 278.69253 936.55437 275.28651 C 939.67265 272.74491 943.73369 271.91285 947.52174 270.87579 C 956.77071 268.79139 966.31048 268.99583 975.70565 268.11908 C 990.57227 267.09197 1005.6414 266.23511 1019.9989 261.94845 C 1029.7723 257.48046 1035.0915 245.53333 1032.399 235.2179 C 1030.4107 222.38605 1027.3094 209.5343 1021.2534 197.96617 C 1017.8109 192.39276 1011.2927 188.97429 1004.7605 189.16163 C 996.72178 188.87367 988.90718 191.12884 980.98405 192.09293 C 970.36276 193.77057 959.48965 195.66567 948.75498 193.87327 C 946.66716 193.42107 944.62218 192.79684 942.58398 192.16211 C 939.20071 183.68924 938.40611 174.16176 940.59766 165.28711 C 944.4184 159.69449 951.74887 157.40866 958.26237 158.3789 C 968.67602 159.09505 979.19969 160.55947 989.59766 158.87305 C 999.99078 155.09232 1008.3212 147.57485 1017.0154 141.01406 C 1027.2441 133.37294 1039.7417 128.97862 1052.447 128.06258 C 1065.0845 126.49966 1077.8003 125.72887 1090.4746 124.53906 C 1096.2019 122.12077 1099.4987 115.89077 1099.7901 109.87478 C 1100.3682 104.73247 1099.5957 99.572848 1098.8496 94.490234 C 1096.3862 91.132888 1091.9915 90.252455 1088.0859 89.935547 C 1057.6625 85.622846 1027.3593 80.218046 996.71368 77.677897 C 973.31371 77.56818 950.19843 83.269871 926.76367 81.814453 C 903.04598 79.61304 880.56698 70.373767 856.76172 68.763672 C 856.21419 68.770833 855.66667 68.777995 855.11914 68.785156 z "
       transform="matrix(0.26458333,0,0,0.26458333,0,87)"
       id="rect5106"
       inkscape:connector-curvature="0"
       sodipodi:nodetypes="ccccccccccccccccccccccccccccccccccccccccccccccccccccccccccccccccccccccccccccccccccccccccccccccccccccccccccccccccccccccccccccccccccccccccccccccccccccccccccccccccccccccccccccccccccccccccccccccccccccccccccccccccccccccccccccccccccccccccccccccccccccccccccccccccccccccccccccccccccccccccczzzccccccccccccccccccccccccccccccccccccccccccccccccccccccccccccccccccccccccccccccccccccccccsccccccccccccccccccccccccccccccccccccccccccccccccccccccccccccccccccccccccccccccccccccccccccccccccccccccccccccccccccccccccccc" />
  </g>
  <g
     inkscape:groupmode="layer"
     id="layer3"
     inkscape:label="l2+l3"
     style="display:inline">
    <circle
       transform="translate(0,-87.000001)"
       style="fill:none;fill-opacity:1;stroke:#000000;stroke-width:0.30000001;stroke-miterlimit:4;stroke-dasharray:none;stroke-dashoffset:0;stroke-opacity:1"
       id="path5287"
       cx="164.60863"
       cy="142.78572"
       r="11.90625" />
  </g>
  <g
     inkscape:groupmode="layer"
     id="layer2"
     inkscape:label="l1+l2+l3"
     style="display:inline">
    <ellipse
       transform="translate(0,-87.000001)"
       style="display:inline;fill:none;fill-opacity:1;stroke:#000000;stroke-width:0.30000001;stroke-miterlimit:4;stroke-dasharray:none;stroke-dashoffset:0;stroke-opacity:1"
       id="path5303-0"
       cx="13.096207"
       cy="187.41949"
       rx="2.8500001"
       ry="2.8499999" />
    <ellipse
       transform="translate(0,-87.000001)"
       style="display:inline;fill:none;fill-opacity:1;stroke:#000000;stroke-width:0.30000001;stroke-miterlimit:4;stroke-dasharray:none;stroke-dashoffset:0;stroke-opacity:1"
       id="path5303-01"
       cx="165.03894"
       cy="187.28586"
       rx="2.8500001"
       ry="2.8499999" />
    <ellipse
       transform="translate(0,-87.000001)"
       style="display:inline;fill:none;fill-opacity:1;stroke:#000000;stroke-width:0.30000001;stroke-miterlimit:4;stroke-dasharray:none;stroke-dashoffset:0;stroke-opacity:1"
       id="path5303-6"
       cx="283.43933"
       cy="187.55313"
       rx="2.8500001"
       ry="2.8499999" />
    <ellipse
       transform="translate(0,-87.000001)"
       style="display:inline;fill:none;fill-opacity:1;stroke:#000000;stroke-width:0.30000001;stroke-miterlimit:4;stroke-dasharray:none;stroke-dashoffset:0;stroke-opacity:1"
       id="path5303-43"
       cx="236.23512"
       cy="187.3869"
       rx="2.8500001"
       ry="2.8499999" />
    <ellipse
       transform="translate(0,-87.000001)"
       style="display:inline;fill:none;fill-opacity:1;stroke:#000000;stroke-width:0.30000001;stroke-miterlimit:4;stroke-dasharray:none;stroke-dashoffset:0;stroke-opacity:1"
       id="path5303-2"
       cx="92.226189"
       cy="187.76488"
       rx="2.8500001"
       ry="2.8499999" />
    <ellipse
       transform="translate(0,-87.000001)"
       style="display:inline;fill:none;fill-opacity:1;stroke:#000000;stroke-width:0.30000001;stroke-miterlimit:4;stroke-dasharray:none;stroke-dashoffset:0;stroke-opacity:1"
       id="path5303-04"
       cx="13.229841"
       cy="281.89926"
       rx="2.8500001"
       ry="2.8499999" />
    <ellipse
       transform="translate(0,-87.000001)"
       style="display:inline;fill:none;fill-opacity:1;stroke:#000000;stroke-width:0.30000001;stroke-miterlimit:4;stroke-dasharray:none;stroke-dashoffset:0;stroke-opacity:1"
       id="path5303-9"
       cx="283.30569"
       cy="281.76562"
       rx="2.8500001"
       ry="2.8499999" />
    <ellipse
       transform="translate(0,-87.000001)"
       style="display:inline;fill:none;fill-opacity:1;stroke:#000000;stroke-width:0.30000001;stroke-miterlimit:4;stroke-dasharray:none;stroke-dashoffset:0;stroke-opacity:1"
       id="path5303-4"
       cx="165.17256"
       cy="281.76562"
       rx="2.8500001"
       ry="2.8499999" />
    <ellipse
       transform="translate(0,-87.000001)"
       style="display:inline;fill:none;fill-opacity:1;stroke:#000000;stroke-width:0.30000001;stroke-miterlimit:4;stroke-dasharray:none;stroke-dashoffset:0;stroke-opacity:1"
       id="path5303-8"
       cx="283.43933"
       cy="100.69053"
       rx="2.8500001"
       ry="2.8499999" />
    <ellipse
       transform="translate(0,-87.000001)"
       style="display:inline;fill:none;fill-opacity:1;stroke:#000000;stroke-width:0.30000001;stroke-miterlimit:4;stroke-dasharray:none;stroke-dashoffset:0;stroke-opacity:1"
       id="path5303-45"
       cx="164.9053"
       cy="100.5569"
       rx="2.8500001"
       ry="2.8499999" />
    <ellipse
       transform="translate(0,-87.000001)"
       style="display:inline;fill:none;fill-opacity:1;stroke:#000000;stroke-width:0.30000001;stroke-miterlimit:4;stroke-dasharray:none;stroke-dashoffset:0;stroke-opacity:1"
       id="path5303"
       cx="13.173648"
       cy="100.7157"
       rx="2.8500001"
       ry="2.8499999" />
    <rect
       transform="translate(0,-87.000001)"
       style="display:inline;fill:none;fill-opacity:1;stroke:#000000;stroke-width:0.30000001;stroke-miterlimit:4;stroke-dasharray:none;stroke-dashoffset:0;stroke-opacity:1"
       id="rect5104"
       width="283.06427"
       height="196.64069"
       x="7.3826156"
       y="93.422783"
       ry="6.4255953"
       rx="6.4255953" />
  </g>
</svg>
