<?xml version="1.0" encoding="UTF-8" standalone="no"?>
<!-- Created with Inkscape (http://www.inkscape.org/) -->

<svg
   xmlns:dc="http://purl.org/dc/elements/1.1/"
   xmlns:cc="http://creativecommons.org/ns#"
   xmlns:rdf="http://www.w3.org/1999/02/22-rdf-syntax-ns#"
   xmlns:svg="http://www.w3.org/2000/svg"
   xmlns="http://www.w3.org/2000/svg"
   xmlns:sodipodi="http://sodipodi.sourceforge.net/DTD/sodipodi-0.dtd"
   xmlns:inkscape="http://www.inkscape.org/namespaces/inkscape"
   width="297mm"
   height="210mm"
   viewBox="0 0 297 210"
   version="1.1"
   id="svg4654"
   inkscape:version="0.92.0 r15299"
   sodipodi:docname="antNest2.svg">
  <defs
     id="defs4648" />
  <sodipodi:namedview
     id="base"
     pagecolor="#ffffff"
     bordercolor="#666666"
     borderopacity="1.0"
     inkscape:pageopacity="0.0"
     inkscape:pageshadow="2"
     inkscape:zoom="1.4142136"
     inkscape:cx="605.26907"
     inkscape:cy="415.87521"
     inkscape:document-units="mm"
     inkscape:current-layer="layer3"
     showgrid="false"
     inkscape:window-width="2560"
     inkscape:window-height="1377"
     inkscape:window-x="1912"
     inkscape:window-y="-8"
     inkscape:window-maximized="1"
     showguides="true"
     inkscape:guide-bbox="true">
    <sodipodi:guide
       position="106.18455,193.63754"
       orientation="1,0"
       id="guide4491"
       inkscape:locked="false" />
    <sodipodi:guide
       position="281.32467,-7.7267699"
       orientation="1,0"
       id="guide4493"
       inkscape:locked="false" />
    <sodipodi:guide
       position="312.46589,193.63754"
       orientation="0,1"
       id="guide4495"
       inkscape:locked="false" />
    <sodipodi:guide
       position="307.43179,18.965708"
       orientation="0,1"
       id="guide4497"
       inkscape:locked="false" />
    <sodipodi:guide
       position="291.06361,112.7499"
       orientation="0,1"
       id="guide5153"
       inkscape:locked="false" />
    <sodipodi:guide
       position="197.35371,92.882074"
       orientation="1,0"
       id="guide5155"
       inkscape:locked="false" />
  </sodipodi:namedview>
  <metadata
     id="metadata4651">
    <rdf:RDF>
      <cc:Work
         rdf:about="">
        <dc:format>image/svg+xml</dc:format>
        <dc:type
           rdf:resource="http://purl.org/dc/dcmitype/StillImage" />
        <dc:title />
      </cc:Work>
    </rdf:RDF>
  </metadata>
  <g
     inkscape:groupmode="layer"
     id="layer6"
     inkscape:label="l1+l4"
     style="display:inline">
    <rect
       transform="translate(0,-87.000001)"
       style="display:inline;fill:none;fill-opacity:1;stroke:#005f00;stroke-width:0.31299999;stroke-miterlimit:4;stroke-dasharray:none;stroke-opacity:1"
       id="rect5199-7-1-7"
       width="203.8311"
       height="203.8311"
       x="91.970871"
       y="88.841095"
       ry="9.3627882" />
  </g>
  <g
     inkscape:groupmode="layer"
     id="layer4"
     inkscape:label="l4"
     style="display:inline">
    <rect
       style="display:inline;fill:none;fill-opacity:1;stroke:#005f00;stroke-width:0.31255841;stroke-miterlimit:4;stroke-dasharray:none;stroke-opacity:1"
       id="rect4538-5-6"
       width="6.3658834"
       height="41.511929"
       x="190.75603"
       y="28.556028"
       ry="0" />
  </g>
  <g
     inkscape:label="l3"
     inkscape:groupmode="layer"
     id="layer1"
     transform="translate(0,-87)"
     style="display:none">
    <path
       style="display:inline;fill:none;fill-opacity:0.05527637;stroke:#0000aa;stroke-width:0.31299999;stroke-miterlimit:4;stroke-dasharray:none;stroke-opacity:1"
       d="m 265.69727,175.86914 c -1.33603,0.56604 -1.94769,1.9854 -2.50685,3.22365 -1.28194,2.62698 -2.5909,5.24194 -4.00683,7.79979 -1.38807,1.29684 -3.16196,2.15197 -5.01953,2.52148 -2.08534,-0.38834 -3.67982,-2.10855 -4.43863,-4.01944 -0.64175,-1.19385 -1.28227,-2.38842 -1.94223,-3.57235 -2.17101,-1.44158 -5.0688,-1.37031 -7.38086,-0.30665 -0.93871,0.32701 -1.98302,0.61442 -2.62304,1.4336 -0.41159,1.19737 0.28138,2.36587 0.71289,3.44922 0.66732,1.66536 1.33463,3.33073 2.00195,4.99609 0.0934,1.96879 -1.05222,3.73968 -2.375,5.09766 -0.91804,1.10001 -1.73725,2.27658 -2.57226,3.43945 -0.72514,0.45209 -1.76542,-0.0876 -1.91993,-0.90039 -0.78837,-1.38273 -1.59505,-2.75488 -2.39843,-4.12891 -2.40807,-1.47724 -4.79617,-3.12885 -6.48044,-5.439 -1.14967,-1.35544 -2.50426,-2.76925 -4.33662,-3.08246 -2.22974,-0.4405 -4.70459,-0.20382 -6.617,1.09806 -0.66959,0.58505 -0.71373,1.64475 -0.23685,2.36211 1.88019,4.48498 3.83251,8.96124 5.18653,13.63942 0.15307,1.05761 -0.64997,2.00478 -1.52695,2.48607 -0.80624,0.42762 -1.71515,0.6025 -2.57917,0.87863 -3.86671,1.07461 -7.88371,1.4436 -11.77474,2.41069 -0.94767,0.43383 -1.0131,1.75841 -0.49789,2.55069 0.53825,0.86916 1.58935,1.15943 2.40792,1.68686 2.93881,1.62703 6.20149,2.86457 9.60078,2.87695 2.20039,0.08 4.37871,0.42528 6.55692,0.71622 1.63498,0.09 3.06362,-0.8533 4.37814,-1.70137 1.21386,-0.74438 2.65288,-1.45448 4.11181,-1.11309 0.75044,0.20314 1.2708,0.89334 1.3872,1.64482 0.21648,0.93141 0.33607,1.89616 0.76132,2.76471 0.59847,1.55273 1.25029,3.23619 0.83924,4.92129 -0.40165,2.16508 -1.07566,4.26677 -1.6245,6.39601 -0.35603,1.17053 -0.98083,2.47978 -2.24125,2.86824 -1.18334,0.32442 -2.29122,-0.34902 -3.33603,-0.80417 -2.03593,-0.91321 -3.95559,-2.08473 -6.04678,-2.87161 -1.08297,-0.3107 -2.24433,-0.14244 -3.2696,0.28673 -0.33858,0.17285 -0.83775,0.13307 -1.07888,0.40917 -0.48209,0.9571 0.0291,2.0341 0.58246,2.837 0.91999,1.93041 0.64855,4.28574 1.956,6.05495 0.65846,1.06442 1.33805,2.20382 1.38033,3.49027 -0.37755,1.02101 -1.5324,1.30614 -2.42578,1.70899 -4.30078,1.96419 -8.60157,3.92838 -12.90235,5.89257 -1.47302,2.26333 -1.51949,5.1673 -0.83401,7.70572 0.12536,0.51109 0.56811,0.93492 1.10803,0.94625 1.63551,0.34252 3.29639,-0.31197 4.93499,0.0334 2.472,0.37792 4.51374,2.15545 5.75819,4.25481 1.16591,1.77914 2.48841,3.65027 4.52499,4.48949 1.43128,0.65904 3.06493,0.56007 4.5625,0.20899 1.86845,-0.40829 3.79322,-0.44736 5.66642,-0.81881 0.8433,-0.20299 1.73327,-0.42316 2.43124,-0.95658 1.33006,-1.30614 1.56747,-3.34211 1.23348,-5.09849 -0.33269,-2.12122 -1.25209,-4.1913 -1.02265,-6.37152 0.58546,-2.09523 2.27325,-3.58548 3.69883,-5.12802 0.78641,-0.87616 1.78143,-1.78591 3.04081,-1.74381 3.12073,-0.2166 6.12609,1.88342 7.29531,4.73299 1.00744,2.35007 0.65866,4.95886 0.79145,7.44247 0.0567,0.63802 0.074,1.31972 0.35925,1.90075 0.91101,1.35335 3.07504,1.4596 4.18889,0.30372 1.48334,-1.15477 2.70904,-2.79133 4.60213,-3.29591 2.61764,-0.58678 5.29072,0.21015 7.71,1.18796 1.28635,0.53727 2.74521,1.02616 4.12891,0.55422 2.843,-0.77351 5.136,-2.71526 7.52437,-4.34179 0.47017,-0.26003 0.74752,-0.82129 0.55436,-1.34292 -0.2474,-0.65807 -0.71984,-1.20154 -1.04554,-1.82166 -2.73175,-4.44727 -5.43685,-8.91084 -8.1514,-13.36862 -0.72789,-2.28345 0.36949,-4.85615 2.25391,-6.23633 1.64452,-1.43417 3.2723,-2.88732 4.90234,-4.33789 0.48549,-1.81479 0.10706,-3.83887 -1.01172,-5.34961 -2.78846,-1.33547 -6.48637,0.0874 -7.71687,2.9104 -3.26806,5.34738 -6.24335,10.89628 -10.01617,15.91606 -0.62143,0.6743 -1.24581,1.34586 -1.87243,2.01534 -1.28013,0.42422 -2.68865,-0.97089 -2.32226,-2.25586 0.0247,-2.73177 0.0495,-5.46354 0.0742,-8.19531 -1.93864,-3.71496 -3.87541,-7.43231 -5.67188,-11.21875 -0.073,-0.58438 -0.0353,-1.18413 0.12305,-1.75196 1.21865,-0.15315 2.21432,0.7375 3.02734,1.52149 1.73279,1.47439 3.41009,3.15944 5.61719,3.89844 2.11551,0.30348 4.25163,-0.96858 5.24023,-2.81641 1.53619,-1.98942 3.0696,-3.98103 4.62305,-5.95703 1.99384,-0.96007 3.99326,-1.90879 5.97461,-2.89453 1.23124,-1.52453 1.51059,-3.74636 0.71094,-5.53321 -3.09899,-2.60238 -6.809,-4.28963 -10.33985,-6.20507 -0.88452,-1.03515 -0.10614,-2.77992 1.16278,-3.05069 1.37424,-0.43004 2.83004,-0.47205 4.22768,-0.79799 2.00704,-0.3262 4.02217,-0.59874 6.03533,-0.88375 2.29992,-1.25431 4.23462,-3.28105 5.125,-5.76953 0.0812,-1.50377 -1.14916,-2.79427 -2.52735,-3.20312 -0.7633,-0.36315 -0.79794,-1.37477 -0.53185,-2.07069 0.44952,-2.16329 1.12287,-4.27217 1.62777,-6.42185 0.24488,-0.78934 0.23826,-1.7001 -0.26959,-2.3887 -0.90318,-1.52836 -2.74002,-2.35697 -4.48416,-2.22852 -1.57282,-0.11551 -3.14962,-0.18347 -4.72693,-0.16954 z"
       id="path4552"
       inkscape:connector-curvature="0" />
    <path
       style="display:inline;fill:none;fill-opacity:0.05527637;stroke:#0000aa;stroke-width:0.31299999;stroke-miterlimit:4;stroke-dasharray:none;stroke-opacity:1"
       d="m 148.92813,108.77081 c -1.76682,0.86482 -2.94516,2.52263 -3.96257,4.14513 -0.54004,0.86582 -1.08009,1.73164 -1.62013,2.59746 -0.95045,0.50116 -2.04968,0.1848 -3.02179,-0.0736 -3.36645,-0.86879 -6.74312,-1.71033 -10.16427,-2.3377 -1.49808,0.13987 -2.9478,0.77819 -4.05045,1.80393 -0.29411,1.05798 0.22217,2.1164 0.79667,2.97907 2.08856,3.4022 4.1983,6.79305 6.15959,10.27108 0.38385,1.38924 -0.33325,2.98937 -1.62688,3.62618 -1.81144,0.0833 -3.56537,-0.93158 -4.55103,-2.42661 -2.20742,-2.71793 -4.41528,-5.43552 -6.62355,-8.15276 -1.96726,-1.3523 -5.02803,-0.49802 -6.01309,1.67572 -0.77866,1.42528 -0.76164,3.24871 0.0755,4.64538 1.36343,2.35518 3.61166,4.06006 4.89989,6.46565 0.45246,0.79685 0.74118,1.72437 0.594,2.64616 -0.15222,1.24656 -1.09957,2.19609 -2.05031,2.92386 -1.61714,1.25638 -3.47485,2.14479 -5.15815,3.30254 -0.45533,0.50591 -0.67461,1.17821 -0.75697,1.84361 1.03584,0.90208 2.44283,1.16247 3.56653,1.92406 0.4356,0.24846 0.86805,0.5023 1.29888,0.75894 1.00636,2.45995 1.006,5.16211 1.07723,7.77591 0.0522,2.151 0.0863,4.34495 0.75722,6.41131 0.62834,1.30599 2.44988,1.77606 3.6628,1.01337 2.13202,-1.02234 3.70655,-2.83893 5.39741,-4.43426 2.07244,-2.07491 4.34347,-4.02007 7.01655,-5.27718 1.67486,-0.87361 3.45502,-1.60641 5.33837,-1.86298 0.82039,-0.005 1.4171,0.86827 1.2809,1.6414 0.0559,1.89219 -0.31617,3.75907 -0.52304,5.63206 -0.27966,1.93258 -0.86478,3.8398 -1.88848,5.51266 -0.43187,0.80706 -0.83971,1.6562 -0.9297,2.57929 0.0749,0.51646 0.70019,0.82799 1.16905,0.62573 2.00226,-0.35668 3.98832,-0.95946 6.04216,-0.8811 1.77983,-0.0494 3.63755,0.18477 5.33263,-0.49284 1.43102,-0.62418 2.47798,-1.99417 4.06467,-2.2827 1.44266,-0.29196 2.91437,0.21157 4.17136,0.89764 2.11496,1.1376 4.0007,2.69704 6.24907,3.5822 0.85874,0.35436 1.8212,0.48444 2.72822,0.24206 1.88455,-0.45685 3.44719,-2.05485 3.81222,-3.96743 0.77215,-2.69467 0.21554,-5.62663 -1.07304,-8.07118 -1.12079,-2.23199 -2.50189,-4.33659 -3.4168,-6.6691 -0.0561,-0.86402 0.81284,-1.597 1.65131,-1.49564 2.97421,-0.19909 6.01128,-0.21184 8.87922,-1.12326 1.39044,-0.57267 2.64478,-1.42366 3.82152,-2.3503 0.97708,-1.65832 0.78205,-3.83967 -0.27166,-5.41482 -0.63798,-1.11755 -1.31861,-2.34692 -1.16599,-3.68111 0.19549,-2.26736 0.66388,-4.51872 0.58299,-6.80365 -0.4724,-2.26861 -3.00786,-3.80759 -5.24389,-3.26905 -3.17616,0.53935 -6.08801,1.98298 -9.11981,3.00364 -1.41055,0.48289 -2.86971,0.90716 -4.36402,0.98201 -0.62256,-0.0897 -0.98787,-0.89559 -0.62496,-1.41798 0.33848,-0.76564 1.09223,-1.21179 1.60761,-1.84316 2.17001,-2.20183 4.36986,-4.39024 6.25917,-6.84442 0.80202,-1.28714 0.19904,-3.17504 -1.16905,-3.80319 -1.70242,-1.02921 -3.75887,-1.14894 -5.69797,-1.07898 -1.3715,0.0244 -2.7467,0.0794 -4.11527,-0.0442 -1.10005,-0.49494 -1.99729,-1.32301 -2.95016,-2.0437 -1.37438,-1.08439 -2.70935,-2.27073 -4.30999,-3.01286 -0.51391,-0.17489 -1.04152,-0.30558 -1.57328,-0.41321 -0.0855,0.0203 -0.17094,0.0406 -0.25641,0.0611 z"
       id="rect4545"
       inkscape:connector-curvature="0"
       sodipodi:nodetypes="cccccccccccccccccccccccccccccccccccccc" />
    <path
       style="display:inline;fill:none;fill-opacity:1;stroke:#0000aa;stroke-width:1.1829921;stroke-miterlimit:4;stroke-dasharray:none;stroke-opacity:1"
       d="m 946.34375,75.580078 c 2.62495,0.08853 5.23422,0.42893 7.82227,0.863281 1.01881,0.736274 0.82616,2.476207 -0.22852,3.087891 -5.37117,5.155889 -10.97878,10.338758 -14.49414,17.007812 -2.43393,5.086928 -2.63591,11.385308 0.16602,16.371098 2.09662,3.12452 5.74567,4.53596 9.03515,6.02734 5.92314,2.4569 12.30709,3.77309 18.71485,3.92969 3.71463,-1.51621 6.37222,-4.67305 8.95195,-7.61225 2.64714,-3.24129 3.56795,-7.45983 3.9919,-11.52639 0.47234,-3.30157 0.37486,-6.848504 2.09716,-9.820347 1.10457,-2.043566 3.59844,-2.706504 5.76643,-2.625722 3.05216,-1.3e-5 6.22594,0.900962 9.1855,-0.19998 3.18048,-1.287092 5.05498,-4.357963 6.87948,-7.085708 1.2868,-1.924479 2.3993,-4.014524 4.009,-5.689096 0.8258,-0.65609 2.2757,-0.488691 2.6575,0.586986 2.3078,3.528346 2.4245,8.054897 4.9842,11.456685 1.4853,2.335089 3.4558,4.328714 5.6234,6.035351 1.4357,1.585555 1.0334,3.958511 0.2964,5.770591 -1.7942,4.43698 -5.4865,7.65314 -8.467,11.27246 -4.8154,5.31517 -8.825,11.27981 -12.8155,17.21941 -1.78003,2.60067 -3.56007,5.20133 -5.34011,7.80199 -1.02755,3.56529 -0.90485,7.45144 0.35742,10.94141 4.71129,0.59877 9.47089,1.26343 14.22659,0.8164 7.4531,-6.08353 12.5801,-14.35058 18.7979,-21.57561 5.7915,-6.56413 13.1892,-11.36461 20.1552,-16.5572 0.6953,-0.78144 2.1152,-1.41681 2.9379,-0.4644 1.2458,1.25221 2.3309,2.65677 3.6693,3.81939 1.6097,1.52491 3.3064,3.29879 3.5082,5.62588 0.4392,3.32045 -0.774,6.55388 -1.7609,9.66618 -2.3297,6.54374 -6.6308,12.1707 -11.4244,17.11104 -4.817,5.51825 -7.3229,13.06618 -6.4711,20.36886 0.6548,3.24932 3.2611,5.55315 5.6269,7.65235 2.3635,2.07238 4.908,3.97923 6.8965,6.4375 1.0227,2.34431 0.3815,5.1353 -0.9774,7.20715 -1.2862,1.80265 -3.0557,3.17897 -4.4977,4.84945 -2.5956,2.74912 -5.1038,5.6503 -6.8647,9.01957 -2.0994,7.72624 -1.436,16.08616 1.4648,23.51758 0.6172,2.0373 1.2455,4.07162 1.8008,6.12695 -1.399,4.04128 -4.8331,6.83805 -8.0215,9.47071 -2.2889,1.95957 -4.6087,3.89947 -6.6484,6.125 -2.8959,0.71737 -5.7919,-0.36805 -8.6797,-0.57032 -1.0871,-0.32982 -2.6333,-0.46594 -3.2969,0.67383 -1.9253,2.46437 -2.4787,5.89896 -5.0742,7.84961 -1.4392,0.91785 -3.1236,1.42065 -4.8242,1.51172 -6.0139,-6.32069 -12.01327,-12.69062 -18.70315,-18.31055 -6.87258,-3.57211 -14.87078,-4.52817 -22.5,-3.61719 -1.75398,-0.0219 -3.92823,0.40118 -4.67101,2.21646 -0.99791,2.06824 -0.14236,4.39824 0.65956,6.37685 5.38579,15.50211 14.15476,29.64647 18.71653,45.45943 0.70078,2.76513 1.16034,5.59661 1.27149,8.44922 -1.4436,4.47232 -4.99574,7.73586 -7.86211,11.3042 -7.24553,8.29618 -14.56536,16.52729 -21.95235,24.69775 -4.72131,4.04631 -12.91317,2.60119 -15.96484,-2.81641 -3.68636,-6.62996 -6.36326,-13.75079 -9.09794,-20.80805 -6.10792,-16.25449 -11.11553,-32.90801 -17.50667,-49.05691 -1.51477,-3.39856 -4.6159,-5.81937 -7.91075,-7.374 -1.22192,-0.57018 -2.51185,-0.98351 -3.82448,-1.28643 -6.27569,4.07538 -10.85826,10.13773 -16.63825,14.81371 -7.25028,6.48104 -15.18321,12.13665 -23.2241,17.58432 -10.37009,7.28858 -20.5694,14.98314 -29.22083,24.30288 -8.57292,8.7269 -17.12975,17.47416 -25.993,25.90847 -2.87202,3.7074 -3.53033,8.63147 -3.11523,13.18555 0.19542,5.78505 0.45378,11.57416 0.2793,17.36328 -1.87642,6.0412 -5.8256,11.32752 -10.80274,15.18359 -5.74927,2.14221 -12.0722,1.84359 -18.01305,0.76631 -7.68765,-1.6408 -14.77328,-5.30412 -21.31507,-9.56904 -3.09739,-2.61452 -4.29467,-6.65588 -5.3911,-10.40336 -2.24832,-8.559 -3.54812,-17.32876 -4.82964,-26.07233 -0.30987,-3.85195 0.31146,-7.69038 0.43363,-11.53603 -0.31669,-1.77922 -0.944,-3.48996 -1.39211,-5.22755 -0.0197,-1.20134 1.34122,-1.63237 2.24793,-2.01905 4.25411,-1.81916 8.97794,-1.39759 13.48792,-1.67534 14.11589,-0.5156 28.23177,-1.03121 42.34766,-1.54681 7.43917,-2.97787 14.18546,-7.67232 19.53907,-13.63672 3.28779,-9.1701 0.52474,-20.15207 -6.69336,-26.68945 -6.02735,-6.32487 -12.05469,-12.64974 -18.08203,-18.97461 -5.25754,-13.7456 -7.51708,-28.36723 -9.74574,-42.84241 -0.0937,-1.16501 -0.52763,-2.38348 -0.4222,-3.51719 0.67056,-1.34238 1.34112,-2.68475 2.01168,-4.02712 15.07761,6.94026 29.23189,15.84821 44.82032,21.67578 6.82885,2.05294 14.01464,2.43217 21.10351,2.42383 2.07393,-0.31194 3.09787,-2.38213 3.94533,-4.06464 3.42799,-6.33729 5.24145,-13.35337 7.55858,-20.13263 0.53179,-2.99367 -0.66013,-5.89774 -1.43164,-8.73633 -0.53574,-1.02078 -0.42875,-2.42903 -1.46094,-3.14648 -3.32859,-0.62049 -6.46753,0.99908 -9.52734,2.04492 -6.79414,2.42004 -13.68373,4.56237 -20.61719,6.54492 -10.33919,-3.60097 -20.66093,-7.25212 -30.95703,-10.97461 -5.7335,-4.91198 -10.56306,-10.87837 -14.14258,-17.52734 2.09804,-9.49659 6.92058,-18.04493 11.30901,-26.62302 6.50572,-12.26172 13.01144,-24.52345 19.51716,-36.78518 3.01274,-2.96181 6.07328,-5.91947 9.60352,-8.26758 4.22818,-0.4853 8.59041,0.28213 12.39648,2.1875 0.0732,5.86061 -2.39822,11.30397 -4.38381,16.69313 -0.61686,1.58601 -1.23371,3.17203 -1.85056,4.75804 0.2835,3.55505 1.57621,7.02519 3.70703,9.88672 6.6572,-1.63885 12.28263,-5.73157 18.19299,-9.00604 2.22669,-1.31049 4.45337,-2.62097 6.68006,-3.93146 6.67434,-1.48075 13.58112,-1.16236 20.33007,-0.43945 11.86814,13.75664 21.22029,29.47331 29.34961,45.66601 2.88737,5.66537 5.77474,11.33073 8.66211,16.9961 1.66791,2.08183 4.44741,3.20728 7.09375,2.86132 2.60236,-7.22083 2.62246,-14.99818 2.82991,-22.57365 -0.12624,-6.53852 -0.27819,-13.07645 -0.45295,-19.61385 -3.81706,-6.65169 -7.63412,-13.30338 -11.45118,-19.95508 -5.26506,-4.79258 -11.64,-8.43848 -15.94336,-14.22851 -1.79362,-2.19858 -3.54977,-4.53418 -4.38867,-7.2832 -0.1598,-3.147725 1.89695,-5.753943 3.56836,-8.216801 1.5855,-2.245291 1.65989,-5.337315 0.40803,-7.748992 -0.71827,-2.154009 -1.47726,-4.303402 -1.94123,-6.530305 0.73049,-3.113247 4.34898,-4.977629 7.35937,-4.130859 5.00794,0.716559 9.58637,3.033407 14.48243,4.193359 3.30242,0.066 5.99975,-2.12988 9.01367,-3.125 5.5412,-1.045669 11.18405,-1.34423 16.78826,-1.877227 1.3212,-0.08705 2.64556,-0.123508 3.96955,-0.113007 z"
       transform="matrix(0.26458333,0,0,0.26458333,0,87)"
       id="rect5199-7-1"
       inkscape:connector-curvature="0" />
    <path
       style="display:inline;fill:none;fill-opacity:1;stroke:#0000aa;stroke-width:1.1829921;stroke-miterlimit:4;stroke-dasharray:none;stroke-opacity:1"
       d="m 382.99414,6.9589844 c -19.60435,0 -35.38867,15.7823676 -35.38867,35.3867186 V 497.15789 l 0.0884,0.8174 c 10.94564,-0.71947 22.14302,-1.78669 32.48435,-2.23808 9.18562,-2.33034 18.60876,-3.14441 27.0913,-7.56143 6.50328,-3.15488 11.69614,-8.73345 14.5332,-15.36523 3.45094,-7.75098 8.32427,-15.60414 16.21289,-19.4336 12.54373,-5.54199 26.6722,-5.65739 40.08204,-4.21289 5.41795,-0.43381 10.62206,5.07067 9.27734,10.47656 -2.43625,3.63614 -5.62413,6.79421 -8.69727,9.92774 -4.18533,4.48108 -9.12719,8.29153 -12.67382,13.33984 -2.12433,3.19794 -3.85668,7.71373 -1.5625,11.26758 3.05642,4.27317 9.15381,4.9714 13.84375,3.36328 17.77942,-6.49757 31.84381,-21.11299 39.65039,-38.14453 2.96753,-6.45683 4.70458,-14.26591 1.57226,-20.99219 -5.99293,-8.57824 -16.25963,-13.47139 -26.53711,-14.2832 -15.8849,-1.13503 -31.16023,4.41927 -46.82422,5.90625 -7.48289,2.01283 -16.40972,-2.48142 -18.47656,-10.12109 -2.04873,-23.11722 2.1411,-46.58336 10.96875,-67.98047 3.92667,-11.11983 18.73607,-16.50859 28.90039,-10.54102 5.42279,6.33071 9.44363,13.67307 14.01758,20.60352 8.69839,12.02101 26.20791,15.9652 39.53906,9.84765 5.67795,-7.67387 11.34432,-15.35655 17,-23.04687 4.43244,-7.29196 11.266,-13.79701 19.88672,-15.46484 13.38218,1.83681 26.738,3.8573 40.10547,5.79492 11.10021,1.2765 21.7569,-2.88291 32.53906,-4.73242 6.71006,-5.11862 14.46772,-8.72263 22.52344,-11.1543 0.43801,-0.11792 0.87449,-0.2356 1.3125,-0.35352 3.13984,0.98079 6.166,2.27887 9.21094,3.51367 10.99914,4.51575 22.9251,5.64946 34.46679,8.07618 5.84845,1.51162 12.01978,1.98278 17.56446,4.51953 6.98827,2.83336 11.30245,11.17721 9.0957,18.46875 -3.00877,7.36917 -8.82433,13.5866 -15.96484,17.11328 -7.34181,2.67466 -14.43209,6.0071 -21.35547,9.62891 -8.56037,5.04737 -18.53897,6.96812 -28.35156,7.53906 -7.86392,0.16437 -15.91857,0.79811 -23.19922,4.02734 -13.26951,5.5369 -27.86692,5.6837 -41.97461,6.88086 -5.34297,-0.46874 -10.04225,5.9234 -7.54492,10.80859 8.30736,9.56455 19.13886,16.41466 28.0664,25.33204 5.76182,4.75925 9.02268,11.87013 10.47852,19.07422 0.80655,4.67482 1.70697,10.04867 5.86914,12.98242 1.33727,1.47757 3.27759,0.27488 4.65625,-0.45899 5.82852,-2.66558 11.76196,-6.79723 13.68555,-13.23437 0.8553,-6.8527 -2.15916,-13.35343 -4.20313,-19.73047 -2.51977,-6.70296 -3.48162,-14.67061 0.17969,-21.15235 3.87398,-5.84186 10.73484,-8.71548 17.27539,-10.44726 9.24094,-1.86818 18.48116,-3.81804 27.81055,-5.21484 3.38475,-0.25059 6.97882,-1.55559 10.25586,-0.11914 1.97351,0.65729 2.83948,2.94159 2.16601,4.83007 -2.70425,7.92775 -10.24393,12.57449 -14.73242,19.33399 -2.26674,2.52279 -3.17865,6.64167 -1.0332,9.51562 2.33378,2.85672 6.58791,2.2523 9.60156,0.94141 16.01042,-8.33526 29.93103,-19.97654 44.38281,-30.6582 3.54418,-3.84526 11.11242,-0.67424 10.86524,4.54687 -4.84491,13.61227 -9.69022,27.22367 -14.53516,40.83594 -4.93603,11.01025 -5.3842,23.43772 -3.99024,35.25781 1.33078,6.08217 1.48061,13.13922 -2.54296,18.29102 -15.28899,3.19922 -30.58013,6.38447 -45.85547,9.64843 -3.41326,-0.37273 -6.70502,3.26798 -5.64649,6.6211 13.4908,10.77082 28.19358,19.8659 42.74219,29.10937 5.63641,2.88167 11.19733,7.34952 12.71484,13.79297 0.61202,6.04921 -2.83135,11.46111 -5.80078,16.4375 -11.55628,17.02046 -20.06048,35.82803 -30.39843,53.56641 -6.28294,7.13979 -8.69347,17.73121 -5.38086,26.74414 2.15149,2.81004 0.5443,7.5788 -2.92969,8.40039 -5.69681,-2.21178 -11.11675,-5.16651 -17.03711,-6.77734 -6.39058,-1.8875 -13.15421,5.40175 -10.8086,11.63476 5.77153,8.61974 13.87558,15.23714 21.4004,22.24219 4.55391,3.4224 2.8605,11.82001 -2.65625,13.2207 -7.22548,-0.29854 -13.83428,-3.52565 -20.69922,-5.43359 -7.64667,-0.65129 -14.72178,2.87261 -22.02149,4.48828 -9.91706,0.33649 -19.33211,-3.25877 -28.69922,-6.00195 -5.54664,-0.49626 -11.02484,-4.66951 -11.7832,-10.39258 1.62781,-5.4186 5.11476,-9.96787 7.98047,-14.76367 3.30013,-6.39394 2.29186,-13.83671 1.42578,-20.68555 -2.53829,-8.19054 2.31406,-18.08339 10.62891,-20.58789 5.50299,0.16448 10.59396,2.54962 15.44336,4.93945 5.91734,3.63863 13.39702,5.92617 20.19726,3.49219 5.86511,-5.2797 9.72288,-12.63598 11.05078,-20.39063 0.32194,-8.77103 -3.47524,-16.91141 -6.57812,-24.90039 -2.74575,-9.96536 -7.75244,-19.84302 -16.33594,-25.99023 -7.8548,-7.27374 -20.05716,-10.07787 -30,-5.64649 -4.54707,10.30783 -9.04844,20.63718 -13.35352,31.04883 0.84061,6.44648 1.69639,12.88972 2.56836,19.33203 2.16008,5.46444 -0.81637,12.50437 -6.45898,14.41016 -6.69865,-1.35451 -13.40487,-2.67174 -20.08594,-4.11133 -4.67308,-2.33941 -10.93467,2.30011 -10.02539,7.45508 6.19128,11.22678 12.48475,22.39644 18.75,33.58203 3.69921,3.90406 3.29757,10.96468 -1.08203,14.20313 -4.07637,2.00507 -8.79946,1.00979 -13.05664,0.17187 -10.88292,-1.90545 -21.35674,-6.86431 -32.60352,-6.13086 -7.1461,0.26703 -13.07855,5.04379 -17.70507,10.0918 -6.33234,8.20044 -14.93112,15.2214 -25.23438,17.50586 -14.24561,1.05177 -27.60848,6.68467 -41.67187,8.78711 -6.42229,-1.7074 -12.34477,-5.19581 -17.00391,-9.92774 -5.63195,-5.29761 -6.94981,-13.61379 -6.09375,-20.98633 -1.20537,-5.02953 2.56688,-10.64263 7.69922,-11.36914 7.5518,3.08882 14.61639,7.24987 22.2168,10.22852 4.55013,3.02351 11.54402,-0.41437 12.01367,-5.82812 -0.0348,-3.97036 -3.56545,-6.46964 -6.26758,-8.82618 -12.40161,-11.73146 -25.9348,-22.77119 -34.98242,-37.48047 -4.45584,-11.17942 -4.85454,-23.35349 -7.08008,-35.05468 -2.03622,-6.85765 -4.44059,-14.19052 -2.44727,-21.35352 2.88469,-8.65553 12.74609,-13.64289 21.5293,-12.29492 13.0653,0.7827 23.93157,13.8516 22.20508,26.84766 -3.88093,6.05907 -8.63729,11.48228 -13.33203,16.91211 -5.69318,5.18951 -9.70752,12.98282 -8.48828,20.83203 3.33577,7.84486 14.76718,10.51237 21.22265,4.9375 3.33249,-5.40643 6.61362,-10.84844 9.65039,-16.42774 6.26601,-9.81256 9.57359,-21.21314 16.1875,-30.82422 6.96378,-0.91702 13.92987,-1.8251 20.92774,-2.44336 11.70455,-0.14354 23.64823,-5.02365 31.0332,-14.30859 4.56083,-6.03167 8.21136,-13.63158 6.83399,-21.375 -2.29388,-7.85495 -9.6911,-13.35202 -17.49805,-14.95703 -10.22317,-1.4922 -20.43476,1.25417 -30.17774,4.10351 -9.76762,2.50126 -19.1981,6.51069 -29.28906,7.59961 -6.73814,1.07415 -13.05309,-2.16385 -19.11719,-4.59375 -18.76773,-7.97745 -41.59147,-6.74863 -63.59087,-0.61878 -15.84812,0.10476 -21.52737,0.12416 -40.206,-0.0413 v 2.13233 204.58244 c 0,19.60435 15.78432,35.38672 35.38867,35.38672 h 699.61137 c 19.6043,0 35.3867,-15.78237 35.3867,-35.38672 V 42.345703 c 0,-19.604351 -15.7824,-35.3867186 -35.3867,-35.3867186 z"
       transform="matrix(0.26458333,0,0,0.26458333,0,87)"
       id="rect5199-7-1-7-8"
       inkscape:connector-curvature="0"
       sodipodi:nodetypes="sscccccccccccccccccccccccccccccccccccccccccccccccccccccccccccccccccccccccccccccccccccccccccccccccccccccccccccccccccccccccsssssss" />
  </g>
  <g
     inkscape:groupmode="layer"
     id="layer8"
     inkscape:label="l2+l3"
     style="display:none">
    <rect
       style="display:inline;fill:none;fill-opacity:1;stroke:#005e6e;stroke-width:0.31255841;stroke-miterlimit:4;stroke-dasharray:none;stroke-opacity:1"
       id="rect4538-5-0"
       width="16.241306"
       height="59.461472"
       x="185.86874"
       y="20.360765"
       ry="0" />
  </g>
  <g
     inkscape:groupmode="layer"
     id="layer3"
     inkscape:label="l2"
     style="display:none">
    <path
       style="display:inline;fill:none;fill-opacity:1;stroke:#920000;stroke-width:0.31255841;stroke-miterlimit:4;stroke-dasharray:none;stroke-opacity:1"
       d="m 170.79501,44.351928 c -0.66734,0.114553 -1.33111,0.248703 -1.99622,0.37543 -1.62739,1.172594 -3.20031,2.422827 -4.67921,3.778784 -0.47117,0.327655 -0.96262,0.625445 -1.47123,0.891276 0.0567,1.557197 0.39646,3.083451 0.6491,4.616113 0.0639,0.469087 0.48517,0.794148 0.93596,0.856066 0.52813,0.107833 1.07464,0.04642 1.60291,0.160108 0.75047,0.111896 1.49736,0.385322 2.0652,0.902262 1.01702,0.812699 1.80593,1.859395 2.71646,2.781161 0.37011,0.313949 0.9683,0.287428 1.31556,-0.04876 0.58362,-0.487248 1.03239,-1.113708 1.62211,-1.594939 0.75724,-0.65095 1.39706,-1.453866 2.28374,-1.941113 0.51846,-0.301509 1.07853,-0.525864 1.64939,-0.706679 0.28033,-0.06486 0.67381,-0.551744 0.24418,-0.695942 -0.30487,-0.271098 -0.21096,-0.71926 -0.14565,-1.071654 0.13331,-0.889229 -0.0956,-1.775769 -0.20241,-2.655324 -0.1717,-1.184597 -0.3378,-2.370006 -0.5005,-3.555868 -0.26128,-0.681846 -0.95101,-1.06859 -1.6105,-1.286272 -1.13231,-0.372116 -2.31595,-0.544508 -3.48861,-0.735606 -0.32739,-0.04735 -0.65865,-0.1008 -0.99029,-0.06892 z"
       id="rect4545-6-1"
       inkscape:connector-curvature="0"
       sodipodi:nodetypes="cccccccc" />
    <path
       style="display:inline;fill:none;fill-opacity:1;stroke:#920000;stroke-width:0.31255841;stroke-miterlimit:4;stroke-dasharray:none;stroke-opacity:1"
       d="m 148.18555,29.742188 c -1.10287,0.85677 -2.20573,1.713541 -3.3086,2.570312 -2.98026,0.707816 -6.05767,0.756945 -9.10156,0.917969 -0.68228,0.333251 -0.7909,1.362704 -0.26367,1.880859 0.49479,0.948568 0.98958,1.897136 1.48437,2.845703 -0.32786,3.510952 -0.56665,7.049255 -1.33525,10.49767 -0.10931,0.257015 -0.15052,0.546467 -0.32295,0.773815 -1.33664,0.255999 -2.6263,-0.330173 -3.93872,-0.47542 -2.27364,-0.42423 -4.52887,-1.005886 -6.83791,-1.197421 -0.28185,0.02114 -0.7225,0.03864 -0.74395,0.411389 -0.28805,1.255617 0.57912,2.515357 0.11238,3.755592 -0.40966,1.23433 -1.00581,2.395529 -1.45898,3.613499 -0.51315,1.289503 -1.11055,2.558917 -1.46485,3.901666 -0.0294,1.254072 0.82301,2.271038 1.19127,3.415403 0.22902,1.200475 -0.42934,2.319309 -1.02254,3.30785 -0.69717,1.204171 -1.43664,2.383453 -2.20584,3.542832 -1.31977,0.879198 -3.06358,1.00877 -4.1924,2.192404 -0.52912,0.538919 -1.10829,1.10896 -1.31779,1.853952 -0.13781,2.229077 0.77252,4.409751 0.42486,6.640268 -0.1461,1.19895 -0.69556,2.365627 -0.52419,3.590505 0.14711,1.013741 1.16298,1.652656 2.11753,1.758975 0.72052,0.10261 1.4327,-0.106743 2.15055,-0.144516 1.80209,-0.181674 3.61726,-0.399062 5.42919,-0.291235 1.71606,0.441627 3.16335,1.513867 4.6564,2.41884 1.80533,1.144234 3.73731,2.215684 5.87753,2.542833 0.48104,0.07144 1.02923,-0.02442 1.31973,-0.454604 0.37458,-0.470873 0.3699,-1.099559 0.29866,-1.665374 -0.0871,-1.609831 -0.36234,-3.203508 -0.64413,-4.788419 -0.50345,-2.361788 -1.04367,-4.725128 -1.23855,-7.137503 -0.0905,-0.776924 -0.19343,-1.565206 -0.49997,-2.291516 -0.48992,-0.461747 -1.28292,-0.149255 -1.63476,0.333984 -1.60114,1.341289 -2.56899,3.249285 -4.05664,4.697266 -0.72515,0.397338 -1.61031,-0.07042 -2.03321,-0.699219 -0.90586,-1.059959 -1.96227,-2.00926 -2.69284,-3.206632 -0.57373,-1.080635 -0.5994,-2.388182 -0.20241,-3.532047 0.47461,-1.59292 1.60454,-2.882129 2.82302,-3.966397 1.09977,-1.142571 1.72824,-2.631697 2.24579,-4.106366 0.43418,-1.069453 1.21323,-2.126459 2.3891,-2.416309 1.32552,-0.41205 2.71239,-0.04426 4.02034,0.248283 2.9535,0.545091 5.93346,0.929034 8.89356,1.434546 2.17118,0.865788 3.38389,3.502364 2.73438,5.728516 -0.20378,1.367838 -0.40755,2.735677 -0.61133,4.103515 0.17869,0.521002 0.99299,0.544237 1.25391,0.08203 1.63907,-1.20175 3.09471,-2.715414 5.00781,-3.492188 1.87916,-0.395545 3.78606,0.221723 5.48005,1.00615 0.7566,0.358018 1.08078,1.442073 0.53566,2.113345 -0.40661,0.637034 -1.28408,0.961002 -1.39071,1.780896 -0.0978,0.874893 0.15585,1.736415 0.26788,2.597819 0.2487,1.304616 0.59061,2.589398 0.84735,3.892415 -0.42483,2.220139 -0.82319,4.447751 -1.06641,6.69593 -0.23158,1.493745 -0.60861,3.098492 -1.75757,4.167518 -0.88028,0.797352 -2.05935,1.350877 -2.59656,2.462616 -0.20836,0.737763 0.0789,1.574313 -0.34899,2.255967 -0.74201,0.596437 -1.75241,0.427117 -2.62304,0.3125 -1.3487,-0.167867 -2.82359,-0.318781 -4.0586,0.376953 -1.79853,1.142038 -2.96905,3.100926 -4.94726,3.986333 -1.48706,0.76803 -2.95105,1.73585 -4.65821,1.90234 -1.70957,-0.11504 -3.21154,-1.01935 -4.78773,-1.59802 -2.4449,-1.035647 -4.86923,-2.124346 -7.36266,-3.040653 -1.97261,-0.221414 -3.96823,0.884856 -4.983,2.559033 -0.65037,1.26231 -0.49025,2.72528 -0.5351,4.09583 0.0129,1.01845 -0.0115,2.09934 0.45983,3.02986 0.55595,0.76402 1.63042,0.88194 2.48492,0.64733 2.19898,-0.36428 4.40227,-0.70169 6.6046,-1.04494 2.90138,0.56947 5.57446,2.10028 8.56591,2.23823 2.1397,0.0822 4.27918,0.16959 6.41847,0.26177 4.20002,-1.6374 8.2676,-3.6787 12.66158,-4.76791 6.53378,-1.35421 13.05877,-2.77768 19.65873,-3.77897 2.0634,-0.0566 4.19246,0.21218 6.1875,-0.45898 2.82319,-1.405799 5.03685,-3.834734 8.01683,-4.955257 2.68606,-1.222879 5.56289,-2.040228 8.50075,-2.345527 1.53475,0.245968 2.74727,1.328597 3.79164,2.40533 0.93373,1.056074 1.73894,2.354042 3.10361,2.897798 1.53954,0.57924 3.47055,0.290114 4.59498,-0.969144 1.10187,-1.483152 1.34368,-3.540038 0.63592,-5.244466 -0.3836,-1.080485 -0.78029,-2.181202 -0.80641,-3.34073 -0.0631,-0.687146 -0.0391,-1.516145 -0.62052,-1.996835 -0.71793,-0.477603 -1.59545,-0.139449 -2.37891,-0.08008 -0.99339,0.111919 -2.01129,0.07768 -2.97419,-0.206163 -1.38232,-0.269049 -2.92082,-0.318812 -4.16353,0.445725 -1.53968,0.821749 -2.85753,2.137932 -4.62105,2.480504 -2.91755,0.46849 -5.96727,0.235093 -8.77532,1.284194 -1.53457,0.545087 -2.7853,1.640819 -3.9114,2.782175 -0.72639,0.622999 -1.80159,0.928243 -2.70292,0.5111 -1.4918,-0.50016 -2.8427,-1.424922 -4.43036,-1.624515 -2.3235,-0.434716 -4.73137,-0.137045 -7.03263,-0.731844 -1.95451,-0.42917 -3.92728,-1.176796 -5.36713,-2.614794 -0.30797,-0.303828 -0.35251,-0.747962 -0.31804,-1.156105 0.022,-1.534536 0.51048,-3.007617 0.74087,-4.514764 0.25354,-1.184103 0.25863,-2.475382 -0.3003,-3.577455 -0.51667,-1.332427 -1.17638,-2.687705 -1.09517,-4.15423 0.15775,-0.774605 1.1464,-1.074769 1.80119,-0.737867 1.48657,0.314418 2.96589,0.66231 4.45467,0.966383 0.87938,-0.300874 1.23447,-1.332026 1.13733,-2.188989 0.0126,-1.431474 0.0565,-2.862387 0.0912,-4.293433 -1.79531,-4.408351 -4.64804,-8.282242 -6.54296,-12.642578 -0.67481,-2.277667 -0.73749,-4.67118 -1.17969,-6.994141 -0.36407,-0.688291 -1.37625,-0.712318 -1.91631,-0.226416 -1.15712,0.60763 -2.52304,1.019536 -3.311,2.135149 -1.45015,2.162843 -2.64659,4.483886 -4.08128,6.65572 -0.40415,0.420671 -1.10903,0.106135 -1.32227,-0.365234 -0.51637,-1.067867 -1.24131,-2.017914 -1.83187,-3.045016 -0.41542,-0.717791 -0.81852,-1.46037 -0.96633,-2.285503 -0.10698,-0.424984 -0.21396,-0.849967 -0.32094,-1.27495 -0.59361,-0.286753 -1.23575,-0.446484 -1.85742,-0.658203 -0.24413,-0.597071 0.21572,-1.170545 0.60937,-1.574219 1.36844,-1.781059 2.73962,-3.560049 4.0918,-5.353515 1.11295,-0.757499 2.51909,-0.907347 3.83008,-0.78711 1.92134,-0.321611 3.33727,-2.177543 3.41956,-4.079304 0.2392,-1.900096 0.22718,-3.910727 1.16041,-5.639863 0.16398,-0.351597 0.52814,-0.784226 0.25011,-1.167551 -0.30948,-0.33416 -0.81942,-0.19212 -1.14579,0.03365 -0.94625,0.402938 -1.90138,0.784446 -2.85421,1.171425 -1.65808,-0.49537 -2.81614,-1.856112 -4.06436,-2.968714 -0.32772,-0.291449 -0.65053,-0.589022 -0.99619,-0.859411 -0.0586,-0.0058 -0.11704,-0.0067 -0.17578,-0.0039 z"
       id="rect4545-6"
       inkscape:connector-curvature="0"
       sodipodi:nodetypes="ccccccccccccccccccccccccccccccccccccccccccccccccccccccccccccccccccccccccccccccccccccccccccccccccccccccccccccccccccccccccccccccccccccccccccccccccccccccccccccccccccccccccccccccccccccccccccccccccccccccccccccccccccccccccccccccccc" />
    <path
       style="display:inline;fill:none;fill-opacity:1;stroke:#920000;stroke-width:1.18132317;stroke-miterlimit:4;stroke-dasharray:none;stroke-opacity:1"
       d="m 770.95703,500.83984 c -17.59153,5.93178 -34.5688,13.56274 -51.04101,22.09766 -1.72797,4.28118 0.77786,9.65255 5.09375,11.20898 8.98763,4.84766 17.97526,9.69532 26.96289,14.54297 3.63281,6.50174 5.94572,13.68923 7.1582,21.02344 -2.49983,6.25403 -6.53413,11.70431 -10.24609,17.26953 -3.98797,1.07923 -8.26596,-0.59575 -11.16016,-3.37695 -7.00733,-6.54326 -12.54143,-14.43018 -18.96484,-21.50977 -1.9876,-1.59087 -4.61061,-1.90232 -6.87196,-2.94783 -9.05765,-3.37091 -18.11531,-6.74181 -27.17297,-10.11271 -6.15885,0.82812 -12.3177,1.65625 -18.47656,2.48437 -1.80786,1.45869 -3.32616,3.77562 -2.80859,6.19141 1.09655,2.25086 3.73335,2.88515 5.55078,4.37109 0.91756,0.636 1.88716,1.88434 1.20606,3.01444 -0.81477,1.41161 -2.64362,1.41357 -3.87598,2.27267 -2.53367,1.51547 -4.48638,4.27303 -4.4375,7.30274 0.36481,1.67598 1.84896,2.75262 3.01685,3.88245 2.02114,1.74913 4.15097,3.39206 5.91039,5.41829 4.4828,4.43068 7.53401,10.55326 7.44872,16.93984 0.11948,5.36662 -1.50896,10.58183 -3.56346,15.48012 -1.83548,4.87978 -2.37163,10.14265 -4.28919,14.99733 -0.69855,1.97729 -1.80633,3.76239 -2.81683,5.58565 -1.03531,2.0004 -1.65688,4.5553 -0.435,6.62014 0.76279,1.21378 1.73018,2.31584 2.82813,3.23438 0.89943,0.72405 2.04588,0.11709 2.77422,-0.54515 1.28397,-1.22575 2.44606,-2.57804 3.73178,-3.80576 6.74529,-6.81348 13.19751,-14.0717 17.87142,-22.49715 5.02958,-8.43513 10.42159,-16.66054 16.20736,-24.59482 1.0912,-1.24747 2.38346,-2.41488 3.99725,-2.91454 1.77,0.2086 2.67893,1.94406 3.71654,3.17448 2.36907,3.11752 4.79378,6.19208 7.20533,9.27669 0.005,10.41128 -3.35285,20.59484 -8.44469,29.59394 -1.44583,2.5836 -3.07078,5.0605 -4.66664,7.55254 -0.0857,13.00535 3.16223,25.9032 8.64649,37.65235 2.97087,3.7028 7.46227,5.62138 11.74023,7.375 8.37497,3.52198 17.50033,4.51481 26.45918,5.40725 1.77158,0.24483 3.67666,0.28253 5.27139,-0.65254 2.24606,-1.0814 4.2546,-2.59053 6.49768,-3.67911 2.20777,-1.25111 4.41554,-2.50223 6.62332,-3.75334 -0.13574,-6.64189 -3.84521,-12.88065 -9.11133,-16.79492 -4.32115,-3.2343 -8.57592,-6.55572 -12.85157,-9.84961 -2.99088,-5.28255 -5.98177,-10.5651 -8.97265,-15.84766 -0.79724,-9.72883 1.85708,-19.5209 6.56292,-27.99819 3.17878,-5.64896 7.04528,-10.8668 10.72958,-16.18833 2.36214,-3.33626 4.72427,-6.67253 7.08641,-10.00879 1.84472,-1.19518 4.67238,0.009 5.08789,2.16797 1.89388,3.99414 3.78776,7.98828 5.68164,11.98242 -3.08985,8.71615 -6.17969,17.43229 -9.26953,26.14844 1.66665,4.62433 5.94453,7.93715 10.60156,9.19922 13.69096,5.49111 27.31535,11.14648 40.97888,16.70529 3.67892,1.50384 7.35783,3.00767 11.03674,4.51151 9.87361,8.04472 18.42085,17.52879 27.12891,26.77929 0.0451,4.77262 -2.23033,9.16409 -4.78017,13.05828 -1.04699,1.69771 -2.63493,3.32517 -2.55382,5.4593 0.62136,4.23684 3.87963,7.82187 7.90595,9.14918 1.64556,0.59001 3.41366,0.74491 5.14751,0.63504 20.64813,1.48865 41.46261,2.16836 62.07244,-0.21083 6.16047,-0.95908 12.02242,-3.5347 17.09395,-7.12905 3.90698,-2.81073 7.23612,-6.39156 9.84049,-10.43369 2.86285,-3.95934 5.74757,-8.16328 10.05685,-10.68057 5.89492,-3.05422 12.14248,-5.33223 18.31445,-7.74805 4.0603,-0.86093 8.29183,1.96151 9.56938,5.80885 2.19326,5.79707 1.64629,12.30726 -0.406,18.06133 -0.62994,1.94449 -1.63729,3.78382 -1.97019,5.81372 -0.34894,2.57507 1.5196,4.95601 3.76385,5.99579 1.26405,0.63018 2.68346,0.7638 4.06914,0.82588 5.3506,0.71502 10.721,1.6544 16.1343,1.51135 7.7245,-1.28042 14.8153,-4.75987 22.177,-7.25621 1.9374,-0.66489 3.8653,-1.74102 4.9029,-3.57878 2.7739,-3.87673 3.4893,-8.7066 4.4667,-13.25752 0.7024,-3.58483 1.4049,-7.16966 2.1074,-10.75449 -0.9363,-6.21913 -4.2729,-11.74746 -8.0235,-16.67382 -0.7834,-1.17418 -1.931,-2.32499 -3.4353,-2.33739 -5.9235,-1.26533 -12.2334,0.27535 -17.2326,3.59715 -3.6608,1.83529 -7.3216,3.67057 -10.9825,5.50586 -9.36,-1.32621 -18.37014,-5.11409 -25.8105,-10.95508 -2.37724,-3.53047 -1.36447,-8.63987 1.78324,-11.36545 1.99119,-1.76814 4.74883,-2.06439 7.20448,-2.80834 7.25868,-1.87087 14.83288,-2.92898 21.60408,-6.31644 5.2293,-3.15455 9.2153,-8.13496 11.6835,-13.67446 0.3232,-1.10315 -0.2207,-2.21923 -0.4877,-3.2781 -1.5148,-4.37778 -4.9647,-7.65687 -8.1999,-10.8127 -5.866,-5.64862 -12.4311,-10.69678 -17.2173,-17.36199 -2.32996,-3.73553 -3.84402,-7.89306 -5.75126,-11.84345 -0.70613,-1.21596 -2.39492,-1.2938 -3.61951,-0.97261 -1.11575,0.25703 -1.95557,1.06586 -2.7043,1.87342 -11.16257,9.67153 -22.59366,19.05809 -33.16447,29.38825 -4.85407,6.79139 -7.65541,14.81729 -9.38476,22.92383 -0.3811,1.0464 -0.33362,2.3192 0.45486,3.17035 1.98314,3.03749 6.00019,4.46302 9.48459,3.56988 2.61784,-0.21354 5.23568,-0.42708 7.85352,-0.64062 5.24829,4.27252 8.03065,11.35459 7.07812,18.05664 -1.51002,3.96319 -4.96501,6.6347 -7.63281,9.77929 -3.0336,3.33024 -6.15241,6.58108 -9.25196,9.84961 -5.44688,3.46668 -12.79726,3.17096 -18.24465,-0.13758 -2.84328,-1.70199 -4.85691,-4.41216 -7.3787,-6.51193 -2.17027,-2.02961 -4.46563,-3.94251 -6.99188,-5.5165 -7.80691,-1.58821 -15.98071,-0.0648 -23.16374,3.19638 -3.96543,1.77688 -7.84413,4.21823 -12.30501,4.41104 -3.49685,0.0559 -6.60184,-1.95735 -9.16016,-4.15039 -3.13964,-2.81427 -5.13105,-6.59486 -7.09199,-10.26163 -4.10623,-7.4575 -8.02525,-15.06463 -10.83965,-23.11728 -1.33343,-6.09965 0.094,-12.47523 2.7168,-18.03515 3.48035,-7.66134 7.05158,-15.37073 8.98282,-23.59842 0.75749,-3.40012 1.34377,-6.8453 1.69286,-10.31079 0.17424,-2.48519 -0.26854,-5.03101 -1.47349,-7.22772 -2.84942,-6.14578 -8.24678,-10.78767 -14.2513,-13.7332 -6.65983,-3.5141 -13.58054,-6.49561 -20.49386,-9.46777 -3.05826,-0.64218 -5.89779,2.98247 -4.63901,5.81343 3.09561,7.93601 6.13182,15.89498 9.19175,23.84478 -1.74162,5.77109 -7.02892,10.05351 -12.84603,11.25492 -4.22211,0.7735 -8.50378,1.16175 -12.75443,1.74658 -4.76524,0.60471 -9.53348,1.18507 -14.30189,1.76412 -3.91028,-1.86863 -6.35337,-5.82306 -7.56256,-9.85605 -2.22616,-7.48399 -6.7651,-14.00232 -11.66986,-19.97403 -3.64006,-4.81928 -5.03548,-11.07617 -4.48242,-17.0332 0.11239,-3.25405 0.0622,-6.53778 0.69726,-9.74609 1.24097,-3.05883 4.18068,-4.93313 7.0254,-6.32422 6.56606,-3.40718 13.20582,-6.68084 20.0228,-9.55972 4.70163,-2.04401 9.4487,-3.98094 14.18032,-5.95395 2.38672,-2.95638 4.77344,-5.91276 7.16016,-8.86914 -0.97862,-3.46495 -4.66027,-5.71684 -8.17774,-5.48243 -15.71875,-1.83528 -31.4375,-3.67057 -47.15625,-5.50586 z"
       transform="scale(0.26458333)"
       id="path4574"
       inkscape:connector-curvature="0" />
    <path
       style="display:inline;fill:none;fill-opacity:1;stroke:#920000;stroke-width:1.18132317;stroke-miterlimit:4;stroke-dasharray:none;stroke-opacity:1"
       d="m 572.04102,559.18359 c -4.18451,1.57024 -7.14842,5.11088 -9.8674,8.49445 -3.70045,4.80524 -7.4009,9.61047 -11.10135,14.41571 -4.24563,3.03046 -8.53707,5.99582 -12.82032,8.97266 -2.15109,0.50096 -4.32845,-0.20276 -6.4957,-0.16245 -3.43452,-0.23925 -6.87467,-0.39427 -10.3168,-0.46451 -4.18228,1.35738 -8.47044,2.38562 -12.8125,3.07813 -6.51885,2.39293 -12.94079,5.05161 -19.22656,8.0039 -4.4829,7.83644 -6.39622,16.76251 -9.91992,25.01368 -0.9446,3.363 -1.23206,6.86441 -2.06018,10.25384 -0.79513,3.99968 -1.00862,8.26608 0.44015,12.14875 1.07554,3.55758 3.02023,6.89512 3.33531,10.6522 0.26118,5.46985 -2.40216,10.65108 -1.87843,16.1371 0.26885,3.86643 2.18492,7.71679 5.51774,9.81911 3.25032,2.1839 7.77693,2.61696 11.18096,0.52413 3.58733,-2.04167 6.00802,-5.50032 8.55703,-8.63991 3.44199,-4.42199 6.60877,-9.32202 11.47793,-12.32339 4.68173,-2.874 10.13501,-4.16483 15.52421,-4.89281 4.50679,-0.28087 8.70758,1.72781 12.66124,3.63579 5.67651,2.76155 11.30981,5.61045 16.95302,8.43909 2.99191,0.54266 5.83274,-2.67685 4.99372,-5.58434 -1.77764,-10.99332 -6.52287,-21.28164 -12.39443,-30.66251 -1.03271,-1.60657 -1.82542,-3.61255 -1.15097,-5.51451 0.83336,-3.20854 2.77332,-6.02455 5.0009,-8.43004 2.86556,-2.83163 6.82026,-4.02326 10.56472,-5.19631 4.38246,-1.44145 8.89888,-3.2839 11.96492,-6.88345 2.89202,-3.23143 3.87908,-7.60662 4.61068,-11.75835 0.9643,-5.65514 4.20676,-10.74174 4.45854,-16.5478 0.0897,-3.38668 -0.35007,-6.7608 -0.76116,-10.11385 -0.41503,-2.48338 -1.87073,-4.71004 -3.84242,-6.24839 -3.38596,-3.00519 -7.60417,-4.88917 -11.90739,-6.16982 -0.22867,-0.01 -0.45699,-0.008 -0.68554,0.004 z"
       transform="scale(0.26458333)"
       id="path4622"
       inkscape:connector-curvature="0" />
    <path
       style="display:inline;fill:none;fill-opacity:1;stroke:#920000;stroke-width:0.31255841;stroke-miterlimit:4;stroke-dasharray:none;stroke-opacity:1"
       d="m 268.83274,73.480294 c -0.76635,0.135963 -1.22931,0.863958 -1.47938,1.542023 -0.46923,1.201412 -0.71698,2.548226 -1.61362,3.529487 -0.98014,1.103894 -2.14137,2.131539 -2.66504,3.55143 -0.4486,1.130055 -0.16349,2.431736 0.4911,3.421171 1.00885,1.601064 2.68161,2.662466 3.62785,4.310258 0.43935,0.794383 0.32349,1.741341 0.14675,2.592735 -0.52119,2.632476 -1.82795,5.019594 -3.21974,7.283424 -0.67122,1.094458 -1.37685,2.190068 -2.30829,3.084028 -0.6903,0.64354 -1.66367,0.82627 -2.56894,0.93585 -1.98073,0.17805 -3.96691,0.29282 -5.94994,0.44394 -1.57396,0.11002 -3.1481,0.21746 -4.72213,0.32647 -1.19905,-0.15472 -2.35499,-0.52596 -3.49492,-0.9157 -0.77614,-0.0794 -1.49673,0.6902 -1.37965,1.459 0.058,1.79071 0.11596,3.58141 0.17399,5.3721 -0.28766,1.06878 -1.16095,1.81692 -1.94433,2.53649 -0.99405,0.80174 -1.98809,1.60349 -2.98214,2.40523 -0.53014,0.63981 -0.54762,1.51478 -0.58909,2.30451 0.1358,1.0938 0.8678,1.96548 1.34303,2.92414 0.19607,0.35891 0.46379,0.68722 0.56773,1.08967 -0.50703,1.81179 -1.65143,3.34072 -2.42966,5.0333 -0.38049,0.57813 -0.46641,1.38482 -0.0627,1.97468 0.52191,1.04981 1.74103,1.66339 2.8952,1.55075 2.56526,0.0156 5.13035,0.0541 7.69492,0.11596 1.07644,0.38521 2.14455,0.79377 3.19884,1.2362 1.91429,-0.19349 3.68175,-1.07588 5.24137,-2.16267 1.96715,-1.30108 3.8983,-2.65511 5.83553,-3.99999 0.60758,-0.57806 0.43778,-1.72618 -0.31134,-2.10305 -1.96715,-1.3549 -4.17064,-2.38375 -5.92761,-4.02908 -1.33245,-1.30698 -2.47414,-2.78756 -3.65975,-4.22441 -0.54263,-0.8994 -0.0453,-2.21793 0.94623,-2.55176 3.56762,-1.52353 7.14713,-3.01922 10.73808,-4.48692 0.86069,-0.20139 1.72815,-0.37147 2.59449,-0.54636 0.60401,-0.55039 1.1157,-1.20246 1.50174,-1.92297 0.63931,-0.67702 1.64159,-0.80331 2.52427,-0.71425 0.49833,0.009 0.87567,-0.56818 0.70204,-1.02558 -0.32275,-1.676 -0.76683,-3.32512 -1.15073,-4.987492 0.0581,-1.903075 0.3378,-3.789521 0.48289,-5.686329 0.1358,-1.289381 0.21969,-2.587796 0.44575,-3.865129 0.38448,-1.67536 1.35569,-3.123708 2.2252,-4.57834 0.73556,-1.263501 1.24398,-2.64951 1.57422,-4.071245 0.0961,-1.1399 -0.15269,-2.267283 -0.3205,-3.388086 -0.13049,-0.420157 -0.60938,-0.546884 -0.94973,-0.748046 -0.95341,-0.484607 -1.9686,-0.91078 -2.73801,-1.677564 -0.68355,-0.553119 -1.38688,-1.195645 -2.28769,-1.335593 -0.0652,-0.01094 -0.13096,-0.0014 -0.19638,-0.0016 z"
       id="path4635"
       inkscape:connector-curvature="0" />
    <path
       style="display:inline;fill:none;fill-opacity:1;stroke:#920000;stroke-width:0.31255841;stroke-miterlimit:4;stroke-dasharray:none;stroke-opacity:1"
       d="m 242.50946,141.39155 c -1.57931,0.20351 -3.05124,0.96654 -4.66229,0.97255 -1.05267,0.0709 -2.14729,-0.0452 -3.15472,0.33079 -0.48185,0.23642 -0.75559,0.80089 -0.66906,1.32684 0.0649,0.97812 0.53768,1.86495 0.9614,2.72906 0.60557,1.14937 1.34159,2.25156 1.70141,3.51148 0.2062,0.79683 0.0281,1.63339 0.18469,2.43369 0.12815,0.43845 0.64106,0.69851 1.07356,0.55955 0.9842,-0.17622 1.79202,-0.8376 2.75749,-1.07672 0.62855,-0.18133 1.33875,-0.14675 1.90096,0.21177 1.13896,0.62284 1.73117,1.85918 2.75134,2.62352 0.30287,0.23626 0.7558,0.34429 1.07896,0.0858 0.52655,-0.34233 0.65018,-1.01055 0.74023,-1.58747 0.12877,-1.14787 -0.16522,-2.2837 -0.36627,-3.40557 -0.26765,-1.42592 -0.61243,-2.83603 -1.02992,-4.22546 -0.36264,-1.18747 -0.47874,-2.46857 -1.11283,-3.55881 -0.45985,-0.70313 -1.34984,-0.98195 -2.15495,-0.93095 z"
       id="path4645"
       inkscape:connector-curvature="0" />
    <path
       style="display:inline;fill:none;fill-opacity:1;stroke:#920000;stroke-width:0.31255841;stroke-miterlimit:4;stroke-dasharray:none;stroke-opacity:1"
       d="m 249.12387,51.378382 c -1.1768,0.571888 -1.59317,1.907606 -2.12684,3.002467 -0.57221,1.219041 -1.39833,2.472916 -2.73876,2.919671 -3.40749,1.396058 -7.20884,1.358988 -10.61448,2.764407 -2.41645,0.862537 -4.65411,2.138509 -6.87818,3.398323 -1.96425,0.857645 -4.24907,0.412718 -6.18453,1.349627 -1.30899,0.881774 -1.70847,2.708725 -1.16211,4.142259 0.46115,1.610942 1.25715,3.130397 2.3072,4.433578 0.85416,0.895293 2.24186,1.262549 3.40334,0.787507 1.39946,-0.50261 2.46974,-1.583718 3.70766,-2.366911 1.42392,-0.994592 2.74687,-2.27505 3.33277,-3.950113 0.42248,-0.974245 0.58468,-2.100971 1.29854,-2.922375 0.96555,-0.95285 2.35429,-1.237528 3.6336,-1.508547 1.39246,-0.212212 2.87477,0.171563 3.93717,1.110879 2.2612,1.695395 3.56498,4.328903 4.44822,6.949174 0.83169,2.369662 1.42214,4.913371 3.00152,6.927576 0.65143,0.756485 1.83961,1.190144 2.7411,0.610286 1.06409,-0.647183 1.34283,-2.031708 1.19969,-3.188252 -0.14705,-1.269988 -0.50965,-2.503515 -0.83651,-3.73587 -0.65145,-2.234574 -1.5581,-4.382632 -2.30457,-6.585294 -0.15534,-1.255844 0.65856,-2.357471 1.48342,-3.211053 1.13936,-1.314855 2.38969,-2.644291 2.8875,-4.355673 0.19046,-1.868834 -0.77891,-3.600298 -1.8374,-5.06129 -0.56875,-0.820857 -1.40925,-1.659123 -2.48775,-1.595845 -0.0702,0.02844 -0.14034,0.05704 -0.2106,0.08548 z"
       id="path4643"
       inkscape:connector-curvature="0" />
    <path
       style="display:inline;fill:none;fill-opacity:1;stroke:#920000;stroke-width:0.31255841;stroke-miterlimit:4;stroke-dasharray:none;stroke-opacity:1"
       d="m 228.82031,80.849609 c -1.79635,1.168308 -3.60814,2.312561 -5.41601,3.462891 -1.07422,0.958333 -2.14844,1.916667 -3.22266,2.875 -0.66865,0.808351 -0.72604,2.032614 -0.19726,2.927734 0.65205,1.243874 1.53097,2.35072 2.19199,3.589494 0.27354,0.476587 0.51402,0.971008 0.74551,1.4691 0.22148,1.019633 -0.018,2.060155 -0.25196,3.054688 -0.46544,1.641672 -0.97331,3.270784 -1.47265,4.902344 -0.12489,3.06944 0.0929,6.13781 0.25055,9.20185 0.035,0.63128 0.0699,1.26257 0.10491,1.89385 -0.12622,1.04033 -0.66376,1.96056 -1.03515,2.92383 -0.6836,1.63542 -1.36719,3.27083 -2.05078,4.90625 -0.094,0.67106 -0.0453,1.34998 -0.01,2.02344 0.21176,0.45283 0.74164,0.62443 1.20703,0.64844 3.09505,0.15308 6.19112,0.28386 9.28711,0.41601 1.54002,-0.15995 3.04952,-0.93114 3.95133,-2.21054 0.55905,-0.81918 0.68585,-1.82897 0.81087,-2.78864 0.0643,-0.46186 0.12859,-0.92372 0.19288,-1.38558 -0.0464,-0.76262 -0.3816,-1.46281 -0.59501,-2.18639 -0.10428,-0.31621 -0.21441,-0.6304 -0.32491,-0.94447 -1.31103,-1.59388 -2.64269,-3.1706 -3.96875,-4.75196 -1.5939,-2.69914 -2.7564,-5.64175 -3.53906,-8.67383 -0.20549,-1.15175 0.0678,-2.315265 0.34942,-3.429257 0.45099,-1.603804 1.23956,-3.11123 2.29901,-4.39691 0.7867,-0.708684 1.82888,-0.99838 2.78695,-1.393673 2.22506,-0.904267 4.47398,-1.766508 6.79828,-2.38282 1.04125,-0.296508 2.0825,-0.593015 3.12376,-0.889522 1.07063,-0.589528 1.67546,-1.905082 1.42968,-3.101563 -0.24984,-0.605925 -0.89768,-0.976956 -1.5371,-1.003906 -2.09148,-0.29671 -4.18393,-0.586431 -6.27735,-0.869141 -0.2779,-0.07511 -0.53358,-0.236665 -0.71289,-0.46289 -0.0349,-0.494107 0.30581,-0.893584 0.50174,-1.317817 0.25138,-0.459165 0.50275,-0.918331 0.75412,-1.377496 0.11015,-0.310492 -0.19392,-0.666135 -0.51562,-0.625 -1.83639,-0.111823 -3.67674,-0.114427 -5.51563,-0.144531 -0.0475,0.01367 -0.095,0.02734 -0.14258,0.04102 z"
       id="path4647"
       inkscape:connector-curvature="0" />
    <path
       style="display:inline;fill:none;fill-opacity:1;stroke:#920000;stroke-width:0.31255841;stroke-miterlimit:4;stroke-dasharray:none;stroke-opacity:1"
       d="m 228.71295,33.906851 c -1.99933,0.568981 -3.16219,2.477322 -4.95579,3.401886 -1.38988,0.682174 -2.97781,0.431612 -4.46226,0.356723 -2.18814,0.0031 -4.24776,1.106284 -5.79842,2.592734 -1.32319,1.326701 -2.23414,3.199379 -2.0414,5.104048 0.0872,0.589501 0.62491,0.971947 1.18555,1.051978 0.89009,0.204913 1.81434,0.149559 2.71222,0.305557 1.83982,0.20471 3.76161,0.02157 5.43865,-0.804713 2.22058,-0.907748 4.48338,-1.968009 6.9325,-1.969103 1.20691,0.08767 2.15076,1.162327 2.32921,2.318934 0.61641,1.944582 0.94532,4.090171 2.32558,5.681218 1.01098,1.110379 2.27498,2.168796 3.81773,2.348658 1.53294,-0.0063 2.78502,-1.15806 3.537,-2.401855 0.94021,-1.528989 0.74173,-3.640837 -0.45068,-4.980197 -1.20157,-1.511892 -2.28083,-3.113785 -3.30801,-4.747809 -1.45944,-2.287365 -2.81918,-4.650635 -4.49951,-6.786644 -0.69291,-0.800196 -1.6476,-1.531864 -2.76237,-1.471415 z"
       id="path4639"
       inkscape:connector-curvature="0" />
    <path
       style="display:inline;fill:none;fill-opacity:1;stroke:#920000;stroke-width:0.31299999;stroke-miterlimit:4;stroke-dasharray:none;stroke-opacity:1"
       d="m 100.67969,1.8925781 c -4.342459,0.3930422 -8.172963,4.1825411 -8.41604,8.5699609 -0.469484,7.071652 -0.05657,14.160385 -0.215243,21.239196 -0.04377,33.220498 -0.04772,66.441027 -0.06013,99.661545 1.619817,0.65576 3.366476,0.0848 5.042616,0.11324 7.804127,-0.53171 15.659517,0.5065 23.182317,2.58483 2.84018,0.63314 5.78115,1.33175 8.698,0.8248 3.07396,-0.88455 5.54751,-3.02015 7.95639,-5.02573 1.83832,-1.51473 3.23742,-3.59272 3.78655,-5.92292 0.94735,-2.71982 2.3621,-5.44317 4.76617,-7.14545 1.69624,-1.17804 4.00909,-1.23371 5.84389,-0.34648 1.41348,0.49397 2.86105,0.93986 4.21233,1.57687 0.83959,0.7616 1.12233,2.03269 0.76343,3.09596 -0.23788,1.56021 0.41068,3.06768 1.09886,4.42814 0.77554,1.72613 1.14969,3.63553 2.14936,5.2553 0.81112,0.83272 2.21234,0.56245 3.02006,-0.13507 1.66007,-1.30802 2.87906,-3.19465 4.85356,-4.07867 1.2451,-0.54802 2.63306,-0.55701 3.9493,-0.78693 1.05864,-0.42887 1.34066,-1.64078 1.89237,-2.52418 1.04357,-1.74539 2.69636,-3.32417 4.7893,-3.59773 2.26559,-0.38658 4.7107,-0.20894 6.7784,-1.36829 2.34313,-1.28823 4.00896,-3.52588 6.42242,-4.70993 0.41182,-0.19252 0.88434,-0.48193 1.34742,-0.35495 0.70769,0.32013 0.80947,1.36301 0.27519,1.88608 -0.87089,1.51531 -1.39967,3.26152 -1.30165,5.01975 -0.22673,3.22288 -1.13178,6.36266 -2.28825,9.36384 -0.76926,1.21836 -2.25209,1.61727 -3.56554,1.94282 -2.96434,0.84188 -5.9777,1.5723 -9.05758,1.81518 -0.93753,0.11337 -2.04177,0.12115 -2.72313,0.87425 -0.56656,0.76017 -0.44469,1.79535 -0.25701,2.66644 0.35689,1.4515 1.32333,2.68541 1.59433,4.16036 0.10148,0.58691 -0.13066,1.19707 -0.61582,1.54863 -1.1642,1.02704 -2.79904,0.98461 -4.25039,1.15205 -3.77503,0.38496 -7.6084,0.57122 -11.37606,0.0193 -5.34481,-1.0577 -10.14223,-3.80222 -15.35247,-5.30028 -2.76745,-0.82923 -5.74516,-1.25802 -8.59407,-0.58701 -3.14429,0.61 -6.28635,1.69538 -9.53163,1.34465 -5.32645,-0.39514 -10.43442,-2.398 -15.80749,-2.36112 -1.77529,0.20014 -3.13874,1.51196 -4.25436,2.80122 -1.392,1.55385 -3.58588,2.20052 -5.624083,1.96879 -2.397321,0.009 -4.794699,0.0138 -7.19187,0.0444 -0.741949,0.58043 -0.628538,1.62138 -0.667583,2.45852 0.05477,17.78402 0.06979,35.56824 0.183208,53.35203 0.574185,4.59174 4.988892,8.32127 9.611098,8.12964 14.96391,0.17837 29.9291,0.0546 44.89357,0.10829 46.74129,-0.0118 93.48258,-0.0189 140.22385,-0.0524 4.51676,-0.24053 8.54029,-4.20756 8.72656,-8.74804 0.36261,-9.12191 0.0638,-18.252 0.19121,-27.37729 -0.0233,-53.00054 -0.0426,-106.001091 -0.0896,-159.001621 -0.38476,-4.6580082 -4.72259,-8.6034571 -9.39844,-8.5312496 -61.73957,-0.048677 -123.47916,-0.074719 -185.21875,-0.078125 -0.13151,0.00911 -0.26302,0.018229 -0.39453,0.027344 z"
       id="path4555"
       inkscape:connector-curvature="0"
       sodipodi:nodetypes="ssccsccccccccccccccccccccccccccccccccccccccccccccccccccscssscsss" />
    <path
       style="display:inline;fill:none;fill-opacity:1;stroke:#920000;stroke-width:1.1829921;stroke-miterlimit:4;stroke-dasharray:none;stroke-opacity:1"
       d="m 1020.6172,233.01758 c -1.3848,1.98486 -4.0011,1.5133 -6.0606,1.3125 -6.7155,-0.87442 -13.7101,-2.54137 -19.03902,-6.96094 -5.20509,-4.98193 -8.1618,-11.7388 -12.66602,-17.29297 -5.90324,-7.17288 -13.05586,-13.80942 -16.12109,-22.82422 -1.5117,-4.31703 -1.10788,-9.56359 -4.57813,-13 -6.07256,-3.88059 -12.72439,-6.7095 -19.03711,-10.15625 -3.74332,-1.22586 -6.79185,-5.17016 -5.94531,-9.21093 1.26497,-4.16305 5.48614,-6.18145 8.75781,-8.57227 4.8299,-2.74026 7.44957,-8.41713 12.82032,-10.31641 2.99728,-0.14441 5.67224,1.44636 8.36523,2.51953 2.19867,0.77637 5.23191,1.54888 5.64063,4.26368 -0.35403,4.55211 0.12879,9.34355 2.42187,13.375 2.63339,5.13426 8.33351,7.79428 13.8418,8.47265 6.85493,1.10525 14.25742,-0.28006 20.63472,3.05664 5.6605,2.89897 11.8594,-13.13351 13.7833,11.65723 -11.0977,18.94999 -1.8758,42.87426 -2.8184,53.67676 z"
       transform="scale(0.26458333)"
       id="rect5199-7"
       inkscape:connector-curvature="0" />
    <path
       style="display:inline;fill:none;fill-opacity:1;stroke:#920000;stroke-width:0.31255841;stroke-miterlimit:4;stroke-dasharray:none;stroke-opacity:1"
       d="m 166.51367,172.16797 c -0.61133,0.13642 -1.07397,0.69919 -1.15625,1.31055 -0.12563,0.70855 -0.24282,1.41936 -0.38463,2.12455 -0.0755,0.25204 -0.27097,0.44185 -0.3934,0.67008 -0.40917,0.64793 -0.83681,1.2843 -1.29228,1.90068 -0.22562,0.38942 -0.18164,0.85507 -0.25009,1.28453 -0.0512,0.51687 -0.0552,1.03656 -0.0702,1.55531 -0.0642,0.36122 -0.23352,0.72829 -0.11798,1.0979 0.16062,0.7197 0.73941,1.28314 1.3999,1.5714 0.9403,0.46461 1.94949,0.76863 2.89528,1.22101 0.69353,0.30744 1.45161,0.54265 2.21844,0.46689 0.76358,-0.0744 1.47089,-0.3992 2.14472,-0.74666 0.49818,-0.24358 1.03007,-0.41708 1.57778,-0.50524 0.58141,-0.12028 1.16283,-0.2407 1.74123,-0.37483 0.61434,-0.22761 0.88259,-1.06081 0.53516,-1.61133 -0.26296,-0.43907 -0.6759,-0.75679 -1.06274,-1.0804 -0.3796,-0.305 -0.75898,-0.61039 -1.12867,-0.92741 -0.33988,-0.38301 -0.38423,-0.94225 -0.27538,-1.42336 0.15434,-0.71017 0.35325,-1.40947 0.53905,-2.1118 0.0858,-0.49678 -0.0974,-0.99137 -0.31668,-1.42927 -0.34194,-0.66088 -0.8225,-1.25301 -1.40597,-1.71526 -0.45502,-0.32883 -0.9888,-0.51817 -1.49024,-0.76172 -0.27058,-0.10931 -0.52682,-0.26716 -0.82536,-0.28183 -0.89861,-0.13487 -1.80816,-0.16699 -2.71321,-0.23555 -0.0562,-0.005 -0.1123,4.8e-4 -0.16846,0.002 z"
       id="path4622-0"
       inkscape:connector-curvature="0"
       sodipodi:nodetypes="cccccccccccccccc" />
  </g>
  <g
     inkscape:groupmode="layer"
     id="layer7"
     inkscape:label="l1+l2+l3+l4"
     style="display:inline">
    <circle
       style="display:inline;fill:none;fill-opacity:1;stroke:#005f00;stroke-width:0.20014559;stroke-miterlimit:4;stroke-dasharray:none;stroke-opacity:1"
       id="path4507-1-5-5-7-2"
       cx="284.32455"
       cy="13.367714"
       r="2.8999271" />
    <circle
       style="display:inline;fill:none;fill-opacity:1;stroke:#005f00;stroke-width:0.20014559;stroke-miterlimit:4;stroke-dasharray:none;stroke-opacity:1"
       id="path4507-9-4-6-5-4"
       cx="284.32407"
       cy="194.03294"
       r="2.8999271" />
    <circle
       style="display:inline;fill:none;fill-opacity:1;stroke:#005f00;stroke-width:0.20014559;stroke-miterlimit:4;stroke-dasharray:none;stroke-opacity:1"
       id="path4507-3-8-3-9-178"
       cx="103.1828"
       cy="194.04398"
       r="2.8999271" />
    <circle
       style="display:inline;fill:none;fill-opacity:1;stroke:#005f00;stroke-width:0.20014559;stroke-miterlimit:4;stroke-dasharray:none;stroke-opacity:1"
       id="path4507-2-1-8-5"
       cx="103.18443"
       cy="13.362083"
       r="2.8999271" />
    <circle
       style="display:inline;fill:none;fill-opacity:1;stroke:#005f00;stroke-width:0.20014559;stroke-miterlimit:4;stroke-dasharray:none;stroke-opacity:1"
       id="path4507-2-1-8-6-5"
       cx="194.35251"
       cy="13.363266"
       r="2.8999271" />
    <circle
       style="display:inline;fill:none;fill-opacity:1;stroke:#005f00;stroke-width:0.20014559;stroke-miterlimit:4;stroke-dasharray:none;stroke-opacity:1"
       id="path4507-2-1-8-2-0"
       cx="194.35229"
       cy="194.03883"
       r="2.8999271" />
    <circle
       style="display:inline;fill:none;fill-opacity:1;stroke:#005f00;stroke-width:0.20014559;stroke-miterlimit:4;stroke-dasharray:none;stroke-opacity:1"
       id="path4507-2-1-8-1-18"
       cx="103.1796"
       cy="100.25343"
       r="2.8999271" />
    <circle
       style="display:inline;fill:none;fill-opacity:1;stroke:#005f00;stroke-width:0.20014559;stroke-miterlimit:4;stroke-dasharray:none;stroke-opacity:1"
       id="path4507-2-1-8-7-2"
       cx="284.32556"
       cy="100.25468"
       r="2.8999271" />
  </g>
</svg>
