<?xml version="1.0" encoding="UTF-8" standalone="no"?>
<!-- Created with Inkscape (http://www.inkscape.org/) -->

<svg
   xmlns:dc="http://purl.org/dc/elements/1.1/"
   xmlns:cc="http://creativecommons.org/ns#"
   xmlns:rdf="http://www.w3.org/1999/02/22-rdf-syntax-ns#"
   xmlns:svg="http://www.w3.org/2000/svg"
   xmlns="http://www.w3.org/2000/svg"
   xmlns:sodipodi="http://sodipodi.sourceforge.net/DTD/sodipodi-0.dtd"
   xmlns:inkscape="http://www.inkscape.org/namespaces/inkscape"
   width="210mm"
   height="297mm"
   viewBox="0 0 210 297"
   version="1.1"
   id="svg5596"
   inkscape:version="0.92.0 r15299"
   sodipodi:docname="antNest3.svg">
  <defs
     id="defs5590" />
  <sodipodi:namedview
     id="base"
     pagecolor="#ffffff"
     bordercolor="#666666"
     borderopacity="1.0"
     inkscape:pageopacity="0.0"
     inkscape:pageshadow="2"
     inkscape:zoom="1.4142136"
     inkscape:cx="204.68297"
     inkscape:cy="707.60882"
     inkscape:document-units="mm"
     inkscape:current-layer="layer5"
     showgrid="false"
     inkscape:window-width="2560"
     inkscape:window-height="1377"
     inkscape:window-x="1912"
     inkscape:window-y="-8"
     inkscape:window-maximized="1"
     showguides="true"
     inkscape:guide-bbox="true">
    <sodipodi:guide
       position="173.13962,194.49195"
       orientation="0,1"
       id="guide5132"
       inkscape:locked="false" />
    <sodipodi:guide
       position="106.29751,266.20796"
       orientation="1,0"
       id="guide5134"
       inkscape:locked="false" />
  </sodipodi:namedview>
  <metadata
     id="metadata5593">
    <rdf:RDF>
      <cc:Work
         rdf:about="">
        <dc:format>image/svg+xml</dc:format>
        <dc:type
           rdf:resource="http://purl.org/dc/dcmitype/StillImage" />
        <dc:title />
      </cc:Work>
    </rdf:RDF>
  </metadata>
  <g
     inkscape:label="l2+l3"
     inkscape:groupmode="layer"
     id="layer1"
     style="display:inline">
    <circle
       style="fill:none;fill-opacity:1;stroke:#9b6900;stroke-width:0.1;stroke-miterlimit:4;stroke-dasharray:none;stroke-dashoffset:0;stroke-opacity:1"
       id="path6171"
       cx="66.986656"
       cy="102.50143"
       r="5.7177939" />
    <circle
       style="display:inline;fill:none;fill-opacity:1;stroke:#9b6900;stroke-width:0.1;stroke-miterlimit:4;stroke-dasharray:none;stroke-dashoffset:0;stroke-opacity:1"
       id="path6171-1"
       cx="144.41933"
       cy="102.50143"
       r="5.7177939" />
  </g>
  <g
     inkscape:groupmode="layer"
     id="layer5"
     inkscape:label="l3"
     style="display:inline">
    <circle
       style="display:inline;fill:none;fill-opacity:1;stroke:#0000cc;stroke-width:0.1;stroke-miterlimit:4;stroke-dasharray:none;stroke-dashoffset:0;stroke-opacity:1"
       id="path6171-1-6"
       cx="106.29785"
       cy="143.43062"
       r="4.9499998" />
  </g>
  <g
     inkscape:groupmode="layer"
     id="layer4"
     inkscape:label="l1+l2+l3"
     style="display:inline">
    <circle
       style="display:inline;fill:none;fill-opacity:1;stroke:#007500;stroke-width:0.1;stroke-miterlimit:4;stroke-dasharray:none;stroke-dashoffset:0;stroke-opacity:1"
       id="path5550"
       cx="106.18478"
       cy="102.50143"
       r="94.960457" />
    <circle
       style="display:inline;fill:none;fill-opacity:1;stroke:#007500;stroke-width:0.1;stroke-miterlimit:4;stroke-dasharray:none;stroke-dashoffset:0;stroke-opacity:1"
       id="path5552"
       cx="106.18478"
       cy="15.803458"
       r="2.9022088" />
    <circle
       style="display:inline;fill:none;fill-opacity:1;stroke:#007500;stroke-width:0.1;stroke-miterlimit:4;stroke-dasharray:none;stroke-dashoffset:0;stroke-opacity:1"
       id="path5552-9"
       cx="106.18478"
       cy="190.45363"
       r="2.9022088" />
    <circle
       style="display:inline;fill:none;fill-opacity:1;stroke:#007500;stroke-width:0.1;stroke-miterlimit:4;stroke-dasharray:none;stroke-dashoffset:0;stroke-opacity:1"
       id="path5552-9-2"
       cx="193.62038"
       cy="102.50143"
       r="2.9022088" />
    <circle
       style="display:inline;fill:none;fill-opacity:1;stroke:#007500;stroke-width:0.1;stroke-miterlimit:4;stroke-dasharray:none;stroke-dashoffset:0;stroke-opacity:1"
       id="path5552-9-6"
       cx="18.976357"
       cy="102.50143"
       r="2.9022088" />
  </g>
  <g
     inkscape:groupmode="layer"
     id="layer2"
     inkscape:label="l2"
     style="display:inline">
    <path
       style="display:inline;fill:none;fill-opacity:1;stroke:#750000;stroke-width:0.1;stroke-miterlimit:4;stroke-dasharray:none;stroke-dashoffset:0;stroke-opacity:1"
       d="M 102.48109,24.344252 C 80.809532,25.623372 60.499536,35.64092 46.283997,52.221619 l 4.779553,3.34605 c -0.147122,0.204179 2.470555,-2.575978 2.623095,-2.734201 5.235511,-5.418037 11.269647,-10.016482 17.900716,-13.63069 l 2.164726,4.331518 c -7.39634,3.973988 -14.008479,9.259802 -19.513537,15.599562 l 4.370792,3.271637 c 8.554749,-9.86019 19.915135,-16.874905 32.562872,-20.106267 -1.53179,4.684372 0.0958,12.519451 0.66456,14.929321 0.0605,0.25699 0.19696,0.673481 0.31884,0.92501 0.14335,0.29719 0.26372,0.495617 0.3669,0.605647 2.17726,2.341142 3.64564,5.763567 5.20072,9.387022 0.37911,0.882867 0.76353,1.778905 1.16478,2.674774 0.0941,0.210449 0.17498,0.574294 0.17571,0.794784 l 5.3e-4,0.515729 c 0,0.235553 0.0628,0.474877 0.18861,0.70952 0.1454,0.272748 0.16323,0.367419 0.17261,0.367419 l 0.002,-5.3e-4 -0.0935,0.19534 c -1.3047,2.98642 -4.02169,10.319398 -1.0604,13.90406 1.810486,2.18002 3.250976,3.64435 6.558776,4.0504 -1.63702,1.38206 -4.4476,4.10704 -5.420866,7.21558 -0.0178,0.0568 -0.0451,0.0812 -0.0971,0.0522 l -0.13074,-0.12919 c -0.42843,-0.4266 -0.96016,-0.95757 -1.80196,-0.95757 -0.23097,0 -0.47346,0.0423 -0.72295,0.12506 -0.10155,0.0345 -0.21318,0.0517 -0.32866,0.0517 -1.01229,0 -3.46092,-1.33944 -8.48579,-10.311 -0.84932,-1.51696 -1.53442,-2.7789 -2.10891,-3.835942 -2.098084,-3.863803 -2.732345,-5.030131 -4.470015,-5.90455 -0.217972,-0.109831 -0.583287,-0.294209 -0.779798,-0.434599 -0.529781,-0.381828 -1.146059,-0.937557 -1.744081,-1.474846 -0.404228,-0.363162 -0.79566,-0.717278 -1.146699,-1.003038 -0.0931,-0.0746 -0.288726,-0.0702 -0.367937,0.02119 -0.02601,0.0308 -0.04409,0.06333 -0.05529,0.09973 -0.248571,-0.31201 -0.492051,-0.674053 -0.72967,-1.027846 -0.342601,-0.50923 -0.666425,-0.990909 -0.989606,-1.300178 -0.043,-0.0399 -0.138226,-0.08062 -0.196887,-0.08062 -0.20588,0 -0.297751,0.193826 -0.376721,0.376206 -0.38186,-0.45924 -0.685485,-1.034344 -0.895035,-1.431954 -0.0522,-0.0986 -0.0974,-0.18659 -0.137459,-0.25735 -0.0577,-0.103341 -0.105855,-0.162819 -0.147794,-0.213939 -0.0475,-0.0577 -0.0642,-0.0793 -0.0894,-0.180867 -0.204071,-0.844748 -0.646377,-1.805768 -0.733806,-1.991095 -0.150612,-0.318522 -0.288028,-0.505937 -0.429948,-0.604097 2.930829,-2.84756 6.22753,-5.357283 9.84591,-7.445023 l -3.329058,-5.37486 c -7.151845,4.134231 -13.187186,9.727015 -17.808708,16.292529 l -3.906221,6.640938 -1.373558,2.608628 -1.278993,-0.439767 -6.079215,-2.207617 c 2.05926,-4.57064 4.656891,-8.913032 7.764902,-12.925827 l -4.427639,-3.315044 c -3.473389,4.501359 -6.357077,9.389083 -8.611877,14.542783 l -4.449858,-1.530657 c 2.35708,-5.400455 5.358013,-10.530014 8.962244,-15.268834 L 42.935365,56.366587 C 33.559314,68.838693 28.048319,83.741847 27.011787,99.235804 h 5.766573 c 0.48814,-6.52226 1.833372,-12.917 3.97185,-19.029328 l 4.458643,1.53324 c -1.93751,5.624218 -3.153847,11.502598 -3.593579,17.496088 h 5.461682 c 0.44994,-5.3749 1.574827,-10.65068 3.332097,-15.707569 l 7.421769,2.552819 c -1.40679,4.18654 -2.332041,8.5668 -2.719729,13.06432 h 6.415111 C 59.745598,85.30134 64.16638,78.390068 70.724375,69.912041 c 0.15795,0.14876 0.331604,0.337024 0.519866,0.563274 0.48891,0.575419 0.755777,0.947796 0.771528,1.075386 0.0196,0.15362 0.07879,0.221263 0.330213,0.419613 -0.004,0.01109 -0.0068,0.02315 -0.0098,0.03514 -0.0318,0.193781 0.08161,0.300691 0.983919,1.081071 0.46106,0.398529 1.020974,0.882783 1.540473,1.382861 -0.140599,0.0448 -0.269354,0.105061 -0.307472,0.247531 -0.02061,0.0801 0.01892,0.210058 0.07751,0.268716 0.238281,0.23944 0.809993,0.633674 1.416452,1.051616 0.388239,0.268189 0.787419,0.543361 1.035079,0.738973 -0.039,0.043 -0.0715,0.0976 -0.077,0.173117 -0.007,0.0717 0.04557,0.188801 0.09767,0.237193 1.448242,1.340052 2.741173,1.949567 3.570843,2.224154 0.160239,0.0529 0.331679,0.244766 0.381889,0.427366 1.006808,3.6488 9.524279,17.776982 14.274579,20.237518 0.15657,0.0801 0.39818,0.26889 0.66456,0.51678 0.35856,0.33326 1.04791,0.73904 2.25102,0.632 l 0.0295,-0.22789 h 5.3e-4 l 0.0124,0.18758 c 0,0 0.001,0.0207 -0.0191,0.0682 -0.24946,0.56333 -0.41347,1.17828 -0.40411,2.34509 8e-4,0.17599 -0.11128,0.34381 -0.21652,0.39791 -0.16389,0.0847 -0.24649,0.11885 -0.2837,0.13281 -0.0644,-0.043 -0.19527,-0.14463 -0.35916,-0.29094 -3.44199,-3.05742 -10.58184,-4.928386 -13.324245,-4.928406 -0.55876,0 -0.943109,0.0699 -1.174088,0.21498 -0.188092,0.11909 -0.327594,0.26427 -0.413412,0.429949 -0.0641,0.12365 -0.112823,0.27959 -0.159165,0.43046 -0.0466,0.151787 -0.0939,0.307987 -0.14986,0.399977 -1.815952,2.97092 -3.28893,8.52413 -4.848799,14.40224 -1.039442,3.91494 -2.11391,7.96213 -3.33003,11.39569 -0.25518,0.57542 -0.930571,1.31752 -1.526522,1.97145 -0.66672,0.73174 -1.241509,1.3634 -1.317749,1.81694 -0.0949,0.55214 -0.477586,0.97188 -1.137915,1.24851 -0.6156,0.26089 -0.89671,1.02769 -1.071768,1.66656 -0.105273,0.39213 -0.411226,0.5001 -0.989606,0.67335 -0.106658,0.0329 -0.229997,0.1039 -0.359666,0.1912 -1.314392,-1.7645 -2.500781,-3.61448 -3.567742,-5.52834 l -2.060871,-4.12172 c -2.56649,-5.80316 -4.033949,-12.10041 -4.245218,-18.57613 H 50.9577 c 0.118941,4.04 0.679429,8.01714 1.637109,11.87473 l -7.735445,2.66082 c -1.214052,-4.74073 -1.889149,-9.6237 -1.99316,-14.55725 h -5.403289 c 0.10727,5.53631 0.878054,11.01297 2.276864,16.31838 l -4.739762,1.63039 c -1.546989,-5.83335 -2.38797,-11.85918 -2.480468,-17.94877 h -5.678723 c 0.224229,14.77233 4.520043,29.20365 12.427664,41.69926 l 4.640027,-3.24838 c -3.005069,-4.78468 -5.439151,-9.87385 -7.276042,-15.1629 l 4.748549,-1.63349 c 1.75722,4.99265 4.086601,9.79107 6.962881,14.29267 l 4.308263,-3.22409 c -2.465869,-3.93163 -4.483806,-8.10108 -6.035807,-12.42974 l 7.679637,-2.78949 c 0.50029,1.38047 1.060535,2.73745 1.666563,4.07314 l 2.068092,4.11758 c 3.19945,5.74774 7.415167,10.94897 12.516548,15.32154 l 3.844727,-4.99143 c -1.9386,-1.69418 -3.729607,-3.52441 -5.365047,-5.46943 0.384929,-0.44518 0.708536,-1.08688 0.723985,-1.68258 0.007,-0.30357 0.111427,-0.36371 0.556556,-0.56844 0.0959,-0.0438 0.201444,-0.0925 0.314193,-0.14935 0.7078,-0.35287 0.775235,-0.49105 1.304314,-1.57044 0.314748,-0.64733 0.406225,-0.665 0.571024,-0.69764 0.10528,-0.0206 0.250547,-0.0481 0.439766,-0.15038 0.606222,-0.3241 0.745641,-0.61807 1.234551,-1.80454 0.271151,-0.65735 0.170482,-1.03157 0.103352,-1.27899 -0.0542,-0.19744 -0.05659,-0.20959 0.175183,-0.35656 0.1397,-0.0886 0.24814,-0.0954 0.372071,-0.10181 0.604408,-0.0343 0.861597,-0.27626 1.375627,-2.86597 0.558749,-2.83782 2.09777,-6.9101 3.586861,-10.84741 1.725559,-4.56592 3.509306,-9.28887 3.806486,-12.19151 0.01,-0.0949 0.04489,-0.0951 0.06149,-0.0951 0.01479,0 0.03926,0.003 0.07597,0.0181 0.0633,0.0272 0.130053,0.0519 0.198953,0.077 0.28965,0.10527 0.742531,0.1735 0.963251,0.19586 2.00037,0.21047 2.63056,0.66075 3.50314,1.28365 0.97599,0.69752 2.1902,1.56467 5.67304,2.52491 0.90227,0.17323 1.6039,0.58428 2.24483,0.99012 0.15727,0.0997 0.35931,0.34014 0.50746,0.51521 l 0.0718,0.0847 c 0.22254,0.25974 0.63968,0.58183 1.35754,0.64234 0.16867,0.0146 0.32766,0.13552 0.36122,0.27699 0.11273,0.47224 0.23291,0.8754 0.32969,1.19837 0.043,0.1445 -0.0352,0.34898 -0.17105,0.44597 -0.47498,0.3417 -0.91112,0.75194 -1.16633,1.09658 -0.0707,0.0959 -0.13162,0.19093 -0.18087,0.26923 -0.0214,0.0343 -0.0405,0.0651 -0.0574,0.0884 -0.0124,0.004 -0.0263,0.008 -0.0393,0.0139 -6.50488,2.53678 -12.31824,8.21858 -12.33879,10.91923 0,0.2125 0.007,0.39638 0.0248,0.54725 0.0139,0.10707 0.0441,0.23306 0.0749,0.36432 0.0399,0.16845 0.0859,0.35867 0.0822,0.48628 -0.0475,2.09168 0.17901,4.63483 0.44081,7.57835 0.43481,4.89093 0.97542,10.97751 0.55087,18.15186 -0.01,0.18351 -0.15193,0.46419 -0.30851,0.61392 -0.99447,0.94358 -1.824773,2.39565 -1.848985,3.23856 -0.01479,0.62861 -0.367302,1.15301 -1.045414,1.55908 -0.628599,0.37067 -0.811879,1.24403 -0.902271,1.9637 -0.0577,0.45718 -0.393793,0.63607 -0.984951,0.91157 -0.68361,0.3177 -1.764041,1.91688 -2.312522,3.94602 -0.01461,0.0539 -0.02432,0.1116 -0.03152,0.17105 -9.60755,-4.71725 -17.881679,-11.76409 -24.06778,-20.4985 l -4.240051,3.17345 c 7.13505,9.93407 16.773702,17.80126 27.935761,22.80171 l -2.42724,4.85811 C 64.357198,166.87978 54.348786,158.67589 46.857604,148.37753 l -4.617805,3.23287 c 14.049729,19.35371 35.935642,31.35278 59.620141,32.92668 v -5.65237 c -7.251586,-0.4956 -14.400566,-2.05175 -21.217318,-4.62608 l 2.455664,-4.91494 c 1.302901,0.47447 2.620058,0.90995 3.949108,1.30534 l 1.39527,-5.03225 c -2.90815,-0.85226 -5.751963,-1.90962 -8.510593,-3.16414 0.25314,-0.77607 0.756293,-1.1312 1.210262,-1.44488 0.18991,-0.13222 0.373335,-0.25852 0.529685,-0.41031 0.11729,0.30448 0.342001,0.34417 0.447001,0.34417 0.20588,0 0.423658,-0.12997 0.650089,-0.38447 0.458089,-0.51676 0.87231,-1.46625 0.774628,-2.27997 -0.039,-0.34672 0.06841,-0.43078 0.529167,-0.72864 0.0967,-0.0623 0.202848,-0.13177 0.318328,-0.21187 0.710563,-0.49736 0.760833,-0.65608 1.163233,-1.90118 0.24857,-0.77126 0.34955,-0.80563 0.53124,-0.87023 0.10983,-0.039 0.25932,-0.091 0.44648,-0.22996 0.60898,-0.45331 0.71421,-0.79107 1.05885,-2.1487 0.12668,-0.5001 0.14,-0.86148 0.14935,-1.12397 0.0178,-0.45809 0.0215,-0.58091 0.59324,-0.89658 0.23371,-0.12946 0.37462,-0.15068 0.46044,-0.16278 0.0756,-0.0111 0.19048,-0.0283 0.25941,-0.14005 0.0725,-0.11909 0.0362,-0.22681 -0.0243,-0.40462 -0.0923,-0.27115 -0.30767,-0.90578 -0.54415,-2.3828 -0.42841,-2.65317 -0.32413,-6.49196 -0.21343,-10.55595 0.14722,-5.4191 0.30021,-11.02228 -0.90381,-13.80122 -0.0725,-0.16843 -0.0493,-0.42151 0.0512,-0.54157 1.38205,-1.65208 3.11196,-2.49927 4.94388,-3.39515 1.9828,-0.97028 4.23047,-2.0709 6.40478,-4.38216 0.121,-0.13126 0.22218,-0.25833 0.30592,-0.3793 0.10983,-0.15999 0.35042,-0.31629 0.53485,-0.34778 0.11273,-0.0196 0.22855,-0.0439 0.345205,-0.0775 0.0308,-0.01 0.0617,-0.0145 0.0925,-0.0145 0.0587,0 0.16394,0.0174 0.20412,0.13487 0.62768,1.84288 1.15861,3.07646 1.57768,3.66489 0.10154,0.14356 0.18796,0.35116 0.12661,0.50592 -0.17119,0.42729 -0.42827,1.15432 -0.68368,2.19262 -0.20109,0.78313 -0.14812,1.51315 0.1664,2.29651 0.0522,0.12918 0.004,0.27225 -0.11317,0.33021 -5.885709,2.92412 -9.130699,7.76528 -9.642879,14.39137 -0.50945,6.59345 1.87091,13.09625 3.33468,16.38556 0.23759,0.53456 0.46229,1.09144 0.68574,1.64745 0.66033,1.63814 1.34246,3.33068 2.33991,4.34754 0.12116,0.12489 0.30692,0.39993 0.51005,0.75396 0.0913,0.15817 0.17974,0.35753 0.29042,0.60358 0.2319,0.51309 0.54849,1.2148 1.135335,2.16317 0.09667,0.16297 0.350354,0.47363 0.617584,0.80254 0.21981,0.27116 0.44756,0.55036 0.51832,0.66404 0.24675,0.40673 0.37243,0.70321 0.49454,0.99012 0.1173,0.27459 0.22707,0.53461 0.42633,0.85576 0.13484,0.21707 0.40609,0.45464 0.66766,0.68472 0.17598,0.15476 0.3584,0.31407 0.43098,0.41289 0.27879,0.38535 0.5037,0.68218 0.71055,0.95085 -3.987514,-0.19524 -7.947829,-0.7627 -11.829829,-1.69447 l -1.36012,4.90409 c 5.08695,1.23496 10.297029,1.88763 15.530379,1.94872 v 0.006 c 0.0786,-2.7e-4 0.15709,-0.002 0.23564,-0.003 0.0787,5.3e-4 0.15743,0.003 0.23617,0.003 v -0.006 c 5.23335,-0.0611 10.44334,-0.71376 15.53031,-1.94872 l -1.36012,-4.90409 c -3.88201,0.93177 -7.8423,1.49923 -11.82977,1.69447 0.20686,-0.26867 0.43176,-0.5655 0.71055,-0.95085 0.0726,-0.0988 0.255,-0.25813 0.43098,-0.41289 0.26157,-0.23008 0.53282,-0.46765 0.66766,-0.68472 0.19926,-0.32115 0.30903,-0.58117 0.42633,-0.85576 0.12211,-0.28691 0.2478,-0.58339 0.49455,-0.99012 0.0708,-0.11368 0.2985,-0.39288 0.51831,-0.66404 0.26724,-0.32891 0.52084,-0.63957 0.61754,-0.80254 0.58684,-0.94837 0.90343,-1.65008 1.13533,-2.16317 0.11068,-0.24605 0.19912,-0.44541 0.29042,-0.60358 0.20313,-0.35403 0.38889,-0.62907 0.51004,-0.75396 0.99745,-1.01686 1.67958,-2.7094 2.33991,-4.34754 0.22345,-0.55601 0.44815,-1.11289 0.68575,-1.64745 1.46378,-3.28931 3.84413,-9.79211 3.33468,-16.38556 -0.51219,-6.62609 -3.75717,-11.46725 -9.64282,-14.39137 -0.11718,-0.058 -0.16537,-0.20103 -0.11317,-0.33021 0.31452,-0.78336 0.36748,-1.51338 0.1664,-2.29651 -0.25541,-1.0383 -0.51249,-1.76533 -0.68369,-2.19262 -0.0614,-0.15476 0.0251,-0.36236 0.12661,-0.50592 0.41907,-0.58843 0.95,-1.82201 1.57768,-3.66489 0.0402,-0.11747 0.14542,-0.13487 0.20413,-0.13487 0.0308,0 0.0617,0.005 0.0925,0.0145 0.11664,0.0336 0.23246,0.0579 0.34519,0.0775 0.18443,0.0315 0.42503,0.18779 0.53485,0.34778 0.0837,0.12097 0.18493,0.24804 0.30593,0.3793 2.17431,2.31126 4.42197,3.41188 6.40478,4.38216 1.83193,0.89588 3.56182,1.74307 4.94388,3.39515 0.1005,0.12006 0.12366,0.37314 0.0512,0.54157 -1.20403,2.77894 -1.05104,8.38212 -0.90382,13.80122 0.11071,4.06399 0.21499,7.90278 -0.21343,10.55595 -0.23647,1.47702 -0.45185,2.11165 -0.54415,2.3828 -0.0605,0.17781 -0.0968,0.28553 -0.0243,0.40462 0.0689,0.11174 0.18382,0.12895 0.25942,0.14005 0.0858,0.0121 0.22673,0.0333 0.46043,0.16278 0.57176,0.31567 0.57545,0.43849 0.59325,0.89658 0.009,0.26249 0.0227,0.62387 0.14934,1.12397 0.34466,1.35763 0.44988,1.69539 1.05885,2.1487 0.18716,0.13896 0.33666,0.19096 0.44649,0.22996 0.1817,0.0646 0.28267,0.099 0.53124,0.87023 0.4024,1.2451 0.45268,1.40382 1.16324,1.90118 0.11548,0.0801 0.22162,0.14957 0.31832,0.21187 0.46076,0.29786 0.56817,0.38192 0.52917,0.72864 -0.0977,0.81372 0.31654,1.76321 0.77463,2.27997 0.22643,0.2545 0.44421,0.38447 0.65009,0.38447 0.105,0 0.32971,-0.0397 0.447,-0.34417 0.15635,0.15179 0.33977,0.27809 0.52968,0.41031 0.45397,0.31368 0.95713,0.66881 1.21027,1.44488 -2.75863,1.25452 -5.60244,2.31188 -8.5106,3.16414 l 1.39526,5.03225 c 1.32906,-0.39539 2.64622,-0.83087 3.94912,-1.30534 l 2.45566,4.91494 c -6.81676,2.57433 -13.96573,4.13048 -21.21731,4.62608 v 5.65237 c 23.68455,-1.5739 45.57041,-13.57298 59.62014,-32.92668 l -4.61781,-3.23287 c -7.49118,10.29836 -17.49959,18.50225 -29.06799,23.82645 l -2.42724,-4.8581 c 11.16205,-5.00045 20.80071,-12.86764 27.93576,-22.80171 l -4.24005,-3.17345 c -6.18611,8.7344 -14.46023,15.78125 -24.06778,20.49849 -0.007,-0.0594 -0.0169,-0.11715 -0.0315,-0.17105 -0.54849,-2.02914 -1.62892,-3.62831 -2.31253,-3.94601 -0.59116,-0.2755 -0.92725,-0.45439 -0.98495,-0.91157 -0.0904,-0.71967 -0.27367,-1.59304 -0.90227,-1.96371 -0.67812,-0.40607 -1.03061,-0.93047 -1.04541,-1.55908 -0.0242,-0.84291 -0.85452,-2.29498 -1.84899,-3.23856 -0.15658,-0.14973 -0.29851,-0.43041 -0.30851,-0.61392 -0.42455,-7.17434 0.11607,-13.26093 0.55088,-18.15186 0.2618,-2.94352 0.4883,-5.48667 0.4408,-7.57835 -0.004,-0.12761 0.0428,-0.31783 0.0827,-0.48628 0.0308,-0.13124 0.0605,-0.25724 0.0744,-0.36431 0.0178,-0.15087 0.0248,-0.33476 0.0248,-0.54726 -0.0206,-2.70065 -5.83388,-8.38245 -12.33878,-10.91923 -0.013,-0.006 -0.0269,-0.01 -0.0393,-0.0139 -0.0169,-0.0233 -0.036,-0.0541 -0.0574,-0.0884 -0.0493,-0.0783 -0.11017,-0.17333 -0.18087,-0.26923 -0.25521,-0.34464 -0.69136,-0.75487 -1.16634,-1.09657 -0.13585,-0.097 -0.21405,-0.30148 -0.17105,-0.44597 0.0968,-0.32297 0.21697,-0.72614 0.3297,-1.19838 0.0336,-0.14147 0.19254,-0.26238 0.36121,-0.27698 0.71787,-0.0605 1.13501,-0.3826 1.35754,-0.64234 l 0.0718,-0.0847 c 0.14815,-0.17507 0.3502,-0.41552 0.50747,-0.51522 0.64093,-0.40584 1.34255,-0.81689 2.24482,-0.99012 3.48286,-0.96024 4.69705,-1.82739 5.67304,-2.52491 0.87259,-0.6229 1.50277,-1.07318 3.50315,-1.28365 0.22072,-0.0224 0.6736,-0.0906 0.96325,-0.19585 0.0689,-0.0251 0.13565,-0.0498 0.19895,-0.077 0.0367,-0.0151 0.0612,-0.0181 0.076,-0.0181 0.0166,0 0.0515,1.8e-4 0.0615,0.0951 0.29718,2.90264 2.08093,7.62559 3.80649,12.19151 1.48909,3.93731 3.02811,8.00958 3.58686,10.8474 0.51403,2.58971 0.77122,2.83167 1.37562,2.86598 0.12394,0.006 0.23237,0.0132 0.37207,0.1018 0.23177,0.14698 0.22939,0.15912 0.17519,0.35656 -0.0671,0.24742 -0.1678,0.62165 0.10335,1.279 0.48891,1.18647 0.62833,1.48043 1.23455,1.80454 0.18922,0.10228 0.33449,0.12978 0.43977,0.15038 0.1648,0.0326 0.25627,0.0503 0.57102,0.69763 0.52908,1.0794 0.59651,1.21757 1.30431,1.57044 0.11275,0.0568 0.2183,0.10555 0.3142,0.14935 0.44513,0.20473 0.54955,0.26487 0.55655,0.56844 0.0155,0.5957 0.33906,1.23741 0.72399,1.68259 -1.63544,1.94502 -3.42645,3.77524 -5.36505,5.46943 l 3.84473,4.99143 c 5.10138,-4.37257 9.3171,-9.57381 12.51655,-15.32155 l 2.06809,-4.11758 c 0.60603,-1.33569 1.16627,-2.69266 1.66656,-4.07314 l 7.67964,2.7895 c -1.552,4.32866 -3.56994,8.4981 -6.03581,12.42973 l 4.30827,3.2241 c 2.87628,-4.50161 5.20566,-9.30002 6.96288,-14.29267 l 4.74854,1.63349 c -1.83689,5.28905 -4.27097,10.37822 -7.27604,15.1629 l 4.64003,3.24838 c 7.90762,-12.49561 12.2034,-26.92694 12.42766,-41.69927 h -5.67872 c -0.0925,6.0896 -0.93349,12.11543 -2.48047,17.94878 l -4.73974,-1.63039 c 1.39881,-5.30541 2.16959,-10.78207 2.27686,-16.31838 h -5.40329 c -0.104,4.93355 -0.7791,9.81652 -1.99315,14.55725 l -7.73545,-2.66082 c 0.95768,-3.85759 1.51816,-7.83473 1.63711,-11.87473 h -6.37119 c -0.21127,6.47572 -1.67873,12.77297 -4.24522,18.57613 l -2.06085,4.12171 c -1.06696,1.91387 -2.25335,3.76385 -3.56775,5.52835 -0.12966,-0.0873 -0.253,-0.15831 -0.35966,-0.19121 -0.57838,-0.17325 -0.88433,-0.28121 -0.9896,-0.67334 -0.17507,-0.63887 -0.45618,-1.40568 -1.07178,-1.66657 -0.66032,-0.27663 -1.04301,-0.69636 -1.13791,-1.2485 -0.0762,-0.45354 -0.65103,-1.0852 -1.31775,-1.81694 -0.59595,-0.65393 -1.27134,-1.39604 -1.52652,-1.97146 -1.21612,-3.43356 -2.29059,-7.48075 -3.33003,-11.39568 -1.55987,-5.87811 -3.03285,-11.43133 -4.8488,-14.40225 -0.056,-0.092 -0.10326,-0.24818 -0.14986,-0.399967 -0.0463,-0.15087 -0.0951,-0.30682 -0.15916,-0.43047 -0.0858,-0.165679 -0.22532,-0.310849 -0.41341,-0.429949 -0.23099,-0.14507 -0.61534,-0.21497 -1.17409,-0.21497 -2.74242,10e-6 -9.88225,1.870976 -13.32426,4.928396 -0.16388,0.14631 -0.29475,0.24794 -0.35915,0.29094 -0.0372,-0.0139 -0.11981,-0.0481 -0.28371,-0.13281 -0.10523,-0.0541 -0.21732,-0.22192 -0.21652,-0.3979 0.009,-1.16681 -0.15465,-1.78177 -0.40411,-2.34509 -0.0201,-0.0475 -0.0191,-0.0682 -0.0191,-0.0682 l 0.0124,-0.18759 h 5.3e-4 l 0.0295,0.2279 c 1.20311,0.10704 1.89247,-0.29876 2.25103,-0.63201 0.26638,-0.24789 0.50799,-0.43667 0.66455,-0.51677 4.75033,-2.460526 13.26778,-16.588723 14.27458,-20.237523 0.0502,-0.1826 0.22165,-0.374465 0.38189,-0.427366 0.82967,-0.27459 2.12261,-0.884102 3.57085,-2.224153 0.0521,-0.04839 0.10466,-0.165495 0.0977,-0.237194 -0.006,-0.07552 -0.038,-0.130117 -0.077,-0.173117 0.24766,-0.195609 0.64684,-0.470784 1.03508,-0.738973 0.60645,-0.417939 1.17817,-0.812176 1.41645,-1.051616 0.0586,-0.05866 0.0981,-0.188616 0.0775,-0.268716 -0.0381,-0.14247 -0.16687,-0.202732 -0.30747,-0.247531 0.5195,-0.500078 1.07941,-0.984332 1.54047,-1.38286 0.90231,-0.780381 1.01572,-0.887291 0.98392,-1.081072 -0.003,-0.01199 -0.006,-0.02405 -0.01,-0.03514 0.25142,-0.198351 0.31062,-0.265994 0.33022,-0.419614 0.0157,-0.12759 0.28262,-0.499967 0.77152,-1.075385 0.18827,-0.226251 0.36192,-0.414513 0.51987,-0.563275 7.52801,8.539879 12.02101,18.837774 13.19862,29.233329 h 6.41511 c -0.38769,-4.49751 -1.31294,-8.87777 -2.71973,-13.06432 l 7.42177,-2.552813 c 1.75727,5.056893 2.88216,10.332673 3.3321,15.707573 h 5.46168 c -0.43973,-5.99349 -1.65607,-11.87187 -3.59358,-17.496093 l 4.45864,-1.533239 c 2.13849,6.112332 3.48372,12.507072 3.97186,19.029332 h 5.76657 C 184.79144,83.741929 179.28045,68.83877 169.9044,56.366667 l -4.8178,3.371371 c 3.60423,4.73882 6.60518,9.868373 8.96225,15.268834 l -4.44986,1.530657 c -2.2548,-5.1537 -5.13849,-10.041422 -8.61188,-14.542783 l -4.42764,3.315044 c 3.10801,4.012795 5.70564,8.355187 7.7649,12.925827 l -6.07921,2.207617 -1.27899,0.439767 -1.37356,-2.608628 -3.90622,-6.640938 C 147.06484,65.067841 141.0295,59.47506 133.87763,55.34081 l -3.329,5.374865 c 3.61838,2.08774 6.91508,4.597464 9.84591,7.445023 -0.14192,0.09816 -0.27934,0.285578 -0.42995,0.604097 -0.0874,0.18533 -0.52973,1.146344 -0.7338,1.991095 -0.0252,0.101569 -0.0419,0.123167 -0.0894,0.180867 -0.0419,0.05112 -0.0901,0.110601 -0.1478,0.213939 -0.0401,0.07076 -0.0853,0.15875 -0.13746,0.25735 -0.20955,0.397611 -0.51317,0.972714 -0.89503,1.431954 -0.079,-0.18238 -0.17085,-0.376206 -0.37673,-0.376206 -0.0587,0 -0.15388,0.04072 -0.19688,0.08062 -0.32318,0.309272 -0.64701,0.790948 -0.98961,1.300179 -0.23762,0.35379 -0.4811,0.715835 -0.72967,1.027845 -0.0112,-0.0364 -0.0293,-0.06893 -0.0553,-0.09973 -0.0792,-0.0914 -0.27484,-0.09579 -0.36794,-0.02119 -0.35104,0.285761 -0.74247,0.639879 -1.1467,1.003038 -0.59802,0.537292 -1.2143,1.093018 -1.74408,1.474846 -0.19651,0.140391 -0.56182,0.324771 -0.77979,0.434599 -1.73767,0.874422 -2.37194,2.04075 -4.47001,5.90455 -0.5745,1.057043 -1.2596,2.318983 -2.10892,3.835943 -5.0249,8.97156 -7.4735,10.311 -8.48579,10.311 -0.11548,0 -0.22711,-0.0172 -0.32866,-0.0517 -0.24949,-0.0828 -0.49198,-0.12506 -0.72296,-0.12506 -0.8418,0 -1.37352,0.53097 -1.80195,0.95757 l -0.13074,0.12919 c -0.052,0.029 -0.0793,0.005 -0.0971,-0.0522 -0.97326,-3.10854 -3.78384,-5.83352 -5.42086,-7.21558 3.3078,-0.40605 4.74829,-1.87038 6.55877,-4.0504 2.96129,-3.584661 0.2443,-10.917641 -1.0604,-13.904059 l -0.0935,-0.195339 0.002,5.29e-4 c 0.009,0 0.0272,-0.09467 0.1726,-0.367419 0.12582,-0.234641 0.18862,-0.473969 0.18862,-0.70952 l 5.3e-4,-0.515728 c 7.9e-4,-0.220491 0.0816,-0.584335 0.1757,-0.794785 0.40126,-0.895871 0.78567,-1.791906 1.16478,-2.674773 1.55508,-3.623459 3.02345,-7.045884 5.20072,-9.387023 0.10318,-0.11003 0.22355,-0.308459 0.3669,-0.605647 0.12188,-0.251531 0.25835,-0.66802 0.31885,-0.92501 0.56875,-2.40987 2.19635,-10.244949 0.66455,-14.92932 12.64777,3.231361 24.00813,10.246076 32.56288,20.106266 L 158.6012,59.13385 C 153.09608,52.794086 146.48394,47.50827 139.0876,43.534282 l 2.16473,-4.331518 c 6.63107,3.614208 12.6652,8.212651 17.90071,13.63069 0.15254,0.158221 2.77022,2.93838 2.6231,2.734201 l 4.77955,-3.34605 C 152.34019,35.64092 132.03025,25.623372 110.35864,24.344252 v 6.026507 c 9.0735,0.572778 17.97884,2.800234 26.2692,6.591845 l -2.1394,4.281392 c -7.83225,-3.54131 -16.25538,-5.593895 -24.8388,-6.052344 v 5.266346 c 2.851,0.1606 5.68827,0.511294 8.49251,1.050065 -0.0968,0.347488 -0.11691,0.716373 -0.0434,1.064533 1.43326,6.92967 1.92634,11.654194 1.46916,14.041003 -0.0438,0.2271 -0.19714,0.584861 -0.31264,0.777732 -0.2497,0.41519 -0.6129,0.99481 -0.91829,1.39423 -2.03667,2.681258 -3.48043,6.401702 -5.30666,11.113016 -0.0541,0.137641 -0.2485,0.262001 -0.43201,0.274402 -0.1518,0.01029 -0.2932,0.03295 -0.42168,0.06925 -0.17896,0.05128 -0.33263,0.02103 -0.40153,-0.08423 -0.50167,-0.764641 -1.01685,-1.377754 -1.57561,-1.871205 -0.14419,-0.126693 -0.25646,-0.388567 -0.24547,-0.572055 0.0335,-0.543931 0.0126,-0.946341 -0.0599,-1.197862 -0.0326,-0.117559 -0.13336,-0.480017 -1.30586,-1.260388 -0.22734,-0.150039 -0.42613,-0.136726 -0.5426,0.0041 -0.08,0.09677 -0.10076,0.236461 -0.0636,0.426331 0.0474,0.244001 0.0684,0.629544 -0.10491,1.072803 -0.0429,0.11547 -0.24202,0.199766 -0.40772,0.174668 -0.34124,-0.05599 -0.69998,-0.08571 -1.05007,-0.05891 -0.34977,-0.02667 -0.70811,0.003 -1.04903,0.05891 -0.1657,0.02511 -0.36482,-0.0592 -0.40773,-0.174668 -0.17325,-0.443259 -0.15232,-0.828802 -0.1049,-1.072803 0.0372,-0.189868 0.0164,-0.32956 -0.0636,-0.426331 -0.11647,-0.140859 -0.31526,-0.154173 -0.5426,-0.0041 -1.1725,0.780371 -1.27323,1.142829 -1.30587,1.260388 -0.0725,0.251521 -0.0934,0.653931 -0.0599,1.197862 0.011,0.183488 -0.10127,0.445362 -0.24546,0.572055 -0.55876,0.493451 -1.07395,1.106567 -1.57561,1.871205 -0.0689,0.105272 -0.22257,0.135512 -0.40153,0.08423 -0.12848,-0.0363 -0.26988,-0.05895 -0.42168,-0.06925 -0.18351,-0.01241 -0.377911,-0.136763 -0.432016,-0.274402 -1.82624,-4.711316 -3.27,-8.431755 -5.30666,-11.113016 -0.30539,-0.39942 -0.66859,-0.97904 -0.91829,-1.39423 -0.1155,-0.192871 -0.26881,-0.550632 -0.31264,-0.777732 -0.45718,-2.386812 0.0359,-7.111333 1.46916,-14.041003 0.0735,-0.34816 0.0534,-0.717045 -0.0434,-1.064533 2.80424,-0.538776 5.641516,-0.889465 8.492516,-1.050065 v -5.266346 c -8.583426,0.458449 -17.006556,2.511034 -24.838804,6.052344 l -2.13941,-4.281392 c 8.290359,-3.791606 17.195708,-6.019067 26.269204,-6.591845 z"
       id="path5230-8-5-3"
       inkscape:connector-curvature="0"
       sodipodi:nodetypes="cccccccccccccccccccccccccscsccccccccccscccccccccccccccccccccccccccccccccccccccccccccccccccccccccccccccccccccccccccccccccccccccccccccccccccccccccccsccccccccccccccccccccccccccccccccccccccccccccsccccccccccccccccccccccscccccccccccccccccccccccccccccccccccccccccccccccccsccccccccccccccccccccccsccccccccccccccccccccccccccccccccccccccccccccscccccccccccccccccccccccccccccccccccccccccccccccccccccccccccccccccccccccccccccccccccccccccccccccccccccccccccsccccccccccscsccccccccccccccccccccccccccccccccccccccccccccccccccccccccccccccccccccccc" />
  </g>
</svg>
