<?xml version="1.0" encoding="UTF-8" standalone="no"?>
<!-- Created with Inkscape (http://www.inkscape.org/) -->

<svg
   xmlns:dc="http://purl.org/dc/elements/1.1/"
   xmlns:cc="http://creativecommons.org/ns#"
   xmlns:rdf="http://www.w3.org/1999/02/22-rdf-syntax-ns#"
   xmlns:svg="http://www.w3.org/2000/svg"
   xmlns="http://www.w3.org/2000/svg"
   xmlns:sodipodi="http://sodipodi.sourceforge.net/DTD/sodipodi-0.dtd"
   xmlns:inkscape="http://www.inkscape.org/namespaces/inkscape"
   width="297mm"
   height="210mm"
   viewBox="0 0 297 210"
   version="1.1"
   id="svg8"
   inkscape:version="0.92.0 r15299"
   sodipodi:docname="antNest5.svg">
  <defs
     id="defs2" />
  <sodipodi:namedview
     id="base"
     pagecolor="#ffffff"
     bordercolor="#666666"
     borderopacity="1.0"
     inkscape:pageopacity="0.0"
     inkscape:pageshadow="2"
     inkscape:zoom="1.979899"
     inkscape:cx="543.28296"
     inkscape:cy="416.17123"
     inkscape:document-units="mm"
     inkscape:current-layer="layer8"
     showgrid="false"
     inkscape:window-width="2560"
     inkscape:window-height="1377"
     inkscape:window-x="1912"
     inkscape:window-y="-8"
     inkscape:window-maximized="1" />
  <metadata
     id="metadata5">
    <rdf:RDF>
      <cc:Work
         rdf:about="">
        <dc:format>image/svg+xml</dc:format>
        <dc:type
           rdf:resource="http://purl.org/dc/dcmitype/StillImage" />
        <dc:title></dc:title>
      </cc:Work>
    </rdf:RDF>
  </metadata>
  <g
     inkscape:groupmode="layer"
     id="layer8"
     inkscape:label="l5"
     style="display:inline">
    <path
       style="display:inline;fill:none;fill-opacity:1;stroke:#000000;stroke-width:0.30000001;stroke-linecap:round;stroke-linejoin:round;stroke-miterlimit:0.30000001;stroke-dasharray:none;stroke-dashoffset:0;stroke-opacity:1"
       d="M 67.549641,53.791776 52.66998,71.049044 c 0.03829,18.438592 0.02576,36.784576 -2e-6,55.243656 l 14.879661,17.25727 h 74.718351 c 2.44463,0 4.41287,-1.96819 4.41287,-4.41274 l -8e-4,-44.125841 h 8e-4 V 58.204518 c 0,-2.444557 -1.96824,-4.412742 -4.41287,-4.412742 z"
       id="rect4487-8"
       inkscape:connector-curvature="0"
       sodipodi:nodetypes="ccccscccssc" />
  </g>
  <g
     inkscape:groupmode="layer"
     id="layer5"
     inkscape:label="l2+l3+l4"
     style="display:inline">
    <path
       style="display:inline;fill:none;fill-opacity:1;stroke:#000000;stroke-width:1.13385832;stroke-linecap:round;stroke-linejoin:round;stroke-miterlimit:0.30000001;stroke-dasharray:none;stroke-dashoffset:0;stroke-opacity:1"
       d="m 226.27344,162.35547 -69.82813,80.98828 c 0.17969,86.53222 0.12086,172.62965 -1e-5,259.2579 l 69.82813,80.98828 h 350.64258 c 11.4723,0 20.70898,-9.23668 20.70898,-20.70898 l -0.004,-207.08203 h 0.004 V 183.06445 c 0,-11.4723 -9.23668,-20.70898 -20.70898,-20.70898 z"
       id="rect4487"
       inkscape:connector-curvature="0"
       sodipodi:nodetypes="ccccscccssc"
       transform="scale(0.26458333)" />
    <circle
       transform="translate(0,-87.000001)"
       style="display:inline;fill:none;fill-opacity:1;stroke:#000000;stroke-width:0.30000001;stroke-linecap:round;stroke-linejoin:round;stroke-miterlimit:0.30000001;stroke-dasharray:none;stroke-dashoffset:0;stroke-opacity:1"
       id="path4507"
       cx="44.67038"
       cy="136.21722"
       r="4.8499999" />
    <circle
       transform="translate(0,-87.000001)"
       style="display:inline;fill:none;fill-opacity:1;stroke:#000000;stroke-width:0.30000001;stroke-linecap:round;stroke-linejoin:round;stroke-miterlimit:0.30000001;stroke-dasharray:none;stroke-dashoffset:0;stroke-opacity:1"
       id="path4507-0"
       cx="45.260262"
       cy="235.40369"
       r="4.8499999" />
  </g>
  <g
     inkscape:groupmode="layer"
     id="layer7"
     inkscape:label="l4+l5"
     style="display:inline">
    <rect
       transform="translate(0,-87.000001)"
       style="display:inline;fill:none;fill-opacity:1;stroke:#000000;stroke-width:0.30000001;stroke-linecap:round;stroke-linejoin:round;stroke-miterlimit:0.30000001;stroke-dasharray:none;stroke-dashoffset:0;stroke-opacity:1"
       id="rect4832"
       width="142.24213"
       height="129.70856"
       x="28.603115"
       y="120.80038"
       ry="5.4790177" />
  </g>
  <g
     inkscape:groupmode="layer"
     id="layer4"
     inkscape:label="l1+l2+l3+l4+l5"
     style="display:inline">
    <circle
       transform="translate(0,-87.000001)"
       style="display:inline;fill:none;fill-opacity:1;stroke:#000000;stroke-width:0.30000001;stroke-linecap:round;stroke-linejoin:round;stroke-miterlimit:0.30000001;stroke-dasharray:none;stroke-dashoffset:0;stroke-opacity:1"
       id="path4490"
       cx="35.724152"
       cy="127.77473"
       r="2.8499999" />
    <circle
       transform="translate(0,-87.000001)"
       style="display:inline;fill:none;fill-opacity:1;stroke:#000000;stroke-width:0.30000001;stroke-linecap:round;stroke-linejoin:round;stroke-miterlimit:0.30000001;stroke-dasharray:none;stroke-dashoffset:0;stroke-opacity:1"
       id="path4490-2"
       cx="35.546848"
       cy="243.94701"
       r="2.8499999" />
    <circle
       transform="translate(0,-87.000001)"
       style="display:inline;fill:none;fill-opacity:1;stroke:#000000;stroke-width:0.30000001;stroke-linecap:round;stroke-linejoin:round;stroke-miterlimit:0.30000001;stroke-dasharray:none;stroke-dashoffset:0;stroke-opacity:1"
       id="path4490-1"
       cx="162.72128"
       cy="243.32468"
       r="2.8499999" />
    <circle
       transform="translate(0,-87.000001)"
       style="display:inline;fill:none;fill-opacity:1;stroke:#000000;stroke-width:0.30000001;stroke-linecap:round;stroke-linejoin:round;stroke-miterlimit:0.30000001;stroke-dasharray:none;stroke-dashoffset:0;stroke-opacity:1"
       id="path4490-90"
       cx="163.57846"
       cy="128.39485"
       r="2.8499999" />
  </g>
  <g
     inkscape:label="l2+l3"
     inkscape:groupmode="layer"
     id="layer1"
     transform="translate(0,-87)"
     style="display:inline">
    <circle
       style="fill:none;fill-opacity:1;stroke:#000000;stroke-width:0.30000001;stroke-linecap:round;stroke-linejoin:round;stroke-miterlimit:0.30000001;stroke-dasharray:none;stroke-dashoffset:0;stroke-opacity:1"
       id="path4675"
       cx="272.48126"
       cy="188.08766"
       r="6.8153729" />
  </g>
  <g
     inkscape:groupmode="layer"
     id="layer3"
     inkscape:label="l2"
     style="display:inline">
    <path
       style="fill:none;fill-opacity:1;stroke:#000000;stroke-width:1.13385832;stroke-linecap:round;stroke-linejoin:round;stroke-miterlimit:0.30000001;stroke-dasharray:none;stroke-dashoffset:0;stroke-opacity:1"
       d="m 905.0957,167.40625 c -18.96839,4.2e-4 -34.34463,8.1415 -34.34375,18.18359 0.001,10.04132 15.3768,18.18122 34.34375,18.18164 4.37557,-0.003 8.7098,-0.44836 12.76953,-1.3125 2.18668,2.37243 4.6048,4.98462 7.13672,7.70313 0.46862,0.50315 0.45832,0.48911 0.92188,0.98633 -8.35762,3.44329 -13.24742,8.73523 -13.25195,14.34179 0.006,0.9638 0.15699,1.92582 0.45117,2.87696 -1.4923,0.62675 -2.64304,1.09888 -4.17578,1.74804 -0.76357,0.3234 -1.49897,0.64213 -2.26172,0.9668 -6.49187,-4.49756 -16.56985,-7.138 -27.26172,-7.14258 -18.96695,4.2e-4 -34.3426,8.14032 -34.34375,18.18164 -8.9e-4,10.04209 15.37536,18.18318 34.34375,18.1836 18.96915,1.5e-4 34.34659,-8.14111 34.3457,-18.1836 -0.01,-0.55318 -0.067,-1.10584 -0.17187,-1.65625 2.72687,-1.15434 4.92545,-2.06382 7.4414,-3.11523 4.71643,2.89439 11.03595,4.92823 18.06055,5.8125 -0.0702,3.05537 -0.14228,6.13507 -0.21094,9.74805 -0.0771,4.06701 -0.13649,8.09242 -0.17187,11.74023 -11.10202,1.75585 -19.78339,6.35688 -23.08789,12.23633 -1.819,-0.1558 -3.72952,-0.28345 -5.72266,-0.36133 -8.23476,-0.32164 -17.81873,0.16839 -27.65234,2.70899 -19.66723,5.08147 -40.36862,19.00162 -51.91602,49.45898 -8.62628,22.75257 -20.19111,26.57147 -32.96875,28.84766 -6.3888,1.13809 -13.0275,1.49018 -19.47266,3.21875 -3.38788,0.90861 -6.80968,2.37623 -9.83593,4.60156 -8.32463,-1.30196 -17.17338,-1.9753 -26.10352,-1.98633 -0.25005,0.003 -0.50005,0.007 -0.75,0.0117 l 8.11719,-87.98633 18.63476,22.10352 c -6.07233,3.37324 -9.46667,7.85195 -9.48242,12.51171 -8.9e-4,10.04249 15.37655,18.18375 34.34571,18.1836 18.96915,1.5e-4 34.34659,-8.14111 34.3457,-18.1836 -10e-4,-10.04173 -15.37799,-18.18179 -34.3457,-18.18164 -4.66348,0.007 -9.27543,0.51669 -13.55469,1.49805 l -19.70703,-23.37695 c 5.08802,-0.94795 9.68277,-2.517 13.41211,-4.58008 l 11.43164,1.44922 c -0.39293,1.0966 -0.59431,2.21002 -0.60157,3.32617 -8.8e-4,10.04249 15.37656,18.18374 34.34571,18.18359 18.96839,-4.2e-4 34.34463,-8.1415 34.34375,-18.18359 -0.001,-10.04132 -15.3768,-18.18122 -34.34375,-18.18164 -8.80078,0.003 -17.26379,1.79388 -23.64258,5.00391 l -12.36524,-1.56641 c 0.24699,-0.85593 0.37819,-1.72011 0.39258,-2.58594 -0.017,-6.36596 -6.32136,-12.26363 -16.62109,-15.54883 2.0175,-1.52419 4.07667,-3.07254 6.18164,-4.62304 3.07095,-2.26203 6.03911,-4.41273 8.83984,-6.42774 3.15149,0.49603 6.42118,0.74993 9.70899,0.75391 18.96915,1.5e-4 34.34658,-8.1411 34.3457,-18.18359 -10e-4,-10.04173 -15.37799,-18.18179 -34.3457,-18.18164 -18.96695,4.2e-4 -34.3426,8.14032 -34.34375,18.18164 0.0151,5.05577 4.00565,9.87994 11.01367,13.31445 -0.65687,0.48097 -1.27537,0.9239 -1.93555,1.41015 -5.26336,3.87695 -10.54837,7.86239 -14.65234,11.18946 -0.84382,-0.0394 -1.6901,-0.0622 -2.53711,-0.0684 -6.99826,0.008 -13.82504,1.14714 -19.56641,3.26562 l -12.21679,-9.9375 c 9.85065,-3.3434 15.80829,-9.11188 15.80859,-15.30664 -10e-4,-10.04173 -15.37799,-18.18179 -34.3457,-18.18164 -18.96695,4.2e-4 -34.3426,8.14032 -34.34375,18.18164 -8.9e-4,10.04209 15.37536,18.18318 34.34375,18.1836 1.31201,-0.008 2.6221,-0.0554 3.92383,-0.14258 l 16.36523,13.30859 c -2.82639,2.69629 -4.31107,5.72884 -4.31445,8.8125 0.007,1.7189 0.47341,3.42863 1.38672,5.07813 l -17.83985,12.76953 c -0.68566,-0.0292 -1.37282,-0.0474 -2.06055,-0.0547 -18.96915,-1.5e-4 -34.34659,8.14111 -34.3457,18.1836 10e-4,10.04173 15.37799,18.18179 34.3457,18.18164 18.96695,-4.2e-4 34.34261,-8.14031 34.34376,-18.18164 -0.0164,-6.3335 -6.25678,-12.20614 -16.47266,-15.50196 l 10.67969,-7.64453 c 4.04876,2.14533 9.04678,3.72048 14.53906,4.58203 l -8.63281,93.56055 c -25.04811,1.7242 -46.04578,8.5889 -55.38672,18.10742 -10.5866,0.0608 -20.06965,0.10803 -40.83985,0.25977 -15.05469,0.10998 -26.95438,-0.0138 -39.02238,0.1166 l 0.24414,22.67773 c 12.01879,-0.12964 23.89965,-0.007 38.94035,-0.1166 21.2801,-0.15561 31.51303,-0.20844 41.84961,-0.26758 8.44286,7.64915 24.60683,13.47811 44.41211,16.01563 l 18.96289,78.4082 c -6.24955,0.98157 -11.84238,2.88447 -16.125,5.48633 l -10.85937,-10.35156 c 6.69446,-3.42488 10.476,-8.14177 10.47851,-13.07032 8.8e-4,-10.04249 -15.37655,-18.18374 -34.3457,-18.18359 -18.96915,-1.5e-4 -34.34658,8.1411 -34.3457,18.18359 -8.9e-4,10.04249 15.37655,18.18375 34.3457,18.1836 3.97483,-0.006 7.91747,-0.37756 11.65234,-1.09766 L 715.06836,512.75 c -0.47064,1.20546 -0.70884,2.43312 -0.71094,3.66406 0.0136,3.0837 1.50836,6.11491 4.34375,8.8086 -3.69149,2.40177 -7.2366,4.72456 -10.45312,6.85156 -6.26347,-2.92595 -14.32646,-4.54313 -22.67969,-4.54883 -18.96915,-1.5e-4 -34.34658,8.1411 -34.3457,18.18359 10e-4,10.04173 15.37799,18.18179 34.3457,18.18164 18.96771,1.5e-4 34.34455,-8.13991 34.3457,-18.18164 -0.008,-2.15813 -0.74124,-4.29829 -2.16601,-6.32031 2.62315,-1.72209 5.37816,-3.52198 8.17187,-5.33789 1.40859,-0.91558 2.46683,-1.59472 3.83985,-2.48437 5.61592,1.9725 12.2039,3.02668 18.94335,3.03125 0.83687,-10e-4 1.67337,-0.019 2.50782,-0.0527 l 2.98242,10.5293 c -8.2513,3.44789 -13.06577,8.70638 -13.06641,14.27148 0.001,10.04173 15.378,18.18179 34.34571,18.18164 18.96695,-4.2e-4 34.3426,-8.14032 34.34375,-18.18164 8.8e-4,-10.04209 -15.37536,-18.18317 -34.34375,-18.18359 -3.5155,0.007 -7.00801,0.30055 -10.35547,0.86914 l -2.55078,-9.00586 c 5.26306,-1.23234 9.85684,-3.14508 13.35937,-5.5625 l 18.45703,0.57617 c 5.36773,6.723 17.80886,11.09513 31.59571,11.10352 18.96915,1.5e-4 34.34659,-8.14111 34.3457,-18.1836 -10e-4,-10.04173 -15.37799,-18.18179 -34.3457,-18.18164 -15.81002,0.0102 -29.56453,5.73287 -33.32032,13.86328 l -9.61523,-0.30078 c -0.0442,-5.28911 -4.43635,-10.30589 -12.03125,-13.74218 l 7.69922,-8.84571 c 4.24658,0.95571 8.81338,1.44859 13.42773,1.44922 18.96915,1.5e-4 34.34659,-8.1411 34.34571,-18.18359 -10e-4,-10.04173 -15.378,-18.18179 -34.34571,-18.18164 -18.96695,4.2e-4 -34.3426,8.14032 -34.34375,18.18164 0.005,4.67912 3.41627,9.17719 9.52539,12.55859 l -8.27148,9.50391 c -2.79412,-0.46072 -5.68801,-0.73048 -8.61133,-0.80274 l -18.5293,-76.6289 c 3.32741,0.19894 6.68508,0.30466 10.04883,0.3164 13.66802,-0.005 27.05591,-1.56126 38.62891,-4.49023 l 73.96484,40.6543 c -1.63642,2.15127 -2.48037,4.44841 -2.48633,6.76757 0.001,10.04132 15.3768,18.18122 34.34375,18.18164 2.51237,-0.007 5.01563,-0.1606 7.46485,-0.45703 1.20819,1.90861 2.22488,3.5338 3.55078,5.60157 2.07863,3.24169 4.15437,6.42163 6.0957,9.33398 -7.63802,3.44804 -12.04452,8.4925 -12.06055,13.80664 0.0139,6.81055 7.21566,13.04596 18.66016,16.15625 l -6.17187,12.8418 c -4.54005,-1.12882 -9.49203,-1.71748 -14.50782,-1.72461 -18.96915,-1.5e-4 -34.34658,8.1411 -34.3457,18.18359 10e-4,10.04173 15.37799,18.18179 34.3457,18.18164 18.96771,1.5e-4 34.34456,-8.13991 34.34571,-18.18164 -0.0115,-4.59285 -3.30572,-9.01324 -9.22071,-12.37304 l 7.22461,-15.03907 c 1.33227,0.0877 2.67312,0.13404 4.01563,0.13868 4.01507,-0.005 7.99724,-0.38357 11.76562,-1.11719 l 13.5625,21.58984 c -7.7206,3.44916 -12.18137,8.52288 -12.19531,13.87109 -8.9e-4,10.04209 15.37536,18.18318 34.34375,18.1836 18.96917,1.6e-4 34.34665,-8.1411 34.34575,-18.1836 0,-10.04174 -15.37802,-18.1818 -34.34575,-18.18164 -3.69476,0.008 -7.363,0.33076 -10.86328,0.95704 l -13.68945,-21.79297 c 5.47351,-2.59544 9.23042,-6.05182 10.71875,-9.86133 l 14.07031,0.70117 c -0.48926,1.22729 -0.73733,2.47809 -0.74024,3.73242 10e-4,10.04133 15.37681,18.18122 34.34376,18.18164 18.9677,1.5e-4 34.3445,-8.13991 34.3457,-18.18164 9e-4,-10.04249 -15.3766,-18.18374 -34.3457,-18.18359 -7.52431,0.005 -14.83709,1.31874 -20.81446,3.73824 l -29.54687,-1.47461 c -3.2339,-3.57686 -8.58787,-6.49595 -15.2461,-8.3125 1.37376,-1.42943 2.79757,-2.90108 4.2461,-4.37695 3.15852,-3.21814 6.24725,-6.30356 8.69726,-8.74024 5.25017,1.62999 11.22421,2.49209 17.31055,2.49805 18.96694,-4.3e-4 34.34252,-8.14032 34.34372,-18.18164 9e-4,-10.04208 -15.37535,-18.18316 -34.34372,-18.18359 -18.96915,-1.5e-4 -34.34658,8.1411 -34.3457,18.18359 0.015,3.73539 2.20268,7.3777 6.26562,10.43164 -1.95637,1.95706 -3.82593,3.81779 -6.01758,6.05078 -3.37066,3.43427 -6.74852,6.93127 -9.3457,9.77344 -0.18346,0.20077 -0.33065,0.37248 -0.50586,0.56641 -0.67007,-0.0287 -1.34158,-0.0469 -2.01367,-0.0547 -3.71367,0.008 -7.40021,0.33551 -10.91602,0.96875 -0.11797,-0.17224 -0.21881,-0.31443 -0.33984,-0.49219 -2.21934,-3.25965 -4.94386,-7.44148 -7.58008,-11.55273 -0.50792,-0.79211 -0.86413,-1.37056 -1.36133,-2.1504 9.45854,-3.37581 15.13394,-9.01754 15.14649,-15.05664 8.8e-4,-10.04249 -15.37656,-18.18374 -34.34571,-18.18359 -7.89214,0.005 -15.54039,1.44834 -21.6582,4.08789 l -69.54688,-38.22851 c 12.49198,-5.4075 19.45128,-12.51609 19.48438,-19.90235 -0.0159,-0.83998 -0.12144,-1.6793 -0.31641,-2.51562 l 67.13477,-8.92774 c 2.65397,5.19231 9.51432,9.49603 18.73633,11.75391 l -1.14649,5.94141 c -3.9128,-0.79994 -8.06928,-1.21367 -12.26367,-1.22071 -18.96695,4.2e-4 -34.3426,8.14032 -34.34375,18.18164 -8.9e-4,10.04209 15.37536,18.18318 34.34375,18.1836 18.96915,1.5e-4 34.34659,-8.14111 34.3457,-18.1836 -0.0163,-5.10735 -4.08924,-9.97559 -11.22265,-13.41406 l 1.52344,-7.88086 c 1.04137,0.0526 2.08673,0.0799 3.13281,0.082 5.39347,-6.5e-4 10.71083,-0.67377 15.52148,-1.96484 l 7.30469,11.5039 c -2.71361,2.65496 -4.13595,5.62582 -4.13867,8.64454 0.001,10.04173 15.37799,18.18179 34.3457,18.18164 18.9677,1.4e-4 34.34447,-8.13992 34.34567,-18.18164 9e-4,-10.04249 -15.37653,-18.18374 -34.34567,-18.1836 -7.40234,0.007 -14.60236,1.27976 -20.52734,3.62891 l -6.36524,-10.02539 c 5.29244,-3.28769 8.20113,-7.4655 8.20508,-11.78516 -0.005,-4.0482 -2.56084,-7.97982 -7.26367,-11.17187 3.35066,-3.74094 5.99162,-6.57266 7.79102,-8.48438 5.86165,2.26333 12.92657,3.48583 20.18164,3.49219 18.96696,-4.1e-4 34.34258,-8.14031 34.34378,-18.18164 9e-4,-10.0421 -15.37538,-18.18319 -34.34378,-18.1836 -18.96916,-1.5e-4 -34.3466,8.14111 -34.34571,18.1836 0.0124,3.04424 1.46839,6.03811 4.23438,8.70703 -1.91154,2.05689 -4.29979,4.65179 -6.75977,7.4082 -0.65597,0.73501 -1.29117,1.47376 -1.9414,2.21485 -4.99312,-1.42125 -10.57313,-2.16605 -16.24219,-2.16797 -2.76323,0.006 -5.51489,0.18941 -8.19531,0.54492 -1.33512,-2.72908 -1.77154,-3.60486 -3.56836,-7.31836 12.09178,-2.98122 19.82954,-9.39927 19.8457,-16.46094 -10e-4,-10.04173 -15.37799,-18.18179 -34.3457,-18.18164 -18.96771,-1.5e-4 -34.34456,8.13991 -34.34571,18.18164 -8.9e-4,10.04249 15.37655,18.18375 34.34571,18.1836 0.91011,-0.002 1.81968,-0.0239 2.72656,-0.0645 0.5139,1.06674 0.93291,1.96142 1.45312,3.03711 1.30768,2.70407 1.45414,2.98561 2.58985,5.31641 -5.47299,2.00444 -9.72812,4.80749 -12.24805,8.06836 l -75.76367,10.06836 c -4.42511,-3.61097 -10.65106,-6.81571 -18.28906,-9.41407 3.23675,-0.4503 6.79061,-0.89335 10.54687,-1.5625 14.42415,-2.56945 31.76287,-10.10801 41.57422,-35.98632 10.4044,-27.44262 27.28296,-38.14776 44.15039,-42.50586 11.24853,-2.90636 22.41965,-2.69526 31.29297,-1.82227 4.99189,7.11742 17.81149,11.84358 32.15234,11.85352 18.96916,1.5e-4 34.3466,-8.14111 34.34571,-18.1836 -0.0224,-9.71874 -14.47697,-17.70998 -32.81641,-18.14257 0.037,-3.38854 0.0931,-7.05557 0.16406,-10.79102 0.0673,-3.54087 0.13694,-6.54922 0.20508,-9.56055 8.71053,-0.46068 16.76006,-2.66484 22.50391,-6.16211 3.82314,1.38787 8.88329,3.23446 14.5332,5.33594 0.46843,0.17424 0.92496,0.34831 1.39453,0.52344 -1.27315,1.91745 -1.93004,3.93434 -1.94336,5.9668 -8.8e-4,10.04209 15.37538,18.18318 34.34378,18.18359 18.9691,1.5e-4 34.3466,-8.1411 34.3457,-18.18359 9e-4,-10.04249 -15.3765,-18.18375 -34.3457,-18.1836 -7.9231,0.004 -15.5995,1.45903 -21.72854,4.11719 -2.64063,-1.00494 -5.38546,-2.0367 -8.11719,-3.05273 -3.88819,-1.44622 -7.24551,-2.66964 -10.49805,-3.85743 0.2803,-0.91326 0.42851,-1.83652 0.44336,-2.76172 -0.008,-4.0192 -2.53026,-7.92382 -7.17383,-11.10351 0.60704,-0.51041 1.04426,-0.88855 1.66016,-1.4043 3.7077,-3.10482 7.47628,-6.21914 10.58398,-8.70117 4.83774,1.31819 10.19782,2.00904 15.63871,2.01563 18.9669,-4.3e-4 34.3426,-8.14033 34.3437,-18.18165 9e-4,-10.04208 -15.3753,-18.18316 -34.3437,-18.18359 -18.96916,-1.6e-4 -34.34662,8.14109 -34.34574,18.18359 0.0102,3.98268 2.49005,7.85342 7.0586,11.01758 -2.02733,1.66481 -4.12656,3.40558 -6.21485,5.1543 -2.2084,1.84932 -3.96402,3.34966 -5.94336,5.02734 -4.83018,-1.31309 -10.17961,-2.00118 -15.60937,-2.00781 -2.90453,0.005 -5.7961,0.20529 -8.60547,0.5957 -2.06878,-2.21071 -2.51599,-2.68008 -5.11328,-5.46875 -1.34601,-1.44518 -2.47943,-2.67958 -3.7793,-4.08203 6.34656,-3.39833 9.91087,-7.98282 9.92188,-12.76172 8.8e-4,-10.04249 -15.37656,-18.18374 -34.34571,-18.18359 z"
       id="path4524"
       inkscape:connector-curvature="0"
       sodipodi:nodetypes="ccccccccccccccccccccccssccccccccccccccccccccccscccccccccccccccccccccccccccccsccsccccccccccccccccccccccccccccccccccccccccccccccccccccccccccccccccccccccccccccccccccscccccccccccccccccccccccccccccccccccccccccccccccccccccccccccccccccccccccccccccccccccccccccccccccccc"
       transform="scale(0.26458333)" />
    <path
       transform="translate(0,-87.000001)"
       style="color:#000000;font-style:normal;font-variant:normal;font-weight:normal;font-stretch:normal;font-size:medium;line-height:normal;font-family:sans-serif;font-variant-ligatures:normal;font-variant-position:normal;font-variant-caps:normal;font-variant-numeric:normal;font-variant-alternates:normal;font-feature-settings:normal;text-indent:0;text-align:start;text-decoration:none;text-decoration-line:none;text-decoration-style:solid;text-decoration-color:#000000;letter-spacing:normal;word-spacing:normal;text-transform:none;writing-mode:lr-tb;direction:ltr;text-orientation:mixed;dominant-baseline:auto;baseline-shift:baseline;text-anchor:start;white-space:normal;shape-padding:0;clip-rule:nonzero;display:inline;overflow:visible;visibility:visible;opacity:1;isolation:auto;mix-blend-mode:normal;color-interpolation:sRGB;color-interpolation-filters:linearRGB;solid-color:#000000;solid-opacity:1;vector-effect:none;fill:none;fill-opacity:1;fill-rule:nonzero;stroke:#000000;stroke-width:0.30000001;stroke-linecap:butt;stroke-linejoin:miter;stroke-miterlimit:4;stroke-dasharray:none;stroke-dashoffset:0;stroke-opacity:1;color-rendering:auto;image-rendering:auto;shape-rendering:auto;text-rendering:auto;enable-background:accumulate"
       d="m 27.986016,179.60696 -0.06055,8 13.933397,0.0339 0.06055,-8 z"
       id="path4850"
       inkscape:connector-curvature="0"
       sodipodi:nodetypes="ccccc" />
    <path
       transform="translate(0,-87.000001)"
       style="color:#000000;font-style:normal;font-variant:normal;font-weight:normal;font-stretch:normal;font-size:medium;line-height:normal;font-family:sans-serif;font-variant-ligatures:normal;font-variant-position:normal;font-variant-caps:normal;font-variant-numeric:normal;font-variant-alternates:normal;font-feature-settings:normal;text-indent:0;text-align:start;text-decoration:none;text-decoration-line:none;text-decoration-style:solid;text-decoration-color:#000000;letter-spacing:normal;word-spacing:normal;text-transform:none;writing-mode:lr-tb;direction:ltr;text-orientation:mixed;dominant-baseline:auto;baseline-shift:baseline;text-anchor:start;white-space:normal;shape-padding:0;clip-rule:nonzero;display:inline;overflow:visible;visibility:visible;opacity:1;isolation:auto;mix-blend-mode:normal;color-interpolation:sRGB;color-interpolation-filters:linearRGB;solid-color:#000000;solid-opacity:1;vector-effect:none;fill:none;fill-opacity:1;fill-rule:nonzero;stroke:#000000;stroke-width:0.30000001;stroke-linecap:butt;stroke-linejoin:miter;stroke-miterlimit:4;stroke-dasharray:none;stroke-dashoffset:0;stroke-opacity:1;color-rendering:auto;image-rendering:auto;shape-rendering:auto;text-rendering:auto;enable-background:accumulate"
       d="m 48.798828,137.88867 -1.916016,2.31055 2.740235,2.27148 1.916015,-2.31054 z"
       id="path4936"
       inkscape:connector-curvature="0" />
    <path
       transform="translate(0,-87.000001)"
       style="color:#000000;font-style:normal;font-variant:normal;font-weight:normal;font-stretch:normal;font-size:medium;line-height:normal;font-family:sans-serif;font-variant-ligatures:normal;font-variant-position:normal;font-variant-caps:normal;font-variant-numeric:normal;font-variant-alternates:normal;font-feature-settings:normal;text-indent:0;text-align:start;text-decoration:none;text-decoration-line:none;text-decoration-style:solid;text-decoration-color:#000000;letter-spacing:normal;word-spacing:normal;text-transform:none;writing-mode:lr-tb;direction:ltr;text-orientation:mixed;dominant-baseline:auto;baseline-shift:baseline;text-anchor:start;white-space:normal;shape-padding:0;clip-rule:nonzero;display:inline;overflow:visible;visibility:visible;opacity:1;isolation:auto;mix-blend-mode:normal;color-interpolation:sRGB;color-interpolation-filters:linearRGB;solid-color:#000000;solid-opacity:1;vector-effect:none;fill:none;fill-opacity:1;fill-rule:nonzero;stroke:#000000;stroke-width:0.30000001;stroke-linecap:butt;stroke-linejoin:miter;stroke-miterlimit:4;stroke-dasharray:none;stroke-dashoffset:0;stroke-opacity:1;color-rendering:auto;image-rendering:auto;shape-rendering:auto;text-rendering:auto;enable-background:accumulate"
       d="m 49.500475,233.87681 -1.916016,-2.31055 2.740235,-2.27148 1.916015,2.31054 z"
       id="path4936-5"
       inkscape:connector-curvature="0" />
  </g>
  <g
     inkscape:groupmode="layer"
     id="layer2"
     inkscape:label="l1+l2+l3"
     style="display:inline">
    <rect
       transform="translate(0,-87.000001)"
       style="fill:none;fill-opacity:1;stroke:#000000;stroke-width:0.31054932;stroke-linecap:round;stroke-linejoin:round;stroke-miterlimit:0.30000001;stroke-dasharray:none;stroke-dashoffset:0;stroke-opacity:1"
       id="rect4485"
       width="257.21823"
       height="129.68945"
       x="28.603115"
       y="120.80038"
       ry="5.4790254"
       rx="5.4790254" />
    <circle
       transform="translate(0,-87.000001)"
       style="fill:none;fill-opacity:1;stroke:#000000;stroke-width:0.30000001;stroke-linecap:round;stroke-linejoin:round;stroke-miterlimit:0.30000001;stroke-dasharray:none;stroke-dashoffset:0;stroke-opacity:1"
       id="path4490-9"
       cx="278.09393"
       cy="128.88747"
       r="2.8499999" />
    <circle
       transform="translate(0,-87.000001)"
       style="fill:none;fill-opacity:1;stroke:#000000;stroke-width:0.30000001;stroke-linecap:round;stroke-linejoin:round;stroke-miterlimit:0.30000001;stroke-dasharray:none;stroke-dashoffset:0;stroke-opacity:1"
       id="path4490-7"
       cx="278.09393"
       cy="243.41246"
       r="2.8499999" />
  </g>
</svg>
