<?xml version="1.0" encoding="UTF-8" standalone="no"?>
<!-- Created with Inkscape (http://www.inkscape.org/) -->

<svg
   xmlns:dc="http://purl.org/dc/elements/1.1/"
   xmlns:cc="http://creativecommons.org/ns#"
   xmlns:rdf="http://www.w3.org/1999/02/22-rdf-syntax-ns#"
   xmlns:svg="http://www.w3.org/2000/svg"
   xmlns="http://www.w3.org/2000/svg"
   xmlns:sodipodi="http://sodipodi.sourceforge.net/DTD/sodipodi-0.dtd"
   xmlns:inkscape="http://www.inkscape.org/namespaces/inkscape"
   width="297mm"
   height="210mm"
   viewBox="0 0 297 210"
   version="1.1"
   id="svg8"
   inkscape:version="0.92.0 r15299"
   sodipodi:docname="antNest4.svg">
  <defs
     id="defs2" />
  <sodipodi:namedview
     id="base"
     pagecolor="#ffffff"
     bordercolor="#666666"
     borderopacity="1.0"
     inkscape:pageopacity="0.0"
     inkscape:pageshadow="2"
     inkscape:zoom="0.7"
     inkscape:cx="477.98761"
     inkscape:cy="358.28802"
     inkscape:document-units="mm"
     inkscape:current-layer="layer1"
     showgrid="false"
     inkscape:window-width="2560"
     inkscape:window-height="1377"
     inkscape:window-x="1912"
     inkscape:window-y="-8"
     inkscape:window-maximized="1"
     showguides="true"
     inkscape:guide-bbox="true">
    <sodipodi:guide
       position="4.009043,196.4431"
       orientation="0,1"
       id="guide5291"
       inkscape:locked="false" />
    <sodipodi:guide
       position="19.510676,109.5805"
       orientation="0,1"
       id="guide5293"
       inkscape:locked="false" />
    <sodipodi:guide
       position="65.481036,15.234363"
       orientation="0,1"
       id="guide5295"
       inkscape:locked="false" />
    <sodipodi:guide
       position="13.096207,109.5805"
       orientation="1,0"
       id="guide5297"
       inkscape:locked="false" />
    <sodipodi:guide
       position="164.99666,101.33634"
       orientation="1,0"
       id="guide5299"
       inkscape:locked="false" />
    <sodipodi:guide
       position="283.30571,91.673446"
       orientation="1,0"
       id="guide5301"
       inkscape:locked="false" />
    <sodipodi:guide
       position="92.226191,115.28274"
       orientation="1,0"
       id="guide5362"
       inkscape:locked="false" />
    <sodipodi:guide
       position="236.23512,-21.544643"
       orientation="1,0"
       id="guide5364"
       inkscape:locked="false" />
  </sodipodi:namedview>
  <metadata
     id="metadata5">
    <rdf:RDF>
      <cc:Work
         rdf:about="">
        <dc:format>image/svg+xml</dc:format>
        <dc:type
           rdf:resource="http://purl.org/dc/dcmitype/StillImage" />
        <dc:title></dc:title>
      </cc:Work>
    </rdf:RDF>
  </metadata>
  <g
     inkscape:label="l2"
     inkscape:groupmode="layer"
     id="layer1"
     transform="translate(0,-87)"
     style="display:inline">
    <path
       style="fill:none;fill-opacity:1;stroke:#000000;stroke-width:1.13385832;stroke-miterlimit:4;stroke-dasharray:none;stroke-dashoffset:0;stroke-opacity:1"
       d="m 856.71094,65.636719 c -20.56931,1.510085 -31.32023,30.866336 -16.73633,45.382811 14.27266,21.82546 27.38364,46.66014 25.7941,73.53829 0.90097,25.7029 7.76316,53.13447 27.3209,71.13641 12.28405,12.93049 26.25579,27.47626 26.77077,46.42812 0.0851,17.54326 -5.74611,36.48554 3.15771,52.8659 13.93484,23.67392 42.64566,36.85806 69.70457,33.91605 11.34044,3.08614 10.19364,22.90034 -1.52539,24.4707 -44.74948,4.79459 -89.24689,-5.48209 -133.89489,-5.87744 -11.08972,3.30674 -13.90487,17.52665 -10.32524,27.28026 3.52072,9.95845 7.89796,20.05994 6.87454,30.87284 0.42921,10.71113 0.63224,21.83407 5.11316,31.78293 36.29441,21.32224 83.14926,20.21739 120.122,1.14047 8.91606,-3.27919 18.91981,-8.34777 28.42096,-4.67172 9.2762,7.74844 5.2659,24.50282 -5.8179,28.38029 -17.6152,11.29892 -37.80491,17.75596 -57.76604,23.49072 -22.73815,4.82001 -46.1387,1.75986 -68.95342,0.0224 -9.75951,3.60994 -10.79743,17.31753 -4.63721,24.5954 9.57504,20.18781 23.60766,40.80108 45.63534,48.45268 12.92942,4.71221 26.87288,4.46295 40.40448,4.3593 5.31762,0.53625 10.62469,1.58888 15.58007,3.63672 2.20143,11.76243 -7.80283,21.9804 -17.89497,26.11715 -15.05206,3.95443 -30.26226,-5.51354 -45.27885,-0.61519 -16.21014,2.59508 -33.15314,9.54561 -49.44887,3.87277 -13.20662,-8.74094 -22.659,-22.31885 -29.7026,-36.14576 0.42645,-11.82218 13.07523,-18.10922 15.12849,-29.43449 7.25965,-20.04824 3.95396,-45.16888 -12.40866,-59.88041 -10.40823,-5.8485 -21.86641,0.71938 -32.05019,3.67231 -28.57997,7.62405 -58.72486,7.39691 -87.79942,2.92144 -1.60402,-14.15024 11.87631,-25.33025 24.92241,-26.93203 21.89194,-7.38832 45.31587,-5.39014 68.01313,-5.10704 12.46038,-6.04833 15.48829,-21.07502 16.92886,-33.5509 3.35882,-16.2046 0.29294,-36.04674 -14.25144,-45.99384 -19.2196,-11.87519 -44.40345,-2.71143 -63.25329,-15.60162 -4.8643,-3.36842 -0.69314,-9.7245 0.55469,-14.02287 6.2615,-15.31229 22.29721,-26.49865 39.07782,-25.20577 26.10902,-0.68607 53.24317,5.39633 78.47525,-3.84708 8.25333,-2.92928 15.27175,-9.98469 15.8353,-19.05721 1.22644,-11.82762 -2.50831,-23.45372 -2.31445,-35.28516 -0.70437,-10.63479 -3.63366,-23.77415 -14.625,-28.21484 -14.52481,-5.33299 -29.67045,1.07231 -44.45105,1.48795 -21.60265,2.09425 -44.6763,3.78783 -64.96937,-5.3112 -10.91173,-9.98981 -0.97213,-31.65049 13.80284,-29.58917 12.77243,0.2634 27.96156,1.13904 37.25619,-9.39516 15.81909,-15.25498 26.61103,-35.28842 33.02146,-56.11169 -0.91691,-8.48872 -11.84055,-11.18851 -18.83195,-8.77995 -5.92239,2.61553 -10.45076,7.64866 -16.68777,9.72171 -8.96025,4.44496 -18.01152,8.74835 -27.39621,12.23141 -0.89614,-19.37343 -0.109,-39.26823 5.99716,-57.79714 7.97595,-12.64681 21.28453,-23.73782 21.27432,-39.87278 -0.80317,-21.001935 -25.75555,-35.28267 -44.75781,-27.748046 -54.73379,5.292381 -109.85792,4.32612 -164.65592,8.053781 -11.25542,3.832396 -12.34188,19.854965 -24.49921,22.357515 -3.48478,1.04532 -9.13568,2.21964 -11.18394,-1.49877 1.22645,-10.654226 -8.22091,-19.994986 -18.58324,-20.370268 -7.7184,-0.7311 -14.05544,4.381635 -21.11989,6.554353 -19.64278,8.488509 -39.25428,20.477425 -61.47275,19.129085 -28.58244,-0.23984 -54.05717,-15.41699 -77.06513,-30.879992 -6.34119,-3.936193 -17.11823,-4.966454 -20.73242,3.09375 -5.39181,10.652429 -0.23875,22.635782 4.58838,32.406792 7.55641,25.04548 11.92856,52.02629 5.88818,77.87836 -5.84352,9.24993 -19.12686,11.48651 -22.87109,22.38086 2.8924,17.21821 18.06171,28.81004 32.89062,35.92578 13.9352,10.0694 31.65662,16.59137 48.93135,12.89951 27.06717,-1.49278 54.11497,-10.0426 81.27178,-4.81747 7.80179,3.62493 10.30901,17.67466 1.07858,21.08345 -12.80365,4.18208 -24.98783,-5.2406 -37.89889,-3.69283 -20.16055,0.0113 -42.20068,10.94055 -48.91993,30.97266 -4.65025,17.15224 4.30145,34.28938 14.62072,47.47665 8.12043,11.28141 15.4408,25.43678 29.63514,29.82608 12.8727,3.21138 25.39342,-3.56925 35.43896,-10.96666 7.24556,-4.41521 17.00337,-9.46375 25.15284,-4.5724 5.33305,5.79538 1.4261,14.20814 -2.55715,19.53151 -9.40637,17.93092 -23.93167,35.81223 -44.87742,39.76853 -28.89549,6.53784 -58.16703,-3.03958 -84.90918,-13.46606 -7.63284,-3.38115 -17.67193,-7.68302 -24.90198,-1.09011 -7.00418,5.70806 -7.3365,15.64821 -5.33815,23.75567 1.23427,9.83419 3.66879,19.86109 1.61122,29.76022 5.50501,9.57529 15.56395,15.69709 20.32227,25.79102 7.799,10.04225 20.10249,16.3148 32.80664,16.61328 9.91139,2.33025 20.32411,11.3707 18.05304,22.48204 -2.56007,12.77431 -16.36066,19.61245 -28.45905,19.55211 -18.21682,3.43499 -35.79973,13.36539 -45.67602,29.38577 -3.20978,3.59772 0.0226,8.19531 3.11215,10.46651 14.4336,17.78821 29.56136,37.64106 52.46155,44.56591 8.22449,2.56273 16.71809,4.24946 24.78568,7.31329 20.04016,-9.96263 43.51564,-10.94858 65.23437,-7.13086 5.09063,0.76709 11.7197,4.88443 9.40625,10.90625 -2.95878,7.80419 -12.5845,7.9141 -19.17482,10.77061 -37.02176,12.24923 -75.90997,18.30569 -114.78969,20.13368 -11.59225,0.11559 -25.65248,-0.97551 -32.49817,-11.80772 -4.19514,-7.87094 -4.77308,-19.31475 -13.99459,-23.38926 -12.12216,-2.08197 -22.45634,6.51001 -32.55361,11.84799 -9.74223,6.12339 -21.97167,6.34314 -32.60308,2.55055 -15.77101,-5.49784 -29.26483,-16.03466 -45.32617,-20.89444 -8.76966,-3.41905 -18.29566,-5.45799 -26.98959,-8.48076 -4.48678,-7.29338 2.99455,-15.88291 10.33586,-16.99186 23.84736,-12.35304 52.06505,-9.735 77.24847,-3.39377 18.18672,3.32705 39.43432,-1.76583 50.5075,-17.51299 4.14892,-12.88882 -0.50032,-26.42711 0.81473,-39.56173 -2.11285,-14.7508 -16.48,-27.4901 -31.72211,-25.13163 -27.07032,-0.57563 -55.93061,1.64742 -80.65725,-11.53827 -16.6511,-8.85397 -31.71144,-20.29716 -47.71271,-30.21368 25.12698,-8.49624 51.85182,-1.14194 76.17874,6.53773 23.21856,7.50289 50.71287,7.03479 70.94064,-7.97039 9.42922,-5.80177 18.57941,-16.34836 15.64802,-28.20576 -2.69734,-15.7699 -7.54528,-31.1265 -12.71858,-46.21119 -6.28873,-12.25447 -22.45133,-20.28883 -35.37109,-13.3418 -15.51473,6.77647 -26.75098,22.69017 -44.60547,23.95618 -15.86288,3.00731 -31.45636,-2.8941 -46.20471,-7.90228 -20.46376,-2.83056 -41.62886,7.67716 -61.5009,-0.75317 -14.67002,-5.04418 -28.46413,-18.83711 -26.91158,-35.35347 2.03892,-16.0916 19.29737,-27.00372 34.82491,-24.3621 27.42338,-1.04487 54.00661,-11.00173 81.64834,-8.82951 19.69951,0.94885 39.38253,3.70193 59.13087,1.9904 24.42743,-1.46058 49.63579,-6.21178 70.41932,-19.7773 12.95911,-10.30448 20.86673,-27.6043 17.82227,-44.17383 -6.7848,-9.17332 -20.00243,-8.35802 -29.58594,-4.72461 -38.72038,7.83529 -78.50475,4.14384 -117.38281,-0.41797 11.92485,-18.0183 34.83996,-26.87576 42.82031,-47.80468 16.40807,-35.36048 22.74653,-74.17365 35.50586,-110.8125 -0.0377,-20.138762 -19.64621,-35.719471 -38.90629,-35.895612 -38.45844,-8.62067 -79.32592,-15.113833 -117.9568,-3.841033 -20.72289,6.398326 -41.9792,13.437577 -59.434023,26.631514 -3.737183,6.104781 -9.28898,13.892091 -17.549561,12.027631 -16.225711,-0.33392 -34.203671,-4.35883 -48.793952,4.99156 -7.649525,5.53934 -6.659521,17.65654 0.411821,23.26426 5.71906,5.56883 14.403613,6.00528 21.635054,3.73574 17.140997,-1.71471 36.494189,0.82367 48.8125,14.06445 11.233331,9.64233 26.970161,15.06405 41.556021,10.73422 31.7839,-4.07762 64.53099,-3.70745 95.56053,4.93089 6.25607,1.124 12.51214,2.248 18.76821,3.372 4.89341,12.10908 -2.98778,24.24993 -9.42704,34.04773 -9.275,14.646 -23.51166,27.02223 -40.76046,30.80383 -11.44793,-2.66178 -16.64598,-15.19405 -17.22402,-25.84959 -7.84331,-19.51858 -35.06947,-25.388 -51.74807,-13.77781 -31.7495,14.06123 -51.727498,52.84226 -40.949066,86.53693 4.892215,12.36021 8.853766,27.70092 0.476991,39.52036 -8.160169,13.92151 -14.775774,30.72277 -9.838766,46.92431 5.238644,29.47324 9.919053,59.0669 15.156723,88.52434 3.805048,13.0009 15.628568,21.55726 27.873718,25.93555 17.0182,6.99483 35.2615,11.7995 50.20824,22.99755 3.83477,2.49939 7.55414,5.17431 11.16339,7.98914 -16.65573,3.85772 -33.97661,2.24799 -50.73778,5.50956 -20.11166,2.77136 -41.644624,8.21318 -55.928656,23.61176 -10.634291,14.30571 -5.321021,38.20538 11.816782,44.81777 14.703284,7.86499 31.926384,4.67304 47.557734,2.17416 13.78123,-1.01046 27.60445,-1.7602 41.42669,-1.37887 -9.60728,15.89075 -17.78263,34.53353 -35.00781,43.64258 -15.97252,4.39106 -34.25057,-0.796 -48.714846,8.95898 -16.003967,16.13678 -5.180572,47.87016 17.088536,51.46993 23.60861,6.30387 48.35711,5.05583 72.27364,9.53844 74.22543,7.91593 148.96751,4.127 223.39173,2.29437 18.37659,0.72739 35.49978,8.13352 53.14063,12.38476 13.87731,2.10726 27.51632,-2.64323 39.97664,-8.24197 14.15071,-4.75265 30.19704,-3.70529 43.2435,3.70734 13.45128,5.32504 28.90116,6.19551 42.39344,0.5754 28.15567,-6.61039 57.27053,-3.05853 85.57671,0.40719 40.5155,1.94969 81.22762,-2.88358 120.62265,-12.18545 7.92613,-3.11826 11.20929,-12.46077 9.32505,-20.35382 -2.07246,-13.48164 -10.45757,-24.77405 -17.18096,-36.26611 -8.04711,-11.24854 -22.67353,-20.09157 -36.71005,-15.13098 -18.47524,5.51457 -31.87718,21.38963 -50.80363,25.92786 -26.53367,8.94103 -54.51359,12.41932 -82.20399,15.55194 -24.28776,0.2138 -50.60697,-8.73786 -64.66118,-29.5902 -8.52763,-15.45335 -0.39529,-36.43 15.28567,-43.69384 8.9428,-6.26979 19.80336,-14.48965 19.28288,-26.64803 -1.83471,-10.76339 -14.9741,-14.63221 -24.29178,-11.70134 -30.5026,2.65561 -62.13062,-9.26252 -82.53464,-32.22908 -5.47834,-6.64747 -10.69636,-14.2846 -12.31641,-22.8086 0.98398,-11.3092 14.0761,-17.86837 24.3609,-15.10902 32.21733,-0.69631 63.04473,14.82832 95.41059,10.23402 11.77457,-5.50829 12.27602,-22.97818 3.75976,-31.58007 -16.5717,-27.71987 -34.43992,-56.72496 -36.59961,-89.80078 -0.36313,-16.08271 15.83597,-29.6072 31.5624,-27.30653 21.57227,-1.78158 45.27031,-3.30692 62.52507,-17.99408 14.90027,-13.0152 22.39319,-33.86932 19.37738,-53.40057 -10.71526,-7.12219 -24.2051,-6.33446 -36.48047,-7.47656 -27.95522,-0.14909 -56.30979,8.64765 -83.94721,1.1962 -12.65382,-5.94376 -14.93388,-23.40878 -8.36209,-34.68191 5.672,-11.64588 13.32563,-23.3926 12.21354,-36.93933 -0.0106,-8.70095 -1.3694,-18.93281 -8.40951,-24.77191 -13.95906,-6.41796 -29.47183,-0.51624 -44.07826,-2.86773 -30.76497,-1.07227 -61.18633,-6.96207 -90.74655,-15.34743 -5.31309,-7.61966 5.65682,-18.15453 13.26953,-13.37305 46.05863,1.73211 93.30237,3.61697 137.93164,-9.98828 9.65908,-5.74309 22.67576,-11.25242 33.21108,-4.44404 19.48399,12.59932 43.75996,11.52145 65.94022,9.98086 24.18805,-0.87773 49.4977,-3.77164 72.66704,4.8047 10.42437,8.77707 9.59521,24.22513 6.39342,36.19583 -3.73558,11.97841 -16.34009,19.10415 -28.36993,19.50921 -17.11717,6.20538 -28.61549,28.3157 -19.36331,45.09993 3.5981,5.51351 13.91207,4.03345 14.86914,11.78711 0.12868,11.37155 -15.46677,14.98151 -14.98242,26.47265 3.33687,14.10776 10.61717,26.89066 14.2418,40.9221 6.87114,20.30663 13.96318,40.56225 22.37148,60.29275 -1.07503,6.55039 -9.75941,6.1851 -14.28125,3.67382 -25.45845,-7.52185 -54.73629,-1.02813 -74.68946,16.45704 -5.20873,4.95451 -11.0989,11.01384 -9.80468,18.87304 1.12094,12.35212 9.63528,23.6729 6.52767,36.43977 -1.11897,9.64893 -3.34663,21.5407 4.3649,29.15203 8.59116,6.74354 22.53237,1.9347 29.26563,11.73047 5.8445,7.7978 8.6563,17.60786 15.61133,24.61523 -15.49136,10.20104 -36.40481,4.7778 -51.48845,15.98256 -5.7146,4.01785 -7.79008,11.93062 -4.27622,18.08242 5.17276,12.27114 16.51391,21.20538 19.51595,34.5376 4.83586,13.06736 9.21697,28.85001 22.8659,35.32711 12.40933,4.31152 24.76252,-3.57894 33.65072,-11.61823 17.08166,-13.60203 39.35449,-23.70612 61.56033,-18.93583 24.4155,4.54737 43.47546,23.46432 54.86705,44.69757 10.01207,17.42844 15.50697,37.35292 27.51246,53.62101 9.11929,11.0674 23.82215,16.94421 38.05883,15.19621 20.28189,-0.69519 40.73789,-5.10349 60.91954,-0.87661 23.63644,2.29161 48.58691,7.17534 71.48115,-1.57805 17.2892,-11.83216 14.9531,-43.28037 -5.2432,-50.75271 -5.4531,-1.93472 -11.6233,-1.70901 -16.94164,0.55719 -1.98824,-8.80539 6.95044,-14.11887 11.72424,-20.01657 15.384,-14.83761 29.8922,-33.03513 31.9063,-55.10355 5.4386,-31.96719 1.4777,-64.58854 5.4313,-96.69264 1.7531,-34.29485 -1.2702,-68.63668 -5.7251,-102.60033 0.6365,-25.47052 1.3277,-52.94923 -12.4559,-75.47754 -12.4518,-17.51876 -35.31413,-23.47633 -55.82852,-22.67585 -9.00648,-0.50937 -20.52081,2.52243 -27.18062,-5.19842 -5.30522,-9.38445 3.21015,-22.91105 14.13684,-21.39952 20.64182,-2.37375 42.5288,5.18036 62.1926,-4.02308 11.7516,-5.62602 14.2784,-20.72036 11.6228,-32.31372 -2.0629,-13.38273 -2.7505,-28.15592 -11.2299,-39.33238 -4.3276,-5.67236 -12.5548,-7.49015 -18.7073,-3.72109 -15.06601,4.71625 -31.02141,5.74952 -46.69887,6.36716 -16.80602,-0.21534 -34.65616,-3.60915 -48.10193,-14.17966 -7.84516,-12.21516 4.80474,-29.49958 18.64169,-27.94439 20.40686,-0.44765 39.35051,9.83452 59.6593,9.79839 10.76573,-1.42209 18.73741,-9.77295 24.16651,-18.57609 6.2984,-8.58504 15.4449,-15.77789 26.388,-16.64314 18.7861,-4.18873 38.1624,-4.1775 57.1054,-7.33594 6.4367,-7.29994 4.1228,-17.92801 3.334,-26.617189 -4.1543,-6.033748 -12.5565,-4.540533 -18.8669,-5.502343 -14.717,-0.275319 -30.8064,2.172263 -43.9011,-6.215665 -21.4518,-9.068768 -46.5983,-11.301062 -68.36107,-1.987409 -21.55494,6.299173 -45.88617,8.199433 -66.50699,-2.237683 -14.07771,-5.634161 -28.31317,-12.681039 -43.8522,-12.383072 z"
       transform="matrix(0.26458333,0,0,0.26458333,0,87)"
       id="rect5106"
       inkscape:connector-curvature="0"
       sodipodi:nodetypes="cccccccccccccccccccccccccccccccccccccccccccccccccccccccccccccccccccccccccccccccccccccccccccccccccccccccccccccccccccccccccccccccccccccccccccccccccccccccccccccccccccccccccccccccccccccccccccccccccccccccccccccccccccccccccccccccccccccccccccccccccccccccccccccccccccccccccccccccccccccccccccccccccccccccccccccccccccccccccccccccccccccccccccccccccccccccccccccccccccccccccccccccccccccccccccccccccccccccccccccccccccccccccccccccccccccccccccccccccccccccccccccccccccccccccccccccccccccccccccccccccccccccccccc" />
  </g>
  <g
     inkscape:groupmode="layer"
     id="layer3"
     inkscape:label="l2+l3"
     style="display:inline">
    <circle
       transform="translate(0,-87.000001)"
       style="fill:none;fill-opacity:1;stroke:#000000;stroke-width:0.30000001;stroke-miterlimit:4;stroke-dasharray:none;stroke-dashoffset:0;stroke-opacity:1"
       id="path5287"
       cx="164.60863"
       cy="142.78572"
       r="11.90625" />
  </g>
  <g
     inkscape:groupmode="layer"
     id="layer2"
     inkscape:label="l1+l2+l3"
     style="display:inline">
    <ellipse
       transform="translate(0,-87.000001)"
       style="display:inline;fill:none;fill-opacity:1;stroke:#000000;stroke-width:0.30000001;stroke-miterlimit:4;stroke-dasharray:none;stroke-dashoffset:0;stroke-opacity:1"
       id="path5303-0"
       cx="13.096207"
       cy="187.41949"
       rx="2.8500001"
       ry="2.8499999" />
    <ellipse
       transform="translate(0,-87.000001)"
       style="display:inline;fill:none;fill-opacity:1;stroke:#000000;stroke-width:0.30000001;stroke-miterlimit:4;stroke-dasharray:none;stroke-dashoffset:0;stroke-opacity:1"
       id="path5303-01"
       cx="165.03894"
       cy="187.28586"
       rx="2.8500001"
       ry="2.8499999" />
    <ellipse
       transform="translate(0,-87.000001)"
       style="display:inline;fill:none;fill-opacity:1;stroke:#000000;stroke-width:0.30000001;stroke-miterlimit:4;stroke-dasharray:none;stroke-dashoffset:0;stroke-opacity:1"
       id="path5303-6"
       cx="283.43933"
       cy="187.55313"
       rx="2.8500001"
       ry="2.8499999" />
    <ellipse
       transform="translate(0,-87.000001)"
       style="display:inline;fill:none;fill-opacity:1;stroke:#000000;stroke-width:0.30000001;stroke-miterlimit:4;stroke-dasharray:none;stroke-dashoffset:0;stroke-opacity:1"
       id="path5303-43"
       cx="236.23512"
       cy="187.3869"
       rx="2.8500001"
       ry="2.8499999" />
    <ellipse
       transform="translate(0,-87.000001)"
       style="display:inline;fill:none;fill-opacity:1;stroke:#000000;stroke-width:0.30000001;stroke-miterlimit:4;stroke-dasharray:none;stroke-dashoffset:0;stroke-opacity:1"
       id="path5303-2"
       cx="92.226189"
       cy="187.76488"
       rx="2.8500001"
       ry="2.8499999" />
    <ellipse
       transform="translate(0,-87.000001)"
       style="display:inline;fill:none;fill-opacity:1;stroke:#000000;stroke-width:0.30000001;stroke-miterlimit:4;stroke-dasharray:none;stroke-dashoffset:0;stroke-opacity:1"
       id="path5303-04"
       cx="13.229841"
       cy="281.89926"
       rx="2.8500001"
       ry="2.8499999" />
    <ellipse
       transform="translate(0,-87.000001)"
       style="display:inline;fill:none;fill-opacity:1;stroke:#000000;stroke-width:0.30000001;stroke-miterlimit:4;stroke-dasharray:none;stroke-dashoffset:0;stroke-opacity:1"
       id="path5303-9"
       cx="283.30569"
       cy="281.76562"
       rx="2.8500001"
       ry="2.8499999" />
    <ellipse
       transform="translate(0,-87.000001)"
       style="display:inline;fill:none;fill-opacity:1;stroke:#000000;stroke-width:0.30000001;stroke-miterlimit:4;stroke-dasharray:none;stroke-dashoffset:0;stroke-opacity:1"
       id="path5303-4"
       cx="165.17256"
       cy="281.76562"
       rx="2.8500001"
       ry="2.8499999" />
    <ellipse
       transform="translate(0,-87.000001)"
       style="display:inline;fill:none;fill-opacity:1;stroke:#000000;stroke-width:0.30000001;stroke-miterlimit:4;stroke-dasharray:none;stroke-dashoffset:0;stroke-opacity:1"
       id="path5303-8"
       cx="283.43933"
       cy="100.69053"
       rx="2.8500001"
       ry="2.8499999" />
    <ellipse
       transform="translate(0,-87.000001)"
       style="display:inline;fill:none;fill-opacity:1;stroke:#000000;stroke-width:0.30000001;stroke-miterlimit:4;stroke-dasharray:none;stroke-dashoffset:0;stroke-opacity:1"
       id="path5303-45"
       cx="164.9053"
       cy="100.5569"
       rx="2.8500001"
       ry="2.8499999" />
    <ellipse
       transform="translate(0,-87.000001)"
       style="display:inline;fill:none;fill-opacity:1;stroke:#000000;stroke-width:0.30000001;stroke-miterlimit:4;stroke-dasharray:none;stroke-dashoffset:0;stroke-opacity:1"
       id="path5303"
       cx="13.173648"
       cy="100.7157"
       rx="2.8500001"
       ry="2.8499999" />
    <rect
       transform="translate(0,-87.000001)"
       style="display:inline;fill:none;fill-opacity:1;stroke:#000000;stroke-width:0.30000001;stroke-miterlimit:4;stroke-dasharray:none;stroke-dashoffset:0;stroke-opacity:1"
       id="rect5104"
       width="283.06427"
       height="196.64069"
       x="7.3826156"
       y="93.422783"
       ry="6.4255953"
       rx="6.4255953" />
  </g>
</svg>
