<?xml version="1.0" encoding="UTF-8" standalone="no"?>
<!-- Created with Inkscape (http://www.inkscape.org/) -->

<svg
   xmlns:dc="http://purl.org/dc/elements/1.1/"
   xmlns:cc="http://creativecommons.org/ns#"
   xmlns:rdf="http://www.w3.org/1999/02/22-rdf-syntax-ns#"
   xmlns:svg="http://www.w3.org/2000/svg"
   xmlns="http://www.w3.org/2000/svg"
   xmlns:xlink="http://www.w3.org/1999/xlink"
   xmlns:sodipodi="http://sodipodi.sourceforge.net/DTD/sodipodi-0.dtd"
   xmlns:inkscape="http://www.inkscape.org/namespaces/inkscape"
   width="210mm"
   height="297mm"
   viewBox="0 0 210 297"
   version="1.1"
   id="svg8"
   inkscape:version="0.92.2 (5c3e80d, 2017-08-06)"
   sodipodi:docname="ytong.svg">
  <defs
     id="defs2" />
  <sodipodi:namedview
     id="base"
     pagecolor="#ffffff"
     bordercolor="#666666"
     borderopacity="1.0"
     inkscape:pageopacity="0.0"
     inkscape:pageshadow="2"
     inkscape:zoom="1"
     inkscape:cx="-80.824658"
     inkscape:cy="857.38219"
     inkscape:document-units="mm"
     inkscape:current-layer="layer1"
     showgrid="false"
     inkscape:measure-start="116.673,1015.05"
     inkscape:measure-end="131.522,1024.6"
     inkscape:window-width="1920"
     inkscape:window-height="1017"
     inkscape:window-x="-8"
     inkscape:window-y="-8"
     inkscape:window-maximized="1" />
  <metadata
     id="metadata5">
    <rdf:RDF>
      <cc:Work
         rdf:about="">
        <dc:format>image/svg+xml</dc:format>
        <dc:type
           rdf:resource="http://purl.org/dc/dcmitype/StillImage" />
        <dc:title></dc:title>
      </cc:Work>
    </rdf:RDF>
  </metadata>
  <g
     inkscape:label="Layer 1"
     inkscape:groupmode="layer"
     id="layer1">
    <rect
       style="opacity:1;fill:none;fill-opacity:0.10455765;stroke:#000000;stroke-width:0.16013399;stroke-miterlimit:10;stroke-dasharray:none;stroke-opacity:1"
       id="rect815"
       width="99.839867"
       height="99.839867"
       x="9.284317"
       y="10.253995" />
    <path
       style="opacity:1;fill:none;fill-opacity:0.10455765;stroke:#000000;stroke-width:0.16;stroke-miterlimit:10;stroke-dasharray:none;stroke-opacity:1"
       d="m 38.16496,17.123502 a 4.9231616,4.9231618 0 0 0 -4.923213,4.923213 4.9231616,4.9231618 0 0 0 4.923213,4.923213 4.9231616,4.9231618 0 0 0 0.08682,-0.0031 h 41.930254 a 4.9231616,4.9231623 0 0 0 0.0615,0.0031 4.9231616,4.9231623 0 0 0 4.92322,-4.923213 4.9231616,4.9231623 0 0 0 -4.92322,-4.923213 4.9231616,4.9231623 0 0 0 -0.0434,0.0016 H 38.196485 a 4.9231616,4.9231618 0 0 0 -0.03152,-0.0016 z"
       id="path4508"
       inkscape:connector-curvature="0" />
    <rect
       style="opacity:1;fill:none;fill-opacity:0.10455765;stroke:#000000;stroke-width:0.138;stroke-miterlimit:10;stroke-dasharray:none;stroke-opacity:0.26130652"
       id="rect815-5"
       width="85.862289"
       height="85.862282"
       x="16.273106"
       y="17.242786" />
    <g
       id="g4880"
       transform="translate(-50.866479,-112.85809)"
       inkscape:label="g4880">
      <ellipse
         cy="181.74712"
         cx="110.10795"
         id="path4531-2-7"
         style="opacity:1;fill:none;fill-opacity:0.10455765;stroke:#000000;stroke-width:0.18218978;stroke-miterlimit:10;stroke-dasharray:none;stroke-opacity:1"
         rx="8.408906"
         ry="8.408905" />
      <path
         inkscape:connector-curvature="0"
         id="path4813"
         d="m 109.03267,181.73057 c 0.1323,0 2.14974,0.0331 2.14974,0.0331"
         style="fill:none;fill-rule:evenodd;stroke:#000000;stroke-width:0.1;stroke-linecap:butt;stroke-linejoin:miter;stroke-miterlimit:4;stroke-dasharray:none;stroke-opacity:0.19607843" />
      <path
         inkscape:connector-curvature="0"
         id="path4813-7"
         d="m 110.12449,180.67184 c 0,0.1323 -0.0331,2.14974 -0.0331,2.14974"
         style="fill:none;fill-rule:evenodd;stroke:#000000;stroke-width:0.1;stroke-linecap:butt;stroke-linejoin:miter;stroke-miterlimit:4;stroke-dasharray:none;stroke-opacity:0.19607843" />
    </g>
    <g
       id="g4875"
       transform="translate(12.038543,-93.6625)">
      <circle
         cy="177.7122"
         cx="78.87664"
         id="path817-7-2-2"
         style="opacity:1;fill:none;fill-opacity:0.10455765;stroke:#000000;stroke-width:0.17684449;stroke-miterlimit:10;stroke-dasharray:none;stroke-opacity:1"
         r="10.911578" />
      <path
         inkscape:connector-curvature="0"
         id="path4813-73"
         d="m 77.80136,177.69566 c 0.1323,0 2.14974,0.0331 2.14974,0.0331"
         style="fill:none;fill-rule:evenodd;stroke:#000000;stroke-width:0.1;stroke-linecap:butt;stroke-linejoin:miter;stroke-miterlimit:4;stroke-dasharray:none;stroke-opacity:0.19607843" />
      <path
         inkscape:connector-curvature="0"
         id="path4813-7-0"
         d="m 78.893187,176.63692 c 0,0.1323 -0.0331,2.14974 -0.0331,2.14974"
         style="fill:none;fill-rule:evenodd;stroke:#000000;stroke-width:0.1;stroke-linecap:butt;stroke-linejoin:miter;stroke-miterlimit:4;stroke-dasharray:none;stroke-opacity:0.19607843" />
    </g>
    <use
       x="0"
       y="0"
       xlink:href="#g4880"
       id="use4882"
       width="100%"
       height="100%"
       transform="translate(25.507077,24.830194)" />
    <use
       x="0"
       y="0"
       xlink:href="#g4880"
       id="use4884"
       width="100%"
       height="100%"
       transform="translate(33.091955,3.900339)" />
    <use
       x="0"
       y="0"
       xlink:href="#g4880"
       id="use4886"
       width="100%"
       height="100%"
       transform="translate(23.720097,-15.197379)" />
    <use
       x="0"
       y="0"
       xlink:href="#g4880"
       id="use4888"
       width="100%"
       height="100%"
       transform="translate(21.246443,12.029294)" />
    <use
       x="0"
       y="0"
       xlink:href="#g4880"
       id="use4890"
       width="100%"
       height="100%"
       transform="translate(-34.69307,19.466068)" />
    <use
       x="0"
       y="0"
       xlink:href="#use4890"
       id="use4892"
       width="100%"
       height="100%"
       transform="translate(11.667591,4.8643053)" />
    <use
       x="0"
       y="0"
       xlink:href="#use4892"
       id="use4894"
       width="100%"
       height="100%"
       transform="translate(44.368219,-53.416566)" />
    <use
       x="0"
       y="0"
       xlink:href="#use4894"
       id="use4896"
       width="100%"
       height="100%"
       transform="translate(12.731432,-6.0173235)" />
    <use
       x="0"
       y="0"
       xlink:href="#g4880"
       id="use4898"
       width="100%"
       height="100%"
       transform="translate(-16.276989,-29.118293)" />
    <use
       x="0"
       y="0"
       xlink:href="#use4898"
       id="use4900"
       width="100%"
       height="100%"
       transform="translate(-12.359534,14.160047)" />
    <use
       x="0"
       y="0"
       xlink:href="#use4900"
       id="use4902"
       width="100%"
       height="100%"
       transform="translate(-4.3727457,19.457221)" />
    <use
       x="0"
       y="0"
       xlink:href="#g4880"
       id="use4904"
       width="100%"
       height="100%"
       transform="translate(-34.53808,-34.474161)" />
    <use
       x="0"
       y="0"
       xlink:href="#use4904"
       id="use4906"
       width="100%"
       height="100%"
       transform="translate(37.075656,11.909477)" />
    <use
       x="0"
       y="0"
       xlink:href="#g4875"
       id="use4986"
       width="100%"
       height="100%"
       transform="translate(0.13229163,-36.380208)" />
    <use
       x="0"
       y="0"
       xlink:href="#use4986"
       id="use4988"
       width="100%"
       height="100%"
       transform="translate(-29.897916,9.6572913)" />
    <use
       x="0"
       y="0"
       xlink:href="#use4988"
       id="use4990"
       width="100%"
       height="100%"
       transform="translate(-28.310417,-13.758333)" />
    <use
       x="0"
       y="0"
       xlink:href="#use4990"
       id="use4992"
       width="100%"
       height="100%"
       transform="translate(2.9104167,36.380208)" />
    <rect
       style="opacity:1;fill:none;fill-opacity:1;stroke:#000000;stroke-width:0.122259;stroke-miterlimit:4;stroke-dasharray:none;stroke-opacity:1"
       id="rect4996"
       width="99.877739"
       height="49.877743"
       x="11.003622"
       y="-176.72345"
       transform="rotate(90)" />
    <rect
       style="opacity:1;fill:none;fill-opacity:0.10455765;stroke:#000000;stroke-width:0.08927156;stroke-miterlimit:10;stroke-dasharray:none;stroke-opacity:0.26130652"
       id="rect815-5-2"
       width="35.910728"
       height="85.911011"
       x="133.82921"
       y="17.986986" />
    <path
       style="opacity:1;fill:none;fill-opacity:1;stroke:#000000;stroke-width:0.16;stroke-miterlimit:4;stroke-dasharray:none;stroke-opacity:1"
       d="m 144.23336,18.086234 c -2.67315,0.03188 -4.82366,2.207494 -4.82451,4.880839 0.001,2.672943 2.15176,4.847929 4.82451,4.879806 5.13563,0.05831 10.4098,0.03754 15.04456,0.01137 2.69659,-1.95e-4 4.88248,-2.186315 4.88239,-4.882906 9e-5,-2.69659 -2.1858,-4.882711 -4.88239,-4.882906 -5.13661,-0.0869 -10.48828,-0.05719 -15.04456,-0.0062 z"
       id="path5013"
       inkscape:connector-curvature="0"
       sodipodi:nodetypes="ccccccc" />
    <use
       x="0"
       y="0"
       xlink:href="#g4875"
       id="use5037"
       width="100%"
       height="100%"
       transform="translate(62.441668,8.5989588)" />
    <use
       x="0"
       y="0"
       xlink:href="#g4875"
       id="use5039"
       width="100%"
       height="100%"
       transform="translate(61.780207,-36.777083)" />
    <use
       x="0"
       y="0"
       xlink:href="#g4880"
       id="use5041"
       width="100%"
       height="100%"
       transform="translate(101.86459,-12.964582)" />
    <use
       x="0"
       y="0"
       xlink:href="#g4880"
       id="use5043"
       width="100%"
       height="100%"
       transform="translate(85.328122,15.081249)" />
    <use
       x="0"
       y="0"
       xlink:href="#use5043"
       id="use5045"
       width="100%"
       height="100%"
       transform="translate(16.801044,-5.1593737)" />
    <use
       x="0"
       y="0"
       xlink:href="#use5045"
       id="use5047"
       width="100%"
       height="100%"
       transform="translate(-10.847919,-3.8364585)" />
    <use
       x="0"
       y="0"
       xlink:href="#use5047"
       id="use5049"
       width="100%"
       height="100%"
       transform="translate(-8.2020836,-30.559377)" />
    <use
       x="0"
       y="0"
       xlink:href="#use5049"
       id="use5051"
       width="100%"
       height="100%"
       transform="translate(18.917712,-5.1593744)" />
    <use
       x="0"
       y="0"
       xlink:href="#g4880"
       id="use5053"
       width="100%"
       height="100%"
       transform="translate(-0.03721897,25.135419)" />
  </g>
</svg>
